M48
;Layer_Color=9474304
;FILE_FORMAT=2:5
INCH
;TYPE=PLATED
T01F00S00C0.01181
T02F00S00C0.07874
T03F00S00C0.10630
%
T01
X0484252Y0204725
X0480315Y0212598
X0476378Y0220473
X0484252
X0480315Y0228347
X0472441
X0476378Y0236221
X0484252
X0480315Y0244095
X0484252Y0251969
X0480315Y0259843
X0484252Y0267717
X0480315Y0275591
X0476378Y0283465
X0484252
X0480315Y0291339
X0472441
X0476378Y0299213
X0484252
X0480315Y0307087
X0468461Y0308661
X0468405Y0311811
X0465902Y0310236
X0462009Y0306467
X0458859Y0306411
X0455709Y0306355
X0452559Y0306299
X0454134Y0303796
X0450984Y0303740
X0457284Y0303852
X0460423Y0304023
X0463573Y0304079
X0468504Y0299213
X0464567Y0291339
X0456693
X0448819
X0440945
X0444390Y0284449
X0436516
X0428642
X0420768
X0412894
X0405020
X0397146
X0389272
X0381398
X0373524
X0365650
X0363878Y0299016
X0371752
X0367815Y0302953
X0371752Y0306890
X0363878
X0359313Y0311942
X0379626Y0306890
X0387500
X0383563Y0302953
X0391437
X0387500Y0299016
X0395374
Y0306890
X0403248
X0411122
X0418996
X0422933Y0302953
X0415059
X0411122Y0299016
X0418996
X0426870
X0430807Y0302953
X0426870Y0306890
X0437008Y0299213
X0444882
X0446234Y0308672
X0446178Y0311822
X0448622Y0310236
X0452264Y0284449
X0460138
X0468012
X0461122Y0231299
X0460336Y0226883
X0463486Y0226939
X0461910Y0224380
X0458760Y0224324
X0455611Y0224268
X0452461Y0224213
X0450896Y0226601
X0454046Y0226656
X0457186Y0226827
X0453248Y0231299
X0445374
X0437500
X0429626
X0421752
X0413878
X0406004
X0398130
X0390256
X0382382
X0374508
X0366634
X0358760
X0356791Y0239173
X0348917Y0233268
X0341043
X0344980Y0237205
X0337106
X0332677Y0236811
X0337106Y0229331
X0344980
X0348917Y0216732
X0356791
X0352854Y0212795
Y0204921
X0356791Y0208858
X0360728Y0204921
Y0212795
X0364665Y0216732
X0368602Y0212795
Y0204921
X0364665Y0208858
Y0200984
X0356791
X0348917
Y0208858
X0342520Y0204725
X0338583Y0196851
X0330709
X0322835
X0314961
X0318898Y0188977
X0326772
X0334646
X0342520
X0350394
X0358268
X0366142
X0374016
X0381890
X0389764
X0397638
X0405512
X0413386
X0421260
X0429134
X0437008
X0444882
X0452756
X0448819Y0181103
X0440945
X0433071
X0425197
X0417323
X0409449
X0401575
X0393701
X0385827
X0377953
X0370079
X0362205
X0354331
X0346457
X0338583
X0330709
X0322835
X0314961
X0313484Y0207677
X0316437Y0210630
X0322835Y0212598
X0314272Y0224114
X0313779Y0229331
X0313090Y0234941
X0315453Y0244685
X0318481Y0256933
X0372539Y0216732
X0380413
X0376476Y0212795
Y0204921
X0380413Y0208858
X0384350Y0204921
Y0212795
X0388287Y0216732
X0392224Y0212795
Y0204921
X0388287Y0208858
Y0200984
X0380413
X0372539
Y0208858
X0396161
X0400098Y0204921
X0404035Y0208858
X0407972Y0204921
Y0212795
X0400098
X0404035Y0216732
X0396161
Y0200984
X0404035
X0411909
X0419783
X0415846Y0204921
X0419783Y0208858
X0423721Y0204921
X0427658Y0208858
X0431595Y0204921
Y0212795
X0423721
X0415846
X0419783Y0216732
X0411909
Y0208858
X0427658Y0200984
X0435532
Y0208858
X0439468Y0204921
Y0212795
X0446290Y0212412
X0446346Y0209262
X0448734Y0210826
X0448678Y0213976
X0448622Y0217126
X0448566Y0220276
X0446063Y0218701
X0446119Y0215551
X0446007Y0221851
X0435532Y0216732
X0427658
X0440945Y0196851
X0448819
X0456693
X0457185Y0204429
X0454035Y0204373
X0450885Y0204317
X0452460Y0206877
X0455610Y0206932
X0458760Y0206988
X0461910Y0207044
X0463474Y0204656
X0460324Y0204600
X0466001Y0210826
X0465945Y0213976
X0465889Y0217126
X0465833Y0220276
X0468221Y0221841
X0468277Y0218691
X0468448Y0215551
X0468504Y0212401
X0468560Y0209251
X0456693Y0181103
X0403248Y0299016
X0407185Y0302953
X0399311
X0379626Y0299016
X0375689Y0302953
X0299213Y0275591
X0291339
X0283465
X0275591
X0267717
X0271654Y0267717
X0279528
X0287402
X0295276
X0303150
X0306568Y0259796
X0312106Y0259646
X0306974Y0242401
X0305020Y0233563
X0299705Y0236221
X0296752Y0244094
X0291229Y0229724
X0289154Y0226466
X0293327Y0226487
X0291251Y0223228
X0292815Y0212598
X0294193Y0209547
X0283957Y0210630
X0281791Y0203248
X0275492Y0199409
X0269193Y0199705
X0259843Y0196851
X0255906Y0188977
X0263780
X0271654
X0279528
X0287402
X0295276
X0303150
X0311024
X0307087Y0181103
X0299213
X0291339
X0283465
X0275591
X0267717
X0259843
X0251969
X0248032Y0204725
X0255906
X0251969Y0212598
X0244095
X0236221
X0228347
X0232284Y0204725
Y0220473
X0240158
X0248032
X0244095Y0228347
X0236221
X0228347
X0232284Y0236221
X0240158
X0236221Y0244095
X0228347
X0232284Y0251969
X0240158
X0248032
X0244095Y0244095
Y0259843
X0236221
X0228347
X0232284Y0267717
X0240158
X0248032
X0244095Y0275591
X0236221
X0228347
X0232284Y0283465
X0240158
X0248032
X0244095Y0291339
X0236221
X0228347
X0232284Y0299213
X0240158
X0248032
X0244095Y0307087
X0236221
X0228347
X0267717Y0259843
X0275591
X0271654Y0251969
X0272736Y0242126
X0278051Y0231299
X0281791Y0227953
X0277264Y0219980
X0261319Y0228346
X0302658Y0226378
X0310531Y0210630
X0287697Y0257874
X0248032Y0314961
X0240158
X0232284
X0228347Y0322835
X0236221
X0244095
X0240158Y0330709
X0232284
X0228347Y0338583
X0236221
X0244095
X0240158Y0346457
X0232284
X0228347Y0354331
X0236221
X0244095
X0240158Y0362205
X0232284
X0228347Y0370079
X0236221
X0244095
X0251969
X0248032Y0362205
Y0346457
Y0330709
Y0377953
X0240158
X0232284
X0228347Y0385827
X0236221
X0244095
X0251969
X0259843
X0255906Y0377953
Y0393701
X0248032
X0240158
X0232284
X0228347Y0401575
X0251969
X0259843
X0267717
X0275591
X0280020Y0394685
X0287894
X0295768
X0303642
X0311516
Y0411221
Y0419095
X0303642
X0295768
X0287894
X0280020
X0283957Y0415158
X0291831
X0299705
X0307579
X0303642Y0411221
X0295768
X0287894
X0280020
X0271654Y0409449
X0263780
X0255906
X0259843Y0417323
X0267717
X0263780Y0393701
X0319390Y0394685
X0327264
X0335138
X0343012
X0350886
X0358760
X0366634
X0374508
X0382382
X0390256
X0398130
X0394193Y0398622
X0402067
X0409449Y0401575
X0417323
X0425197
X0433071
X0440945
X0448819
X0456693
X0464567
X0452756Y0409449
X0444882
X0437008
X0429134
X0421260
X0413386
X0405512
X0402067Y0415158
X0394193
X0398130Y0419095
X0390256
Y0411221
X0398130
X0382382
X0374508
X0366634
X0358760
X0362697Y0415158
X0370571
X0378445
X0386319
X0382382Y0419095
X0374508
X0366634
X0358760
X0350886
X0343012
X0335138
X0327264
X0319390
X0323327Y0415158
X0331201
X0339075
X0346949
X0354823
X0350886Y0411221
X0343012
X0335138
X0327264
X0319390
X0315453Y0415158
X0378445Y0398622
X0386319
X0409449Y0417323
X0417323
X0425197
X0433071
X0440945
X0448819
X0456693
X0453248Y0345472
X0447342
X0439468
X0431595
X0423721
X0415846
X0407972
X0400098
X0392224
X0384350
X0376476
X0368602
X0360728
X0352854
X0344980
X0337106
X0329232
X0322835Y0338583
X0346555Y0331102
X0354429
X0362303
X0358366Y0327165
X0366240
X0362303Y0323228
X0354429
X0370177
X0374114Y0327165
X0370177Y0331102
X0378051
X0381988Y0327165
X0378051Y0323228
X0385925
X0393799
X0389862Y0327165
X0393799Y0331102
X0385925
X0397736Y0327165
X0405610
X0401673Y0323228
X0409547
X0413484Y0327165
X0421358
X0417421Y0331102
X0417323Y0338583
X0409449
X0409547Y0331102
X0401673
X0405512Y0314961
X0397638
X0389764
X0381890
X0374016
X0366142
X0413386
X0421260
X0429134
X0437008
X0446007Y0314961
X0445951Y0318111
X0445896Y0321261
X0448455Y0319686
X0448511Y0316536
X0448566Y0313386
X0452460Y0323553
X0455610Y0323609
X0458759Y0323665
X0461909Y0323721
X0460335Y0326224
X0457185Y0326168
X0454045Y0325997
X0450895Y0325941
X0444882Y0330709
X0440945Y0338583
X0433071
X0433169Y0331102
X0429232Y0327165
X0433169Y0323228
X0425295
X0417421
X0425295Y0331102
X0425197Y0338583
X0448819
X0456693
X0464567
X0461122Y0345472
X0463485Y0326279
X0465735Y0319686
X0465791Y0316536
X0465846Y0313386
X0468350Y0314961
X0468179Y0318100
X0468123Y0321250
X0468504Y0330709
X0402067Y0372047
X0480315Y0370079
X0484252Y0362205
X0480315Y0354331
X0476378Y0346457
X0484252
X0480315Y0338583
X0472441
X0468996Y0345472
X0476378Y0330709
X0484252
X0480315Y0322835
X0476378Y0314961
X0484252
Y0377953
X0480315Y0385827
X0476378Y0393701
X0484252
T02
X0457185Y0215551
Y0257874
Y0314961
Y0370768
T03
X0474902Y0189961
X0238681
Y0414370
X0474902
M30
