G04*
G04 #@! TF.GenerationSoftware,Altium Limited,Altium Designer,26.1.1 (7)*
G04*
G04 Layer_Color=32768*
%FSLAX25Y25*%
%MOIN*%
G70*
G04*
G04 #@! TF.SameCoordinates,5867FEAB-4AF7-4C39-AA23-D09B853D4626*
G04*
G04*
G04 #@! TF.FilePolarity,Positive*
G04*
G01*
G75*
%ADD11C,0.00394*%
%ADD59C,0.00197*%
D11*
X152362Y197933D02*
X177165D01*
Y239272D01*
X152362D02*
X177165D01*
X152362Y197933D02*
Y239272D01*
X102461Y82441D02*
X130807D01*
X102461D02*
Y114527D01*
X130807D01*
Y82441D02*
Y114527D01*
X102421Y115945D02*
Y144291D01*
X134508D01*
Y115945D02*
Y144291D01*
X102421Y115945D02*
X134508D01*
D59*
X38976Y66634D02*
X44882D01*
Y55216D02*
Y66634D01*
X38976Y55216D02*
X44882D01*
X38976D02*
Y66634D01*
X46850Y55216D02*
X52756D01*
X46850D02*
Y66634D01*
X52756D01*
Y55216D02*
Y66634D01*
X135531Y101614D02*
Y111378D01*
X130413D02*
X135531D01*
X130413Y101614D02*
X135531D01*
X130413D02*
Y111378D01*
X136476Y93169D02*
Y121595D01*
X159390D01*
Y93169D02*
Y121595D01*
X136476Y93169D02*
X159390D01*
X107146Y204390D02*
X130059D01*
Y232815D01*
X107146D02*
X130059D01*
X107146Y204390D02*
Y232815D01*
X83524Y204390D02*
Y232815D01*
X106437D01*
Y204390D02*
Y232815D01*
X83524Y204390D02*
X106437D01*
X31988Y79678D02*
Y91096D01*
Y79678D02*
X37894D01*
Y91096D01*
X31988D02*
X37894D01*
X106653Y187669D02*
X129567D01*
X106653Y159244D02*
Y187669D01*
Y159244D02*
X129567D01*
Y187669D01*
X42953Y46555D02*
X52716D01*
X42953D02*
Y51673D01*
X52716Y46555D02*
Y51673D01*
X42953D02*
X52716D01*
X183721Y73563D02*
X206634D01*
X183721Y45138D02*
Y73563D01*
Y45138D02*
X206634D01*
Y73563D01*
X153405Y187669D02*
X176319D01*
X153405Y159244D02*
Y187669D01*
Y159244D02*
X176319D01*
Y187669D01*
X129783Y187669D02*
X152697D01*
X129783Y159244D02*
Y187669D01*
Y159244D02*
X152697D01*
Y187669D01*
X160099Y93169D02*
X183012D01*
Y121595D01*
X160099D02*
X183012D01*
X160099Y93169D02*
Y121595D01*
X130768Y204390D02*
X153681D01*
Y232815D01*
X130768D02*
X153681D01*
X130768Y204390D02*
Y232815D01*
X59941Y204390D02*
X82854D01*
Y232815D01*
X59941D02*
X82854D01*
X59941Y204390D02*
Y232815D01*
X183721Y93169D02*
X206634D01*
Y121595D01*
X183721D02*
X206634D01*
X183721Y93169D02*
Y121595D01*
X160099Y73563D02*
X183012D01*
X160099Y45138D02*
Y73563D01*
Y45138D02*
X183012D01*
Y73563D01*
X159390Y45138D02*
Y73563D01*
X136476Y45138D02*
X159390D01*
X136476D02*
Y73563D01*
X159390D01*
X105807Y142717D02*
Y154528D01*
Y142717D02*
X129823D01*
Y154528D01*
X105807D02*
X129823D01*
X27205Y55216D02*
X36968D01*
X27205D02*
Y60335D01*
X36968Y55216D02*
Y60335D01*
X27205D02*
X36968D01*
X26378Y67421D02*
X37795D01*
X26378Y61516D02*
Y67421D01*
Y61516D02*
X37795D01*
Y67421D01*
X104724Y64173D02*
Y70079D01*
X93307Y64173D02*
X104724D01*
X93307D02*
Y70079D01*
X104724D01*
X93209Y63189D02*
X104626D01*
X93209Y57284D02*
Y63189D01*
Y57284D02*
X104626D01*
Y63189D01*
X93012Y72185D02*
Y81949D01*
X98130D01*
X93012Y72185D02*
X98130D01*
Y81949D01*
X85925Y82874D02*
X91831D01*
Y71457D02*
Y82874D01*
X85925Y71457D02*
X91831D01*
X85925D02*
Y82874D01*
X88976Y41870D02*
Y51634D01*
X83858Y41870D02*
X88976D01*
X83858Y51634D02*
X88976D01*
X83858Y41870D02*
Y51634D01*
X72480Y37894D02*
X82244D01*
Y32776D02*
Y37894D01*
X72480Y32776D02*
Y37894D01*
Y32776D02*
X82244D01*
X83071Y26083D02*
Y31988D01*
X71654Y26083D02*
X83071D01*
X71654D02*
Y31988D01*
X83071D01*
X59055Y26083D02*
Y31988D01*
X70473D01*
Y26083D02*
Y31988D01*
X59055Y26083D02*
X70473D01*
X78740Y71457D02*
X84646D01*
X78740D02*
Y82874D01*
X84646D01*
Y71457D02*
Y82874D01*
X42953Y45374D02*
X52716D01*
Y40256D02*
Y45374D01*
X42953Y40256D02*
Y45374D01*
Y40256D02*
X52716D01*
X49606Y37106D02*
X55512D01*
Y25689D02*
Y37106D01*
X49606Y25689D02*
X55512D01*
X49606D02*
Y37106D01*
X43701Y26516D02*
Y36279D01*
X48819D01*
X43701Y26516D02*
X48819D01*
Y36279D01*
X88976Y53287D02*
Y63051D01*
X83858Y53287D02*
X88976D01*
X83858Y63051D02*
X88976D01*
X83858Y53287D02*
Y63051D01*
X35433Y40256D02*
Y51673D01*
Y40256D02*
X41339D01*
Y51673D01*
X35433D02*
X41339D01*
M02*
