G04*
G04 #@! TF.GenerationSoftware,Altium Limited,Altium Designer,26.1.1 (7)*
G04*
G04 Layer_Color=128*
%FSLAX25Y25*%
%MOIN*%
G70*
G04*
G04 #@! TF.SameCoordinates,5867FEAB-4AF7-4C39-AA23-D09B853D4626*
G04*
G04*
G04 #@! TF.FilePolarity,Positive*
G04*
G01*
G75*
%ADD14R,0.03898X0.03071*%
%ADD41R,0.06693X0.10630*%
%ADD42R,0.02362X0.00984*%
%ADD43R,0.03071X0.03898*%
%ADD44R,0.03740X0.03543*%
%ADD46R,0.03543X0.03740*%
%ADD47C,0.01968*%
%ADD48R,0.00984X0.02362*%
%ADD49C,0.03937*%
G36*
X67618Y78150D02*
X64665Y76181D01*
X61713Y78150D01*
Y82087D01*
X67618D01*
Y78150D01*
D02*
G37*
G36*
Y72146D02*
X61713D01*
Y77067D01*
X64665Y75098D01*
X67618Y77067D01*
Y72146D01*
D02*
G37*
G36*
X76673Y78150D02*
X73721Y76181D01*
X70768Y78150D01*
Y82087D01*
X76673D01*
Y78150D01*
D02*
G37*
G36*
Y72146D02*
X70768D01*
Y77067D01*
X73721Y75098D01*
X76673Y77067D01*
Y72146D01*
D02*
G37*
D14*
X46260Y28642D02*
D03*
X95571Y79823D02*
D03*
X86417Y60925D02*
D03*
X95571Y74311D02*
D03*
X86417Y49508D02*
D03*
Y43996D02*
D03*
X46260Y34154D02*
D03*
X86417Y55413D02*
D03*
D41*
X68307Y52264D02*
D03*
D42*
X74803Y53248D02*
D03*
Y59153D02*
D03*
X61811Y53248D02*
D03*
X74803Y47343D02*
D03*
Y49311D02*
D03*
Y51279D02*
D03*
Y55216D02*
D03*
Y57185D02*
D03*
X61811Y59153D02*
D03*
Y57185D02*
D03*
Y55216D02*
D03*
Y51279D02*
D03*
Y49311D02*
D03*
Y47343D02*
D03*
Y45374D02*
D03*
X74803D02*
D03*
D43*
X74606Y35335D02*
D03*
X34843Y57776D02*
D03*
X45079Y49114D02*
D03*
X50591D02*
D03*
X29331Y57776D02*
D03*
X80118Y35335D02*
D03*
X50591Y42815D02*
D03*
X45079D02*
D03*
D44*
X52559Y28445D02*
D03*
X49803Y63878D02*
D03*
X41929D02*
D03*
Y57972D02*
D03*
X49803D02*
D03*
X38386Y48917D02*
D03*
X52559Y34350D02*
D03*
X88878Y74213D02*
D03*
X34941Y88340D02*
D03*
Y82434D02*
D03*
X88878Y80118D02*
D03*
X81693D02*
D03*
Y74213D02*
D03*
X38386Y43012D02*
D03*
D46*
X61811Y29035D02*
D03*
X35039Y64468D02*
D03*
X29134D02*
D03*
X96063Y67126D02*
D03*
X101969D02*
D03*
X95965Y60236D02*
D03*
X101870D02*
D03*
X74410Y29035D02*
D03*
X80315D02*
D03*
X67717D02*
D03*
D47*
X105955Y56102D02*
D03*
Y71850D02*
D03*
X33465Y52165D02*
D03*
D48*
X71260Y60728D02*
D03*
X65354D02*
D03*
Y43799D02*
D03*
X71260D02*
D03*
D49*
X34941Y96956D02*
D03*
Y73819D02*
D03*
M02*
