G04*
G04 #@! TF.GenerationSoftware,Altium Limited,Altium Designer,26.1.1 (7)*
G04*
G04 Layer_Color=32896*
%FSLAX25Y25*%
%MOIN*%
G70*
G04*
G04 #@! TF.SameCoordinates,5867FEAB-4AF7-4C39-AA23-D09B853D4626*
G04*
G04*
G04 #@! TF.FilePolarity,Positive*
G04*
G01*
G75*
%ADD12C,0.00787*%
%ADD13C,0.01000*%
D12*
X65435Y41665D02*
G03*
X65435Y41665I-85J0D01*
G01*
X73032Y61122D02*
X75197D01*
X67126D02*
X69488D01*
X61417D02*
X63583D01*
X67126Y43406D02*
X69488D01*
X73032D02*
X75197D01*
X61417D02*
X63583D01*
D13*
X28215Y93501D02*
X24279D01*
Y91533D01*
X24935Y90877D01*
X26247D01*
X26903Y91533D01*
Y93501D01*
Y92189D02*
X28215Y90877D01*
X28871Y89565D02*
Y86941D01*
X24279Y85630D02*
Y84318D01*
Y84974D01*
X28215D01*
Y85630D01*
Y84318D01*
Y82350D02*
X24279D01*
X28215Y79726D01*
X24279D01*
Y75790D02*
Y77102D01*
Y76446D01*
X27559D01*
X28215Y77102D01*
Y77758D01*
X27559Y78414D01*
X97111Y36974D02*
X97767Y37631D01*
X99079D01*
X99735Y36974D01*
Y34351D01*
X99079Y33695D01*
X97767D01*
X97111Y34351D01*
X95799Y33039D02*
X93175D01*
X91863Y37631D02*
X90552D01*
X91207D01*
Y33695D01*
X91863D01*
X90552D01*
X88584D02*
Y37631D01*
X85960Y33695D01*
Y37631D01*
X83992Y33695D02*
Y36974D01*
Y35663D01*
X84648D01*
X83336D01*
X83992D01*
Y36974D01*
X83336Y37631D01*
X72999Y93175D02*
X72343Y93831D01*
Y95143D01*
X72999Y95799D01*
X73655D01*
X74311Y95143D01*
Y93831D01*
X74967Y93175D01*
X75623D01*
X76279Y93831D01*
Y95143D01*
X75623Y95799D01*
X72343Y91863D02*
X76279D01*
Y89895D01*
X75623Y89239D01*
X74967D01*
X74311Y89895D01*
Y91863D01*
Y89895D01*
X73655Y89239D01*
X72999D01*
X72343Y89895D01*
Y91863D01*
X76279Y85303D02*
Y87927D01*
X73655Y85303D01*
X72999D01*
X72343Y85960D01*
Y87271D01*
X72999Y87927D01*
X63649Y92027D02*
X62993Y92683D01*
Y93995D01*
X63649Y94651D01*
X64305D01*
X64961Y93995D01*
Y92683D01*
X65617Y92027D01*
X66272D01*
X66928Y92683D01*
Y93995D01*
X66272Y94651D01*
X62993Y90715D02*
X66928D01*
Y88747D01*
X66272Y88091D01*
X65617D01*
X64961Y88747D01*
Y90715D01*
Y88747D01*
X64305Y88091D01*
X63649D01*
X62993Y88747D01*
Y90715D01*
X66928Y86779D02*
Y85467D01*
Y86123D01*
X62993D01*
X63649Y86779D01*
X77589Y20604D02*
Y24540D01*
X75621D01*
X74965Y23884D01*
Y22572D01*
X75621Y21916D01*
X77589D01*
X76277D02*
X74965Y20604D01*
X73653Y19948D02*
X71029D01*
X69717Y24540D02*
Y21260D01*
X69061Y20604D01*
X67750D01*
X67094Y21260D01*
Y24540D01*
X65782D02*
Y21916D01*
X64470Y20604D01*
X63158Y21916D01*
Y24540D01*
X59222Y20604D02*
X61846D01*
X59222Y23228D01*
Y23884D01*
X59878Y24540D01*
X61190D01*
X61846Y23884D01*
X101244Y26214D02*
Y30150D01*
X99276D01*
X98620Y29494D01*
Y28182D01*
X99276Y27526D01*
X101244D01*
X99932D02*
X98620Y26214D01*
X97308Y25559D02*
X94684D01*
X93372Y30150D02*
Y26870D01*
X92716Y26214D01*
X91405D01*
X90749Y26870D01*
Y30150D01*
X89437D02*
Y27526D01*
X88125Y26214D01*
X86813Y27526D01*
Y30150D01*
X85501Y26214D02*
X84189D01*
X84845D01*
Y30150D01*
X85501Y29494D01*
X55380Y24440D02*
X51444D01*
Y22472D01*
X52100Y21816D01*
X53412D01*
X54068Y22472D01*
Y24440D01*
Y23128D02*
X55380Y21816D01*
X56036Y20504D02*
Y17880D01*
X55380Y16568D02*
X51444D01*
Y14601D01*
X52100Y13945D01*
X53412D01*
X54068Y14601D01*
Y16568D01*
Y15257D02*
X55380Y13945D01*
X51444Y12633D02*
Y10009D01*
Y11321D01*
X55380D01*
X83289Y99749D02*
X79353D01*
Y97781D01*
X80009Y97125D01*
X81321D01*
X81977Y97781D01*
Y99749D01*
Y98437D02*
X83289Y97125D01*
X83945Y95813D02*
Y93189D01*
X83289Y91877D02*
X79353D01*
Y89909D01*
X80009Y89253D01*
X81321D01*
X81977Y89909D01*
Y91877D01*
X80009Y85318D02*
X79353Y85974D01*
Y87286D01*
X80009Y87941D01*
X82633D01*
X83289Y87286D01*
Y85974D01*
X82633Y85318D01*
X81321D01*
Y86630D01*
X120601Y65289D02*
Y69225D01*
X118633D01*
X117977Y68569D01*
Y67257D01*
X118633Y66601D01*
X120601D01*
X119289D02*
X117977Y65289D01*
X116666Y64633D02*
X114042D01*
X112730Y69225D02*
Y65289D01*
X110106D01*
X106826Y69225D02*
X108138D01*
X108794Y68569D01*
Y65945D01*
X108138Y65289D01*
X106826D01*
X106170Y65945D01*
Y68569D01*
X106826Y69225D01*
X90943Y105883D02*
X87008D01*
Y103915D01*
X87664Y103259D01*
X88976D01*
X89632Y103915D01*
Y105883D01*
Y104571D02*
X90943Y103259D01*
X91600Y101947D02*
Y99323D01*
X87008Y98011D02*
Y96700D01*
Y97356D01*
X90943D01*
Y98011D01*
Y96700D01*
X87008Y94732D02*
X90943D01*
Y92108D01*
X87008Y90796D02*
Y89484D01*
Y90140D01*
X90943D01*
Y90796D01*
Y89484D01*
Y87516D02*
X87008D01*
X88320Y86204D01*
X87008Y84892D01*
X90943D01*
X121290Y58104D02*
Y62040D01*
X119323D01*
X118667Y61384D01*
Y60072D01*
X119323Y59416D01*
X121290D01*
X119978D02*
X118667Y58104D01*
X117355Y57448D02*
X114731D01*
X113419Y62040D02*
Y58104D01*
Y60072D01*
X110795D01*
Y62040D01*
Y58104D01*
X107515Y62040D02*
X108827D01*
X109483Y61384D01*
Y58760D01*
X108827Y58104D01*
X107515D01*
X106859Y58760D01*
Y61384D01*
X107515Y62040D01*
X51837Y86939D02*
X47901D01*
Y84971D01*
X48557Y84316D01*
X49869D01*
X50525Y84971D01*
Y86939D01*
Y85627D02*
X51837Y84316D01*
X52493Y83003D02*
Y80380D01*
X47901Y76444D02*
Y79068D01*
X49869D01*
Y77756D01*
Y79068D01*
X51837D01*
X47901Y75132D02*
X51837D01*
Y73164D01*
X51181Y72508D01*
X50525D01*
X49869Y73164D01*
Y75132D01*
Y73164D01*
X49213Y72508D01*
X48557D01*
X47901Y73164D01*
Y75132D01*
X51837Y68572D02*
Y71196D01*
X49213Y68572D01*
X48557D01*
X47901Y69229D01*
Y70540D01*
X48557Y71196D01*
X43963Y85594D02*
X40027D01*
Y83627D01*
X40683Y82970D01*
X41995D01*
X42651Y83627D01*
Y85594D01*
Y84282D02*
X43963Y82970D01*
X44619Y81659D02*
Y79035D01*
X40027Y75099D02*
Y77723D01*
X41995D01*
Y76411D01*
Y77723D01*
X43963D01*
X40027Y73787D02*
X43963D01*
Y71819D01*
X43307Y71163D01*
X42651D01*
X41995Y71819D01*
Y73787D01*
Y71819D01*
X41339Y71163D01*
X40683D01*
X40027Y71819D01*
Y73787D01*
X43963Y69851D02*
Y68540D01*
Y69195D01*
X40027D01*
X40683Y69851D01*
X24735Y62829D02*
Y66764D01*
X22767D01*
X22111Y66108D01*
Y64797D01*
X22767Y64140D01*
X24735D01*
X23423D02*
X22111Y62829D01*
X20799Y62173D02*
X18176D01*
X14240Y66108D02*
X14896Y66764D01*
X16208D01*
X16864Y66108D01*
Y63485D01*
X16208Y62829D01*
X14896D01*
X14240Y63485D01*
X10304Y62829D02*
X12928D01*
X10304Y65452D01*
Y66108D01*
X10960Y66764D01*
X12272D01*
X12928Y66108D01*
X40026Y39138D02*
X36090D01*
Y37170D01*
X36746Y36514D01*
X38058D01*
X38714Y37170D01*
Y39138D01*
Y37826D02*
X40026Y36514D01*
X40682Y35203D02*
Y32579D01*
X36746Y28643D02*
X36090Y29299D01*
Y30611D01*
X36746Y31267D01*
X39370D01*
X40026Y30611D01*
Y29299D01*
X39370Y28643D01*
X40026Y27331D02*
Y26019D01*
Y26675D01*
X36090D01*
X36746Y27331D01*
X80051Y68011D02*
X78739D01*
X79395D01*
Y64075D01*
X80051D01*
X78739D01*
X74147Y67355D02*
X74804Y68011D01*
X76115D01*
X76771Y67355D01*
Y64731D01*
X76115Y64075D01*
X74804D01*
X74147Y64731D01*
X72836Y64075D02*
X71524D01*
X72180D01*
Y68011D01*
X72836Y67355D01*
X107938Y54790D02*
X108593Y55445D01*
X109905D01*
X110561Y54790D01*
Y52166D01*
X109905Y51510D01*
X108593D01*
X107938Y52166D01*
X106626Y50854D02*
X104002D01*
X102690Y55445D02*
Y52822D01*
X101378Y51510D01*
X100066Y52822D01*
Y55445D01*
X96130Y54790D02*
X96786Y55445D01*
X98098D01*
X98754Y54790D01*
Y52166D01*
X98098Y51510D01*
X96786D01*
X96130Y52166D01*
X92195Y54790D02*
X92851Y55445D01*
X94162D01*
X94818Y54790D01*
Y52166D01*
X94162Y51510D01*
X92851D01*
X92195Y52166D01*
X45014Y21718D02*
X44358Y22374D01*
Y23686D01*
X45014Y24341D01*
X47638D01*
X48294Y23686D01*
Y22374D01*
X47638Y21718D01*
X48949Y20406D02*
Y17782D01*
X45014Y13846D02*
X44358Y14502D01*
Y15814D01*
X45014Y16470D01*
X45670D01*
X46326Y15814D01*
Y14502D01*
X46981Y13846D01*
X47638D01*
X48294Y14502D01*
Y15814D01*
X47638Y16470D01*
X45014Y9911D02*
X44358Y10566D01*
Y11878D01*
X45014Y12534D01*
X45670D01*
X46326Y11878D01*
Y10566D01*
X46981Y9911D01*
X47638D01*
X48294Y10566D01*
Y11878D01*
X47638Y12534D01*
X93833Y103344D02*
X93177Y104000D01*
Y105312D01*
X93833Y105968D01*
X96456D01*
X97112Y105312D01*
Y104000D01*
X96456Y103344D01*
X97768Y102032D02*
Y99408D01*
X93177Y98096D02*
Y96784D01*
Y97440D01*
X97112D01*
Y98096D01*
Y96784D01*
X93177Y94816D02*
X97112D01*
Y92193D01*
X93177Y90881D02*
Y89569D01*
Y90225D01*
X97112D01*
Y90881D01*
Y89569D01*
Y87601D02*
X93177D01*
X94489Y86289D01*
X93177Y84977D01*
X97112D01*
X22111Y59022D02*
X22767Y59678D01*
X24079D01*
X24735Y59022D01*
Y56398D01*
X24079Y55742D01*
X22767D01*
X22111Y56398D01*
X20799Y55086D02*
X18176D01*
X14240Y59022D02*
X14896Y59678D01*
X16208D01*
X16864Y59022D01*
Y56398D01*
X16208Y55742D01*
X14896D01*
X14240Y56398D01*
X12928Y59022D02*
X12272Y59678D01*
X10960D01*
X10304Y59022D01*
Y58366D01*
X10960Y57710D01*
X11616D01*
X10960D01*
X10304Y57054D01*
Y56398D01*
X10960Y55742D01*
X12272D01*
X12928Y56398D01*
X30516Y50414D02*
X31172Y51070D01*
X32484D01*
X33140Y50414D01*
Y47790D01*
X32484Y47134D01*
X31172D01*
X30516Y47790D01*
X29204Y46478D02*
X26580D01*
X22645Y50414D02*
X23301Y51070D01*
X24612D01*
X25268Y50414D01*
Y47790D01*
X24612Y47134D01*
X23301D01*
X22645Y47790D01*
X18709Y47134D02*
X21333D01*
X18709Y49758D01*
Y50414D01*
X19365Y51070D01*
X20677D01*
X21333Y50414D01*
X30511Y44061D02*
X31166Y44717D01*
X32478D01*
X33134Y44061D01*
Y41437D01*
X32478Y40781D01*
X31166D01*
X30511Y41437D01*
X29199Y40125D02*
X26575D01*
X22639Y44061D02*
X23295Y44717D01*
X24607D01*
X25263Y44061D01*
Y41437D01*
X24607Y40781D01*
X23295D01*
X22639Y41437D01*
X21327Y40781D02*
X20015D01*
X20671D01*
Y44717D01*
X21327Y44061D01*
X105575Y46522D02*
X106231Y47178D01*
X107543D01*
X108199Y46522D01*
Y43898D01*
X107543Y43242D01*
X106231D01*
X105575Y43898D01*
X104263Y42586D02*
X101640D01*
X100328Y47178D02*
Y43242D01*
X98360D01*
X97704Y43898D01*
Y44554D01*
X98360Y45210D01*
X100328D01*
X98360D01*
X97704Y45866D01*
Y46522D01*
X98360Y47178D01*
X100328D01*
X93768Y46522D02*
X94424Y47178D01*
X95736D01*
X96392Y46522D01*
Y45866D01*
X95736Y45210D01*
X94424D01*
X93768Y44554D01*
Y43898D01*
X94424Y43242D01*
X95736D01*
X96392Y43898D01*
X92456Y47178D02*
X89832D01*
X91144D01*
Y43242D01*
M02*
