G04*
G04 #@! TF.GenerationSoftware,Altium Limited,Altium Designer,26.1.1 (7)*
G04*
G04 Layer_Physical_Order=3*
G04 Layer_Color=16440176*
%FSLAX25Y25*%
%MOIN*%
G70*
G04*
G04 #@! TF.SameCoordinates,5867FEAB-4AF7-4C39-AA23-D09B853D4626*
G04*
G04*
G04 #@! TF.FilePolarity,Positive*
G04*
G01*
G75*
%ADD36C,0.19685*%
G04:AMPARAMS|DCode=38|XSize=137.8mil|YSize=137.8mil|CornerRadius=34.45mil|HoleSize=0mil|Usage=FLASHONLY|Rotation=0.000|XOffset=0mil|YOffset=0mil|HoleType=Round|Shape=RoundedRectangle|*
%AMROUNDEDRECTD38*
21,1,0.13780,0.06890,0,0,0.0*
21,1,0.06890,0.13780,0,0,0.0*
1,1,0.06890,0.03445,-0.03445*
1,1,0.06890,-0.03445,-0.03445*
1,1,0.06890,-0.03445,0.03445*
1,1,0.06890,0.03445,0.03445*
%
%ADD38ROUNDEDRECTD38*%
%ADD39C,0.02205*%
%ADD40C,0.02362*%
G36*
X259842Y255906D02*
X260618D01*
X262139Y255603D01*
X263572Y255009D01*
X264862Y254148D01*
X265959Y253051D01*
X266820Y251761D01*
X267414Y250328D01*
X267717Y248807D01*
Y248031D01*
X267717D01*
X267717Y7874D01*
Y7098D01*
X267414Y5577D01*
X266820Y4144D01*
X265959Y2855D01*
X264862Y1758D01*
X263572Y896D01*
X262139Y303D01*
X260618Y-0D01*
X259842Y0D01*
X259842Y0D01*
X259842Y0D01*
X7874Y0D01*
X7098D01*
X5577Y303D01*
X4144Y896D01*
X2855Y1758D01*
X1758Y2855D01*
X896Y4144D01*
X303Y5577D01*
X0Y7098D01*
Y7874D01*
X0D01*
X0Y248031D01*
Y248807D01*
X303Y250328D01*
X896Y251761D01*
X1758Y253051D01*
X2855Y254148D01*
X4144Y255009D01*
X5577Y255603D01*
X7098Y255906D01*
X7874D01*
Y255906D01*
X259842Y255906D01*
D02*
G37*
%LPC*%
G36*
X17717Y250823D02*
Y242126D01*
X26414D01*
X26324Y242696D01*
X25796Y244320D01*
X25021Y245840D01*
X24018Y247221D01*
X22812Y248428D01*
X21431Y249431D01*
X19910Y250206D01*
X18287Y250733D01*
X17717Y250823D01*
D02*
G37*
G36*
X13780D02*
X13209Y250733D01*
X11586Y250206D01*
X10065Y249431D01*
X8685Y248428D01*
X7478Y247221D01*
X6475Y245840D01*
X5700Y244320D01*
X5173Y242696D01*
X5082Y242126D01*
X13780D01*
Y250823D01*
D02*
G37*
G36*
X253937D02*
Y242126D01*
X262634D01*
X262544Y242696D01*
X262017Y244320D01*
X261242Y245840D01*
X260239Y247221D01*
X259032Y248428D01*
X257651Y249431D01*
X256131Y250206D01*
X254507Y250733D01*
X253937Y250823D01*
D02*
G37*
G36*
X250000Y250823D02*
X249430Y250733D01*
X247806Y250206D01*
X246286Y249431D01*
X244905Y248428D01*
X243698Y247221D01*
X242695Y245840D01*
X241920Y244320D01*
X241393Y242696D01*
X241303Y242126D01*
X250000D01*
Y250823D01*
D02*
G37*
G36*
X262634Y238189D02*
X253937D01*
Y229492D01*
X254507Y229582D01*
X256131Y230109D01*
X257651Y230884D01*
X259032Y231887D01*
X260239Y233094D01*
X261242Y234475D01*
X262017Y235995D01*
X262544Y237618D01*
X262634Y238189D01*
D02*
G37*
G36*
X26414Y238189D02*
X17717D01*
Y229492D01*
X18287Y229582D01*
X19910Y230109D01*
X21431Y230884D01*
X22812Y231887D01*
X24018Y233094D01*
X25021Y234475D01*
X25796Y235995D01*
X26324Y237618D01*
X26414Y238189D01*
D02*
G37*
G36*
X13780D02*
X5082D01*
X5173Y237618D01*
X5700Y235995D01*
X6475Y234475D01*
X7478Y233094D01*
X8685Y231887D01*
X10065Y230884D01*
X11586Y230109D01*
X13209Y229582D01*
X13780Y229492D01*
Y238189D01*
D02*
G37*
G36*
X250000Y238189D02*
X241303D01*
X241393Y237618D01*
X241920Y235995D01*
X242695Y234475D01*
X243698Y233094D01*
X244905Y231887D01*
X246286Y230884D01*
X247806Y230109D01*
X249430Y229582D01*
X250000Y229492D01*
Y238189D01*
D02*
G37*
G36*
X179525Y199803D02*
X178742D01*
X178019Y199504D01*
X177465Y198950D01*
X177165Y198226D01*
Y197443D01*
X177465Y196720D01*
X178019Y196166D01*
X178742Y195866D01*
X179525D01*
X180249Y196166D01*
X180803Y196720D01*
X181102Y197443D01*
Y198226D01*
X180803Y198950D01*
X180249Y199504D01*
X179525Y199803D01*
D02*
G37*
G36*
X237697Y204269D02*
X230807D01*
X229702Y204123D01*
X228673Y203697D01*
X227789Y203018D01*
X227110Y202134D01*
X226684Y201105D01*
X226538Y200000D01*
Y193110D01*
X226684Y192005D01*
X227110Y190976D01*
X227789Y190092D01*
X228673Y189413D01*
X229702Y188987D01*
X230807Y188841D01*
X237697D01*
X238802Y188987D01*
X239831Y189413D01*
X240716Y190092D01*
X241394Y190976D01*
X241820Y192005D01*
X241966Y193110D01*
Y200000D01*
X241820Y201105D01*
X241394Y202134D01*
X240716Y203018D01*
X239831Y203697D01*
X238802Y204123D01*
X237697Y204269D01*
D02*
G37*
G36*
X136772Y139698D02*
X135989D01*
X135265Y139398D01*
X134711Y138845D01*
X134412Y138121D01*
Y137338D01*
X134711Y136614D01*
X135265Y136061D01*
X135989Y135761D01*
X136772D01*
X137495Y136061D01*
X138049Y136614D01*
X138349Y137338D01*
Y138121D01*
X138049Y138845D01*
X137495Y139398D01*
X136772Y139698D01*
D02*
G37*
G36*
X84026Y87552D02*
X83243D01*
X82520Y87252D01*
X81966Y86699D01*
X81666Y85975D01*
Y85192D01*
X81966Y84469D01*
X82520Y83915D01*
X83243Y83615D01*
X84026D01*
X84750Y83915D01*
X85303Y84469D01*
X85603Y85192D01*
Y85975D01*
X85303Y86699D01*
X84750Y87252D01*
X84026Y87552D01*
D02*
G37*
G36*
X89565Y87402D02*
X88782D01*
X88058Y87102D01*
X87504Y86548D01*
X87205Y85825D01*
Y85041D01*
X87504Y84318D01*
X88058Y83764D01*
X88782Y83465D01*
X89565D01*
X90288Y83764D01*
X90842Y84318D01*
X91142Y85041D01*
Y85825D01*
X90842Y86548D01*
X90288Y87102D01*
X89565Y87402D01*
D02*
G37*
G36*
X237697Y91375D02*
X230807D01*
X229702Y91230D01*
X228673Y90803D01*
X227789Y90125D01*
X227110Y89241D01*
X226684Y88211D01*
X226538Y87106D01*
Y80216D01*
X226684Y79112D01*
X227110Y78082D01*
X227789Y77198D01*
X228673Y76520D01*
X229702Y76093D01*
X230807Y75948D01*
X237697D01*
X238802Y76093D01*
X239831Y76520D01*
X240716Y77198D01*
X241394Y78082D01*
X241820Y79112D01*
X241966Y80216D01*
Y87106D01*
X241820Y88211D01*
X241394Y89241D01*
X240716Y90125D01*
X239831Y90803D01*
X238802Y91230D01*
X237697Y91375D01*
D02*
G37*
G36*
X134250Y66929D02*
X133467D01*
X132743Y66629D01*
X132190Y66076D01*
X131890Y65352D01*
Y64569D01*
X132190Y63846D01*
X132743Y63292D01*
X133467Y62992D01*
X134250D01*
X134973Y63292D01*
X135527Y63846D01*
X135827Y64569D01*
Y65352D01*
X135527Y66076D01*
X134973Y66629D01*
X134250Y66929D01*
D02*
G37*
G36*
X110136Y64567D02*
X109353D01*
X108629Y64267D01*
X108075Y63714D01*
X107776Y62990D01*
Y62207D01*
X108075Y61483D01*
X108629Y60930D01*
X109353Y60630D01*
X110136D01*
X110859Y60930D01*
X111413Y61483D01*
X111713Y62207D01*
Y62990D01*
X111413Y63714D01*
X110859Y64267D01*
X110136Y64567D01*
D02*
G37*
G36*
X91238Y57087D02*
X90455D01*
X89731Y56787D01*
X89178Y56233D01*
X88878Y55510D01*
Y54726D01*
X89178Y54003D01*
X89731Y53449D01*
X90455Y53150D01*
X91238D01*
X91961Y53449D01*
X92515Y54003D01*
X92815Y54726D01*
Y55510D01*
X92515Y56233D01*
X91961Y56787D01*
X91238Y57087D01*
D02*
G37*
G36*
X253937Y26414D02*
Y17717D01*
X262634D01*
X262544Y18287D01*
X262017Y19910D01*
X261242Y21431D01*
X260239Y22812D01*
X259032Y24018D01*
X257651Y25021D01*
X256131Y25796D01*
X254507Y26324D01*
X253937Y26414D01*
D02*
G37*
G36*
X250000D02*
X249429Y26324D01*
X247806Y25796D01*
X246286Y25021D01*
X244905Y24018D01*
X243698Y22812D01*
X242695Y21431D01*
X241920Y19910D01*
X241393Y18287D01*
X241303Y17717D01*
X250000D01*
Y26414D01*
D02*
G37*
G36*
X17717D02*
Y17717D01*
X26414D01*
X26324Y18287D01*
X25796Y19910D01*
X25021Y21431D01*
X24018Y22812D01*
X22812Y24018D01*
X21431Y25021D01*
X19910Y25796D01*
X18287Y26324D01*
X17717Y26414D01*
D02*
G37*
G36*
X13780D02*
X13209Y26324D01*
X11586Y25796D01*
X10065Y25021D01*
X8685Y24018D01*
X7478Y22812D01*
X6475Y21431D01*
X5700Y19910D01*
X5173Y18287D01*
X5082Y17717D01*
X13780D01*
Y26414D01*
D02*
G37*
G36*
X262634Y13780D02*
X253937D01*
Y5082D01*
X254507Y5173D01*
X256131Y5700D01*
X257651Y6475D01*
X259032Y7478D01*
X260239Y8685D01*
X261242Y10065D01*
X262017Y11586D01*
X262544Y13209D01*
X262634Y13780D01*
D02*
G37*
G36*
X250000D02*
X241303D01*
X241393Y13209D01*
X241920Y11586D01*
X242695Y10065D01*
X243698Y8685D01*
X244905Y7478D01*
X246286Y6475D01*
X247806Y5700D01*
X249429Y5173D01*
X250000Y5082D01*
Y13780D01*
D02*
G37*
G36*
X26414D02*
X17717D01*
Y5082D01*
X18287Y5173D01*
X19910Y5700D01*
X21431Y6475D01*
X22812Y7478D01*
X24018Y8685D01*
X25021Y10065D01*
X25796Y11586D01*
X26324Y13209D01*
X26414Y13780D01*
D02*
G37*
G36*
X13780D02*
X5082D01*
X5173Y13209D01*
X5700Y11586D01*
X6475Y10065D01*
X7478Y8685D01*
X8685Y7478D01*
X10065Y6475D01*
X11586Y5700D01*
X13209Y5173D01*
X13780Y5082D01*
Y13780D01*
D02*
G37*
%LPD*%
D36*
X15748Y15748D02*
D03*
X251969D02*
D03*
X251969Y240158D02*
D03*
X15748D02*
D03*
D38*
X234252Y140748D02*
D03*
Y41339D02*
D03*
Y83661D02*
D03*
Y196555D02*
D03*
D39*
X223413Y35049D02*
D03*
X223357Y38199D02*
D03*
X225745Y39764D02*
D03*
X223186Y41339D02*
D03*
X225689Y42913D02*
D03*
X223074Y47638D02*
D03*
X225801Y36614D02*
D03*
X223130Y44488D02*
D03*
X225633Y46063D02*
D03*
X125984Y59055D02*
D03*
X114173Y62992D02*
D03*
X122047D02*
D03*
Y55118D02*
D03*
X118110Y59055D02*
D03*
X114173Y55118D02*
D03*
X92520Y70472D02*
D03*
X145669Y30709D02*
D03*
X137795D02*
D03*
X129921D02*
D03*
X141732Y26772D02*
D03*
X133858D02*
D03*
X125984D02*
D03*
X169291Y30709D02*
D03*
X161417D02*
D03*
X153543D02*
D03*
X165354Y26772D02*
D03*
X157480D02*
D03*
X149606D02*
D03*
X192913Y30709D02*
D03*
X185039D02*
D03*
X177165D02*
D03*
X188976Y26772D02*
D03*
X181102D02*
D03*
X173228D02*
D03*
X216535Y30709D02*
D03*
X208661D02*
D03*
X200787D02*
D03*
X212598Y26772D02*
D03*
X204724D02*
D03*
X196850D02*
D03*
X141732Y42520D02*
D03*
X133858D02*
D03*
X125984D02*
D03*
X145669Y38583D02*
D03*
X137795D02*
D03*
X129921D02*
D03*
X141732Y34646D02*
D03*
X133858D02*
D03*
X125984D02*
D03*
X165354Y42520D02*
D03*
X157480D02*
D03*
X149606D02*
D03*
X169291Y38583D02*
D03*
X161417D02*
D03*
X153543D02*
D03*
X165354Y34646D02*
D03*
X157480D02*
D03*
X149606D02*
D03*
X188976Y42520D02*
D03*
X181102D02*
D03*
X173228D02*
D03*
X192913Y38583D02*
D03*
X185039D02*
D03*
X177165D02*
D03*
X188976Y34646D02*
D03*
X181102D02*
D03*
X173228D02*
D03*
X212598Y42520D02*
D03*
X204724D02*
D03*
X196850D02*
D03*
X216535Y38583D02*
D03*
X208661D02*
D03*
X200787D02*
D03*
X212598Y34646D02*
D03*
X204724D02*
D03*
X196850D02*
D03*
X175197Y244882D02*
D03*
X179134Y240945D02*
D03*
X175197Y237008D02*
D03*
X167323Y244882D02*
D03*
X171260Y240945D02*
D03*
X167323Y237008D02*
D03*
X159449D02*
D03*
X151575D02*
D03*
X143701D02*
D03*
X135827D02*
D03*
X163386Y240945D02*
D03*
X155512D02*
D03*
X147638D02*
D03*
X139764D02*
D03*
X159449Y244882D02*
D03*
X151575D02*
D03*
X143701D02*
D03*
X135827D02*
D03*
X104331D02*
D03*
X96457D02*
D03*
X88583D02*
D03*
X80709D02*
D03*
X72835D02*
D03*
X64961D02*
D03*
X57087D02*
D03*
X112205D02*
D03*
X120079D02*
D03*
X127953D02*
D03*
X108268Y240945D02*
D03*
X100394D02*
D03*
X92520D02*
D03*
X84646D02*
D03*
X76772D02*
D03*
X68898D02*
D03*
X61024D02*
D03*
X116142D02*
D03*
X124016D02*
D03*
X131890D02*
D03*
X104331Y237008D02*
D03*
X96457D02*
D03*
X88583D02*
D03*
X80709D02*
D03*
X72835D02*
D03*
X64961D02*
D03*
X57087D02*
D03*
X112205D02*
D03*
X120079D02*
D03*
X127953D02*
D03*
X196063Y132677D02*
D03*
X200000Y128740D02*
D03*
X192126D02*
D03*
X196063Y124803D02*
D03*
X140945Y132677D02*
D03*
X148819D02*
D03*
X156693D02*
D03*
X164567D02*
D03*
X172441D02*
D03*
X180315D02*
D03*
X188189D02*
D03*
Y124803D02*
D03*
X180315D02*
D03*
X172441D02*
D03*
X164567D02*
D03*
X156693D02*
D03*
X148819D02*
D03*
X140945D02*
D03*
X144882Y128740D02*
D03*
X152756D02*
D03*
X160630D02*
D03*
X168504D02*
D03*
X176378D02*
D03*
X184252D02*
D03*
X54331Y45768D02*
D03*
X66220Y52253D02*
D03*
X70394Y52275D02*
D03*
X68318Y49016D02*
D03*
X68296Y55512D02*
D03*
X90158Y60728D02*
D03*
X82087Y59350D02*
D03*
X91339Y49902D02*
D03*
X55118Y57087D02*
D03*
X61024Y36417D02*
D03*
X69882Y38386D02*
D03*
X90551Y33465D02*
D03*
X93504Y36417D02*
D03*
X87598D02*
D03*
X38386Y54134D02*
D03*
X76772Y62008D02*
D03*
X73819Y69882D02*
D03*
X84041Y68189D02*
D03*
X203937Y132677D02*
D03*
X207874Y128740D02*
D03*
X203937Y124803D02*
D03*
X234252Y30217D02*
D03*
X231102Y30161D02*
D03*
X227952Y30105D02*
D03*
X237391Y30388D02*
D03*
X240541Y30443D02*
D03*
X235827Y32776D02*
D03*
X238977Y32831D02*
D03*
X232677Y32720D02*
D03*
X229527Y32664D02*
D03*
X243068Y36614D02*
D03*
X243012Y39764D02*
D03*
X242900Y46064D02*
D03*
X242956Y42914D02*
D03*
X245288Y47628D02*
D03*
X245344Y44478D02*
D03*
X245627Y35039D02*
D03*
X245571Y38189D02*
D03*
X245515Y41339D02*
D03*
X238977Y50167D02*
D03*
X235827Y50112D02*
D03*
X229528Y50000D02*
D03*
X232678Y50056D02*
D03*
X227963Y52388D02*
D03*
X231113Y52444D02*
D03*
X240552Y52726D02*
D03*
X237403Y52671D02*
D03*
X234253Y52615D02*
D03*
X223074Y140749D02*
D03*
X223018Y143899D02*
D03*
X222962Y147049D02*
D03*
X223245Y137609D02*
D03*
X223301Y134459D02*
D03*
X225633Y139174D02*
D03*
X225689Y136024D02*
D03*
X225577Y142324D02*
D03*
X225522Y145473D02*
D03*
X234252Y151955D02*
D03*
X237402Y152011D02*
D03*
X240551Y152067D02*
D03*
X231112Y151784D02*
D03*
X227962Y151728D02*
D03*
X232677Y149396D02*
D03*
X229527Y149340D02*
D03*
X235826Y149452D02*
D03*
X238976Y149508D02*
D03*
X245417Y140748D02*
D03*
X245472Y137598D02*
D03*
X245528Y134448D02*
D03*
X245246Y143888D02*
D03*
X245190Y147038D02*
D03*
X242858Y142323D02*
D03*
X242802Y145473D02*
D03*
X242913Y139173D02*
D03*
X242969Y136023D02*
D03*
X229626Y132087D02*
D03*
X232776Y132142D02*
D03*
X239076Y132254D02*
D03*
X235926Y132198D02*
D03*
X240640Y129866D02*
D03*
X237490Y129810D02*
D03*
X228051Y129528D02*
D03*
X231201Y129583D02*
D03*
X234351Y129639D02*
D03*
X190551Y152953D02*
D03*
X206299D02*
D03*
X198425D02*
D03*
X182677D02*
D03*
X186614Y156890D02*
D03*
X202362D02*
D03*
X194488D02*
D03*
X210236D02*
D03*
X194488Y149016D02*
D03*
X202362D02*
D03*
X210236D02*
D03*
X186614D02*
D03*
X143307Y152953D02*
D03*
X139370Y149016D02*
D03*
X147244D02*
D03*
X139370Y156890D02*
D03*
X147244D02*
D03*
X131496Y149016D02*
D03*
X135433Y152953D02*
D03*
X155118Y156890D02*
D03*
X162992D02*
D03*
X151181Y152953D02*
D03*
X170866Y156890D02*
D03*
X174803Y152953D02*
D03*
X170866Y149016D02*
D03*
X178740D02*
D03*
Y156890D02*
D03*
X166929Y152953D02*
D03*
X159055D02*
D03*
X162992Y149016D02*
D03*
X155118D02*
D03*
X123622Y156890D02*
D03*
X131496D02*
D03*
X127953Y220472D02*
D03*
X120079D02*
D03*
X112205D02*
D03*
X57087D02*
D03*
X64961D02*
D03*
X72835D02*
D03*
X80709D02*
D03*
X88583D02*
D03*
X96457D02*
D03*
X104331D02*
D03*
X135827D02*
D03*
X143701D02*
D03*
X151575D02*
D03*
X159449D02*
D03*
X167323D02*
D03*
X175197D02*
D03*
X153543Y171260D02*
D03*
X161417D02*
D03*
X169291D02*
D03*
X224410D02*
D03*
X216535D02*
D03*
X208661D02*
D03*
X200787D02*
D03*
X192913D02*
D03*
X185039D02*
D03*
X177165D02*
D03*
X145669D02*
D03*
X137795D02*
D03*
X129921D02*
D03*
X122047D02*
D03*
X114173D02*
D03*
X106299D02*
D03*
X230315D02*
D03*
X238189D02*
D03*
X246063D02*
D03*
X135827Y57087D02*
D03*
X143701D02*
D03*
X151575D02*
D03*
X159449D02*
D03*
X167323D02*
D03*
X175197D02*
D03*
X206693D02*
D03*
X214567D02*
D03*
X222441D02*
D03*
X230315D02*
D03*
X238189D02*
D03*
X198819D02*
D03*
X190945D02*
D03*
X183071D02*
D03*
X142717Y110236D02*
D03*
X150591D02*
D03*
X158465D02*
D03*
X166339D02*
D03*
X174213D02*
D03*
X182087D02*
D03*
X213583D02*
D03*
X221457D02*
D03*
X229331D02*
D03*
X237205D02*
D03*
X245079D02*
D03*
X205709D02*
D03*
X197835D02*
D03*
X189961D02*
D03*
X179134Y224410D02*
D03*
X171260D02*
D03*
X163386D02*
D03*
X155512D02*
D03*
X9351Y30512D02*
D03*
X5413Y38386D02*
D03*
X9351Y46260D02*
D03*
X5413Y54134D02*
D03*
X9351Y62008D02*
D03*
X5413Y69882D02*
D03*
X9351Y77756D02*
D03*
X5413Y85630D02*
D03*
X9351Y93504D02*
D03*
X5413Y101378D02*
D03*
X9351Y109252D02*
D03*
X5413Y117126D02*
D03*
X9351Y125000D02*
D03*
X5413Y132874D02*
D03*
X9351Y140748D02*
D03*
X5413Y148622D02*
D03*
X9351Y156496D02*
D03*
X5413Y164370D02*
D03*
X9351Y172244D02*
D03*
X5413Y180118D02*
D03*
X9351Y187992D02*
D03*
X5413Y195866D02*
D03*
X9351Y203740D02*
D03*
X5413Y211614D02*
D03*
X9351Y219488D02*
D03*
X5413Y227362D02*
D03*
X13287Y38386D02*
D03*
X17224Y46260D02*
D03*
X13287Y54134D02*
D03*
X17224Y62008D02*
D03*
X13287Y69882D02*
D03*
X17224Y77756D02*
D03*
X13287Y85630D02*
D03*
X17224Y93504D02*
D03*
X13287Y101378D02*
D03*
X17224Y109252D02*
D03*
X13287Y117126D02*
D03*
X17224Y125000D02*
D03*
X13287Y132874D02*
D03*
X17224Y140748D02*
D03*
X13287Y148622D02*
D03*
X17224Y156496D02*
D03*
X13287Y164370D02*
D03*
X17224Y172244D02*
D03*
X13287Y180118D02*
D03*
X17224Y187992D02*
D03*
X13287Y195866D02*
D03*
X17224Y203740D02*
D03*
X13287Y211614D02*
D03*
X17224Y219488D02*
D03*
X25099Y30512D02*
D03*
X21161Y38386D02*
D03*
X25099Y46260D02*
D03*
X21161Y54134D02*
D03*
Y69882D02*
D03*
X25099Y77756D02*
D03*
X21161Y85630D02*
D03*
X25099Y93504D02*
D03*
X21161Y101378D02*
D03*
X25099Y109252D02*
D03*
X21161Y117126D02*
D03*
X25099Y125000D02*
D03*
X21161Y132874D02*
D03*
X25099Y140748D02*
D03*
X21161Y148622D02*
D03*
X25099Y156496D02*
D03*
X21161Y164370D02*
D03*
X25099Y172244D02*
D03*
X21161Y180118D02*
D03*
X25099Y187992D02*
D03*
X21161Y195866D02*
D03*
X25099Y203740D02*
D03*
X21161Y211614D02*
D03*
X25099Y219488D02*
D03*
X29036Y6890D02*
D03*
X32973Y14764D02*
D03*
Y30512D02*
D03*
X29036Y38386D02*
D03*
Y195866D02*
D03*
X32973Y203740D02*
D03*
X29036Y211614D02*
D03*
X32973Y219488D02*
D03*
X29036Y227362D02*
D03*
X32973Y235236D02*
D03*
X36910Y6890D02*
D03*
X40847Y14764D02*
D03*
X36910Y22638D02*
D03*
Y211614D02*
D03*
X40847Y219488D02*
D03*
X36910Y227362D02*
D03*
X40847Y235236D02*
D03*
X36910Y243110D02*
D03*
X44784Y6890D02*
D03*
X48721Y14764D02*
D03*
Y77756D02*
D03*
X44784Y85630D02*
D03*
X48721Y93504D02*
D03*
X44784Y101378D02*
D03*
Y227362D02*
D03*
X48721Y235236D02*
D03*
X44784Y243110D02*
D03*
X52658Y6890D02*
D03*
X56595Y14764D02*
D03*
X52658Y85630D02*
D03*
X56595Y93504D02*
D03*
X52658Y101378D02*
D03*
Y227362D02*
D03*
X60532Y6890D02*
D03*
X64469Y14764D02*
D03*
Y93504D02*
D03*
X60532Y101378D02*
D03*
X68406Y6890D02*
D03*
X72343Y14764D02*
D03*
Y93504D02*
D03*
X68406Y101378D02*
D03*
X76280Y6890D02*
D03*
X80217Y14764D02*
D03*
Y93504D02*
D03*
X76280Y101378D02*
D03*
X84154Y6890D02*
D03*
X88091Y14764D02*
D03*
X92028Y6890D02*
D03*
X95965Y14764D02*
D03*
X92028Y22638D02*
D03*
X99902Y6890D02*
D03*
X103839Y14764D02*
D03*
X99902Y22638D02*
D03*
Y38386D02*
D03*
Y164370D02*
D03*
X107776Y6890D02*
D03*
X111713Y14764D02*
D03*
X107776Y22638D02*
D03*
X115650Y6890D02*
D03*
X119587Y14764D02*
D03*
X115650Y22638D02*
D03*
X119587Y30512D02*
D03*
X123524Y6890D02*
D03*
X127461Y14764D02*
D03*
X131398Y6890D02*
D03*
X135335Y14764D02*
D03*
X139272Y6890D02*
D03*
X143209Y14764D02*
D03*
Y140748D02*
D03*
X147146Y6890D02*
D03*
X151083Y14764D02*
D03*
Y140748D02*
D03*
X155020Y6890D02*
D03*
X158957Y14764D02*
D03*
Y140748D02*
D03*
X162894Y6890D02*
D03*
X166831Y14764D02*
D03*
Y140748D02*
D03*
X170768Y6890D02*
D03*
X174705Y14764D02*
D03*
Y140748D02*
D03*
X178642Y6890D02*
D03*
X182579Y14764D02*
D03*
Y140748D02*
D03*
Y235236D02*
D03*
X186516Y6890D02*
D03*
X190453Y14764D02*
D03*
Y140748D02*
D03*
X186516Y164370D02*
D03*
Y227362D02*
D03*
X190453Y235236D02*
D03*
X186516Y243110D02*
D03*
X194390Y6890D02*
D03*
X198327Y14764D02*
D03*
Y140748D02*
D03*
X194390Y164370D02*
D03*
Y227362D02*
D03*
X198327Y235236D02*
D03*
X194390Y243110D02*
D03*
X202264Y6890D02*
D03*
X206201Y14764D02*
D03*
Y140748D02*
D03*
X202264Y164370D02*
D03*
Y227362D02*
D03*
X206201Y235236D02*
D03*
X202264Y243110D02*
D03*
X210138Y6890D02*
D03*
X214075Y14764D02*
D03*
Y125000D02*
D03*
Y140748D02*
D03*
X210138Y164370D02*
D03*
Y227362D02*
D03*
X214075Y235236D02*
D03*
X210138Y243110D02*
D03*
X218012Y6890D02*
D03*
X221949Y14764D02*
D03*
X218012Y22638D02*
D03*
Y117126D02*
D03*
X221949Y125000D02*
D03*
Y156496D02*
D03*
X218012Y164370D02*
D03*
Y227362D02*
D03*
X221949Y235236D02*
D03*
X218012Y243110D02*
D03*
X225886Y6890D02*
D03*
X229823Y14764D02*
D03*
X225886Y22638D02*
D03*
Y117126D02*
D03*
Y164370D02*
D03*
Y227362D02*
D03*
X229823Y235236D02*
D03*
X225886Y243110D02*
D03*
X233760Y6890D02*
D03*
Y22638D02*
D03*
Y117126D02*
D03*
Y164370D02*
D03*
Y227362D02*
D03*
Y243110D02*
D03*
X241634Y117126D02*
D03*
X245571Y125000D02*
D03*
Y156496D02*
D03*
X241634Y164370D02*
D03*
Y227362D02*
D03*
X253445Y46260D02*
D03*
X249508Y54134D02*
D03*
X253445Y62008D02*
D03*
Y109252D02*
D03*
X249508Y117126D02*
D03*
X253445Y125000D02*
D03*
Y140748D02*
D03*
Y156496D02*
D03*
X249508Y164370D02*
D03*
X253445Y172244D02*
D03*
Y219488D02*
D03*
X261319Y30512D02*
D03*
X257382Y38386D02*
D03*
X261319Y46260D02*
D03*
X257382Y54134D02*
D03*
X261319Y62008D02*
D03*
X257382Y69882D02*
D03*
X261319Y77756D02*
D03*
X257382Y85630D02*
D03*
X261319Y93504D02*
D03*
X257382Y101378D02*
D03*
X261319Y109252D02*
D03*
X257382Y117126D02*
D03*
X261319Y125000D02*
D03*
X257382Y132874D02*
D03*
X261319Y140748D02*
D03*
X257382Y148622D02*
D03*
X261319Y156496D02*
D03*
X257382Y164370D02*
D03*
X261319Y172244D02*
D03*
X257382Y180118D02*
D03*
X261319Y187992D02*
D03*
X257382Y195866D02*
D03*
X261319Y203740D02*
D03*
X257382Y211614D02*
D03*
X261319Y219488D02*
D03*
X79724Y52165D02*
D03*
X52559Y25197D02*
D03*
X58858Y29035D02*
D03*
X46260Y25492D02*
D03*
X71260Y35335D02*
D03*
X49803Y67913D02*
D03*
X58858Y53740D02*
D03*
X64764Y83661D02*
D03*
X95548Y82721D02*
D03*
D40*
X90847Y55118D02*
D03*
X179134Y197835D02*
D03*
X133858Y64961D02*
D03*
X83635Y85584D02*
D03*
X89173Y85433D02*
D03*
X109744Y62598D02*
D03*
X136380Y137729D02*
D03*
M02*
