G04*
G04 #@! TF.GenerationSoftware,Altium Limited,Altium Designer,26.1.1 (7)*
G04*
G04 Layer_Color=2752767*
%FSLAX25Y25*%
%MOIN*%
G70*
G04*
G04 #@! TF.SameCoordinates,5867FEAB-4AF7-4C39-AA23-D09B853D4626*
G04*
G04*
G04 #@! TF.FilePolarity,Positive*
G04*
G01*
G75*
%ADD61C,0.00500*%
D61*
X234252Y138748D02*
X235252Y139748D01*
X236252D01*
X235252Y140748D01*
X236252Y141748D01*
X235252D01*
X234252Y142748D01*
X233252Y141748D01*
X232252D01*
X233252Y140748D01*
X232252Y139748D01*
X233252D01*
X234252Y138748D01*
X15748Y13748D02*
X13748Y17748D01*
X17748D01*
X15748Y13748D01*
X251969D02*
X249969Y17748D01*
X253969D01*
X251969Y13748D01*
X251969Y238158D02*
X249969Y242158D01*
X253969D01*
X251969Y238158D01*
X15748D02*
X13748Y242158D01*
X17748D01*
X15748Y238158D01*
X234252Y39339D02*
X235252Y40339D01*
X236252D01*
X235252Y41339D01*
X236252Y42339D01*
X235252D01*
X234252Y43339D01*
X233252Y42339D01*
X232252D01*
X233252Y41339D01*
X232252Y40339D01*
X233252D01*
X234252Y39339D01*
Y81661D02*
X235252Y82661D01*
X236252D01*
X235252Y83661D01*
X236252Y84661D01*
X235252D01*
X234252Y85661D01*
X233252Y84661D01*
X232252D01*
X233252Y83661D01*
X232252Y82661D01*
X233252D01*
X234252Y81661D01*
Y194555D02*
X235252Y195555D01*
X236252D01*
X235252Y196555D01*
X236252Y197555D01*
X235252D01*
X234252Y198555D01*
X233252Y197555D01*
X232252D01*
X233252Y196555D01*
X232252Y195555D01*
X233252D01*
X234252Y194555D01*
X221413Y33049D02*
Y37049D01*
X225413D01*
Y33049D01*
X221413D01*
X221357Y36199D02*
Y40199D01*
X225357D01*
Y36199D01*
X221357D01*
X223745Y37764D02*
Y41763D01*
X227745D01*
Y37764D01*
X223745D01*
X221186Y39339D02*
Y43339D01*
X225186D01*
Y39339D01*
X221186D01*
X223689Y40913D02*
Y44913D01*
X227689D01*
Y40913D01*
X223689D01*
X221074Y45638D02*
Y49639D01*
X225074D01*
Y45638D01*
X221074D01*
X223801Y34613D02*
Y38614D01*
X227801D01*
Y34613D01*
X223801D01*
X221130Y42489D02*
Y46488D01*
X225130D01*
Y42489D01*
X221130D01*
X223633Y44063D02*
Y48063D01*
X227633D01*
Y44063D01*
X223633D01*
X123984Y57055D02*
Y61055D01*
X127984D01*
Y57055D01*
X123984D01*
X112173Y60992D02*
Y64992D01*
X116173D01*
Y60992D01*
X112173D01*
X120047D02*
Y64992D01*
X124047D01*
Y60992D01*
X120047D01*
Y53118D02*
Y57118D01*
X124047D01*
Y53118D01*
X120047D01*
X116110Y57055D02*
Y61055D01*
X120110D01*
Y57055D01*
X116110D01*
X112173Y53118D02*
Y57118D01*
X116173D01*
Y53118D01*
X112173D01*
X90520Y68472D02*
Y72472D01*
X94520D01*
Y68472D01*
X90520D01*
X143669Y28709D02*
Y32709D01*
X147669D01*
Y28709D01*
X143669D01*
X135795D02*
Y32709D01*
X139795D01*
Y28709D01*
X135795D01*
X127921D02*
Y32709D01*
X131921D01*
Y28709D01*
X127921D01*
X139732Y24772D02*
Y28772D01*
X143732D01*
Y24772D01*
X139732D01*
X131858D02*
Y28772D01*
X135858D01*
Y24772D01*
X131858D01*
X123984D02*
Y28772D01*
X127984D01*
Y24772D01*
X123984D01*
X167291Y28709D02*
Y32709D01*
X171291D01*
Y28709D01*
X167291D01*
X159417D02*
Y32709D01*
X163417D01*
Y28709D01*
X159417D01*
X151543D02*
Y32709D01*
X155543D01*
Y28709D01*
X151543D01*
X163354Y24772D02*
Y28772D01*
X167354D01*
Y24772D01*
X163354D01*
X155480D02*
Y28772D01*
X159480D01*
Y24772D01*
X155480D01*
X147606D02*
Y28772D01*
X151606D01*
Y24772D01*
X147606D01*
X190913Y28709D02*
Y32709D01*
X194913D01*
Y28709D01*
X190913D01*
X183039D02*
Y32709D01*
X187039D01*
Y28709D01*
X183039D01*
X175165D02*
Y32709D01*
X179165D01*
Y28709D01*
X175165D01*
X186976Y24772D02*
Y28772D01*
X190976D01*
Y24772D01*
X186976D01*
X179102D02*
Y28772D01*
X183102D01*
Y24772D01*
X179102D01*
X171228D02*
Y28772D01*
X175228D01*
Y24772D01*
X171228D01*
X214535Y28709D02*
Y32709D01*
X218535D01*
Y28709D01*
X214535D01*
X206661D02*
Y32709D01*
X210661D01*
Y28709D01*
X206661D01*
X198787D02*
Y32709D01*
X202787D01*
Y28709D01*
X198787D01*
X210598Y24772D02*
Y28772D01*
X214598D01*
Y24772D01*
X210598D01*
X202724D02*
Y28772D01*
X206724D01*
Y24772D01*
X202724D01*
X194850D02*
Y28772D01*
X198850D01*
Y24772D01*
X194850D01*
X139732Y40520D02*
Y44520D01*
X143732D01*
Y40520D01*
X139732D01*
X131858D02*
Y44520D01*
X135858D01*
Y40520D01*
X131858D01*
X123984D02*
Y44520D01*
X127984D01*
Y40520D01*
X123984D01*
X143669Y36583D02*
Y40583D01*
X147669D01*
Y36583D01*
X143669D01*
X135795D02*
Y40583D01*
X139795D01*
Y36583D01*
X135795D01*
X127921D02*
Y40583D01*
X131921D01*
Y36583D01*
X127921D01*
X139732Y32646D02*
Y36646D01*
X143732D01*
Y32646D01*
X139732D01*
X131858D02*
Y36646D01*
X135858D01*
Y32646D01*
X131858D01*
X123984D02*
Y36646D01*
X127984D01*
Y32646D01*
X123984D01*
X163354Y40520D02*
Y44520D01*
X167354D01*
Y40520D01*
X163354D01*
X155480D02*
Y44520D01*
X159480D01*
Y40520D01*
X155480D01*
X147606D02*
Y44520D01*
X151606D01*
Y40520D01*
X147606D01*
X167291Y36583D02*
Y40583D01*
X171291D01*
Y36583D01*
X167291D01*
X159417D02*
Y40583D01*
X163417D01*
Y36583D01*
X159417D01*
X151543D02*
Y40583D01*
X155543D01*
Y36583D01*
X151543D01*
X163354Y32646D02*
Y36646D01*
X167354D01*
Y32646D01*
X163354D01*
X155480D02*
Y36646D01*
X159480D01*
Y32646D01*
X155480D01*
X147606D02*
Y36646D01*
X151606D01*
Y32646D01*
X147606D01*
X186976Y40520D02*
Y44520D01*
X190976D01*
Y40520D01*
X186976D01*
X179102D02*
Y44520D01*
X183102D01*
Y40520D01*
X179102D01*
X171228D02*
Y44520D01*
X175228D01*
Y40520D01*
X171228D01*
X190913Y36583D02*
Y40583D01*
X194913D01*
Y36583D01*
X190913D01*
X183039D02*
Y40583D01*
X187039D01*
Y36583D01*
X183039D01*
X175165D02*
Y40583D01*
X179165D01*
Y36583D01*
X175165D01*
X186976Y32646D02*
Y36646D01*
X190976D01*
Y32646D01*
X186976D01*
X179102D02*
Y36646D01*
X183102D01*
Y32646D01*
X179102D01*
X171228D02*
Y36646D01*
X175228D01*
Y32646D01*
X171228D01*
X210598Y40520D02*
Y44520D01*
X214598D01*
Y40520D01*
X210598D01*
X202724D02*
Y44520D01*
X206724D01*
Y40520D01*
X202724D01*
X194850D02*
Y44520D01*
X198850D01*
Y40520D01*
X194850D01*
X214535Y36583D02*
Y40583D01*
X218535D01*
Y36583D01*
X214535D01*
X206661D02*
Y40583D01*
X210661D01*
Y36583D01*
X206661D01*
X198787D02*
Y40583D01*
X202787D01*
Y36583D01*
X198787D01*
X210598Y32646D02*
Y36646D01*
X214598D01*
Y32646D01*
X210598D01*
X202724D02*
Y36646D01*
X206724D01*
Y32646D01*
X202724D01*
X194850D02*
Y36646D01*
X198850D01*
Y32646D01*
X194850D01*
X173197Y242882D02*
Y246882D01*
X177197D01*
Y242882D01*
X173197D01*
X177134Y238945D02*
Y242945D01*
X181134D01*
Y238945D01*
X177134D01*
X173197Y235008D02*
Y239008D01*
X177197D01*
Y235008D01*
X173197D01*
X165323Y242882D02*
Y246882D01*
X169323D01*
Y242882D01*
X165323D01*
X169260Y238945D02*
Y242945D01*
X173260D01*
Y238945D01*
X169260D01*
X165323Y235008D02*
Y239008D01*
X169323D01*
Y235008D01*
X165323D01*
X157449D02*
Y239008D01*
X161449D01*
Y235008D01*
X157449D01*
X149575D02*
Y239008D01*
X153575D01*
Y235008D01*
X149575D01*
X141701D02*
Y239008D01*
X145701D01*
Y235008D01*
X141701D01*
X133827D02*
Y239008D01*
X137827D01*
Y235008D01*
X133827D01*
X161386Y238945D02*
Y242945D01*
X165386D01*
Y238945D01*
X161386D01*
X153512D02*
Y242945D01*
X157512D01*
Y238945D01*
X153512D01*
X145638D02*
Y242945D01*
X149638D01*
Y238945D01*
X145638D01*
X137764D02*
Y242945D01*
X141764D01*
Y238945D01*
X137764D01*
X157449Y242882D02*
Y246882D01*
X161449D01*
Y242882D01*
X157449D01*
X149575D02*
Y246882D01*
X153575D01*
Y242882D01*
X149575D01*
X141701D02*
Y246882D01*
X145701D01*
Y242882D01*
X141701D01*
X133827D02*
Y246882D01*
X137827D01*
Y242882D01*
X133827D01*
X102331D02*
Y246882D01*
X106331D01*
Y242882D01*
X102331D01*
X94457D02*
Y246882D01*
X98457D01*
Y242882D01*
X94457D01*
X86583D02*
Y246882D01*
X90583D01*
Y242882D01*
X86583D01*
X78709D02*
Y246882D01*
X82709D01*
Y242882D01*
X78709D01*
X70835D02*
Y246882D01*
X74835D01*
Y242882D01*
X70835D01*
X62961D02*
Y246882D01*
X66961D01*
Y242882D01*
X62961D01*
X55087D02*
Y246882D01*
X59087D01*
Y242882D01*
X55087D01*
X110205D02*
Y246882D01*
X114205D01*
Y242882D01*
X110205D01*
X118079D02*
Y246882D01*
X122079D01*
Y242882D01*
X118079D01*
X125953D02*
Y246882D01*
X129953D01*
Y242882D01*
X125953D01*
X106268Y238945D02*
Y242945D01*
X110268D01*
Y238945D01*
X106268D01*
X98394D02*
Y242945D01*
X102394D01*
Y238945D01*
X98394D01*
X90520D02*
Y242945D01*
X94520D01*
Y238945D01*
X90520D01*
X82646D02*
Y242945D01*
X86646D01*
Y238945D01*
X82646D01*
X74772D02*
Y242945D01*
X78772D01*
Y238945D01*
X74772D01*
X66898D02*
Y242945D01*
X70898D01*
Y238945D01*
X66898D01*
X59024D02*
Y242945D01*
X63024D01*
Y238945D01*
X59024D01*
X114142D02*
Y242945D01*
X118142D01*
Y238945D01*
X114142D01*
X122016D02*
Y242945D01*
X126016D01*
Y238945D01*
X122016D01*
X129890D02*
Y242945D01*
X133890D01*
Y238945D01*
X129890D01*
X102331Y235008D02*
Y239008D01*
X106331D01*
Y235008D01*
X102331D01*
X94457D02*
Y239008D01*
X98457D01*
Y235008D01*
X94457D01*
X86583D02*
Y239008D01*
X90583D01*
Y235008D01*
X86583D01*
X78709D02*
Y239008D01*
X82709D01*
Y235008D01*
X78709D01*
X70835D02*
Y239008D01*
X74835D01*
Y235008D01*
X70835D01*
X62961D02*
Y239008D01*
X66961D01*
Y235008D01*
X62961D01*
X55087D02*
Y239008D01*
X59087D01*
Y235008D01*
X55087D01*
X110205D02*
Y239008D01*
X114205D01*
Y235008D01*
X110205D01*
X118079D02*
Y239008D01*
X122079D01*
Y235008D01*
X118079D01*
X125953D02*
Y239008D01*
X129953D01*
Y235008D01*
X125953D01*
X194063Y130677D02*
Y134677D01*
X198063D01*
Y130677D01*
X194063D01*
X198000Y126740D02*
Y130740D01*
X202000D01*
Y126740D01*
X198000D01*
X190126D02*
Y130740D01*
X194126D01*
Y126740D01*
X190126D01*
X194063Y122803D02*
Y126803D01*
X198063D01*
Y122803D01*
X194063D01*
X138945Y130677D02*
Y134677D01*
X142945D01*
Y130677D01*
X138945D01*
X146819D02*
Y134677D01*
X150819D01*
Y130677D01*
X146819D01*
X154693D02*
Y134677D01*
X158693D01*
Y130677D01*
X154693D01*
X162567D02*
Y134677D01*
X166567D01*
Y130677D01*
X162567D01*
X170441D02*
Y134677D01*
X174441D01*
Y130677D01*
X170441D01*
X178315D02*
Y134677D01*
X182315D01*
Y130677D01*
X178315D01*
X186189D02*
Y134677D01*
X190189D01*
Y130677D01*
X186189D01*
Y122803D02*
Y126803D01*
X190189D01*
Y122803D01*
X186189D01*
X178315D02*
Y126803D01*
X182315D01*
Y122803D01*
X178315D01*
X170441D02*
Y126803D01*
X174441D01*
Y122803D01*
X170441D01*
X162567D02*
Y126803D01*
X166567D01*
Y122803D01*
X162567D01*
X154693D02*
Y126803D01*
X158693D01*
Y122803D01*
X154693D01*
X146819D02*
Y126803D01*
X150819D01*
Y122803D01*
X146819D01*
X138945D02*
Y126803D01*
X142945D01*
Y122803D01*
X138945D01*
X142882Y126740D02*
Y130740D01*
X146882D01*
Y126740D01*
X142882D01*
X150756D02*
Y130740D01*
X154756D01*
Y126740D01*
X150756D01*
X158630D02*
Y130740D01*
X162630D01*
Y126740D01*
X158630D01*
X166504D02*
Y130740D01*
X170504D01*
Y126740D01*
X166504D01*
X174378D02*
Y130740D01*
X178378D01*
Y126740D01*
X174378D01*
X182252D02*
Y130740D01*
X186252D01*
Y126740D01*
X182252D01*
X52331Y43768D02*
Y47768D01*
X56331D01*
Y43768D01*
X52331D01*
X64220Y50253D02*
Y54253D01*
X68221D01*
Y50253D01*
X64220D01*
X68394Y50275D02*
Y54275D01*
X72394D01*
Y50275D01*
X68394D01*
X66318Y47016D02*
Y51016D01*
X70318D01*
Y47016D01*
X66318D01*
X66296Y53512D02*
Y57512D01*
X70296D01*
Y53512D01*
X66296D01*
X88157Y58728D02*
Y62728D01*
X92158D01*
Y58728D01*
X88157D01*
X80087Y57350D02*
Y61350D01*
X84087D01*
Y57350D01*
X80087D01*
X89339Y47902D02*
Y51902D01*
X93339D01*
Y47902D01*
X89339D01*
X53118Y55087D02*
Y59087D01*
X57118D01*
Y55087D01*
X53118D01*
X59024Y34417D02*
Y38417D01*
X63024D01*
Y34417D01*
X59024D01*
X67882Y36386D02*
Y40386D01*
X71882D01*
Y36386D01*
X67882D01*
X88551Y31465D02*
Y35465D01*
X92551D01*
Y31465D01*
X88551D01*
X91504Y34417D02*
Y38417D01*
X95504D01*
Y34417D01*
X91504D01*
X85598D02*
Y38417D01*
X89598D01*
Y34417D01*
X85598D01*
X36386Y52134D02*
Y56134D01*
X40386D01*
Y52134D01*
X36386D01*
X74772Y60008D02*
Y64008D01*
X78772D01*
Y60008D01*
X74772D01*
X71819Y67882D02*
Y71882D01*
X75819D01*
Y67882D01*
X71819D01*
X82041Y66189D02*
Y70189D01*
X86041D01*
Y66189D01*
X82041D01*
X201937Y130677D02*
Y134677D01*
X205937D01*
Y130677D01*
X201937D01*
X205874Y126740D02*
Y130740D01*
X209874D01*
Y126740D01*
X205874D01*
X201937Y122803D02*
Y126803D01*
X205937D01*
Y122803D01*
X201937D01*
X232252Y28216D02*
Y32217D01*
X236252D01*
Y28216D01*
X232252D01*
X229102Y28161D02*
Y32161D01*
X233102D01*
Y28161D01*
X229102D01*
X225952Y28105D02*
Y32105D01*
X229952D01*
Y28105D01*
X225952D01*
X235391Y28388D02*
Y32388D01*
X239391D01*
Y28388D01*
X235391D01*
X238541Y28443D02*
Y32443D01*
X242541D01*
Y28443D01*
X238541D01*
X233827Y30776D02*
Y34776D01*
X237827D01*
Y30776D01*
X233827D01*
X236977Y30831D02*
Y34831D01*
X240977D01*
Y30831D01*
X236977D01*
X230677Y30720D02*
Y34720D01*
X234677D01*
Y30720D01*
X230677D01*
X227527Y30664D02*
Y34664D01*
X231527D01*
Y30664D01*
X227527D01*
X241068Y34614D02*
Y38614D01*
X245068D01*
Y34614D01*
X241068D01*
X241012Y37764D02*
Y41764D01*
X245012D01*
Y37764D01*
X241012D01*
X240900Y44064D02*
Y48064D01*
X244900D01*
Y44064D01*
X240900D01*
X240956Y40914D02*
Y44914D01*
X244956D01*
Y40914D01*
X240956D01*
X243288Y45628D02*
Y49628D01*
X247288D01*
Y45628D01*
X243288D01*
X243344Y42478D02*
Y46478D01*
X247344D01*
Y42478D01*
X243344D01*
X243627Y33039D02*
Y37039D01*
X247627D01*
Y33039D01*
X243627D01*
X243571Y36189D02*
Y40189D01*
X247571D01*
Y36189D01*
X243571D01*
X243515Y39339D02*
Y43339D01*
X247515D01*
Y39339D01*
X243515D01*
X236977Y48167D02*
Y52167D01*
X240977D01*
Y48167D01*
X236977D01*
X233827Y48112D02*
Y52112D01*
X237827D01*
Y48112D01*
X233827D01*
X227528Y48000D02*
Y52000D01*
X231528D01*
Y48000D01*
X227528D01*
X230678Y48056D02*
Y52056D01*
X234678D01*
Y48056D01*
X230678D01*
X225963Y50388D02*
Y54388D01*
X229963D01*
Y50388D01*
X225963D01*
X229113Y50444D02*
Y54444D01*
X233113D01*
Y50444D01*
X229113D01*
X238552Y50726D02*
Y54726D01*
X242552D01*
Y50726D01*
X238552D01*
X235403Y50671D02*
Y54671D01*
X239403D01*
Y50671D01*
X235403D01*
X232253Y50615D02*
Y54615D01*
X236253D01*
Y50615D01*
X232253D01*
X221074Y138749D02*
Y142749D01*
X225074D01*
Y138749D01*
X221074D01*
X221018Y141899D02*
Y145899D01*
X225018D01*
Y141899D01*
X221018D01*
X220963Y145049D02*
Y149049D01*
X224962D01*
Y145049D01*
X220963D01*
X221245Y135609D02*
Y139609D01*
X225245D01*
Y135609D01*
X221245D01*
X221301Y132459D02*
Y136459D01*
X225301D01*
Y132459D01*
X221301D01*
X223633Y137174D02*
Y141174D01*
X227633D01*
Y137174D01*
X223633D01*
X223689Y134024D02*
Y138024D01*
X227689D01*
Y134024D01*
X223689D01*
X223577Y140323D02*
Y144324D01*
X227577D01*
Y140323D01*
X223577D01*
X223522Y143473D02*
Y147473D01*
X227522D01*
Y143473D01*
X223522D01*
X232252Y149955D02*
Y153955D01*
X236252D01*
Y149955D01*
X232252D01*
X235402Y150011D02*
Y154011D01*
X239402D01*
Y150011D01*
X235402D01*
X238551Y150067D02*
Y154067D01*
X242551D01*
Y150067D01*
X238551D01*
X229112Y149784D02*
Y153784D01*
X233112D01*
Y149784D01*
X229112D01*
X225962Y149729D02*
Y153728D01*
X229962D01*
Y149729D01*
X225962D01*
X230677Y147396D02*
Y151396D01*
X234677D01*
Y147396D01*
X230677D01*
X227527Y147341D02*
Y151340D01*
X231527D01*
Y147341D01*
X227527D01*
X233826Y147452D02*
Y151452D01*
X237826D01*
Y147452D01*
X233826D01*
X236976Y147508D02*
Y151508D01*
X240976D01*
Y147508D01*
X236976D01*
X243417Y138748D02*
Y142748D01*
X247417D01*
Y138748D01*
X243417D01*
X243472Y135598D02*
Y139598D01*
X247472D01*
Y135598D01*
X243472D01*
X243528Y132448D02*
Y136448D01*
X247528D01*
Y132448D01*
X243528D01*
X243246Y141888D02*
Y145888D01*
X247246D01*
Y141888D01*
X243246D01*
X243190Y145038D02*
Y149038D01*
X247190D01*
Y145038D01*
X243190D01*
X240858Y140323D02*
Y144323D01*
X244858D01*
Y140323D01*
X240858D01*
X240802Y143473D02*
Y147473D01*
X244802D01*
Y143473D01*
X240802D01*
X240913Y137173D02*
Y141173D01*
X244913D01*
Y137173D01*
X240913D01*
X240969Y134023D02*
Y138023D01*
X244969D01*
Y134023D01*
X240969D01*
X227626Y130087D02*
Y134087D01*
X231626D01*
Y130087D01*
X227626D01*
X230776Y130142D02*
Y134142D01*
X234776D01*
Y130142D01*
X230776D01*
X237076Y130254D02*
Y134254D01*
X241076D01*
Y130254D01*
X237076D01*
X233926Y130198D02*
Y134198D01*
X237926D01*
Y130198D01*
X233926D01*
X238640Y127866D02*
Y131866D01*
X242640D01*
Y127866D01*
X238640D01*
X235490Y127810D02*
Y131810D01*
X239490D01*
Y127810D01*
X235490D01*
X226051Y127528D02*
Y131528D01*
X230051D01*
Y127528D01*
X226051D01*
X229201Y127583D02*
Y131583D01*
X233201D01*
Y127583D01*
X229201D01*
X232351Y127639D02*
Y131639D01*
X236351D01*
Y127639D01*
X232351D01*
X188551Y150953D02*
Y154953D01*
X192551D01*
Y150953D01*
X188551D01*
X204299D02*
Y154953D01*
X208299D01*
Y150953D01*
X204299D01*
X196425D02*
Y154953D01*
X200425D01*
Y150953D01*
X196425D01*
X180677D02*
Y154953D01*
X184677D01*
Y150953D01*
X180677D01*
X184614Y154890D02*
Y158890D01*
X188614D01*
Y154890D01*
X184614D01*
X200362D02*
Y158890D01*
X204362D01*
Y154890D01*
X200362D01*
X192488D02*
Y158890D01*
X196488D01*
Y154890D01*
X192488D01*
X208236D02*
Y158890D01*
X212236D01*
Y154890D01*
X208236D01*
X192488Y147016D02*
Y151016D01*
X196488D01*
Y147016D01*
X192488D01*
X200362D02*
Y151016D01*
X204362D01*
Y147016D01*
X200362D01*
X208236D02*
Y151016D01*
X212236D01*
Y147016D01*
X208236D01*
X184614D02*
Y151016D01*
X188614D01*
Y147016D01*
X184614D01*
X141307Y150953D02*
Y154953D01*
X145307D01*
Y150953D01*
X141307D01*
X137370Y147016D02*
Y151016D01*
X141370D01*
Y147016D01*
X137370D01*
X145244D02*
Y151016D01*
X149244D01*
Y147016D01*
X145244D01*
X137370Y154890D02*
Y158890D01*
X141370D01*
Y154890D01*
X137370D01*
X145244D02*
Y158890D01*
X149244D01*
Y154890D01*
X145244D01*
X129496Y147016D02*
Y151016D01*
X133496D01*
Y147016D01*
X129496D01*
X133433Y150953D02*
Y154953D01*
X137433D01*
Y150953D01*
X133433D01*
X153118Y154890D02*
Y158890D01*
X157118D01*
Y154890D01*
X153118D01*
X160992D02*
Y158890D01*
X164992D01*
Y154890D01*
X160992D01*
X149181Y150953D02*
Y154953D01*
X153181D01*
Y150953D01*
X149181D01*
X168866Y154890D02*
Y158890D01*
X172866D01*
Y154890D01*
X168866D01*
X172803Y150953D02*
Y154953D01*
X176803D01*
Y150953D01*
X172803D01*
X168866Y147016D02*
Y151016D01*
X172866D01*
Y147016D01*
X168866D01*
X176740D02*
Y151016D01*
X180740D01*
Y147016D01*
X176740D01*
Y154890D02*
Y158890D01*
X180740D01*
Y154890D01*
X176740D01*
X164929Y150953D02*
Y154953D01*
X168929D01*
Y150953D01*
X164929D01*
X157055D02*
Y154953D01*
X161055D01*
Y150953D01*
X157055D01*
X160992Y147016D02*
Y151016D01*
X164992D01*
Y147016D01*
X160992D01*
X153118D02*
Y151016D01*
X157118D01*
Y147016D01*
X153118D01*
X121622Y154890D02*
Y158890D01*
X125622D01*
Y154890D01*
X121622D01*
X129496D02*
Y158890D01*
X133496D01*
Y154890D01*
X129496D01*
X125953Y218472D02*
Y222472D01*
X129953D01*
Y218472D01*
X125953D01*
X118079D02*
Y222472D01*
X122079D01*
Y218472D01*
X118079D01*
X110205D02*
Y222472D01*
X114205D01*
Y218472D01*
X110205D01*
X55087D02*
Y222472D01*
X59087D01*
Y218472D01*
X55087D01*
X62961D02*
Y222472D01*
X66961D01*
Y218472D01*
X62961D01*
X70835D02*
Y222472D01*
X74835D01*
Y218472D01*
X70835D01*
X78709D02*
Y222472D01*
X82709D01*
Y218472D01*
X78709D01*
X86583D02*
Y222472D01*
X90583D01*
Y218472D01*
X86583D01*
X94457D02*
Y222472D01*
X98457D01*
Y218472D01*
X94457D01*
X102331D02*
Y222472D01*
X106331D01*
Y218472D01*
X102331D01*
X133827D02*
Y222472D01*
X137827D01*
Y218472D01*
X133827D01*
X141701D02*
Y222472D01*
X145701D01*
Y218472D01*
X141701D01*
X149575D02*
Y222472D01*
X153575D01*
Y218472D01*
X149575D01*
X157449D02*
Y222472D01*
X161449D01*
Y218472D01*
X157449D01*
X165323D02*
Y222472D01*
X169323D01*
Y218472D01*
X165323D01*
X173197D02*
Y222472D01*
X177197D01*
Y218472D01*
X173197D01*
X151543Y169260D02*
Y173260D01*
X155543D01*
Y169260D01*
X151543D01*
X159417D02*
Y173260D01*
X163417D01*
Y169260D01*
X159417D01*
X167291D02*
Y173260D01*
X171291D01*
Y169260D01*
X167291D01*
X222410D02*
Y173260D01*
X226410D01*
Y169260D01*
X222410D01*
X214535D02*
Y173260D01*
X218535D01*
Y169260D01*
X214535D01*
X206661D02*
Y173260D01*
X210661D01*
Y169260D01*
X206661D01*
X198787D02*
Y173260D01*
X202787D01*
Y169260D01*
X198787D01*
X190913D02*
Y173260D01*
X194913D01*
Y169260D01*
X190913D01*
X183039D02*
Y173260D01*
X187039D01*
Y169260D01*
X183039D01*
X175165D02*
Y173260D01*
X179165D01*
Y169260D01*
X175165D01*
X143669D02*
Y173260D01*
X147669D01*
Y169260D01*
X143669D01*
X135795D02*
Y173260D01*
X139795D01*
Y169260D01*
X135795D01*
X127921D02*
Y173260D01*
X131921D01*
Y169260D01*
X127921D01*
X120047D02*
Y173260D01*
X124047D01*
Y169260D01*
X120047D01*
X112173D02*
Y173260D01*
X116173D01*
Y169260D01*
X112173D01*
X104299D02*
Y173260D01*
X108299D01*
Y169260D01*
X104299D01*
X228315D02*
Y173260D01*
X232315D01*
Y169260D01*
X228315D01*
X236189D02*
Y173260D01*
X240189D01*
Y169260D01*
X236189D01*
X244063D02*
Y173260D01*
X248063D01*
Y169260D01*
X244063D01*
X133827Y55087D02*
Y59087D01*
X137827D01*
Y55087D01*
X133827D01*
X141701D02*
Y59087D01*
X145701D01*
Y55087D01*
X141701D01*
X149575D02*
Y59087D01*
X153575D01*
Y55087D01*
X149575D01*
X157449D02*
Y59087D01*
X161449D01*
Y55087D01*
X157449D01*
X165323D02*
Y59087D01*
X169323D01*
Y55087D01*
X165323D01*
X173197D02*
Y59087D01*
X177197D01*
Y55087D01*
X173197D01*
X204693D02*
Y59087D01*
X208693D01*
Y55087D01*
X204693D01*
X212567D02*
Y59087D01*
X216567D01*
Y55087D01*
X212567D01*
X220441D02*
Y59087D01*
X224441D01*
Y55087D01*
X220441D01*
X228315D02*
Y59087D01*
X232315D01*
Y55087D01*
X228315D01*
X236189D02*
Y59087D01*
X240189D01*
Y55087D01*
X236189D01*
X196819D02*
Y59087D01*
X200819D01*
Y55087D01*
X196819D01*
X188945D02*
Y59087D01*
X192945D01*
Y55087D01*
X188945D01*
X181071D02*
Y59087D01*
X185071D01*
Y55087D01*
X181071D01*
X140717Y108236D02*
Y112236D01*
X144717D01*
Y108236D01*
X140717D01*
X148591D02*
Y112236D01*
X152591D01*
Y108236D01*
X148591D01*
X156465D02*
Y112236D01*
X160465D01*
Y108236D01*
X156465D01*
X164339D02*
Y112236D01*
X168339D01*
Y108236D01*
X164339D01*
X172213D02*
Y112236D01*
X176213D01*
Y108236D01*
X172213D01*
X180087D02*
Y112236D01*
X184087D01*
Y108236D01*
X180087D01*
X211583D02*
Y112236D01*
X215583D01*
Y108236D01*
X211583D01*
X219457D02*
Y112236D01*
X223457D01*
Y108236D01*
X219457D01*
X227331D02*
Y112236D01*
X231331D01*
Y108236D01*
X227331D01*
X235205D02*
Y112236D01*
X239205D01*
Y108236D01*
X235205D01*
X243079D02*
Y112236D01*
X247079D01*
Y108236D01*
X243079D01*
X203709D02*
Y112236D01*
X207709D01*
Y108236D01*
X203709D01*
X195835D02*
Y112236D01*
X199835D01*
Y108236D01*
X195835D01*
X187961D02*
Y112236D01*
X191961D01*
Y108236D01*
X187961D01*
X177134Y222410D02*
Y226410D01*
X181134D01*
Y222410D01*
X177134D01*
X169260D02*
Y226410D01*
X173260D01*
Y222410D01*
X169260D01*
X161386D02*
Y226410D01*
X165386D01*
Y222410D01*
X161386D01*
X153512D02*
Y226410D01*
X157512D01*
Y222410D01*
X153512D01*
X7350Y28512D02*
Y32512D01*
X11350D01*
Y28512D01*
X7350D01*
X3413Y36386D02*
Y40386D01*
X7413D01*
Y36386D01*
X3413D01*
X7350Y44260D02*
Y48260D01*
X11350D01*
Y44260D01*
X7350D01*
X3413Y52134D02*
Y56134D01*
X7413D01*
Y52134D01*
X3413D01*
X7350Y60008D02*
Y64008D01*
X11350D01*
Y60008D01*
X7350D01*
X3413Y67882D02*
Y71882D01*
X7413D01*
Y67882D01*
X3413D01*
X7350Y75756D02*
Y79756D01*
X11350D01*
Y75756D01*
X7350D01*
X3413Y83630D02*
Y87630D01*
X7413D01*
Y83630D01*
X3413D01*
X7350Y91504D02*
Y95504D01*
X11350D01*
Y91504D01*
X7350D01*
X3413Y99378D02*
Y103378D01*
X7413D01*
Y99378D01*
X3413D01*
X7350Y107252D02*
Y111252D01*
X11350D01*
Y107252D01*
X7350D01*
X3413Y115126D02*
Y119126D01*
X7413D01*
Y115126D01*
X3413D01*
X7350Y123000D02*
Y127000D01*
X11350D01*
Y123000D01*
X7350D01*
X3413Y130874D02*
Y134874D01*
X7413D01*
Y130874D01*
X3413D01*
X7350Y138748D02*
Y142748D01*
X11350D01*
Y138748D01*
X7350D01*
X3413Y146622D02*
Y150622D01*
X7413D01*
Y146622D01*
X3413D01*
X7350Y154496D02*
Y158496D01*
X11350D01*
Y154496D01*
X7350D01*
X3413Y162370D02*
Y166370D01*
X7413D01*
Y162370D01*
X3413D01*
X7350Y170244D02*
Y174244D01*
X11350D01*
Y170244D01*
X7350D01*
X3413Y178118D02*
Y182118D01*
X7413D01*
Y178118D01*
X3413D01*
X7350Y185992D02*
Y189992D01*
X11350D01*
Y185992D01*
X7350D01*
X3413Y193866D02*
Y197866D01*
X7413D01*
Y193866D01*
X3413D01*
X7350Y201740D02*
Y205740D01*
X11350D01*
Y201740D01*
X7350D01*
X3413Y209614D02*
Y213614D01*
X7413D01*
Y209614D01*
X3413D01*
X7350Y217488D02*
Y221488D01*
X11350D01*
Y217488D01*
X7350D01*
X3413Y225362D02*
Y229362D01*
X7413D01*
Y225362D01*
X3413D01*
X11287Y36386D02*
Y40386D01*
X15288D01*
Y36386D01*
X11287D01*
X15225Y44260D02*
Y48260D01*
X19225D01*
Y44260D01*
X15225D01*
X11287Y52134D02*
Y56134D01*
X15288D01*
Y52134D01*
X11287D01*
X15225Y60008D02*
Y64008D01*
X19225D01*
Y60008D01*
X15225D01*
X11287Y67882D02*
Y71882D01*
X15288D01*
Y67882D01*
X11287D01*
X15225Y75756D02*
Y79756D01*
X19225D01*
Y75756D01*
X15225D01*
X11287Y83630D02*
Y87630D01*
X15288D01*
Y83630D01*
X11287D01*
X15225Y91504D02*
Y95504D01*
X19225D01*
Y91504D01*
X15225D01*
X11287Y99378D02*
Y103378D01*
X15288D01*
Y99378D01*
X11287D01*
X15225Y107252D02*
Y111252D01*
X19225D01*
Y107252D01*
X15225D01*
X11287Y115126D02*
Y119126D01*
X15288D01*
Y115126D01*
X11287D01*
X15225Y123000D02*
Y127000D01*
X19225D01*
Y123000D01*
X15225D01*
X11287Y130874D02*
Y134874D01*
X15288D01*
Y130874D01*
X11287D01*
X15225Y138748D02*
Y142748D01*
X19225D01*
Y138748D01*
X15225D01*
X11287Y146622D02*
Y150622D01*
X15288D01*
Y146622D01*
X11287D01*
X15225Y154496D02*
Y158496D01*
X19225D01*
Y154496D01*
X15225D01*
X11287Y162370D02*
Y166370D01*
X15288D01*
Y162370D01*
X11287D01*
X15225Y170244D02*
Y174244D01*
X19225D01*
Y170244D01*
X15225D01*
X11287Y178118D02*
Y182118D01*
X15288D01*
Y178118D01*
X11287D01*
X15225Y185992D02*
Y189992D01*
X19225D01*
Y185992D01*
X15225D01*
X11287Y193866D02*
Y197866D01*
X15288D01*
Y193866D01*
X11287D01*
X15225Y201740D02*
Y205740D01*
X19225D01*
Y201740D01*
X15225D01*
X11287Y209614D02*
Y213614D01*
X15288D01*
Y209614D01*
X11287D01*
X15225Y217488D02*
Y221488D01*
X19225D01*
Y217488D01*
X15225D01*
X23099Y28512D02*
Y32512D01*
X27099D01*
Y28512D01*
X23099D01*
X19162Y36386D02*
Y40386D01*
X23162D01*
Y36386D01*
X19162D01*
X23099Y44260D02*
Y48260D01*
X27099D01*
Y44260D01*
X23099D01*
X19162Y52134D02*
Y56134D01*
X23162D01*
Y52134D01*
X19162D01*
Y67882D02*
Y71882D01*
X23162D01*
Y67882D01*
X19162D01*
X23099Y75756D02*
Y79756D01*
X27099D01*
Y75756D01*
X23099D01*
X19162Y83630D02*
Y87630D01*
X23162D01*
Y83630D01*
X19162D01*
X23099Y91504D02*
Y95504D01*
X27099D01*
Y91504D01*
X23099D01*
X19162Y99378D02*
Y103378D01*
X23162D01*
Y99378D01*
X19162D01*
X23099Y107252D02*
Y111252D01*
X27099D01*
Y107252D01*
X23099D01*
X19162Y115126D02*
Y119126D01*
X23162D01*
Y115126D01*
X19162D01*
X23099Y123000D02*
Y127000D01*
X27099D01*
Y123000D01*
X23099D01*
X19162Y130874D02*
Y134874D01*
X23162D01*
Y130874D01*
X19162D01*
X23099Y138748D02*
Y142748D01*
X27099D01*
Y138748D01*
X23099D01*
X19162Y146622D02*
Y150622D01*
X23162D01*
Y146622D01*
X19162D01*
X23099Y154496D02*
Y158496D01*
X27099D01*
Y154496D01*
X23099D01*
X19162Y162370D02*
Y166370D01*
X23162D01*
Y162370D01*
X19162D01*
X23099Y170244D02*
Y174244D01*
X27099D01*
Y170244D01*
X23099D01*
X19162Y178118D02*
Y182118D01*
X23162D01*
Y178118D01*
X19162D01*
X23099Y185992D02*
Y189992D01*
X27099D01*
Y185992D01*
X23099D01*
X19162Y193866D02*
Y197866D01*
X23162D01*
Y193866D01*
X19162D01*
X23099Y201740D02*
Y205740D01*
X27099D01*
Y201740D01*
X23099D01*
X19162Y209614D02*
Y213614D01*
X23162D01*
Y209614D01*
X19162D01*
X23099Y217488D02*
Y221488D01*
X27099D01*
Y217488D01*
X23099D01*
X27036Y4890D02*
Y8890D01*
X31036D01*
Y4890D01*
X27036D01*
X30973Y12764D02*
Y16764D01*
X34973D01*
Y12764D01*
X30973D01*
Y28512D02*
Y32512D01*
X34973D01*
Y28512D01*
X30973D01*
X27036Y36386D02*
Y40386D01*
X31036D01*
Y36386D01*
X27036D01*
Y193866D02*
Y197866D01*
X31036D01*
Y193866D01*
X27036D01*
X30973Y201740D02*
Y205740D01*
X34973D01*
Y201740D01*
X30973D01*
X27036Y209614D02*
Y213614D01*
X31036D01*
Y209614D01*
X27036D01*
X30973Y217488D02*
Y221488D01*
X34973D01*
Y217488D01*
X30973D01*
X27036Y225362D02*
Y229362D01*
X31036D01*
Y225362D01*
X27036D01*
X30973Y233236D02*
Y237236D01*
X34973D01*
Y233236D01*
X30973D01*
X34910Y4890D02*
Y8890D01*
X38910D01*
Y4890D01*
X34910D01*
X38847Y12764D02*
Y16764D01*
X42847D01*
Y12764D01*
X38847D01*
X34910Y20638D02*
Y24638D01*
X38910D01*
Y20638D01*
X34910D01*
Y209614D02*
Y213614D01*
X38910D01*
Y209614D01*
X34910D01*
X38847Y217488D02*
Y221488D01*
X42847D01*
Y217488D01*
X38847D01*
X34910Y225362D02*
Y229362D01*
X38910D01*
Y225362D01*
X34910D01*
X38847Y233236D02*
Y237236D01*
X42847D01*
Y233236D01*
X38847D01*
X34910Y241110D02*
Y245111D01*
X38910D01*
Y241110D01*
X34910D01*
X42784Y4890D02*
Y8890D01*
X46784D01*
Y4890D01*
X42784D01*
X46721Y12764D02*
Y16764D01*
X50721D01*
Y12764D01*
X46721D01*
Y75756D02*
Y79756D01*
X50721D01*
Y75756D01*
X46721D01*
X42784Y83630D02*
Y87630D01*
X46784D01*
Y83630D01*
X42784D01*
X46721Y91504D02*
Y95504D01*
X50721D01*
Y91504D01*
X46721D01*
X42784Y99378D02*
Y103378D01*
X46784D01*
Y99378D01*
X42784D01*
Y225362D02*
Y229362D01*
X46784D01*
Y225362D01*
X42784D01*
X46721Y233236D02*
Y237236D01*
X50721D01*
Y233236D01*
X46721D01*
X42784Y241110D02*
Y245111D01*
X46784D01*
Y241110D01*
X42784D01*
X50658Y4890D02*
Y8890D01*
X54658D01*
Y4890D01*
X50658D01*
X54595Y12764D02*
Y16764D01*
X58595D01*
Y12764D01*
X54595D01*
X50658Y83630D02*
Y87630D01*
X54658D01*
Y83630D01*
X50658D01*
X54595Y91504D02*
Y95504D01*
X58595D01*
Y91504D01*
X54595D01*
X50658Y99378D02*
Y103378D01*
X54658D01*
Y99378D01*
X50658D01*
Y225362D02*
Y229362D01*
X54658D01*
Y225362D01*
X50658D01*
X58532Y4890D02*
Y8890D01*
X62532D01*
Y4890D01*
X58532D01*
X62469Y12764D02*
Y16764D01*
X66469D01*
Y12764D01*
X62469D01*
Y91504D02*
Y95504D01*
X66469D01*
Y91504D01*
X62469D01*
X58532Y99378D02*
Y103378D01*
X62532D01*
Y99378D01*
X58532D01*
X66406Y4890D02*
Y8890D01*
X70406D01*
Y4890D01*
X66406D01*
X70343Y12764D02*
Y16764D01*
X74343D01*
Y12764D01*
X70343D01*
Y91504D02*
Y95504D01*
X74343D01*
Y91504D01*
X70343D01*
X66406Y99378D02*
Y103378D01*
X70406D01*
Y99378D01*
X66406D01*
X74280Y4890D02*
Y8890D01*
X78280D01*
Y4890D01*
X74280D01*
X78217Y12764D02*
Y16764D01*
X82217D01*
Y12764D01*
X78217D01*
Y91504D02*
Y95504D01*
X82217D01*
Y91504D01*
X78217D01*
X74280Y99378D02*
Y103378D01*
X78280D01*
Y99378D01*
X74280D01*
X82154Y4890D02*
Y8890D01*
X86154D01*
Y4890D01*
X82154D01*
X86091Y12764D02*
Y16764D01*
X90091D01*
Y12764D01*
X86091D01*
X90028Y4890D02*
Y8890D01*
X94028D01*
Y4890D01*
X90028D01*
X93965Y12764D02*
Y16764D01*
X97965D01*
Y12764D01*
X93965D01*
X90028Y20638D02*
Y24638D01*
X94028D01*
Y20638D01*
X90028D01*
X97902Y4890D02*
Y8890D01*
X101902D01*
Y4890D01*
X97902D01*
X101839Y12764D02*
Y16764D01*
X105839D01*
Y12764D01*
X101839D01*
X97902Y20638D02*
Y24638D01*
X101902D01*
Y20638D01*
X97902D01*
Y36386D02*
Y40386D01*
X101902D01*
Y36386D01*
X97902D01*
Y162370D02*
Y166370D01*
X101902D01*
Y162370D01*
X97902D01*
X105776Y4890D02*
Y8890D01*
X109776D01*
Y4890D01*
X105776D01*
X109713Y12764D02*
Y16764D01*
X113713D01*
Y12764D01*
X109713D01*
X105776Y20638D02*
Y24638D01*
X109776D01*
Y20638D01*
X105776D01*
X113650Y4890D02*
Y8890D01*
X117650D01*
Y4890D01*
X113650D01*
X117587Y12764D02*
Y16764D01*
X121587D01*
Y12764D01*
X117587D01*
X113650Y20638D02*
Y24638D01*
X117650D01*
Y20638D01*
X113650D01*
X117587Y28512D02*
Y32512D01*
X121587D01*
Y28512D01*
X117587D01*
X121524Y4890D02*
Y8890D01*
X125524D01*
Y4890D01*
X121524D01*
X125461Y12764D02*
Y16764D01*
X129461D01*
Y12764D01*
X125461D01*
X129398Y4890D02*
Y8890D01*
X133398D01*
Y4890D01*
X129398D01*
X133335Y12764D02*
Y16764D01*
X137335D01*
Y12764D01*
X133335D01*
X137272Y4890D02*
Y8890D01*
X141272D01*
Y4890D01*
X137272D01*
X141209Y12764D02*
Y16764D01*
X145209D01*
Y12764D01*
X141209D01*
Y138748D02*
Y142748D01*
X145209D01*
Y138748D01*
X141209D01*
X145146Y4890D02*
Y8890D01*
X149146D01*
Y4890D01*
X145146D01*
X149083Y12764D02*
Y16764D01*
X153083D01*
Y12764D01*
X149083D01*
Y138748D02*
Y142748D01*
X153083D01*
Y138748D01*
X149083D01*
X153020Y4890D02*
Y8890D01*
X157020D01*
Y4890D01*
X153020D01*
X156957Y12764D02*
Y16764D01*
X160957D01*
Y12764D01*
X156957D01*
Y138748D02*
Y142748D01*
X160957D01*
Y138748D01*
X156957D01*
X160894Y4890D02*
Y8890D01*
X164894D01*
Y4890D01*
X160894D01*
X164831Y12764D02*
Y16764D01*
X168831D01*
Y12764D01*
X164831D01*
Y138748D02*
Y142748D01*
X168831D01*
Y138748D01*
X164831D01*
X168768Y4890D02*
Y8890D01*
X172768D01*
Y4890D01*
X168768D01*
X172705Y12764D02*
Y16764D01*
X176705D01*
Y12764D01*
X172705D01*
Y138748D02*
Y142748D01*
X176705D01*
Y138748D01*
X172705D01*
X176642Y4890D02*
Y8890D01*
X180642D01*
Y4890D01*
X176642D01*
X180579Y12764D02*
Y16764D01*
X184579D01*
Y12764D01*
X180579D01*
Y138748D02*
Y142748D01*
X184579D01*
Y138748D01*
X180579D01*
Y233236D02*
Y237236D01*
X184579D01*
Y233236D01*
X180579D01*
X184516Y4890D02*
Y8890D01*
X188516D01*
Y4890D01*
X184516D01*
X188453Y12764D02*
Y16764D01*
X192453D01*
Y12764D01*
X188453D01*
Y138748D02*
Y142748D01*
X192453D01*
Y138748D01*
X188453D01*
X184516Y162370D02*
Y166370D01*
X188516D01*
Y162370D01*
X184516D01*
Y225362D02*
Y229362D01*
X188516D01*
Y225362D01*
X184516D01*
X188453Y233236D02*
Y237236D01*
X192453D01*
Y233236D01*
X188453D01*
X184516Y241110D02*
Y245111D01*
X188516D01*
Y241110D01*
X184516D01*
X192390Y4890D02*
Y8890D01*
X196390D01*
Y4890D01*
X192390D01*
X196327Y12764D02*
Y16764D01*
X200327D01*
Y12764D01*
X196327D01*
Y138748D02*
Y142748D01*
X200327D01*
Y138748D01*
X196327D01*
X192390Y162370D02*
Y166370D01*
X196390D01*
Y162370D01*
X192390D01*
Y225362D02*
Y229362D01*
X196390D01*
Y225362D01*
X192390D01*
X196327Y233236D02*
Y237236D01*
X200327D01*
Y233236D01*
X196327D01*
X192390Y241110D02*
Y245111D01*
X196390D01*
Y241110D01*
X192390D01*
X200264Y4890D02*
Y8890D01*
X204264D01*
Y4890D01*
X200264D01*
X204201Y12764D02*
Y16764D01*
X208201D01*
Y12764D01*
X204201D01*
Y138748D02*
Y142748D01*
X208201D01*
Y138748D01*
X204201D01*
X200264Y162370D02*
Y166370D01*
X204264D01*
Y162370D01*
X200264D01*
Y225362D02*
Y229362D01*
X204264D01*
Y225362D01*
X200264D01*
X204201Y233236D02*
Y237236D01*
X208201D01*
Y233236D01*
X204201D01*
X200264Y241110D02*
Y245111D01*
X204264D01*
Y241110D01*
X200264D01*
X208138Y4890D02*
Y8890D01*
X212138D01*
Y4890D01*
X208138D01*
X212075Y12764D02*
Y16764D01*
X216075D01*
Y12764D01*
X212075D01*
Y123000D02*
Y127000D01*
X216075D01*
Y123000D01*
X212075D01*
Y138748D02*
Y142748D01*
X216075D01*
Y138748D01*
X212075D01*
X208138Y162370D02*
Y166370D01*
X212138D01*
Y162370D01*
X208138D01*
Y225362D02*
Y229362D01*
X212138D01*
Y225362D01*
X208138D01*
X212075Y233236D02*
Y237236D01*
X216075D01*
Y233236D01*
X212075D01*
X208138Y241110D02*
Y245111D01*
X212138D01*
Y241110D01*
X208138D01*
X216012Y4890D02*
Y8890D01*
X220012D01*
Y4890D01*
X216012D01*
X219949Y12764D02*
Y16764D01*
X223949D01*
Y12764D01*
X219949D01*
X216012Y20638D02*
Y24638D01*
X220012D01*
Y20638D01*
X216012D01*
Y115126D02*
Y119126D01*
X220012D01*
Y115126D01*
X216012D01*
X219949Y123000D02*
Y127000D01*
X223949D01*
Y123000D01*
X219949D01*
Y154496D02*
Y158496D01*
X223949D01*
Y154496D01*
X219949D01*
X216012Y162370D02*
Y166370D01*
X220012D01*
Y162370D01*
X216012D01*
Y225362D02*
Y229362D01*
X220012D01*
Y225362D01*
X216012D01*
X219949Y233236D02*
Y237236D01*
X223949D01*
Y233236D01*
X219949D01*
X216012Y241110D02*
Y245111D01*
X220012D01*
Y241110D01*
X216012D01*
X223886Y4890D02*
Y8890D01*
X227886D01*
Y4890D01*
X223886D01*
X227823Y12764D02*
Y16764D01*
X231823D01*
Y12764D01*
X227823D01*
X223886Y20638D02*
Y24638D01*
X227886D01*
Y20638D01*
X223886D01*
Y115126D02*
Y119126D01*
X227886D01*
Y115126D01*
X223886D01*
Y162370D02*
Y166370D01*
X227886D01*
Y162370D01*
X223886D01*
Y225362D02*
Y229362D01*
X227886D01*
Y225362D01*
X223886D01*
X227823Y233236D02*
Y237236D01*
X231823D01*
Y233236D01*
X227823D01*
X223886Y241110D02*
Y245111D01*
X227886D01*
Y241110D01*
X223886D01*
X231760Y4890D02*
Y8890D01*
X235760D01*
Y4890D01*
X231760D01*
Y20638D02*
Y24638D01*
X235760D01*
Y20638D01*
X231760D01*
Y115126D02*
Y119126D01*
X235760D01*
Y115126D01*
X231760D01*
Y162370D02*
Y166370D01*
X235760D01*
Y162370D01*
X231760D01*
Y225362D02*
Y229362D01*
X235760D01*
Y225362D01*
X231760D01*
Y241110D02*
Y245111D01*
X235760D01*
Y241110D01*
X231760D01*
X239634Y115126D02*
Y119126D01*
X243634D01*
Y115126D01*
X239634D01*
X243571Y123000D02*
Y127000D01*
X247571D01*
Y123000D01*
X243571D01*
Y154496D02*
Y158496D01*
X247571D01*
Y154496D01*
X243571D01*
X239634Y162370D02*
Y166370D01*
X243634D01*
Y162370D01*
X239634D01*
Y225362D02*
Y229362D01*
X243634D01*
Y225362D01*
X239634D01*
X251445Y44260D02*
Y48260D01*
X255445D01*
Y44260D01*
X251445D01*
X247508Y52134D02*
Y56134D01*
X251508D01*
Y52134D01*
X247508D01*
X251445Y60008D02*
Y64008D01*
X255445D01*
Y60008D01*
X251445D01*
Y107252D02*
Y111252D01*
X255445D01*
Y107252D01*
X251445D01*
X247508Y115126D02*
Y119126D01*
X251508D01*
Y115126D01*
X247508D01*
X251445Y123000D02*
Y127000D01*
X255445D01*
Y123000D01*
X251445D01*
Y138748D02*
Y142748D01*
X255445D01*
Y138748D01*
X251445D01*
Y154496D02*
Y158496D01*
X255445D01*
Y154496D01*
X251445D01*
X247508Y162370D02*
Y166370D01*
X251508D01*
Y162370D01*
X247508D01*
X251445Y170244D02*
Y174244D01*
X255445D01*
Y170244D01*
X251445D01*
Y217488D02*
Y221488D01*
X255445D01*
Y217488D01*
X251445D01*
X259319Y28512D02*
Y32512D01*
X263319D01*
Y28512D01*
X259319D01*
X255382Y36386D02*
Y40386D01*
X259382D01*
Y36386D01*
X255382D01*
X259319Y44260D02*
Y48260D01*
X263319D01*
Y44260D01*
X259319D01*
X255382Y52134D02*
Y56134D01*
X259382D01*
Y52134D01*
X255382D01*
X259319Y60008D02*
Y64008D01*
X263319D01*
Y60008D01*
X259319D01*
X255382Y67882D02*
Y71882D01*
X259382D01*
Y67882D01*
X255382D01*
X259319Y75756D02*
Y79756D01*
X263319D01*
Y75756D01*
X259319D01*
X255382Y83630D02*
Y87630D01*
X259382D01*
Y83630D01*
X255382D01*
X259319Y91504D02*
Y95504D01*
X263319D01*
Y91504D01*
X259319D01*
X255382Y99378D02*
Y103378D01*
X259382D01*
Y99378D01*
X255382D01*
X259319Y107252D02*
Y111252D01*
X263319D01*
Y107252D01*
X259319D01*
X255382Y115126D02*
Y119126D01*
X259382D01*
Y115126D01*
X255382D01*
X259319Y123000D02*
Y127000D01*
X263319D01*
Y123000D01*
X259319D01*
X255382Y130874D02*
Y134874D01*
X259382D01*
Y130874D01*
X255382D01*
X259319Y138748D02*
Y142748D01*
X263319D01*
Y138748D01*
X259319D01*
X255382Y146622D02*
Y150622D01*
X259382D01*
Y146622D01*
X255382D01*
X259319Y154496D02*
Y158496D01*
X263319D01*
Y154496D01*
X259319D01*
X255382Y162370D02*
Y166370D01*
X259382D01*
Y162370D01*
X255382D01*
X259319Y170244D02*
Y174244D01*
X263319D01*
Y170244D01*
X259319D01*
X255382Y178118D02*
Y182118D01*
X259382D01*
Y178118D01*
X255382D01*
X259319Y185992D02*
Y189992D01*
X263319D01*
Y185992D01*
X259319D01*
X255382Y193866D02*
Y197866D01*
X259382D01*
Y193866D01*
X255382D01*
X259319Y201740D02*
Y205740D01*
X263319D01*
Y201740D01*
X259319D01*
X255382Y209614D02*
Y213614D01*
X259382D01*
Y209614D01*
X255382D01*
X259319Y217488D02*
Y221488D01*
X263319D01*
Y217488D01*
X259319D01*
X77724Y50165D02*
Y54165D01*
X81724D01*
Y50165D01*
X77724D01*
X50559Y23197D02*
Y27197D01*
X54559D01*
Y23197D01*
X50559D01*
X56858Y27035D02*
Y31035D01*
X60858D01*
Y27035D01*
X56858D01*
X44260Y23492D02*
Y27492D01*
X48260D01*
Y23492D01*
X44260D01*
X69260Y33335D02*
Y37335D01*
X73260D01*
Y33335D01*
X69260D01*
X47803Y65913D02*
Y69913D01*
X51803D01*
Y65913D01*
X47803D01*
X56858Y51740D02*
Y55740D01*
X60858D01*
Y51740D01*
X56858D01*
X62764Y81661D02*
Y85661D01*
X66764D01*
Y81661D01*
X62764D01*
X93548Y80721D02*
Y84720D01*
X97548D01*
Y80721D01*
X93548D01*
X88846Y53118D02*
Y57118D01*
X92847D01*
Y53118D01*
X88846D01*
X177134Y195835D02*
Y199835D01*
X181134D01*
Y195835D01*
X177134D01*
X131858Y62961D02*
Y66961D01*
X135858D01*
Y62961D01*
X131858D01*
X81635Y83584D02*
Y87584D01*
X85635D01*
Y83584D01*
X81635D01*
X87173Y83433D02*
Y87433D01*
X91173D01*
Y83433D01*
X87173D01*
X107744Y60598D02*
Y64598D01*
X111744D01*
Y60598D01*
X107744D01*
X134380Y135729D02*
Y139729D01*
X138380D01*
Y135729D01*
X134380D01*
M02*
