G04*
G04 #@! TF.GenerationSoftware,Altium Limited,Altium Designer,26.1.1 (7)*
G04*
G04 Layer_Physical_Order=4*
G04 Layer_Color=16711680*
%FSLAX25Y25*%
%MOIN*%
G70*
G04*
G04 #@! TF.SameCoordinates,5867FEAB-4AF7-4C39-AA23-D09B853D4626*
G04*
G04*
G04 #@! TF.FilePolarity,Positive*
G04*
G01*
G75*
%ADD13C,0.01000*%
%ADD14R,0.03898X0.03071*%
%ADD36C,0.19685*%
G04:AMPARAMS|DCode=38|XSize=137.8mil|YSize=137.8mil|CornerRadius=34.45mil|HoleSize=0mil|Usage=FLASHONLY|Rotation=0.000|XOffset=0mil|YOffset=0mil|HoleType=Round|Shape=RoundedRectangle|*
%AMROUNDEDRECTD38*
21,1,0.13780,0.06890,0,0,0.0*
21,1,0.06890,0.13780,0,0,0.0*
1,1,0.06890,0.03445,-0.03445*
1,1,0.06890,-0.03445,-0.03445*
1,1,0.06890,-0.03445,0.03445*
1,1,0.06890,0.03445,0.03445*
%
%ADD38ROUNDEDRECTD38*%
%ADD39C,0.02205*%
%ADD40C,0.02362*%
%ADD41R,0.06693X0.10630*%
%ADD42R,0.02362X0.00984*%
%ADD43R,0.03071X0.03898*%
%ADD44R,0.03740X0.03543*%
%AMCUSTOMSHAPE45*
4,1,5,0.01575,-0.04528,0.04528,-0.02559,0.04528,0.01378,-0.01378,0.01378,-0.01378,-0.02559,0.01575,-0.04528,0.0*%
%ADD45CUSTOMSHAPE45*%

%ADD46R,0.03543X0.03740*%
%ADD47C,0.01968*%
%ADD48R,0.00984X0.02362*%
%ADD49C,0.03937*%
%AMCUSTOMSHAPE50*
4,1,5,0.03740,0.02756,0.00787,0.00787,-0.02165,0.02756,-0.02165,-0.02165,0.03740,-0.02165,0.03740,0.02756,0.0*%
%ADD50CUSTOMSHAPE50*%

G36*
X260039Y255984D02*
X260815D01*
X262336Y255682D01*
X263769Y255088D01*
X265059Y254226D01*
X266156Y253130D01*
X267017Y251840D01*
X267611Y250407D01*
X267913Y248886D01*
Y248110D01*
X267913D01*
X267913Y7953D01*
Y7177D01*
X267611Y5656D01*
X267017Y4223D01*
X266156Y2933D01*
X265059Y1837D01*
X263769Y975D01*
X262336Y381D01*
X260815Y79D01*
X260039Y79D01*
X260039Y79D01*
X260039Y79D01*
X8071Y79D01*
X7295D01*
X5774Y381D01*
X4341Y975D01*
X3052Y1837D01*
X1955Y2933D01*
X1093Y4223D01*
X499Y5656D01*
X197Y7177D01*
Y7953D01*
X197D01*
X197Y248110D01*
Y248886D01*
X499Y250407D01*
X1093Y251840D01*
X1955Y253130D01*
X3052Y254226D01*
X4341Y255088D01*
X5774Y255682D01*
X7295Y255984D01*
X8071D01*
Y255984D01*
X260039Y255984D01*
D02*
G37*
%LPC*%
G36*
X17717Y250823D02*
Y242126D01*
X26414D01*
X26324Y242696D01*
X25796Y244320D01*
X25021Y245840D01*
X24018Y247221D01*
X22812Y248428D01*
X21431Y249431D01*
X19910Y250206D01*
X18287Y250733D01*
X17717Y250823D01*
D02*
G37*
G36*
X13780D02*
X13209Y250733D01*
X11586Y250206D01*
X10065Y249431D01*
X8685Y248428D01*
X7478Y247221D01*
X6475Y245840D01*
X5700Y244320D01*
X5173Y242696D01*
X5082Y242126D01*
X13780D01*
Y250823D01*
D02*
G37*
G36*
X253937D02*
Y242126D01*
X262634D01*
X262544Y242696D01*
X262017Y244320D01*
X261242Y245840D01*
X260239Y247221D01*
X259032Y248428D01*
X257651Y249431D01*
X256131Y250206D01*
X254507Y250733D01*
X253937Y250823D01*
D02*
G37*
G36*
X250000Y250823D02*
X249430Y250733D01*
X247806Y250206D01*
X246286Y249431D01*
X244905Y248428D01*
X243698Y247221D01*
X242695Y245840D01*
X241920Y244320D01*
X241393Y242696D01*
X241303Y242126D01*
X250000D01*
Y250823D01*
D02*
G37*
G36*
X262634Y238189D02*
X253937D01*
Y229492D01*
X254507Y229582D01*
X256131Y230109D01*
X257651Y230884D01*
X259032Y231887D01*
X260239Y233094D01*
X261242Y234475D01*
X262017Y235995D01*
X262544Y237618D01*
X262634Y238189D01*
D02*
G37*
G36*
X26414Y238189D02*
X17717D01*
Y229492D01*
X18287Y229582D01*
X19910Y230109D01*
X21431Y230884D01*
X22812Y231887D01*
X24018Y233094D01*
X25021Y234475D01*
X25796Y235995D01*
X26324Y237618D01*
X26414Y238189D01*
D02*
G37*
G36*
X13780D02*
X5082D01*
X5173Y237618D01*
X5700Y235995D01*
X6475Y234475D01*
X7478Y233094D01*
X8685Y231887D01*
X10065Y230884D01*
X11586Y230109D01*
X13209Y229582D01*
X13780Y229492D01*
Y238189D01*
D02*
G37*
G36*
X250000Y238189D02*
X241303D01*
X241393Y237618D01*
X241920Y235995D01*
X242695Y234475D01*
X243698Y233094D01*
X244905Y231887D01*
X246286Y230884D01*
X247806Y230109D01*
X249430Y229582D01*
X250000Y229492D01*
Y238189D01*
D02*
G37*
G36*
X179525Y199803D02*
X178742D01*
X178019Y199504D01*
X177799Y199284D01*
X177745Y199250D01*
X177706Y199214D01*
X177694Y199205D01*
X177679Y199196D01*
X177658Y199186D01*
X177631Y199175D01*
X177595Y199164D01*
X177550Y199154D01*
X177507Y199147D01*
X44941D01*
Y199157D01*
X43170Y199018D01*
X41442Y198603D01*
X39801Y197923D01*
X38286Y196995D01*
X36935Y195841D01*
X35781Y194490D01*
X34853Y192975D01*
X34173Y191333D01*
X33758Y189606D01*
X33619Y187835D01*
X33628D01*
X33628Y187835D01*
Y99380D01*
X33249Y99161D01*
X32736Y98648D01*
X32373Y98019D01*
X32185Y97318D01*
Y96593D01*
X32373Y95892D01*
X32736Y95263D01*
X33249Y94750D01*
X33628Y94531D01*
Y90899D01*
X32283D01*
Y85781D01*
X37598D01*
Y90899D01*
X36254D01*
Y94531D01*
X36633Y94750D01*
X37146Y95263D01*
X37509Y95892D01*
X37697Y96593D01*
Y97318D01*
X37509Y98019D01*
X37146Y98648D01*
X36633Y99161D01*
X36254Y99380D01*
Y187737D01*
X36254Y187835D01*
X36254D01*
X36246Y187930D01*
X36404Y189533D01*
X36899Y191166D01*
X37703Y192671D01*
X38786Y193990D01*
X40105Y195072D01*
X41610Y195877D01*
X43243Y196372D01*
X44883Y196534D01*
X44941Y196522D01*
X177507D01*
X177550Y196516D01*
X177595Y196505D01*
X177631Y196495D01*
X177658Y196484D01*
X177679Y196473D01*
X177694Y196464D01*
X177706Y196455D01*
X177745Y196419D01*
X177799Y196386D01*
X178019Y196166D01*
X178742Y195866D01*
X179525D01*
X180249Y196166D01*
X180803Y196720D01*
X181102Y197443D01*
Y198226D01*
X180803Y198950D01*
X180249Y199504D01*
X179525Y199803D01*
D02*
G37*
G36*
X237697Y204269D02*
X230807D01*
X229702Y204123D01*
X228673Y203697D01*
X227789Y203018D01*
X227110Y202134D01*
X226684Y201105D01*
X226538Y200000D01*
Y193110D01*
X226684Y192005D01*
X227110Y190976D01*
X227789Y190092D01*
X228673Y189413D01*
X229702Y188987D01*
X230807Y188841D01*
X237697D01*
X238802Y188987D01*
X239831Y189413D01*
X240716Y190092D01*
X241394Y190976D01*
X241820Y192005D01*
X241966Y193110D01*
Y200000D01*
X241820Y201105D01*
X241394Y202134D01*
X240716Y203018D01*
X239831Y203697D01*
X238802Y204123D01*
X237697Y204269D01*
D02*
G37*
G36*
Y91375D02*
X230807D01*
X229702Y91230D01*
X228673Y90803D01*
X227789Y90125D01*
X227110Y89241D01*
X226684Y88211D01*
X226538Y87106D01*
Y80216D01*
X226684Y79112D01*
X227110Y78082D01*
X227789Y77198D01*
X228673Y76520D01*
X229702Y76093D01*
X230807Y75948D01*
X237697D01*
X238802Y76093D01*
X239831Y76520D01*
X240716Y77198D01*
X241394Y78082D01*
X241820Y79112D01*
X241966Y80216D01*
Y87106D01*
X241820Y88211D01*
X241394Y89241D01*
X240716Y90125D01*
X239831Y90803D01*
X238802Y91230D01*
X237697Y91375D01*
D02*
G37*
G36*
X136772Y139698D02*
X135989D01*
X135265Y139398D01*
X134711Y138845D01*
X134412Y138121D01*
Y137338D01*
X134711Y136614D01*
X134931Y136395D01*
X134965Y136340D01*
X135000Y136302D01*
X135009Y136290D01*
X135019Y136274D01*
X135029Y136254D01*
X135040Y136226D01*
X135051Y136191D01*
X135061Y136145D01*
X135067Y136103D01*
Y72404D01*
X135073Y72376D01*
X134941Y71375D01*
X134544Y70417D01*
X133913Y69593D01*
X133090Y68962D01*
X132131Y68565D01*
X131130Y68433D01*
X131102Y68439D01*
X104528D01*
Y69784D01*
X104258D01*
X104226Y69877D01*
X104619Y70178D01*
X104991Y70332D01*
X105602Y70079D01*
X106307D01*
X106958Y70349D01*
X107457Y70847D01*
X107726Y71498D01*
Y72203D01*
X107457Y72854D01*
X106958Y73352D01*
X106307Y73622D01*
X105602D01*
X104951Y73352D01*
X104604Y73005D01*
X104578Y73002D01*
X103295Y72471D01*
X102193Y71625D01*
X101348Y70524D01*
X101042Y69784D01*
X100427D01*
Y75394D01*
X100428D01*
X100323Y76192D01*
X100015Y76936D01*
X99524Y77575D01*
X98885Y78066D01*
X98141Y78374D01*
X97342Y78479D01*
Y78478D01*
X91831D01*
X91813Y78474D01*
X91535Y78530D01*
Y82677D01*
X90486D01*
Y83807D01*
X90492Y83849D01*
X90502Y83894D01*
X90513Y83930D01*
X90524Y83957D01*
X90535Y83978D01*
X90544Y83993D01*
X90553Y84005D01*
X90589Y84044D01*
X90622Y84098D01*
X90842Y84318D01*
X91142Y85041D01*
Y85825D01*
X90842Y86548D01*
X90288Y87102D01*
X89565Y87402D01*
X88782D01*
X88058Y87102D01*
X87504Y86548D01*
X87205Y85825D01*
Y85041D01*
X87504Y84318D01*
X87724Y84098D01*
X87758Y84044D01*
X87793Y84005D01*
X87802Y83993D01*
X87812Y83978D01*
X87822Y83957D01*
X87833Y83930D01*
X87844Y83894D01*
X87854Y83849D01*
X87861Y83807D01*
Y82677D01*
X86221D01*
Y77559D01*
X88450D01*
X88807Y77094D01*
X89105Y76865D01*
X89074Y76772D01*
X86221D01*
Y71653D01*
X87467D01*
Y67716D01*
X87456D01*
X87400Y67432D01*
X87239Y67191D01*
X86997Y67029D01*
X86713Y66973D01*
Y66962D01*
X82054D01*
X82011Y67050D01*
X82506Y67696D01*
X82884Y68608D01*
X83012Y69583D01*
X83007D01*
X83005Y69585D01*
X83005Y69585D01*
Y71653D01*
X84350D01*
Y76772D01*
X79035D01*
Y71653D01*
X80380D01*
Y69586D01*
X80377D01*
X80290Y69148D01*
X80042Y68777D01*
X79671Y68528D01*
X79232Y68441D01*
Y68439D01*
X67913D01*
Y68447D01*
X66909Y68314D01*
X65974Y67927D01*
X65377Y67469D01*
X65289Y67513D01*
Y71343D01*
X67618D01*
X67925Y71404D01*
X68186Y71578D01*
X68360Y71838D01*
X68421Y72146D01*
Y72998D01*
X69965D01*
Y72146D01*
X70026Y71838D01*
X70200Y71578D01*
X70460Y71404D01*
X70768Y71343D01*
X76673D01*
X76981Y71404D01*
X77241Y71578D01*
X77415Y71838D01*
X77476Y72146D01*
Y77067D01*
X77461Y77144D01*
X77461Y77223D01*
X77430Y77296D01*
X77415Y77374D01*
X77371Y77440D01*
X77341Y77512D01*
X77299Y77555D01*
X77299Y77661D01*
X77340Y77703D01*
X77371Y77776D01*
X77415Y77842D01*
X77430Y77920D01*
X77460Y77992D01*
X77461Y78072D01*
X77476Y78150D01*
Y79396D01*
X79035D01*
Y77559D01*
X84350D01*
Y82677D01*
X83005D01*
Y83625D01*
X83087Y83680D01*
X83243Y83615D01*
X84026D01*
X84750Y83915D01*
X85303Y84469D01*
X85603Y85192D01*
Y85975D01*
X85303Y86699D01*
X84750Y87252D01*
X84026Y87552D01*
X83243D01*
X82520Y87252D01*
X81966Y86699D01*
X81823Y86355D01*
X81778Y86283D01*
X81778Y86282D01*
X81778Y86282D01*
X81752Y86214D01*
X81716Y86128D01*
X81198Y85731D01*
X80755Y85154D01*
X80477Y84481D01*
X80384Y83780D01*
X80380Y83760D01*
Y82677D01*
X79035D01*
Y82021D01*
X77476D01*
Y82087D01*
X77415Y82394D01*
X77241Y82654D01*
X76981Y82828D01*
X76673Y82889D01*
X70768D01*
X70460Y82828D01*
X70200Y82654D01*
X70026Y82394D01*
X69965Y82087D01*
Y78150D01*
X69980Y78072D01*
X69981Y77992D01*
X70011Y77920D01*
X70026Y77842D01*
X70070Y77776D01*
X70101Y77703D01*
X70142Y77661D01*
X70142Y77555D01*
X70100Y77512D01*
X70070Y77440D01*
X70026Y77374D01*
X70011Y77296D01*
X69980Y77223D01*
X69980Y77144D01*
X69965Y77067D01*
Y75624D01*
X68421D01*
Y77067D01*
X68406Y77144D01*
X68406Y77223D01*
X68375Y77296D01*
X68360Y77374D01*
X68316Y77440D01*
X68286Y77512D01*
X68230Y77569D01*
X68186Y77635D01*
X68120Y77678D01*
X68065Y77734D01*
X67992Y77764D01*
X67925Y77809D01*
X67848Y77824D01*
X67776Y77854D01*
X67696Y77854D01*
X67618Y77870D01*
X67541Y77854D01*
X67462Y77855D01*
X67389Y77824D01*
X67311Y77809D01*
X67246Y77765D01*
X67173Y77735D01*
X64665Y76063D01*
X62158Y77735D01*
X62085Y77765D01*
X62020Y77809D01*
X61942Y77824D01*
X61868Y77855D01*
X61790Y77854D01*
X61713Y77870D01*
X61635Y77854D01*
X61555Y77854D01*
X61483Y77824D01*
X61405Y77809D01*
X61339Y77764D01*
X61266Y77734D01*
X61210Y77678D01*
X61145Y77635D01*
X61101Y77569D01*
X61045Y77512D01*
X61015Y77440D01*
X60971Y77374D01*
X60955Y77296D01*
X60925Y77223D01*
X60925Y77144D01*
X60910Y77067D01*
Y72146D01*
X60971Y71838D01*
X61145Y71578D01*
X61405Y71404D01*
X61713Y71343D01*
X62664D01*
Y65945D01*
X62653D01*
X62597Y65660D01*
X62435Y65419D01*
X62194Y65258D01*
X61910Y65201D01*
Y65191D01*
X59842D01*
Y65193D01*
X59018Y65084D01*
X58250Y64766D01*
X57591Y64260D01*
X57085Y63600D01*
X56766Y62832D01*
X56658Y62008D01*
X56660D01*
Y58465D01*
X56669Y58419D01*
X56751Y57794D01*
X57010Y57170D01*
X57421Y56634D01*
X57957Y56222D01*
X58582Y55964D01*
X59206Y55882D01*
X59252Y55872D01*
X59842D01*
Y53937D01*
X63779D01*
Y55905D01*
Y60433D01*
X59842D01*
Y58498D01*
X59301D01*
X59296Y58509D01*
X59285Y58513D01*
Y62008D01*
X59279Y62039D01*
X59435Y62416D01*
X59811Y62572D01*
X59842Y62565D01*
X61910D01*
Y62562D01*
X62785Y62677D01*
X63601Y63015D01*
X63953Y63285D01*
X64042Y63242D01*
Y60728D01*
X64075Y60562D01*
Y58760D01*
X66634D01*
Y60562D01*
X66667Y60728D01*
Y64567D01*
X66668D01*
X66763Y65044D01*
X67033Y65448D01*
X67437Y65718D01*
X67913Y65812D01*
Y65813D01*
X70749D01*
X70793Y65725D01*
X70409Y65225D01*
X70061Y64386D01*
X69943Y63484D01*
X69947D01*
Y60728D01*
X69980Y60562D01*
Y58760D01*
X72539D01*
Y60562D01*
X72572Y60728D01*
Y63484D01*
X72581D01*
X72645Y63807D01*
X72828Y64081D01*
X73102Y64264D01*
X73425Y64328D01*
Y64337D01*
X79338D01*
X79381Y64249D01*
X78960Y63700D01*
X78622Y62884D01*
X78506Y62008D01*
X78510D01*
Y58858D01*
X78511Y58854D01*
X78407Y58601D01*
X78154Y58497D01*
X78150Y58498D01*
X74803D01*
X74637Y58465D01*
X72835D01*
Y53937D01*
X74637D01*
X74803Y53904D01*
X83681D01*
Y53091D01*
X89154D01*
Y53739D01*
X89252Y53801D01*
X89263Y53799D01*
X89308Y53789D01*
X89343Y53778D01*
X89371Y53767D01*
X89391Y53757D01*
X89407Y53747D01*
X89419Y53738D01*
X89457Y53702D01*
X89512Y53669D01*
X89731Y53449D01*
X90455Y53150D01*
X91238D01*
X91961Y53449D01*
X92515Y54003D01*
X92815Y54726D01*
Y55510D01*
X92515Y56233D01*
X91961Y56787D01*
X91238Y57087D01*
X90455D01*
X89731Y56787D01*
X89512Y56567D01*
X89457Y56534D01*
X89419Y56498D01*
X89407Y56489D01*
X89391Y56479D01*
X89371Y56469D01*
X89344Y56458D01*
X89308Y56447D01*
X89263Y56437D01*
X89252Y56436D01*
X89154Y56497D01*
Y57736D01*
X83681D01*
Y56529D01*
X80131D01*
X80099Y56622D01*
X80261Y56747D01*
X80736Y57365D01*
X81034Y58085D01*
X81136Y58858D01*
X81135D01*
Y62008D01*
X81146D01*
X81203Y62292D01*
X81364Y62534D01*
X81605Y62695D01*
X81890Y62752D01*
Y62762D01*
X89370D01*
X89390Y62766D01*
X90092Y62858D01*
X90764Y63137D01*
X91341Y63580D01*
X91784Y64157D01*
X92063Y64830D01*
X92155Y65531D01*
X92159Y65551D01*
X92164D01*
X92240Y65733D01*
X92421Y65808D01*
Y65813D01*
X93504D01*
Y64468D01*
X97802D01*
Y62894D01*
X93405D01*
Y57579D01*
X94652D01*
Y48228D01*
X94656Y48210D01*
X94525Y47896D01*
X94211Y47766D01*
X94193Y47769D01*
X91691D01*
X91546Y47866D01*
X91043Y47966D01*
X89154D01*
Y51831D01*
X83681D01*
Y50624D01*
X76772D01*
Y52559D01*
X72835D01*
Y48031D01*
Y44094D01*
X74637D01*
X74803Y44061D01*
X77850D01*
X77973Y43443D01*
X78453Y42724D01*
X79172Y42244D01*
X80020Y42075D01*
Y42093D01*
X83681D01*
Y41673D01*
X84463D01*
X84481Y41670D01*
X84498Y41673D01*
X89154D01*
Y42683D01*
X95177D01*
Y42664D01*
X96541Y42843D01*
X97812Y43370D01*
X98903Y44207D01*
X99741Y45298D01*
X100267Y46569D01*
X100447Y47933D01*
X100427D01*
Y57579D01*
X101221D01*
X101262Y57478D01*
X102123Y56356D01*
X103245Y55494D01*
X104552Y54953D01*
X104605Y54946D01*
X104951Y54600D01*
X105602Y54331D01*
X106307D01*
X106958Y54600D01*
X107457Y55099D01*
X107726Y55750D01*
Y56455D01*
X107457Y57106D01*
X106958Y57604D01*
X106307Y57874D01*
X105602D01*
X104981Y57617D01*
X104569Y57787D01*
X104429Y57895D01*
Y58924D01*
X107382D01*
Y58917D01*
X108335Y59043D01*
X109222Y59411D01*
X109985Y59996D01*
X110570Y60758D01*
X110596Y60821D01*
X110859Y60930D01*
X111413Y61483D01*
X111713Y62207D01*
Y62990D01*
X111413Y63714D01*
X110859Y64267D01*
X110136Y64567D01*
X109353D01*
X108629Y64267D01*
X108075Y63714D01*
X107776Y62990D01*
Y62207D01*
X107963Y61754D01*
X107782Y61633D01*
X107382Y61554D01*
Y61549D01*
X104429D01*
Y62894D01*
X100427D01*
Y64468D01*
X104528D01*
Y65813D01*
X131102D01*
Y65807D01*
X132024Y65898D01*
X132083Y65819D01*
X131890Y65352D01*
Y64569D01*
X132190Y63846D01*
X132409Y63626D01*
X132443Y63572D01*
X132478Y63533D01*
X132487Y63521D01*
X132497Y63506D01*
X132507Y63485D01*
X132518Y63458D01*
X132529Y63422D01*
X132539Y63377D01*
X132546Y63334D01*
Y62250D01*
X132558Y62187D01*
X132374Y61260D01*
X131848Y60474D01*
X131795Y60438D01*
X104250Y32893D01*
X104217Y32844D01*
X102943Y31798D01*
X101438Y30994D01*
X99805Y30498D01*
X98164Y30337D01*
X98107Y30348D01*
X82874D01*
Y31693D01*
X81628D01*
Y32598D01*
X82441D01*
Y38071D01*
X81175D01*
X81168Y38128D01*
X81039Y38439D01*
X81031Y38467D01*
X81013Y38500D01*
X81006Y38519D01*
X80996Y38563D01*
X80974Y38594D01*
X80621Y39447D01*
X79752Y40579D01*
X78620Y41448D01*
X77301Y41994D01*
X75886Y42181D01*
Y42159D01*
X74213D01*
X74195Y42156D01*
X73582Y42278D01*
X73048Y42635D01*
X72691Y43169D01*
X72567Y43793D01*
X72572Y43799D01*
X72572D01*
X72539Y43966D01*
Y45768D01*
X69980D01*
Y43966D01*
X69947Y43799D01*
X69936D01*
X69980Y43461D01*
Y41831D01*
X70438D01*
X70509Y41661D01*
X71188Y40775D01*
X72074Y40095D01*
X73106Y39668D01*
X74213Y39522D01*
Y39534D01*
X75886D01*
Y39533D01*
X76616Y39437D01*
X77296Y39155D01*
X77880Y38707D01*
X78293Y38169D01*
X78244Y38071D01*
X77795D01*
Y32598D01*
X79002D01*
Y31693D01*
X77756D01*
Y26378D01*
X82874D01*
Y27723D01*
X98107D01*
Y27713D01*
X99878Y27852D01*
X101605Y28267D01*
X103247Y28947D01*
X104762Y29875D01*
X106113Y31029D01*
X106106Y31036D01*
X133651Y58582D01*
X133665Y58568D01*
X134493Y59646D01*
X135013Y60902D01*
X135190Y62250D01*
X135171D01*
Y63334D01*
X135177Y63377D01*
X135187Y63422D01*
X135198Y63458D01*
X135209Y63485D01*
X135220Y63506D01*
X135229Y63521D01*
X135238Y63533D01*
X135274Y63572D01*
X135307Y63626D01*
X135527Y63846D01*
X135827Y64569D01*
Y65352D01*
X135527Y66076D01*
X134973Y66629D01*
X134659Y66760D01*
X134654Y66858D01*
X134767Y66919D01*
X135767Y67739D01*
X136588Y68739D01*
X137197Y69879D01*
X137573Y71117D01*
X137699Y72404D01*
X137693D01*
Y136103D01*
X137699Y136146D01*
X137709Y136191D01*
X137720Y136226D01*
X137731Y136254D01*
X137741Y136274D01*
X137751Y136290D01*
X137760Y136302D01*
X137796Y136340D01*
X137829Y136395D01*
X138049Y136614D01*
X138349Y137338D01*
Y138121D01*
X138049Y138845D01*
X137495Y139398D01*
X136772Y139698D01*
D02*
G37*
G36*
X37598Y84993D02*
X32283D01*
Y79875D01*
X33628D01*
Y76243D01*
X33249Y76024D01*
X32736Y75511D01*
X32373Y74883D01*
X32185Y74182D01*
Y73456D01*
X32373Y72755D01*
X32736Y72127D01*
X33249Y71614D01*
X33628Y71394D01*
Y67126D01*
X32480D01*
Y61811D01*
X37598D01*
Y62565D01*
X39272D01*
Y61319D01*
X44587D01*
Y66437D01*
X39272D01*
Y65191D01*
X37598D01*
Y67126D01*
X36254D01*
Y71394D01*
X36633Y71614D01*
X37146Y72127D01*
X37509Y72755D01*
X37697Y73456D01*
Y74182D01*
X37509Y74883D01*
X37146Y75511D01*
X36633Y76024D01*
X36254Y76243D01*
Y79875D01*
X37598D01*
Y84993D01*
D02*
G37*
G36*
X52461Y60532D02*
X47146D01*
Y59285D01*
X44587D01*
Y60532D01*
X39272D01*
Y59088D01*
X37165D01*
Y60512D01*
X32520D01*
Y55039D01*
X37165D01*
Y56463D01*
X39272D01*
Y55413D01*
X40640D01*
X40723Y54786D01*
X41041Y54018D01*
X41547Y53358D01*
X42207Y52852D01*
X42975Y52534D01*
X43748Y52432D01*
X43755Y52416D01*
X43766Y52412D01*
Y51850D01*
X42756D01*
Y50230D01*
X41043D01*
Y51476D01*
X35728D01*
Y50630D01*
X35642Y50583D01*
X35335Y50788D01*
X35012Y51271D01*
X35236Y51813D01*
Y52518D01*
X34966Y53169D01*
X34468Y53667D01*
X33817Y53937D01*
X33112D01*
X32461Y53667D01*
X31963Y53169D01*
X31693Y52518D01*
Y51813D01*
X31963Y51162D01*
X32401Y50724D01*
X32751Y49878D01*
X33478Y48931D01*
X34425Y48204D01*
X35529Y47747D01*
X35728Y47720D01*
Y46358D01*
Y40453D01*
X41043D01*
Y41502D01*
X42756D01*
Y40079D01*
X47648D01*
X47667Y39982D01*
X47467Y39899D01*
X46540Y39188D01*
X45829Y38261D01*
X45382Y37182D01*
X45289Y36476D01*
X43524D01*
Y31831D01*
X48996D01*
X48996Y31831D01*
X49016D01*
Y31831D01*
X49095Y31831D01*
X49902D01*
Y31791D01*
X55216D01*
Y36430D01*
X55429Y36458D01*
X56820Y37034D01*
X58014Y37951D01*
X58930Y39145D01*
X59506Y40535D01*
X59703Y42028D01*
X59679D01*
Y43406D01*
X59691D01*
X59740Y43652D01*
X59880Y43861D01*
X60088Y44000D01*
X60335Y44049D01*
Y44061D01*
X61811D01*
X61977Y44094D01*
X63779D01*
Y48031D01*
Y52559D01*
X61977D01*
X61811Y52592D01*
X57727D01*
X57542Y53522D01*
X56996Y54339D01*
X56180Y54884D01*
X55216Y55076D01*
Y55053D01*
X52558D01*
Y55053D01*
X52558D01*
X52547Y55057D01*
X52471Y55100D01*
X52456Y55136D01*
X52455Y55137D01*
X52453Y55158D01*
Y55413D01*
X52453D01*
X52461Y55413D01*
X52461Y55509D01*
Y60532D01*
D02*
G37*
G36*
X31693Y67126D02*
X26575D01*
Y61811D01*
X28018D01*
Y60512D01*
X27008D01*
Y55039D01*
X31654D01*
Y60512D01*
X30643D01*
Y61811D01*
X31693D01*
Y67126D01*
D02*
G37*
G36*
X66634Y45768D02*
X64075D01*
Y43966D01*
X64042Y43799D01*
Y36220D01*
X64046Y36200D01*
X64138Y35499D01*
X64417Y34827D01*
X64860Y34249D01*
X65437Y33806D01*
X66109Y33528D01*
X66404Y33489D01*
Y31693D01*
X65158D01*
Y26378D01*
X70276D01*
Y27723D01*
X71850D01*
Y26378D01*
X76968D01*
Y31693D01*
X71850D01*
Y30348D01*
X70276D01*
Y31693D01*
X69029D01*
Y33747D01*
X69029Y33747D01*
X69049D01*
X68871Y34639D01*
X68366Y35396D01*
X67609Y35901D01*
X66830Y36056D01*
X66824Y36073D01*
X66824Y36073D01*
X66724Y36114D01*
X66680Y36220D01*
X66667D01*
Y43799D01*
X66634Y43966D01*
Y45768D01*
D02*
G37*
G36*
X253937Y26414D02*
Y17717D01*
X262634D01*
X262544Y18287D01*
X262017Y19910D01*
X261242Y21431D01*
X260239Y22812D01*
X259032Y24018D01*
X257651Y25021D01*
X256131Y25796D01*
X254507Y26324D01*
X253937Y26414D01*
D02*
G37*
G36*
X250000D02*
X249429Y26324D01*
X247806Y25796D01*
X246286Y25021D01*
X244905Y24018D01*
X243698Y22812D01*
X242695Y21431D01*
X241920Y19910D01*
X241393Y18287D01*
X241303Y17717D01*
X250000D01*
Y26414D01*
D02*
G37*
G36*
X17717D02*
Y17717D01*
X26414D01*
X26324Y18287D01*
X25796Y19910D01*
X25021Y21431D01*
X24018Y22812D01*
X22812Y24018D01*
X21431Y25021D01*
X19910Y25796D01*
X18287Y26324D01*
X17717Y26414D01*
D02*
G37*
G36*
X13780D02*
X13209Y26324D01*
X11586Y25796D01*
X10065Y25021D01*
X8685Y24018D01*
X7478Y22812D01*
X6475Y21431D01*
X5700Y19910D01*
X5173Y18287D01*
X5082Y17717D01*
X13780D01*
Y26414D01*
D02*
G37*
G36*
X262634Y13780D02*
X253937D01*
Y5082D01*
X254507Y5173D01*
X256131Y5700D01*
X257651Y6475D01*
X259032Y7478D01*
X260239Y8685D01*
X261242Y10065D01*
X262017Y11586D01*
X262544Y13209D01*
X262634Y13780D01*
D02*
G37*
G36*
X250000D02*
X241303D01*
X241393Y13209D01*
X241920Y11586D01*
X242695Y10065D01*
X243698Y8685D01*
X244905Y7478D01*
X246286Y6475D01*
X247806Y5700D01*
X249429Y5173D01*
X250000Y5082D01*
Y13780D01*
D02*
G37*
G36*
X26414D02*
X17717D01*
Y5082D01*
X18287Y5173D01*
X19910Y5700D01*
X21431Y6475D01*
X22812Y7478D01*
X24018Y8685D01*
X25021Y10065D01*
X25796Y11586D01*
X26324Y13209D01*
X26414Y13780D01*
D02*
G37*
G36*
X13780D02*
X5082D01*
X5173Y13209D01*
X5700Y11586D01*
X6475Y10065D01*
X7478Y8685D01*
X8685Y7478D01*
X10065Y6475D01*
X11586Y5700D01*
X13209Y5173D01*
X13780Y5082D01*
Y13780D01*
D02*
G37*
%LPD*%
G36*
X178290Y197008D02*
X178223Y197070D01*
X178150Y197125D01*
X178072Y197175D01*
X177987Y197217D01*
X177896Y197253D01*
X177800Y197282D01*
X177698Y197305D01*
X177589Y197322D01*
X177475Y197331D01*
X177355Y197335D01*
Y198335D01*
X177475Y198338D01*
X177589Y198348D01*
X177698Y198364D01*
X177800Y198387D01*
X177896Y198416D01*
X177987Y198452D01*
X178072Y198495D01*
X178150Y198544D01*
X178223Y198599D01*
X178290Y198661D01*
Y197008D01*
D02*
G37*
G36*
X35446Y90910D02*
X35461Y90740D01*
X35486Y90590D01*
X35521Y90460D01*
X35566Y90350D01*
X35621Y90260D01*
X35686Y90190D01*
X35761Y90140D01*
X35846Y90110D01*
X35941Y90100D01*
X33941D01*
X34036Y90110D01*
X34121Y90140D01*
X34196Y90190D01*
X34261Y90260D01*
X34316Y90350D01*
X34361Y90460D01*
X34396Y90590D01*
X34421Y90740D01*
X34436Y90910D01*
X34441Y91100D01*
X35441D01*
X35446Y90910D01*
D02*
G37*
G36*
X137145Y136819D02*
X137089Y136746D01*
X137040Y136667D01*
X136998Y136583D01*
X136962Y136492D01*
X136932Y136396D01*
X136909Y136293D01*
X136893Y136185D01*
X136883Y136071D01*
X136880Y135951D01*
X135880D01*
X135877Y136071D01*
X135867Y136185D01*
X135851Y136293D01*
X135828Y136396D01*
X135798Y136492D01*
X135763Y136583D01*
X135720Y136667D01*
X135671Y136746D01*
X135616Y136819D01*
X135553Y136886D01*
X137207D01*
X137145Y136819D01*
D02*
G37*
G36*
X83201Y84485D02*
X83118Y84517D01*
X82853Y84600D01*
X82804Y84609D01*
X82761Y84614D01*
X82726Y84615D01*
X82697Y84611D01*
X82675Y84602D01*
X82264Y85517D01*
X82285Y85531D01*
X82308Y85553D01*
X82332Y85583D01*
X82357Y85619D01*
X82383Y85664D01*
X82438Y85774D01*
X82497Y85914D01*
X82528Y85995D01*
X83201Y84485D01*
D02*
G37*
G36*
X89938Y84523D02*
X89882Y84450D01*
X89833Y84371D01*
X89791Y84286D01*
X89755Y84196D01*
X89726Y84099D01*
X89703Y83997D01*
X89686Y83889D01*
X89676Y83774D01*
X89673Y83654D01*
X88673D01*
X88670Y83774D01*
X88660Y83889D01*
X88644Y83997D01*
X88621Y84099D01*
X88591Y84196D01*
X88556Y84286D01*
X88513Y84371D01*
X88464Y84450D01*
X88409Y84523D01*
X88346Y84590D01*
X90000D01*
X89938Y84523D01*
D02*
G37*
G36*
X89678Y82688D02*
X89693Y82518D01*
X89718Y82368D01*
X89753Y82238D01*
X89798Y82128D01*
X89853Y82038D01*
X89918Y81968D01*
X89993Y81918D01*
X90078Y81888D01*
X90173Y81878D01*
X88173D01*
X88268Y81888D01*
X88353Y81918D01*
X88428Y81968D01*
X88493Y82038D01*
X88548Y82128D01*
X88593Y82238D01*
X88628Y82368D01*
X88653Y82518D01*
X88668Y82688D01*
X88673Y82878D01*
X89673D01*
X89678Y82688D01*
D02*
G37*
G36*
X82198D02*
X82213Y82518D01*
X82238Y82368D01*
X82273Y82238D01*
X82318Y82128D01*
X82373Y82038D01*
X82438Y81968D01*
X82513Y81918D01*
X82598Y81888D01*
X82693Y81878D01*
X80693D01*
X80788Y81888D01*
X80873Y81918D01*
X80948Y81968D01*
X81013Y82038D01*
X81068Y82128D01*
X81113Y82238D01*
X81148Y82368D01*
X81173Y82518D01*
X81188Y82688D01*
X81193Y82878D01*
X82193D01*
X82198Y82688D01*
D02*
G37*
G36*
X79835Y79709D02*
X79825Y79804D01*
X79795Y79889D01*
X79745Y79964D01*
X79675Y80029D01*
X79585Y80084D01*
X79475Y80129D01*
X79345Y80164D01*
X79195Y80189D01*
X79025Y80204D01*
X78835Y80209D01*
Y81209D01*
X79025Y81214D01*
X79195Y81229D01*
X79345Y81254D01*
X79475Y81289D01*
X79585Y81334D01*
X79675Y81389D01*
X79745Y81454D01*
X79795Y81529D01*
X79825Y81614D01*
X79835Y81709D01*
Y79709D01*
D02*
G37*
G36*
X76670Y81614D02*
X76700Y81529D01*
X76750Y81454D01*
X76820Y81389D01*
X76910Y81334D01*
X77020Y81289D01*
X77150Y81254D01*
X77300Y81229D01*
X77470Y81214D01*
X77660Y81209D01*
Y80209D01*
X77470Y80204D01*
X77300Y80189D01*
X77150Y80164D01*
X77020Y80129D01*
X76910Y80084D01*
X76820Y80029D01*
X76750Y79964D01*
X76700Y79889D01*
X76670Y79804D01*
X76660Y79709D01*
Y81709D01*
X76670Y81614D01*
D02*
G37*
G36*
X70781Y73311D02*
X70771Y73406D01*
X70741Y73491D01*
X70691Y73566D01*
X70621Y73631D01*
X70531Y73686D01*
X70421Y73731D01*
X70291Y73766D01*
X70141Y73791D01*
X69971Y73806D01*
X69781Y73811D01*
Y74811D01*
X69971Y74816D01*
X70141Y74831D01*
X70291Y74856D01*
X70421Y74891D01*
X70531Y74936D01*
X70621Y74991D01*
X70691Y75056D01*
X70741Y75131D01*
X70771Y75216D01*
X70781Y75311D01*
Y73311D01*
D02*
G37*
G36*
X67615Y75216D02*
X67645Y75131D01*
X67695Y75056D01*
X67765Y74991D01*
X67855Y74936D01*
X67965Y74891D01*
X68095Y74856D01*
X68245Y74831D01*
X68415Y74816D01*
X68605Y74811D01*
Y73811D01*
X68415Y73806D01*
X68245Y73791D01*
X68095Y73766D01*
X67965Y73731D01*
X67855Y73686D01*
X67765Y73631D01*
X67695Y73566D01*
X67645Y73491D01*
X67615Y73406D01*
X67605Y73311D01*
Y75311D01*
X67615Y75216D01*
D02*
G37*
G36*
X93634Y73213D02*
X93624Y73308D01*
X93594Y73393D01*
X93544Y73468D01*
X93474Y73533D01*
X93384Y73588D01*
X93274Y73633D01*
X93144Y73668D01*
X92994Y73693D01*
X92824Y73708D01*
X92634Y73713D01*
Y74713D01*
X92824Y74718D01*
X92994Y74733D01*
X93144Y74758D01*
X93274Y74793D01*
X93384Y74838D01*
X93474Y74893D01*
X93544Y74958D01*
X93594Y75033D01*
X93624Y75118D01*
X93634Y75213D01*
Y73213D01*
D02*
G37*
G36*
X90746Y75118D02*
X90776Y75033D01*
X90826Y74958D01*
X90896Y74893D01*
X90986Y74838D01*
X91096Y74793D01*
X91226Y74758D01*
X91376Y74733D01*
X91546Y74718D01*
X91736Y74713D01*
Y73713D01*
X91546Y73708D01*
X91376Y73693D01*
X91226Y73668D01*
X91096Y73633D01*
X90986Y73588D01*
X90896Y73533D01*
X90826Y73468D01*
X90776Y73393D01*
X90746Y73308D01*
X90736Y73213D01*
Y75213D01*
X90746Y75118D01*
D02*
G37*
G36*
X89684Y72443D02*
X89600Y72413D01*
X89525Y72363D01*
X89460Y72293D01*
X89404Y72203D01*
X89359Y72093D01*
X89324Y71963D01*
X89299Y71813D01*
X89284Y71643D01*
X89280Y71453D01*
X88279D01*
X88275Y71643D01*
X88260Y71813D01*
X88235Y71963D01*
X88200Y72093D01*
X88155Y72203D01*
X88099Y72293D01*
X88034Y72363D01*
X87959Y72413D01*
X87875Y72443D01*
X87779Y72453D01*
X89780D01*
X89684Y72443D01*
D02*
G37*
G36*
X82598D02*
X82513Y72413D01*
X82438Y72363D01*
X82373Y72293D01*
X82318Y72203D01*
X82273Y72093D01*
X82238Y71963D01*
X82213Y71813D01*
X82198Y71643D01*
X82193Y71453D01*
X81193D01*
X81188Y71643D01*
X81173Y71813D01*
X81148Y71963D01*
X81113Y72093D01*
X81068Y72203D01*
X81013Y72293D01*
X80948Y72363D01*
X80873Y72413D01*
X80788Y72443D01*
X80693Y72453D01*
X82693D01*
X82598Y72443D01*
D02*
G37*
G36*
X64881Y72149D02*
X64796Y72119D01*
X64721Y72069D01*
X64656Y71999D01*
X64601Y71909D01*
X64556Y71799D01*
X64521Y71669D01*
X64496Y71519D01*
X64481Y71349D01*
X64476Y71159D01*
X63476D01*
X63471Y71349D01*
X63456Y71519D01*
X63431Y71669D01*
X63396Y71799D01*
X63351Y71909D01*
X63296Y71999D01*
X63231Y72069D01*
X63156Y72119D01*
X63071Y72149D01*
X62976Y72159D01*
X64976D01*
X64881Y72149D01*
D02*
G37*
G36*
X92835Y71988D02*
X97802D01*
Y69784D01*
X93504D01*
Y68439D01*
X92421D01*
X92414Y68437D01*
X91674Y68340D01*
X90978Y68051D01*
X90380Y67593D01*
X90133Y67271D01*
X90042Y67308D01*
X90096Y67716D01*
X90092D01*
Y71653D01*
X91535D01*
Y72900D01*
X92835D01*
Y71988D01*
D02*
G37*
G36*
X103738Y68031D02*
X103768Y67946D01*
X103818Y67871D01*
X103888Y67806D01*
X103978Y67751D01*
X104088Y67706D01*
X104218Y67671D01*
X104368Y67646D01*
X104538Y67631D01*
X104728Y67626D01*
Y66626D01*
X104538Y66621D01*
X104368Y66606D01*
X104218Y66581D01*
X104088Y66546D01*
X103978Y66501D01*
X103888Y66446D01*
X103818Y66381D01*
X103768Y66306D01*
X103738Y66221D01*
X103728Y66126D01*
Y68126D01*
X103738Y68031D01*
D02*
G37*
G36*
X94303Y66126D02*
X94293Y66221D01*
X94263Y66306D01*
X94213Y66381D01*
X94143Y66446D01*
X94053Y66501D01*
X93943Y66546D01*
X93813Y66581D01*
X93663Y66606D01*
X93493Y66621D01*
X93303Y66626D01*
Y67626D01*
X93493Y67631D01*
X93663Y67646D01*
X93813Y67671D01*
X93943Y67706D01*
X94053Y67751D01*
X94143Y67806D01*
X94213Y67871D01*
X94263Y67946D01*
X94293Y68031D01*
X94303Y68126D01*
Y66126D01*
D02*
G37*
G36*
X134623Y64050D02*
X134567Y63977D01*
X134518Y63898D01*
X134476Y63814D01*
X134440Y63723D01*
X134411Y63627D01*
X134388Y63524D01*
X134371Y63416D01*
X134362Y63302D01*
X134358Y63182D01*
X133358D01*
X133355Y63302D01*
X133345Y63416D01*
X133329Y63524D01*
X133306Y63627D01*
X133277Y63723D01*
X133241Y63814D01*
X133198Y63898D01*
X133149Y63977D01*
X133094Y64050D01*
X133031Y64117D01*
X134685D01*
X134623Y64050D01*
D02*
G37*
G36*
X103640Y61141D02*
X103670Y61056D01*
X103720Y60981D01*
X103790Y60916D01*
X103880Y60861D01*
X103990Y60816D01*
X104120Y60781D01*
X104270Y60756D01*
X104440Y60741D01*
X104630Y60736D01*
Y59736D01*
X104440Y59731D01*
X104270Y59716D01*
X104120Y59691D01*
X103990Y59656D01*
X103880Y59611D01*
X103790Y59556D01*
X103720Y59491D01*
X103670Y59416D01*
X103640Y59331D01*
X103630Y59236D01*
Y61236D01*
X103640Y61141D01*
D02*
G37*
G36*
X96870Y58368D02*
X96785Y58338D01*
X96710Y58288D01*
X96645Y58218D01*
X96590Y58128D01*
X96545Y58018D01*
X96510Y57888D01*
X96485Y57738D01*
X96470Y57568D01*
X96465Y57378D01*
X95465D01*
X95460Y57568D01*
X95445Y57738D01*
X95420Y57888D01*
X95385Y58018D01*
X95340Y58128D01*
X95285Y58218D01*
X95220Y58288D01*
X95145Y58338D01*
X95060Y58368D01*
X94965Y58378D01*
X96965D01*
X96870Y58368D01*
D02*
G37*
G36*
X88364Y56023D02*
X88394Y55938D01*
X88444Y55863D01*
X88514Y55798D01*
X88604Y55743D01*
X88714Y55698D01*
X88844Y55663D01*
X88994Y55638D01*
X89164Y55623D01*
X89198Y55622D01*
X89302Y55631D01*
X89410Y55647D01*
X89513Y55670D01*
X89609Y55700D01*
X89700Y55736D01*
X89784Y55778D01*
X89863Y55827D01*
X89936Y55883D01*
X90003Y55945D01*
Y54291D01*
X89936Y54353D01*
X89863Y54409D01*
X89784Y54458D01*
X89700Y54501D01*
X89609Y54536D01*
X89513Y54566D01*
X89410Y54589D01*
X89302Y54605D01*
X89198Y54614D01*
X89164Y54613D01*
X88994Y54598D01*
X88844Y54573D01*
X88714Y54538D01*
X88604Y54493D01*
X88514Y54438D01*
X88444Y54373D01*
X88394Y54298D01*
X88364Y54213D01*
X88354Y54118D01*
Y56118D01*
X88364Y56023D01*
D02*
G37*
G36*
X84481Y54216D02*
X84470Y54312D01*
X84440Y54396D01*
X84390Y54471D01*
X84320Y54536D01*
X84231Y54592D01*
X84121Y54637D01*
X83991Y54672D01*
X83841Y54697D01*
X83671Y54712D01*
X83481Y54716D01*
Y55717D01*
X83671Y55721D01*
X83841Y55737D01*
X83991Y55761D01*
X84121Y55796D01*
X84231Y55841D01*
X84320Y55897D01*
X84390Y55962D01*
X84440Y56037D01*
X84470Y56121D01*
X84481Y56217D01*
Y54216D01*
D02*
G37*
G36*
Y48311D02*
X84470Y48406D01*
X84440Y48491D01*
X84390Y48566D01*
X84320Y48631D01*
X84231Y48686D01*
X84121Y48731D01*
X83991Y48766D01*
X83841Y48791D01*
X83671Y48806D01*
X83481Y48811D01*
Y49811D01*
X83671Y49816D01*
X83841Y49831D01*
X83991Y49856D01*
X84121Y49891D01*
X84231Y49936D01*
X84320Y49991D01*
X84390Y50056D01*
X84440Y50131D01*
X84470Y50216D01*
X84481Y50311D01*
Y48311D01*
D02*
G37*
G36*
X88364Y44901D02*
X88394Y44816D01*
X88444Y44741D01*
X88514Y44676D01*
X88604Y44621D01*
X88714Y44576D01*
X88844Y44541D01*
X88994Y44516D01*
X89164Y44501D01*
X89354Y44496D01*
Y43496D01*
X89164Y43491D01*
X88994Y43476D01*
X88844Y43451D01*
X88714Y43416D01*
X88604Y43371D01*
X88514Y43316D01*
X88444Y43251D01*
X88394Y43176D01*
X88364Y43091D01*
X88354Y42996D01*
Y44996D01*
X88364Y44901D01*
D02*
G37*
G36*
X84481Y42473D02*
X84470Y42555D01*
X84440Y42628D01*
X84390Y42693D01*
X84320Y42750D01*
X84231Y42797D01*
X84121Y42836D01*
X83991Y42867D01*
X83841Y42888D01*
X83671Y42901D01*
X83481Y42906D01*
Y43905D01*
X83671Y43911D01*
X83841Y43925D01*
X83991Y43951D01*
X84121Y43986D01*
X84231Y44030D01*
X84320Y44085D01*
X84390Y44151D01*
X84440Y44225D01*
X84470Y44311D01*
X84481Y44405D01*
Y42473D01*
D02*
G37*
G36*
X80313Y38059D02*
X80371Y37894D01*
X80434Y37748D01*
X80502Y37621D01*
X80575Y37514D01*
X80653Y37427D01*
X80736Y37359D01*
X80823Y37310D01*
X80916Y37281D01*
X81013Y37271D01*
X78950D01*
X79041Y37281D01*
X79117Y37310D01*
X79177Y37357D01*
X79224Y37424D01*
X79255Y37510D01*
X79272Y37615D01*
X79273Y37739D01*
X79260Y37883D01*
X79232Y38045D01*
X79189Y38226D01*
X80260Y38243D01*
X80313Y38059D01*
D02*
G37*
G36*
X81220Y33388D02*
X81135Y33358D01*
X81060Y33308D01*
X80995Y33238D01*
X80940Y33148D01*
X80895Y33038D01*
X80860Y32908D01*
X80835Y32758D01*
X80820Y32588D01*
X80815Y32398D01*
X79815D01*
X79810Y32588D01*
X79795Y32758D01*
X79770Y32908D01*
X79735Y33038D01*
X79690Y33148D01*
X79635Y33238D01*
X79570Y33308D01*
X79495Y33358D01*
X79410Y33388D01*
X79315Y33398D01*
X81315D01*
X81220Y33388D01*
D02*
G37*
G36*
X80820Y31703D02*
X80835Y31534D01*
X80860Y31383D01*
X80895Y31253D01*
X80940Y31144D01*
X80995Y31054D01*
X81060Y30983D01*
X81135Y30933D01*
X81220Y30904D01*
X81315Y30893D01*
X79315D01*
X79410Y30904D01*
X79495Y30933D01*
X79570Y30983D01*
X79635Y31054D01*
X79690Y31144D01*
X79735Y31253D01*
X79770Y31383D01*
X79795Y31534D01*
X79810Y31703D01*
X79815Y31894D01*
X80815D01*
X80820Y31703D01*
D02*
G37*
G36*
X82085Y29940D02*
X82115Y29855D01*
X82165Y29780D01*
X82235Y29715D01*
X82325Y29660D01*
X82435Y29615D01*
X82565Y29580D01*
X82715Y29555D01*
X82885Y29540D01*
X83075Y29535D01*
Y28535D01*
X82885Y28530D01*
X82715Y28515D01*
X82565Y28490D01*
X82435Y28455D01*
X82325Y28410D01*
X82235Y28355D01*
X82165Y28290D01*
X82115Y28215D01*
X82085Y28130D01*
X82075Y28035D01*
Y30035D01*
X82085Y29940D01*
D02*
G37*
G36*
X35846Y80665D02*
X35761Y80635D01*
X35686Y80585D01*
X35621Y80515D01*
X35566Y80425D01*
X35521Y80315D01*
X35486Y80185D01*
X35461Y80035D01*
X35446Y79865D01*
X35441Y79675D01*
X34441D01*
X34436Y79865D01*
X34421Y80035D01*
X34396Y80185D01*
X34361Y80315D01*
X34316Y80425D01*
X34261Y80515D01*
X34196Y80585D01*
X34121Y80635D01*
X34036Y80665D01*
X33941Y80675D01*
X35941D01*
X35846Y80665D01*
D02*
G37*
G36*
X35446Y67137D02*
X35461Y66967D01*
X35486Y66817D01*
X35521Y66687D01*
X35566Y66577D01*
X35621Y66487D01*
X35686Y66417D01*
X35761Y66367D01*
X35846Y66337D01*
X35941Y66327D01*
X33941D01*
X34036Y66337D01*
X34121Y66367D01*
X34196Y66417D01*
X34261Y66487D01*
X34316Y66577D01*
X34361Y66687D01*
X34396Y66817D01*
X34421Y66967D01*
X34436Y67137D01*
X34441Y67327D01*
X35441D01*
X35446Y67137D01*
D02*
G37*
G36*
X40071Y62878D02*
X40061Y62973D01*
X40031Y63058D01*
X39981Y63133D01*
X39911Y63198D01*
X39821Y63253D01*
X39711Y63298D01*
X39581Y63333D01*
X39431Y63358D01*
X39261Y63373D01*
X39071Y63378D01*
Y64378D01*
X39261Y64383D01*
X39431Y64398D01*
X39581Y64423D01*
X39711Y64458D01*
X39821Y64503D01*
X39911Y64558D01*
X39981Y64623D01*
X40031Y64698D01*
X40061Y64783D01*
X40071Y64878D01*
Y62878D01*
D02*
G37*
G36*
X36809Y64783D02*
X36839Y64698D01*
X36889Y64623D01*
X36959Y64558D01*
X37049Y64503D01*
X37159Y64458D01*
X37289Y64423D01*
X37439Y64398D01*
X37609Y64383D01*
X37799Y64378D01*
Y63378D01*
X37609Y63373D01*
X37439Y63358D01*
X37289Y63333D01*
X37159Y63298D01*
X37049Y63253D01*
X36959Y63198D01*
X36889Y63133D01*
X36839Y63058D01*
X36809Y62973D01*
X36799Y62878D01*
Y64878D01*
X36809Y64783D01*
D02*
G37*
G36*
X47945Y56972D02*
X47935Y57067D01*
X47905Y57152D01*
X47855Y57227D01*
X47785Y57292D01*
X47695Y57347D01*
X47585Y57392D01*
X47455Y57427D01*
X47305Y57452D01*
X47135Y57467D01*
X46945Y57472D01*
Y58472D01*
X47135Y58477D01*
X47305Y58492D01*
X47455Y58517D01*
X47585Y58552D01*
X47695Y58597D01*
X47785Y58652D01*
X47855Y58717D01*
X47905Y58792D01*
X47935Y58877D01*
X47945Y58972D01*
Y56972D01*
D02*
G37*
G36*
X43797Y58877D02*
X43827Y58792D01*
X43877Y58717D01*
X43947Y58652D01*
X44037Y58597D01*
X44147Y58552D01*
X44277Y58517D01*
X44427Y58492D01*
X44597Y58477D01*
X44787Y58472D01*
Y57472D01*
X44597Y57467D01*
X44427Y57452D01*
X44277Y57427D01*
X44147Y57392D01*
X44037Y57347D01*
X43947Y57292D01*
X43877Y57227D01*
X43827Y57152D01*
X43797Y57067D01*
X43787Y56972D01*
Y58972D01*
X43797Y58877D01*
D02*
G37*
G36*
X40071Y56776D02*
X40061Y56871D01*
X40031Y56956D01*
X39981Y57031D01*
X39911Y57096D01*
X39821Y57151D01*
X39711Y57196D01*
X39581Y57231D01*
X39431Y57256D01*
X39261Y57271D01*
X39071Y57276D01*
Y58276D01*
X39261Y58281D01*
X39431Y58296D01*
X39581Y58321D01*
X39711Y58356D01*
X39821Y58401D01*
X39911Y58456D01*
X39981Y58521D01*
X40031Y58596D01*
X40061Y58681D01*
X40071Y58776D01*
Y56776D01*
D02*
G37*
G36*
X36376Y58681D02*
X36406Y58596D01*
X36456Y58521D01*
X36526Y58456D01*
X36616Y58401D01*
X36726Y58356D01*
X36856Y58321D01*
X37006Y58296D01*
X37176Y58281D01*
X37366Y58276D01*
Y57276D01*
X37176Y57271D01*
X37006Y57256D01*
X36856Y57231D01*
X36726Y57196D01*
X36616Y57151D01*
X36526Y57096D01*
X36456Y57031D01*
X36406Y56956D01*
X36376Y56871D01*
X36366Y56776D01*
Y58776D01*
X36376Y58681D01*
D02*
G37*
G36*
X42512Y56207D02*
X42495Y56189D01*
X42479Y56159D01*
X42466Y56116D01*
X42455Y56062D01*
X42446Y55996D01*
X42433Y55827D01*
X42429Y55610D01*
X41429D01*
X41428Y55725D01*
X41403Y56062D01*
X41392Y56116D01*
X41379Y56159D01*
X41363Y56189D01*
X41346Y56207D01*
X41327Y56213D01*
X42532D01*
X42512Y56207D01*
D02*
G37*
G36*
X45584Y51861D02*
X45599Y51691D01*
X45624Y51541D01*
X45659Y51411D01*
X45704Y51301D01*
X45759Y51211D01*
X45824Y51141D01*
X45899Y51091D01*
X45984Y51061D01*
X46079Y51051D01*
X44079D01*
X44174Y51061D01*
X44259Y51091D01*
X44334Y51141D01*
X44399Y51211D01*
X44454Y51301D01*
X44499Y51411D01*
X44534Y51541D01*
X44559Y51691D01*
X44574Y51861D01*
X44579Y52051D01*
X45579D01*
X45584Y51861D01*
D02*
G37*
G36*
X52124Y50019D02*
X52154Y49934D01*
X52204Y49859D01*
X52274Y49794D01*
X52364Y49739D01*
X52474Y49694D01*
X52604Y49659D01*
X52754Y49634D01*
X52924Y49619D01*
X53114Y49614D01*
Y48614D01*
X52924Y48609D01*
X52754Y48594D01*
X52604Y48569D01*
X52474Y48534D01*
X52364Y48489D01*
X52274Y48434D01*
X52204Y48369D01*
X52154Y48294D01*
X52124Y48209D01*
X52114Y48114D01*
Y50114D01*
X52124Y50019D01*
D02*
G37*
G36*
X43555Y47917D02*
X43545Y48012D01*
X43515Y48097D01*
X43465Y48172D01*
X43395Y48237D01*
X43305Y48292D01*
X43195Y48337D01*
X43065Y48372D01*
X42915Y48397D01*
X42745Y48412D01*
X42555Y48417D01*
Y49417D01*
X42745Y49422D01*
X42915Y49437D01*
X43065Y49462D01*
X43195Y49497D01*
X43305Y49542D01*
X43395Y49597D01*
X43465Y49662D01*
X43515Y49737D01*
X43545Y49822D01*
X43555Y49917D01*
Y47917D01*
D02*
G37*
G36*
X40254Y49822D02*
X40284Y49737D01*
X40334Y49662D01*
X40404Y49597D01*
X40494Y49542D01*
X40604Y49497D01*
X40734Y49462D01*
X40884Y49437D01*
X41054Y49422D01*
X41244Y49417D01*
Y48417D01*
X41054Y48412D01*
X40884Y48397D01*
X40734Y48372D01*
X40604Y48337D01*
X40494Y48292D01*
X40404Y48237D01*
X40334Y48172D01*
X40284Y48097D01*
X40254Y48012D01*
X40244Y47917D01*
Y49917D01*
X40254Y49822D01*
D02*
G37*
G36*
X51496Y47167D02*
X51411Y47137D01*
X51336Y47087D01*
X51271Y47017D01*
X51216Y46927D01*
X51171Y46817D01*
X51136Y46687D01*
X51111Y46537D01*
X51096Y46367D01*
X51091Y46177D01*
X50091D01*
X50086Y46367D01*
X50071Y46537D01*
X50046Y46687D01*
X50011Y46817D01*
X49966Y46927D01*
X49911Y47017D01*
X49846Y47087D01*
X49771Y47137D01*
X49686Y47167D01*
X49591Y47177D01*
X51591D01*
X51496Y47167D01*
D02*
G37*
G36*
X51096Y45562D02*
X51111Y45392D01*
X51136Y45242D01*
X51171Y45112D01*
X51216Y45002D01*
X51271Y44912D01*
X51336Y44842D01*
X51411Y44792D01*
X51496Y44762D01*
X51591Y44752D01*
X49591D01*
X49686Y44762D01*
X49771Y44792D01*
X49846Y44842D01*
X49911Y44912D01*
X49966Y45002D01*
X50011Y45112D01*
X50046Y45242D01*
X50071Y45392D01*
X50086Y45562D01*
X50091Y45752D01*
X51091D01*
X51096Y45562D01*
D02*
G37*
G36*
X43555Y41815D02*
X43545Y41910D01*
X43515Y41995D01*
X43465Y42070D01*
X43395Y42135D01*
X43305Y42190D01*
X43195Y42235D01*
X43065Y42270D01*
X42915Y42295D01*
X42745Y42310D01*
X42555Y42315D01*
Y43315D01*
X42745Y43320D01*
X42915Y43335D01*
X43065Y43360D01*
X43195Y43395D01*
X43305Y43440D01*
X43395Y43495D01*
X43465Y43560D01*
X43515Y43635D01*
X43545Y43720D01*
X43555Y43815D01*
Y41815D01*
D02*
G37*
G36*
X40254Y43720D02*
X40284Y43635D01*
X40334Y43560D01*
X40404Y43495D01*
X40494Y43440D01*
X40604Y43395D01*
X40734Y43360D01*
X40884Y43335D01*
X41054Y43320D01*
X41244Y43315D01*
Y42315D01*
X41054Y42310D01*
X40884Y42295D01*
X40734Y42270D01*
X40604Y42235D01*
X40494Y42190D01*
X40404Y42135D01*
X40334Y42070D01*
X40284Y41995D01*
X40254Y41910D01*
X40244Y41815D01*
Y43815D01*
X40254Y43720D01*
D02*
G37*
G36*
X57819Y47708D02*
X57030Y47103D01*
X56177Y45992D01*
X55641Y44697D01*
X55458Y43307D01*
X55479D01*
Y42028D01*
X55481Y42015D01*
X55366Y41436D01*
X55031Y40934D01*
X54529Y40599D01*
X53949Y40483D01*
X53937Y40486D01*
X52913D01*
Y45551D01*
X51903D01*
Y46378D01*
X52913D01*
Y47802D01*
X57787D01*
X57819Y47708D01*
D02*
G37*
G36*
X30236Y62600D02*
X30151Y62570D01*
X30076Y62520D01*
X30011Y62450D01*
X29956Y62360D01*
X29911Y62250D01*
X29876Y62120D01*
X29851Y61970D01*
X29836Y61800D01*
X29831Y61610D01*
X28831D01*
X28826Y61800D01*
X28811Y61970D01*
X28786Y62120D01*
X28751Y62250D01*
X28706Y62360D01*
X28651Y62450D01*
X28586Y62520D01*
X28511Y62570D01*
X28426Y62600D01*
X28331Y62610D01*
X30331D01*
X30236Y62600D01*
D02*
G37*
G36*
X29836Y60522D02*
X29851Y60352D01*
X29876Y60202D01*
X29911Y60072D01*
X29956Y59962D01*
X30011Y59872D01*
X30076Y59802D01*
X30151Y59752D01*
X30236Y59722D01*
X30331Y59712D01*
X28331D01*
X28426Y59722D01*
X28511Y59752D01*
X28586Y59802D01*
X28651Y59872D01*
X28706Y59962D01*
X28751Y60072D01*
X28786Y60202D01*
X28811Y60352D01*
X28826Y60522D01*
X28831Y60712D01*
X29831D01*
X29836Y60522D01*
D02*
G37*
G36*
X68222Y31703D02*
X68237Y31534D01*
X68262Y31383D01*
X68297Y31253D01*
X68342Y31144D01*
X68397Y31054D01*
X68462Y30983D01*
X68537Y30933D01*
X68622Y30904D01*
X68717Y30893D01*
X66717D01*
X66812Y30904D01*
X66897Y30933D01*
X66972Y30983D01*
X67037Y31054D01*
X67092Y31144D01*
X67137Y31253D01*
X67172Y31383D01*
X67197Y31534D01*
X67212Y31703D01*
X67217Y31894D01*
X68217D01*
X68222Y31703D01*
D02*
G37*
G36*
X72650Y28035D02*
X72640Y28130D01*
X72610Y28215D01*
X72560Y28290D01*
X72490Y28355D01*
X72400Y28410D01*
X72290Y28455D01*
X72160Y28490D01*
X72010Y28515D01*
X71840Y28530D01*
X71650Y28535D01*
Y29535D01*
X71840Y29540D01*
X72010Y29555D01*
X72160Y29580D01*
X72290Y29615D01*
X72400Y29660D01*
X72490Y29715D01*
X72560Y29780D01*
X72610Y29855D01*
X72640Y29940D01*
X72650Y30035D01*
Y28035D01*
D02*
G37*
G36*
X69486Y29940D02*
X69516Y29855D01*
X69566Y29780D01*
X69636Y29715D01*
X69726Y29660D01*
X69836Y29615D01*
X69966Y29580D01*
X70116Y29555D01*
X70286Y29540D01*
X70476Y29535D01*
Y28535D01*
X70286Y28530D01*
X70116Y28515D01*
X69966Y28490D01*
X69836Y28455D01*
X69726Y28410D01*
X69636Y28355D01*
X69566Y28290D01*
X69516Y28215D01*
X69486Y28130D01*
X69476Y28035D01*
Y30035D01*
X69486Y29940D01*
D02*
G37*
D13*
X101870Y60187D02*
G03*
X105955Y56102I4085J0D01*
G01*
Y71850D02*
G03*
X101969Y67864I0J-3986D01*
G01*
X107382Y60236D02*
G03*
X109744Y62598I0J2362D01*
G01*
X33465Y52165D02*
G03*
X36713Y48917I3248J0D01*
G01*
X132723Y59510D02*
G03*
X133858Y62250I-2740J2740D01*
G01*
X98107Y29035D02*
G03*
X105178Y31964I0J10000D01*
G01*
X80709Y46850D02*
G03*
X81184Y46654I475J475D01*
G01*
X80709Y46850D02*
G03*
X79521Y47343I-1188J-1188D01*
G01*
X91043Y46654D02*
G03*
X91240Y46457I197J0D01*
G01*
X94193D02*
G03*
X95965Y48228I0J1772D01*
G01*
X81693Y80118D02*
G03*
X81102Y80709I-591J0D01*
G01*
X83169Y85236D02*
G03*
X81693Y83760I0J-1476D01*
G01*
X83517Y85584D02*
G03*
X83169Y85236I0J-347D01*
G01*
X86221Y55216D02*
G03*
X86417Y55413I0J197D01*
G01*
X131102Y67126D02*
G03*
X136380Y72404I0J5278D01*
G01*
X56398Y52559D02*
G03*
X55216Y53740I-1181J0D01*
G01*
X45079Y52461D02*
G03*
X43799Y53740I-1280J0D01*
G01*
X56398Y52559D02*
G03*
X57677Y51279I1280J0D01*
G01*
X41929Y55610D02*
G03*
X43799Y53740I1870J0D01*
G01*
X60335Y45374D02*
G03*
X58366Y43406I0J-1969D01*
G01*
X53937Y37598D02*
G03*
X52559Y36220I0J-1378D01*
G01*
X53937Y37598D02*
G03*
X58366Y42028I0J4429D01*
G01*
X88878Y74213D02*
G03*
X88779Y74114I0J-98D01*
G01*
X95473Y74213D02*
G03*
X95571Y74311I0J98D01*
G01*
X86713Y65650D02*
G03*
X88779Y67716I0J2067D01*
G01*
X73425Y65650D02*
G03*
X71260Y63484I0J-2165D01*
G01*
X34941Y64706D02*
G03*
X35039Y64468I336J0D01*
G01*
X44941Y197835D02*
G03*
X34941Y187835I0J-10000D01*
G01*
X35039Y64468D02*
G03*
X35630Y63878I591J0D01*
G01*
X99114Y75394D02*
G03*
X97342Y77165I-1772J0D01*
G01*
X88878Y80118D02*
G03*
X91831Y77165I2953J0D01*
G01*
X92421Y67126D02*
G03*
X90847Y65551I0J-1575D01*
G01*
X89370Y64075D02*
G03*
X90847Y65551I0J1476D01*
G01*
X79232Y67126D02*
G03*
X81693Y69585I0J2461D01*
G01*
X81890Y64075D02*
G03*
X79823Y62008I0J-2067D01*
G01*
X78150Y57185D02*
G03*
X79823Y58858I0J1673D01*
G01*
X95177Y43996D02*
G03*
X99114Y47933I0J3937D01*
G01*
X79134Y44291D02*
G03*
X78051Y45374I-1083J0D01*
G01*
X79134Y44291D02*
G03*
X80020Y43406I886J0D01*
G01*
X85827D02*
G03*
X86417Y43996I0J591D01*
G01*
X80020Y36713D02*
G03*
X75886Y40846I-4134J0D01*
G01*
X71260Y43799D02*
G03*
X74213Y40846I2953J0D01*
G01*
X80315Y35039D02*
G03*
X80020Y35335I-295J0D01*
G01*
X49705Y39173D02*
G03*
X46555Y36024I0J-3150D01*
G01*
X53937Y39173D02*
G03*
X56791Y42028I0J2854D01*
G01*
X60827Y47343D02*
G03*
X56791Y43307I0J-4035D01*
G01*
X38386Y43012D02*
G03*
X38583Y42815I197J0D01*
G01*
X61910Y63878D02*
G03*
X63976Y65945I0J2067D01*
G01*
Y74213D02*
G03*
X63878Y74311I-98J0D01*
G01*
X67913Y67126D02*
G03*
X65354Y64567I0J-2559D01*
G01*
X59842Y63878D02*
G03*
X57973Y62008I0J-1870D01*
G01*
Y58465D02*
G03*
X59252Y57185I1280J0D01*
G01*
X61614Y49114D02*
G03*
X61811Y49311I0J197D01*
G01*
X67717Y33747D02*
G03*
X66765Y34745I-1000J0D01*
G01*
X65354Y36220D02*
G03*
X66765Y34745I1476J0D01*
G01*
X29331Y64272D02*
G03*
X29134Y64468I-197J0D01*
G01*
X101870Y60187D02*
Y60236D01*
X101969Y67126D02*
Y67864D01*
X101870Y60236D02*
X107382D01*
X36713Y48917D02*
X38386D01*
X133858Y62250D02*
Y64961D01*
X105178Y31964D02*
X132723Y59510D01*
X80315Y29035D02*
X98107D01*
X81184Y46654D02*
X91043D01*
X74803Y47343D02*
X79521D01*
X91240Y46457D02*
X94193D01*
X95965Y48228D02*
Y60236D01*
X86417Y55413D02*
X86713Y55118D01*
X90847D01*
X81693Y80118D02*
Y83760D01*
X74803Y55216D02*
X86221D01*
X72146Y80709D02*
X81102D01*
X83517Y85584D02*
X83635D01*
X136380Y72404D02*
Y137729D01*
X101969Y67126D02*
X131102D01*
X43799Y53740D02*
X55216D01*
X57677Y51279D02*
X61811D01*
X45079Y49114D02*
Y52461D01*
X41929Y55610D02*
Y57972D01*
X49803D01*
X34843Y57776D02*
X41732D01*
X38386Y48917D02*
X44882D01*
X60335Y45374D02*
X61811D01*
X52559Y34350D02*
Y36220D01*
X58366Y42028D02*
Y43406D01*
X88779Y67716D02*
Y74114D01*
X88878Y74213D02*
X95473D01*
X73425Y65650D02*
X86713D01*
X71260Y60728D02*
Y63484D01*
X34941Y187835D02*
X34941Y187835D01*
X34941Y96956D02*
Y187835D01*
Y88340D02*
Y96956D01*
Y64706D02*
Y73819D01*
Y82434D01*
X44941Y197835D02*
X179134D01*
X35630Y63878D02*
X41929D01*
X91831Y77165D02*
X97342D01*
X81693Y69585D02*
Y74213D01*
X63878Y74311D02*
X72933D01*
X99114Y47933D02*
Y75394D01*
X92421Y67126D02*
X96063D01*
X88878Y80118D02*
X89173Y80413D01*
Y85433D01*
X81890Y64075D02*
X89370D01*
X79823Y58858D02*
Y62008D01*
X74803Y57185D02*
X78150D01*
X67913Y67126D02*
X79232D01*
X86319Y49311D02*
X86417Y49409D01*
X74803Y49311D02*
X86319D01*
X86417Y43996D02*
X95177D01*
X80020Y43406D02*
X85827D01*
X74213Y40846D02*
X75886D01*
X74803Y45374D02*
X78051D01*
X67717Y29035D02*
X74410D01*
X80315D02*
Y35039D01*
X80020Y35335D02*
Y36713D01*
X49705Y39173D02*
X53937D01*
X46555Y34835D02*
Y36024D01*
X56791Y42028D02*
Y43307D01*
X46260Y34055D02*
X46555Y34835D01*
X50591Y42815D02*
Y49114D01*
X60827Y47343D02*
X61811D01*
X38583Y42815D02*
X45079D01*
X63976Y65945D02*
Y74213D01*
X59842Y63878D02*
X61910D01*
X65354Y60728D02*
Y64567D01*
X57973Y58465D02*
Y62008D01*
X59252Y57185D02*
X61811D01*
X50591Y49114D02*
X61614D01*
X65354Y36220D02*
Y43799D01*
X67717Y29035D02*
Y33747D01*
X29331Y57776D02*
Y64272D01*
D14*
X46260Y28642D02*
D03*
X95571Y79823D02*
D03*
X86417Y60925D02*
D03*
X95571Y74311D02*
D03*
X86417Y49508D02*
D03*
Y43996D02*
D03*
X46260Y34154D02*
D03*
X86417Y55413D02*
D03*
D36*
X15748Y15748D02*
D03*
X251969D02*
D03*
X251969Y240158D02*
D03*
X15748D02*
D03*
D38*
X234252Y140748D02*
D03*
Y41339D02*
D03*
Y83661D02*
D03*
Y196555D02*
D03*
D39*
X223413Y35049D02*
D03*
X223357Y38199D02*
D03*
X225745Y39764D02*
D03*
X223186Y41339D02*
D03*
X225689Y42913D02*
D03*
X223074Y47638D02*
D03*
X225801Y36614D02*
D03*
X223130Y44488D02*
D03*
X225633Y46063D02*
D03*
X125984Y59055D02*
D03*
X114173Y62992D02*
D03*
X122047D02*
D03*
Y55118D02*
D03*
X118110Y59055D02*
D03*
X114173Y55118D02*
D03*
X92520Y70472D02*
D03*
X145669Y30709D02*
D03*
X137795D02*
D03*
X129921D02*
D03*
X141732Y26772D02*
D03*
X133858D02*
D03*
X125984D02*
D03*
X169291Y30709D02*
D03*
X161417D02*
D03*
X153543D02*
D03*
X165354Y26772D02*
D03*
X157480D02*
D03*
X149606D02*
D03*
X192913Y30709D02*
D03*
X185039D02*
D03*
X177165D02*
D03*
X188976Y26772D02*
D03*
X181102D02*
D03*
X173228D02*
D03*
X216535Y30709D02*
D03*
X208661D02*
D03*
X200787D02*
D03*
X212598Y26772D02*
D03*
X204724D02*
D03*
X196850D02*
D03*
X141732Y42520D02*
D03*
X133858D02*
D03*
X125984D02*
D03*
X145669Y38583D02*
D03*
X137795D02*
D03*
X129921D02*
D03*
X141732Y34646D02*
D03*
X133858D02*
D03*
X125984D02*
D03*
X165354Y42520D02*
D03*
X157480D02*
D03*
X149606D02*
D03*
X169291Y38583D02*
D03*
X161417D02*
D03*
X153543D02*
D03*
X165354Y34646D02*
D03*
X157480D02*
D03*
X149606D02*
D03*
X188976Y42520D02*
D03*
X181102D02*
D03*
X173228D02*
D03*
X192913Y38583D02*
D03*
X185039D02*
D03*
X177165D02*
D03*
X188976Y34646D02*
D03*
X181102D02*
D03*
X173228D02*
D03*
X212598Y42520D02*
D03*
X204724D02*
D03*
X196850D02*
D03*
X216535Y38583D02*
D03*
X208661D02*
D03*
X200787D02*
D03*
X212598Y34646D02*
D03*
X204724D02*
D03*
X196850D02*
D03*
X175197Y244882D02*
D03*
X179134Y240945D02*
D03*
X175197Y237008D02*
D03*
X167323Y244882D02*
D03*
X171260Y240945D02*
D03*
X167323Y237008D02*
D03*
X159449D02*
D03*
X151575D02*
D03*
X143701D02*
D03*
X135827D02*
D03*
X163386Y240945D02*
D03*
X155512D02*
D03*
X147638D02*
D03*
X139764D02*
D03*
X159449Y244882D02*
D03*
X151575D02*
D03*
X143701D02*
D03*
X135827D02*
D03*
X104331D02*
D03*
X96457D02*
D03*
X88583D02*
D03*
X80709D02*
D03*
X72835D02*
D03*
X64961D02*
D03*
X57087D02*
D03*
X112205D02*
D03*
X120079D02*
D03*
X127953D02*
D03*
X108268Y240945D02*
D03*
X100394D02*
D03*
X92520D02*
D03*
X84646D02*
D03*
X76772D02*
D03*
X68898D02*
D03*
X61024D02*
D03*
X116142D02*
D03*
X124016D02*
D03*
X131890D02*
D03*
X104331Y237008D02*
D03*
X96457D02*
D03*
X88583D02*
D03*
X80709D02*
D03*
X72835D02*
D03*
X64961D02*
D03*
X57087D02*
D03*
X112205D02*
D03*
X120079D02*
D03*
X127953D02*
D03*
X196063Y132677D02*
D03*
X200000Y128740D02*
D03*
X192126D02*
D03*
X196063Y124803D02*
D03*
X140945Y132677D02*
D03*
X148819D02*
D03*
X156693D02*
D03*
X164567D02*
D03*
X172441D02*
D03*
X180315D02*
D03*
X188189D02*
D03*
Y124803D02*
D03*
X180315D02*
D03*
X172441D02*
D03*
X164567D02*
D03*
X156693D02*
D03*
X148819D02*
D03*
X140945D02*
D03*
X144882Y128740D02*
D03*
X152756D02*
D03*
X160630D02*
D03*
X168504D02*
D03*
X176378D02*
D03*
X184252D02*
D03*
X54331Y45768D02*
D03*
X66220Y52253D02*
D03*
X70394Y52275D02*
D03*
X68318Y49016D02*
D03*
X68296Y55512D02*
D03*
X90158Y60728D02*
D03*
X82087Y59350D02*
D03*
X91339Y49902D02*
D03*
X55118Y57087D02*
D03*
X61024Y36417D02*
D03*
X69882Y38386D02*
D03*
X90551Y33465D02*
D03*
X93504Y36417D02*
D03*
X87598D02*
D03*
X38386Y54134D02*
D03*
X76772Y62008D02*
D03*
X73819Y69882D02*
D03*
X84041Y68189D02*
D03*
X203937Y132677D02*
D03*
X207874Y128740D02*
D03*
X203937Y124803D02*
D03*
X234252Y30217D02*
D03*
X231102Y30161D02*
D03*
X227952Y30105D02*
D03*
X237391Y30388D02*
D03*
X240541Y30443D02*
D03*
X235827Y32776D02*
D03*
X238977Y32831D02*
D03*
X232677Y32720D02*
D03*
X229527Y32664D02*
D03*
X243068Y36614D02*
D03*
X243012Y39764D02*
D03*
X242900Y46064D02*
D03*
X242956Y42914D02*
D03*
X245288Y47628D02*
D03*
X245344Y44478D02*
D03*
X245627Y35039D02*
D03*
X245571Y38189D02*
D03*
X245515Y41339D02*
D03*
X238977Y50167D02*
D03*
X235827Y50112D02*
D03*
X229528Y50000D02*
D03*
X232678Y50056D02*
D03*
X227963Y52388D02*
D03*
X231113Y52444D02*
D03*
X240552Y52726D02*
D03*
X237403Y52671D02*
D03*
X234253Y52615D02*
D03*
X223074Y140749D02*
D03*
X223018Y143899D02*
D03*
X222962Y147049D02*
D03*
X223245Y137609D02*
D03*
X223301Y134459D02*
D03*
X225633Y139174D02*
D03*
X225689Y136024D02*
D03*
X225577Y142324D02*
D03*
X225522Y145473D02*
D03*
X234252Y151955D02*
D03*
X237402Y152011D02*
D03*
X240551Y152067D02*
D03*
X231112Y151784D02*
D03*
X227962Y151728D02*
D03*
X232677Y149396D02*
D03*
X229527Y149340D02*
D03*
X235826Y149452D02*
D03*
X238976Y149508D02*
D03*
X245417Y140748D02*
D03*
X245472Y137598D02*
D03*
X245528Y134448D02*
D03*
X245246Y143888D02*
D03*
X245190Y147038D02*
D03*
X242858Y142323D02*
D03*
X242802Y145473D02*
D03*
X242913Y139173D02*
D03*
X242969Y136023D02*
D03*
X229626Y132087D02*
D03*
X232776Y132142D02*
D03*
X239076Y132254D02*
D03*
X235926Y132198D02*
D03*
X240640Y129866D02*
D03*
X237490Y129810D02*
D03*
X228051Y129528D02*
D03*
X231201Y129583D02*
D03*
X234351Y129639D02*
D03*
X190551Y152953D02*
D03*
X206299D02*
D03*
X198425D02*
D03*
X182677D02*
D03*
X186614Y156890D02*
D03*
X202362D02*
D03*
X194488D02*
D03*
X210236D02*
D03*
X194488Y149016D02*
D03*
X202362D02*
D03*
X210236D02*
D03*
X186614D02*
D03*
X143307Y152953D02*
D03*
X139370Y149016D02*
D03*
X147244D02*
D03*
X139370Y156890D02*
D03*
X147244D02*
D03*
X131496Y149016D02*
D03*
X135433Y152953D02*
D03*
X155118Y156890D02*
D03*
X162992D02*
D03*
X151181Y152953D02*
D03*
X170866Y156890D02*
D03*
X174803Y152953D02*
D03*
X170866Y149016D02*
D03*
X178740D02*
D03*
Y156890D02*
D03*
X166929Y152953D02*
D03*
X159055D02*
D03*
X162992Y149016D02*
D03*
X155118D02*
D03*
X123622Y156890D02*
D03*
X131496D02*
D03*
X127953Y220472D02*
D03*
X120079D02*
D03*
X112205D02*
D03*
X57087D02*
D03*
X64961D02*
D03*
X72835D02*
D03*
X80709D02*
D03*
X88583D02*
D03*
X96457D02*
D03*
X104331D02*
D03*
X135827D02*
D03*
X143701D02*
D03*
X151575D02*
D03*
X159449D02*
D03*
X167323D02*
D03*
X175197D02*
D03*
X153543Y171260D02*
D03*
X161417D02*
D03*
X169291D02*
D03*
X224410D02*
D03*
X216535D02*
D03*
X208661D02*
D03*
X200787D02*
D03*
X192913D02*
D03*
X185039D02*
D03*
X177165D02*
D03*
X145669D02*
D03*
X137795D02*
D03*
X129921D02*
D03*
X122047D02*
D03*
X114173D02*
D03*
X106299D02*
D03*
X230315D02*
D03*
X238189D02*
D03*
X246063D02*
D03*
X135827Y57087D02*
D03*
X143701D02*
D03*
X151575D02*
D03*
X159449D02*
D03*
X167323D02*
D03*
X175197D02*
D03*
X206693D02*
D03*
X214567D02*
D03*
X222441D02*
D03*
X230315D02*
D03*
X238189D02*
D03*
X198819D02*
D03*
X190945D02*
D03*
X183071D02*
D03*
X142717Y110236D02*
D03*
X150591D02*
D03*
X158465D02*
D03*
X166339D02*
D03*
X174213D02*
D03*
X182087D02*
D03*
X213583D02*
D03*
X221457D02*
D03*
X229331D02*
D03*
X237205D02*
D03*
X245079D02*
D03*
X205709D02*
D03*
X197835D02*
D03*
X189961D02*
D03*
X179134Y224410D02*
D03*
X171260D02*
D03*
X163386D02*
D03*
X155512D02*
D03*
X9351Y30512D02*
D03*
X5413Y38386D02*
D03*
X9351Y46260D02*
D03*
X5413Y54134D02*
D03*
X9351Y62008D02*
D03*
X5413Y69882D02*
D03*
X9351Y77756D02*
D03*
X5413Y85630D02*
D03*
X9351Y93504D02*
D03*
X5413Y101378D02*
D03*
X9351Y109252D02*
D03*
X5413Y117126D02*
D03*
X9351Y125000D02*
D03*
X5413Y132874D02*
D03*
X9351Y140748D02*
D03*
X5413Y148622D02*
D03*
X9351Y156496D02*
D03*
X5413Y164370D02*
D03*
X9351Y172244D02*
D03*
X5413Y180118D02*
D03*
X9351Y187992D02*
D03*
X5413Y195866D02*
D03*
X9351Y203740D02*
D03*
X5413Y211614D02*
D03*
X9351Y219488D02*
D03*
X5413Y227362D02*
D03*
X13287Y38386D02*
D03*
X17224Y46260D02*
D03*
X13287Y54134D02*
D03*
X17224Y62008D02*
D03*
X13287Y69882D02*
D03*
X17224Y77756D02*
D03*
X13287Y85630D02*
D03*
X17224Y93504D02*
D03*
X13287Y101378D02*
D03*
X17224Y109252D02*
D03*
X13287Y117126D02*
D03*
X17224Y125000D02*
D03*
X13287Y132874D02*
D03*
X17224Y140748D02*
D03*
X13287Y148622D02*
D03*
X17224Y156496D02*
D03*
X13287Y164370D02*
D03*
X17224Y172244D02*
D03*
X13287Y180118D02*
D03*
X17224Y187992D02*
D03*
X13287Y195866D02*
D03*
X17224Y203740D02*
D03*
X13287Y211614D02*
D03*
X17224Y219488D02*
D03*
X25099Y30512D02*
D03*
X21161Y38386D02*
D03*
X25099Y46260D02*
D03*
X21161Y54134D02*
D03*
Y69882D02*
D03*
X25099Y77756D02*
D03*
X21161Y85630D02*
D03*
X25099Y93504D02*
D03*
X21161Y101378D02*
D03*
X25099Y109252D02*
D03*
X21161Y117126D02*
D03*
X25099Y125000D02*
D03*
X21161Y132874D02*
D03*
X25099Y140748D02*
D03*
X21161Y148622D02*
D03*
X25099Y156496D02*
D03*
X21161Y164370D02*
D03*
X25099Y172244D02*
D03*
X21161Y180118D02*
D03*
X25099Y187992D02*
D03*
X21161Y195866D02*
D03*
X25099Y203740D02*
D03*
X21161Y211614D02*
D03*
X25099Y219488D02*
D03*
X29036Y6890D02*
D03*
X32973Y14764D02*
D03*
Y30512D02*
D03*
X29036Y38386D02*
D03*
Y195866D02*
D03*
X32973Y203740D02*
D03*
X29036Y211614D02*
D03*
X32973Y219488D02*
D03*
X29036Y227362D02*
D03*
X32973Y235236D02*
D03*
X36910Y6890D02*
D03*
X40847Y14764D02*
D03*
X36910Y22638D02*
D03*
Y211614D02*
D03*
X40847Y219488D02*
D03*
X36910Y227362D02*
D03*
X40847Y235236D02*
D03*
X36910Y243110D02*
D03*
X44784Y6890D02*
D03*
X48721Y14764D02*
D03*
Y77756D02*
D03*
X44784Y85630D02*
D03*
X48721Y93504D02*
D03*
X44784Y101378D02*
D03*
Y227362D02*
D03*
X48721Y235236D02*
D03*
X44784Y243110D02*
D03*
X52658Y6890D02*
D03*
X56595Y14764D02*
D03*
X52658Y85630D02*
D03*
X56595Y93504D02*
D03*
X52658Y101378D02*
D03*
Y227362D02*
D03*
X60532Y6890D02*
D03*
X64469Y14764D02*
D03*
Y93504D02*
D03*
X60532Y101378D02*
D03*
X68406Y6890D02*
D03*
X72343Y14764D02*
D03*
Y93504D02*
D03*
X68406Y101378D02*
D03*
X76280Y6890D02*
D03*
X80217Y14764D02*
D03*
Y93504D02*
D03*
X76280Y101378D02*
D03*
X84154Y6890D02*
D03*
X88091Y14764D02*
D03*
X92028Y6890D02*
D03*
X95965Y14764D02*
D03*
X92028Y22638D02*
D03*
X99902Y6890D02*
D03*
X103839Y14764D02*
D03*
X99902Y22638D02*
D03*
Y38386D02*
D03*
Y164370D02*
D03*
X107776Y6890D02*
D03*
X111713Y14764D02*
D03*
X107776Y22638D02*
D03*
X115650Y6890D02*
D03*
X119587Y14764D02*
D03*
X115650Y22638D02*
D03*
X119587Y30512D02*
D03*
X123524Y6890D02*
D03*
X127461Y14764D02*
D03*
X131398Y6890D02*
D03*
X135335Y14764D02*
D03*
X139272Y6890D02*
D03*
X143209Y14764D02*
D03*
Y140748D02*
D03*
X147146Y6890D02*
D03*
X151083Y14764D02*
D03*
Y140748D02*
D03*
X155020Y6890D02*
D03*
X158957Y14764D02*
D03*
Y140748D02*
D03*
X162894Y6890D02*
D03*
X166831Y14764D02*
D03*
Y140748D02*
D03*
X170768Y6890D02*
D03*
X174705Y14764D02*
D03*
Y140748D02*
D03*
X178642Y6890D02*
D03*
X182579Y14764D02*
D03*
Y140748D02*
D03*
Y235236D02*
D03*
X186516Y6890D02*
D03*
X190453Y14764D02*
D03*
Y140748D02*
D03*
X186516Y164370D02*
D03*
Y227362D02*
D03*
X190453Y235236D02*
D03*
X186516Y243110D02*
D03*
X194390Y6890D02*
D03*
X198327Y14764D02*
D03*
Y140748D02*
D03*
X194390Y164370D02*
D03*
Y227362D02*
D03*
X198327Y235236D02*
D03*
X194390Y243110D02*
D03*
X202264Y6890D02*
D03*
X206201Y14764D02*
D03*
Y140748D02*
D03*
X202264Y164370D02*
D03*
Y227362D02*
D03*
X206201Y235236D02*
D03*
X202264Y243110D02*
D03*
X210138Y6890D02*
D03*
X214075Y14764D02*
D03*
Y125000D02*
D03*
Y140748D02*
D03*
X210138Y164370D02*
D03*
Y227362D02*
D03*
X214075Y235236D02*
D03*
X210138Y243110D02*
D03*
X218012Y6890D02*
D03*
X221949Y14764D02*
D03*
X218012Y22638D02*
D03*
Y117126D02*
D03*
X221949Y125000D02*
D03*
Y156496D02*
D03*
X218012Y164370D02*
D03*
Y227362D02*
D03*
X221949Y235236D02*
D03*
X218012Y243110D02*
D03*
X225886Y6890D02*
D03*
X229823Y14764D02*
D03*
X225886Y22638D02*
D03*
Y117126D02*
D03*
Y164370D02*
D03*
Y227362D02*
D03*
X229823Y235236D02*
D03*
X225886Y243110D02*
D03*
X233760Y6890D02*
D03*
Y22638D02*
D03*
Y117126D02*
D03*
Y164370D02*
D03*
Y227362D02*
D03*
Y243110D02*
D03*
X241634Y117126D02*
D03*
X245571Y125000D02*
D03*
Y156496D02*
D03*
X241634Y164370D02*
D03*
Y227362D02*
D03*
X253445Y46260D02*
D03*
X249508Y54134D02*
D03*
X253445Y62008D02*
D03*
Y109252D02*
D03*
X249508Y117126D02*
D03*
X253445Y125000D02*
D03*
Y140748D02*
D03*
Y156496D02*
D03*
X249508Y164370D02*
D03*
X253445Y172244D02*
D03*
Y219488D02*
D03*
X261319Y30512D02*
D03*
X257382Y38386D02*
D03*
X261319Y46260D02*
D03*
X257382Y54134D02*
D03*
X261319Y62008D02*
D03*
X257382Y69882D02*
D03*
X261319Y77756D02*
D03*
X257382Y85630D02*
D03*
X261319Y93504D02*
D03*
X257382Y101378D02*
D03*
X261319Y109252D02*
D03*
X257382Y117126D02*
D03*
X261319Y125000D02*
D03*
X257382Y132874D02*
D03*
X261319Y140748D02*
D03*
X257382Y148622D02*
D03*
X261319Y156496D02*
D03*
X257382Y164370D02*
D03*
X261319Y172244D02*
D03*
X257382Y180118D02*
D03*
X261319Y187992D02*
D03*
X257382Y195866D02*
D03*
X261319Y203740D02*
D03*
X257382Y211614D02*
D03*
X261319Y219488D02*
D03*
X79724Y52165D02*
D03*
X52559Y25197D02*
D03*
X58858Y29035D02*
D03*
X46260Y25492D02*
D03*
X71260Y35335D02*
D03*
X49803Y67913D02*
D03*
X58858Y53740D02*
D03*
X64764Y83661D02*
D03*
X95548Y82721D02*
D03*
D40*
X90847Y55118D02*
D03*
X179134Y197835D02*
D03*
X133858Y64961D02*
D03*
X83635Y85584D02*
D03*
X89173Y85433D02*
D03*
X109744Y62598D02*
D03*
X136380Y137729D02*
D03*
D41*
X68307Y52264D02*
D03*
D42*
X74803Y53248D02*
D03*
Y59153D02*
D03*
X61811Y53248D02*
D03*
X74803Y47343D02*
D03*
Y49311D02*
D03*
Y51279D02*
D03*
Y55216D02*
D03*
Y57185D02*
D03*
X61811Y59153D02*
D03*
Y57185D02*
D03*
Y55216D02*
D03*
Y51279D02*
D03*
Y49311D02*
D03*
Y47343D02*
D03*
Y45374D02*
D03*
X74803D02*
D03*
D43*
X74606Y35335D02*
D03*
X34843Y57776D02*
D03*
X45079Y49114D02*
D03*
X50591D02*
D03*
X29331Y57776D02*
D03*
X80118Y35335D02*
D03*
X50591Y42815D02*
D03*
X45079D02*
D03*
D44*
X52559Y28445D02*
D03*
X49803Y63878D02*
D03*
X41929D02*
D03*
Y57972D02*
D03*
X49803D02*
D03*
X38386Y48917D02*
D03*
X52559Y34350D02*
D03*
X88878Y74213D02*
D03*
X34941Y88340D02*
D03*
Y82434D02*
D03*
X88878Y80118D02*
D03*
X81693D02*
D03*
Y74213D02*
D03*
X38386Y43012D02*
D03*
D45*
X63091Y80709D02*
D03*
X72146D02*
D03*
D46*
X61811Y29035D02*
D03*
X35039Y64468D02*
D03*
X29134D02*
D03*
X96063Y67126D02*
D03*
X101969D02*
D03*
X95965Y60236D02*
D03*
X101870D02*
D03*
X74410Y29035D02*
D03*
X80315D02*
D03*
X67717D02*
D03*
D47*
X105955Y56102D02*
D03*
Y71850D02*
D03*
X33465Y52165D02*
D03*
D48*
X71260Y60728D02*
D03*
X65354D02*
D03*
Y43799D02*
D03*
X71260D02*
D03*
D49*
X34941Y96956D02*
D03*
Y73819D02*
D03*
D50*
X72933Y74311D02*
D03*
X63878D02*
D03*
M02*
