G04*
G04 #@! TF.GenerationSoftware,Altium Limited,Altium Designer,26.1.1 (7)*
G04*
G04 Layer_Color=65535*
%FSLAX25Y25*%
%MOIN*%
G70*
G04*
G04 #@! TF.SameCoordinates,5867FEAB-4AF7-4C39-AA23-D09B853D4626*
G04*
G04*
G04 #@! TF.FilePolarity,Positive*
G04*
G01*
G75*
%ADD10C,0.00984*%
%ADD11C,0.00394*%
%ADD12C,0.00787*%
%ADD13C,0.01000*%
G36*
X78405Y73917D02*
X77777D01*
Y76221D01*
X75440D01*
Y73917D01*
X74812D01*
Y78624D01*
X75440D01*
Y76778D01*
X77777D01*
Y78624D01*
X78405D01*
Y73917D01*
D02*
G37*
G36*
X41402Y77526D02*
X41484Y77521D01*
X41583Y77510D01*
X41692Y77499D01*
X41806Y77477D01*
X41927Y77450D01*
X41932D01*
X41943Y77444D01*
X41959D01*
X41981Y77439D01*
X42041Y77422D01*
X42118Y77401D01*
X42200Y77373D01*
X42292Y77341D01*
X42380Y77302D01*
X42467Y77264D01*
Y76631D01*
X42434D01*
X42423Y76636D01*
X42396Y76658D01*
X42347Y76691D01*
X42281Y76729D01*
X42200Y76773D01*
X42107Y76822D01*
X41997Y76871D01*
X41883Y76915D01*
X41877D01*
X41866Y76920D01*
X41850Y76926D01*
X41828Y76931D01*
X41801Y76942D01*
X41763Y76953D01*
X41681Y76975D01*
X41588Y76997D01*
X41479Y77018D01*
X41364Y77029D01*
X41249Y77035D01*
X41195D01*
X41135Y77029D01*
X41058Y77018D01*
X40971Y77002D01*
X40878Y76980D01*
X40785Y76953D01*
X40698Y76909D01*
X40687Y76904D01*
X40665Y76887D01*
X40627Y76855D01*
X40589Y76816D01*
X40551Y76762D01*
X40512Y76696D01*
X40490Y76620D01*
X40480Y76533D01*
Y76522D01*
Y76494D01*
X40485Y76456D01*
X40496Y76412D01*
X40512Y76358D01*
X40534Y76303D01*
X40567Y76249D01*
X40611Y76205D01*
X40616Y76200D01*
X40638Y76188D01*
X40671Y76167D01*
X40714Y76139D01*
X40774Y76112D01*
X40845Y76085D01*
X40938Y76052D01*
X41042Y76025D01*
X41047D01*
X41069Y76019D01*
X41102Y76008D01*
X41146Y76003D01*
X41200Y75992D01*
X41260Y75976D01*
X41331Y75965D01*
X41402Y75948D01*
X41413D01*
X41435Y75943D01*
X41473Y75937D01*
X41522Y75927D01*
X41577Y75915D01*
X41632Y75905D01*
X41686Y75894D01*
X41741Y75883D01*
X41746D01*
X41757Y75877D01*
X41779Y75872D01*
X41812Y75866D01*
X41845Y75855D01*
X41883Y75839D01*
X41976Y75806D01*
X42079Y75757D01*
X42183Y75703D01*
X42287Y75637D01*
X42380Y75555D01*
X42391Y75544D01*
X42412Y75511D01*
X42451Y75462D01*
X42494Y75391D01*
X42533Y75304D01*
X42571Y75195D01*
X42593Y75075D01*
X42603Y74938D01*
Y74933D01*
Y74916D01*
Y74894D01*
X42598Y74856D01*
X42593Y74818D01*
X42582Y74769D01*
X42571Y74714D01*
X42554Y74660D01*
X42533Y74600D01*
X42505Y74534D01*
X42472Y74469D01*
X42434Y74403D01*
X42385Y74338D01*
X42331Y74272D01*
X42270Y74207D01*
X42200Y74146D01*
X42194Y74141D01*
X42183Y74136D01*
X42156Y74119D01*
X42129Y74097D01*
X42085Y74076D01*
X42036Y74048D01*
X41981Y74021D01*
X41916Y73994D01*
X41839Y73966D01*
X41757Y73939D01*
X41670Y73912D01*
X41572Y73890D01*
X41468Y73868D01*
X41359Y73852D01*
X41238Y73846D01*
X41113Y73841D01*
X41047D01*
X41015Y73846D01*
X40971D01*
X40878Y73852D01*
X40764Y73863D01*
X40643Y73879D01*
X40518Y73901D01*
X40392Y73934D01*
X40387D01*
X40376Y73939D01*
X40359Y73944D01*
X40338Y73950D01*
X40277Y73966D01*
X40207Y73994D01*
X40119Y74026D01*
X40026Y74059D01*
X39939Y74097D01*
X39852Y74136D01*
Y74802D01*
X39884D01*
X39890Y74791D01*
X39906Y74780D01*
X39928Y74769D01*
X39983Y74725D01*
X40059Y74682D01*
X40152Y74627D01*
X40261Y74567D01*
X40376Y74512D01*
X40501Y74463D01*
X40507D01*
X40518Y74458D01*
X40534Y74452D01*
X40562Y74441D01*
X40589Y74436D01*
X40627Y74425D01*
X40714Y74403D01*
X40813Y74376D01*
X40927Y74359D01*
X41042Y74343D01*
X41162Y74338D01*
X41228D01*
X41260Y74343D01*
X41299D01*
X41386Y74354D01*
X41479Y74370D01*
X41583Y74392D01*
X41681Y74419D01*
X41768Y74463D01*
X41779Y74469D01*
X41801Y74485D01*
X41839Y74518D01*
X41883Y74562D01*
X41921Y74616D01*
X41959Y74687D01*
X41981Y74769D01*
X41992Y74862D01*
Y74873D01*
Y74894D01*
X41987Y74933D01*
X41976Y74982D01*
X41965Y75031D01*
X41943Y75086D01*
X41910Y75135D01*
X41872Y75178D01*
X41866Y75184D01*
X41850Y75195D01*
X41817Y75217D01*
X41768Y75239D01*
X41708Y75266D01*
X41626Y75299D01*
X41528Y75331D01*
X41413Y75359D01*
X41408D01*
X41391Y75364D01*
X41364Y75370D01*
X41326Y75380D01*
X41277Y75391D01*
X41222Y75402D01*
X41157Y75413D01*
X41080Y75424D01*
X41069D01*
X41047Y75430D01*
X41009Y75441D01*
X40960Y75451D01*
X40900Y75462D01*
X40840Y75473D01*
X40714Y75506D01*
X40709D01*
X40692Y75511D01*
X40671Y75517D01*
X40638Y75528D01*
X40600Y75544D01*
X40556Y75561D01*
X40458Y75599D01*
X40349Y75648D01*
X40245Y75713D01*
X40141Y75784D01*
X40097Y75823D01*
X40059Y75866D01*
Y75872D01*
X40054Y75877D01*
X40032Y75910D01*
X39999Y75959D01*
X39966Y76030D01*
X39928Y76118D01*
X39901Y76216D01*
X39879Y76331D01*
X39868Y76456D01*
Y76467D01*
Y76494D01*
X39873Y76533D01*
X39879Y76587D01*
X39890Y76647D01*
X39906Y76718D01*
X39928Y76789D01*
X39955Y76860D01*
X39961Y76871D01*
X39972Y76893D01*
X39994Y76931D01*
X40021Y76980D01*
X40059Y77029D01*
X40108Y77089D01*
X40163Y77149D01*
X40228Y77210D01*
X40239Y77215D01*
X40261Y77237D01*
X40299Y77259D01*
X40349Y77297D01*
X40414Y77330D01*
X40490Y77373D01*
X40578Y77412D01*
X40676Y77444D01*
X40682D01*
X40687Y77450D01*
X40703Y77455D01*
X40725Y77461D01*
X40780Y77472D01*
X40856Y77488D01*
X40944Y77504D01*
X41047Y77521D01*
X41162Y77526D01*
X41288Y77532D01*
X41370D01*
X41402Y77526D01*
D02*
G37*
G36*
X54965Y76385D02*
X51219D01*
Y76893D01*
X54965D01*
Y76385D01*
D02*
G37*
G36*
Y75058D02*
X51219D01*
Y75566D01*
X54965D01*
Y75058D01*
D02*
G37*
G36*
X46977Y73917D02*
X46426D01*
X45519Y76631D01*
X44618Y73917D01*
X44072D01*
X43144Y77444D01*
X43756D01*
X44411Y74709D01*
X45290Y77444D01*
X45781D01*
X46688Y74709D01*
X47299Y77444D01*
X47900D01*
X46977Y73917D01*
D02*
G37*
G36*
X60125Y78716D02*
X60207D01*
X60305Y78706D01*
X60403Y78695D01*
X60507Y78678D01*
X60605Y78657D01*
X60611D01*
X60616Y78651D01*
X60649Y78645D01*
X60698Y78629D01*
X60764Y78607D01*
X60834Y78580D01*
X60916Y78542D01*
X60998Y78504D01*
X61080Y78454D01*
X61091Y78449D01*
X61118Y78427D01*
X61157Y78394D01*
X61211Y78351D01*
X61266Y78296D01*
X61320Y78236D01*
X61375Y78165D01*
X61424Y78089D01*
X61430Y78078D01*
X61440Y78050D01*
X61462Y78007D01*
X61484Y77947D01*
X61506Y77870D01*
X61528Y77788D01*
X61539Y77690D01*
X61544Y77586D01*
Y77581D01*
Y77570D01*
Y77548D01*
X61539Y77521D01*
X61533Y77488D01*
X61528Y77444D01*
X61511Y77351D01*
X61479Y77248D01*
X61430Y77133D01*
X61397Y77073D01*
X61359Y77013D01*
X61315Y76953D01*
X61266Y76898D01*
X61260Y76893D01*
X61255Y76887D01*
X61238Y76871D01*
X61217Y76855D01*
X61157Y76806D01*
X61080Y76745D01*
X60987Y76680D01*
X60873Y76620D01*
X60752Y76571D01*
X60616Y76533D01*
Y76489D01*
X60622D01*
X60643Y76483D01*
X60671Y76478D01*
X60714Y76467D01*
X60764Y76456D01*
X60824Y76434D01*
X60889Y76412D01*
X60960Y76385D01*
X60971Y76380D01*
X60993Y76369D01*
X61031Y76352D01*
X61075Y76331D01*
X61129Y76298D01*
X61184Y76265D01*
X61238Y76227D01*
X61293Y76183D01*
X61299Y76178D01*
X61320Y76161D01*
X61348Y76129D01*
X61380Y76090D01*
X61424Y76041D01*
X61462Y75981D01*
X61506Y75915D01*
X61544Y75839D01*
X61550Y75828D01*
X61561Y75801D01*
X61577Y75757D01*
X61593Y75697D01*
X61610Y75621D01*
X61626Y75533D01*
X61637Y75424D01*
X61642Y75309D01*
Y75304D01*
Y75293D01*
Y75277D01*
Y75255D01*
X61637Y75195D01*
X61626Y75113D01*
X61615Y75020D01*
X61593Y74922D01*
X61561Y74818D01*
X61522Y74714D01*
Y74709D01*
X61517Y74703D01*
X61501Y74671D01*
X61473Y74621D01*
X61440Y74556D01*
X61391Y74485D01*
X61337Y74409D01*
X61271Y74327D01*
X61195Y74250D01*
X61184Y74239D01*
X61151Y74212D01*
X61102Y74174D01*
X61036Y74125D01*
X60955Y74070D01*
X60862Y74015D01*
X60752Y73966D01*
X60638Y73923D01*
X60632D01*
X60622Y73917D01*
X60605Y73912D01*
X60583Y73906D01*
X60550Y73901D01*
X60518Y73890D01*
X60430Y73874D01*
X60327Y73852D01*
X60207Y73835D01*
X60075Y73824D01*
X59934Y73819D01*
X59868D01*
X59830Y73824D01*
X59742D01*
X59693Y73830D01*
X59573Y73841D01*
X59448Y73857D01*
X59306Y73879D01*
X59164Y73912D01*
X59158D01*
X59147Y73917D01*
X59126Y73923D01*
X59104Y73928D01*
X59071Y73939D01*
X59033Y73944D01*
X58945Y73972D01*
X58847Y74005D01*
X58743Y74037D01*
X58645Y74076D01*
X58547Y74114D01*
Y74774D01*
X58596D01*
X58601Y74769D01*
X58618Y74758D01*
X58640Y74747D01*
X58694Y74709D01*
X58771Y74671D01*
X58863Y74621D01*
X58973Y74572D01*
X59093Y74523D01*
X59224Y74480D01*
X59229D01*
X59240Y74474D01*
X59262Y74469D01*
X59284Y74463D01*
X59317Y74452D01*
X59360Y74441D01*
X59448Y74425D01*
X59557Y74403D01*
X59677Y74381D01*
X59803Y74370D01*
X59928Y74365D01*
X59961D01*
X60005Y74370D01*
X60054Y74376D01*
X60119Y74381D01*
X60190Y74392D01*
X60267Y74409D01*
X60348Y74430D01*
X60359Y74436D01*
X60387Y74441D01*
X60425Y74458D01*
X60479Y74480D01*
X60534Y74507D01*
X60600Y74540D01*
X60660Y74583D01*
X60714Y74627D01*
X60720Y74632D01*
X60736Y74649D01*
X60764Y74682D01*
X60796Y74714D01*
X60829Y74764D01*
X60862Y74813D01*
X60900Y74873D01*
X60927Y74933D01*
X60933Y74938D01*
X60938Y74966D01*
X60949Y74998D01*
X60966Y75047D01*
X60982Y75113D01*
X60993Y75184D01*
X60998Y75266D01*
X61004Y75359D01*
Y75364D01*
Y75370D01*
Y75402D01*
X60998Y75446D01*
X60993Y75506D01*
X60982Y75572D01*
X60971Y75643D01*
X60949Y75713D01*
X60922Y75779D01*
X60916Y75784D01*
X60905Y75806D01*
X60889Y75839D01*
X60862Y75877D01*
X60829Y75915D01*
X60791Y75959D01*
X60747Y76003D01*
X60698Y76041D01*
X60693Y76047D01*
X60671Y76057D01*
X60643Y76074D01*
X60600Y76096D01*
X60550Y76118D01*
X60491Y76139D01*
X60425Y76161D01*
X60354Y76178D01*
X60343D01*
X60321Y76183D01*
X60277Y76188D01*
X60223Y76200D01*
X60157Y76205D01*
X60086Y76210D01*
X60005Y76216D01*
X59633D01*
Y76735D01*
X59895D01*
X59934Y76740D01*
X59972D01*
X60021Y76745D01*
X60130Y76762D01*
X60250Y76784D01*
X60376Y76816D01*
X60501Y76866D01*
X60616Y76931D01*
X60622D01*
X60627Y76942D01*
X60660Y76969D01*
X60709Y77013D01*
X60764Y77078D01*
X60813Y77166D01*
X60862Y77264D01*
X60895Y77384D01*
X60900Y77450D01*
X60905Y77521D01*
Y77526D01*
Y77548D01*
X60900Y77581D01*
X60895Y77619D01*
X60889Y77668D01*
X60873Y77717D01*
X60856Y77767D01*
X60829Y77816D01*
X60824Y77821D01*
X60818Y77838D01*
X60802Y77859D01*
X60780Y77892D01*
X60747Y77925D01*
X60714Y77963D01*
X60676Y77996D01*
X60627Y78029D01*
X60622Y78034D01*
X60605Y78039D01*
X60578Y78056D01*
X60540Y78072D01*
X60496Y78094D01*
X60447Y78110D01*
X60338Y78143D01*
X60332D01*
X60310Y78149D01*
X60277Y78154D01*
X60239Y78160D01*
X60185Y78165D01*
X60125Y78171D01*
X60059Y78176D01*
X59934D01*
X59906Y78171D01*
X59873D01*
X59797Y78165D01*
X59699Y78149D01*
X59590Y78132D01*
X59475Y78105D01*
X59349Y78067D01*
X59344D01*
X59333Y78061D01*
X59317Y78056D01*
X59289Y78045D01*
X59262Y78034D01*
X59229Y78023D01*
X59142Y77990D01*
X59044Y77947D01*
X58940Y77892D01*
X58825Y77832D01*
X58710Y77767D01*
X58683D01*
Y78422D01*
X58694Y78427D01*
X58727Y78438D01*
X58776Y78460D01*
X58842Y78487D01*
X58929Y78520D01*
X59027Y78553D01*
X59147Y78591D01*
X59278Y78624D01*
X59284D01*
X59295Y78629D01*
X59317Y78635D01*
X59344Y78640D01*
X59377Y78645D01*
X59415Y78657D01*
X59508Y78673D01*
X59617Y78689D01*
X59742Y78706D01*
X59873Y78716D01*
X60005Y78722D01*
X60092D01*
X60125Y78716D01*
D02*
G37*
G36*
X82128Y77018D02*
X80059Y74414D01*
X82183D01*
Y73917D01*
X79333D01*
Y74348D01*
X81386Y76947D01*
X79377D01*
Y77444D01*
X82128D01*
Y77018D01*
D02*
G37*
G36*
X71558Y75675D02*
X73267Y77444D01*
X74015D01*
X72377Y75812D01*
X74135Y73917D01*
X73349D01*
X71935Y75457D01*
X71558Y75091D01*
Y73917D01*
X70963D01*
Y78831D01*
X71558D01*
Y75675D01*
D02*
G37*
G36*
X39420Y78067D02*
X37045D01*
Y76740D01*
X39087D01*
Y76183D01*
X37045D01*
Y73917D01*
X36417D01*
Y78624D01*
X39420D01*
Y78067D01*
D02*
G37*
G36*
X68380Y78716D02*
X68435Y78711D01*
X68506Y78706D01*
X68588Y78689D01*
X68675Y78673D01*
X68768Y78646D01*
X68872Y78613D01*
X68970Y78575D01*
X69074Y78525D01*
X69177Y78465D01*
X69276Y78394D01*
X69368Y78312D01*
X69456Y78220D01*
X69532Y78110D01*
X69538Y78105D01*
X69549Y78083D01*
X69570Y78045D01*
X69592Y77996D01*
X69625Y77930D01*
X69658Y77854D01*
X69691Y77761D01*
X69729Y77652D01*
X69767Y77532D01*
X69800Y77395D01*
X69832Y77242D01*
X69865Y77078D01*
X69887Y76898D01*
X69909Y76702D01*
X69920Y76494D01*
X69925Y76271D01*
Y76265D01*
Y76254D01*
Y76238D01*
Y76216D01*
Y76183D01*
Y76150D01*
X69920Y76063D01*
X69914Y75959D01*
X69903Y75839D01*
X69893Y75708D01*
X69876Y75561D01*
X69854Y75413D01*
X69827Y75260D01*
X69794Y75102D01*
X69756Y74949D01*
X69712Y74802D01*
X69658Y74660D01*
X69598Y74529D01*
X69527Y74409D01*
X69521Y74403D01*
X69510Y74381D01*
X69483Y74354D01*
X69450Y74316D01*
X69407Y74272D01*
X69358Y74223D01*
X69297Y74168D01*
X69226Y74114D01*
X69145Y74059D01*
X69052Y74005D01*
X68954Y73955D01*
X68839Y73912D01*
X68719Y73874D01*
X68588Y73846D01*
X68451Y73824D01*
X68298Y73819D01*
X68260D01*
X68216Y73824D01*
X68162Y73830D01*
X68091Y73835D01*
X68009Y73852D01*
X67922Y73868D01*
X67823Y73895D01*
X67725Y73928D01*
X67621Y73966D01*
X67518Y74015D01*
X67414Y74070D01*
X67316Y74141D01*
X67223Y74223D01*
X67135Y74316D01*
X67059Y74419D01*
X67053Y74425D01*
X67042Y74447D01*
X67021Y74485D01*
X66999Y74534D01*
X66971Y74600D01*
X66939Y74676D01*
X66900Y74769D01*
X66868Y74878D01*
X66830Y74998D01*
X66791Y75135D01*
X66759Y75288D01*
X66731Y75451D01*
X66709Y75632D01*
X66688Y75828D01*
X66677Y76041D01*
X66671Y76265D01*
Y76271D01*
Y76281D01*
Y76298D01*
Y76320D01*
Y76352D01*
X66677Y76385D01*
Y76473D01*
X66682Y76576D01*
X66693Y76696D01*
X66704Y76827D01*
X66720Y76969D01*
X66742Y77117D01*
X66769Y77270D01*
X66797Y77422D01*
X66835Y77581D01*
X66884Y77728D01*
X66933Y77870D01*
X66993Y78001D01*
X67064Y78121D01*
X67070Y78127D01*
X67081Y78149D01*
X67108Y78176D01*
X67141Y78214D01*
X67179Y78263D01*
X67234Y78312D01*
X67294Y78367D01*
X67365Y78422D01*
X67447Y78476D01*
X67539Y78531D01*
X67638Y78585D01*
X67752Y78629D01*
X67872Y78667D01*
X68003Y78695D01*
X68145Y78716D01*
X68298Y78722D01*
X68336D01*
X68380Y78716D01*
D02*
G37*
G36*
X64269Y78716D02*
X64323Y78711D01*
X64394Y78706D01*
X64476Y78689D01*
X64564Y78673D01*
X64656Y78645D01*
X64760Y78613D01*
X64859Y78575D01*
X64962Y78525D01*
X65066Y78465D01*
X65164Y78394D01*
X65257Y78312D01*
X65344Y78220D01*
X65421Y78110D01*
X65426Y78105D01*
X65437Y78083D01*
X65459Y78045D01*
X65481Y77996D01*
X65514Y77930D01*
X65546Y77854D01*
X65579Y77761D01*
X65617Y77652D01*
X65656Y77532D01*
X65688Y77395D01*
X65721Y77242D01*
X65754Y77078D01*
X65776Y76898D01*
X65798Y76702D01*
X65808Y76494D01*
X65814Y76271D01*
Y76265D01*
Y76254D01*
Y76238D01*
Y76216D01*
Y76183D01*
Y76150D01*
X65808Y76063D01*
X65803Y75959D01*
X65792Y75839D01*
X65781Y75708D01*
X65765Y75561D01*
X65743Y75413D01*
X65716Y75260D01*
X65683Y75102D01*
X65645Y74949D01*
X65601Y74802D01*
X65546Y74660D01*
X65486Y74529D01*
X65415Y74409D01*
X65410Y74403D01*
X65399Y74381D01*
X65372Y74354D01*
X65339Y74316D01*
X65295Y74272D01*
X65246Y74223D01*
X65186Y74168D01*
X65115Y74114D01*
X65033Y74059D01*
X64940Y74005D01*
X64842Y73955D01*
X64727Y73912D01*
X64607Y73874D01*
X64476Y73846D01*
X64340Y73824D01*
X64187Y73819D01*
X64149D01*
X64105Y73824D01*
X64050Y73830D01*
X63979Y73835D01*
X63898Y73852D01*
X63810Y73868D01*
X63712Y73895D01*
X63614Y73928D01*
X63510Y73966D01*
X63406Y74015D01*
X63302Y74070D01*
X63204Y74141D01*
X63111Y74223D01*
X63024Y74316D01*
X62947Y74419D01*
X62942Y74425D01*
X62931Y74447D01*
X62909Y74485D01*
X62887Y74534D01*
X62860Y74600D01*
X62827Y74676D01*
X62789Y74769D01*
X62756Y74878D01*
X62718Y74998D01*
X62680Y75135D01*
X62647Y75288D01*
X62620Y75451D01*
X62598Y75632D01*
X62576Y75828D01*
X62565Y76041D01*
X62560Y76265D01*
Y76270D01*
Y76281D01*
Y76298D01*
Y76320D01*
Y76352D01*
X62565Y76385D01*
Y76473D01*
X62571Y76576D01*
X62582Y76696D01*
X62593Y76827D01*
X62609Y76969D01*
X62631Y77117D01*
X62658Y77270D01*
X62685Y77422D01*
X62724Y77581D01*
X62773Y77728D01*
X62822Y77870D01*
X62882Y78001D01*
X62953Y78121D01*
X62958Y78127D01*
X62969Y78149D01*
X62997Y78176D01*
X63029Y78214D01*
X63068Y78263D01*
X63122Y78312D01*
X63182Y78367D01*
X63253Y78422D01*
X63335Y78476D01*
X63428Y78531D01*
X63526Y78585D01*
X63641Y78629D01*
X63761Y78667D01*
X63892Y78695D01*
X64034Y78716D01*
X64187Y78722D01*
X64225D01*
X64269Y78716D01*
D02*
G37*
G36*
X41976Y84924D02*
X41304D01*
Y85541D01*
X41976D01*
Y84924D01*
D02*
G37*
G36*
X44979Y84427D02*
X45028Y84421D01*
X45082Y84416D01*
X45142Y84405D01*
X45208Y84389D01*
X45350Y84345D01*
X45421Y84318D01*
X45492Y84285D01*
X45563Y84247D01*
X45628Y84198D01*
X45694Y84143D01*
X45754Y84083D01*
X45759Y84078D01*
X45765Y84067D01*
X45781Y84045D01*
X45803Y84017D01*
X45825Y83985D01*
X45852Y83941D01*
X45880Y83892D01*
X45907Y83832D01*
X45934Y83766D01*
X45961Y83690D01*
X45989Y83608D01*
X46011Y83521D01*
X46032Y83428D01*
X46049Y83324D01*
X46054Y83215D01*
X46060Y83095D01*
Y80807D01*
X45465D01*
Y82811D01*
Y82816D01*
Y82822D01*
Y82854D01*
Y82898D01*
X45459Y82958D01*
Y83029D01*
X45454Y83106D01*
X45432Y83269D01*
Y83280D01*
X45426Y83302D01*
X45421Y83346D01*
X45410Y83390D01*
X45394Y83444D01*
X45377Y83499D01*
X45355Y83553D01*
X45328Y83602D01*
X45323Y83608D01*
X45312Y83624D01*
X45295Y83646D01*
X45273Y83679D01*
X45241Y83706D01*
X45197Y83739D01*
X45153Y83772D01*
X45099Y83799D01*
X45093Y83805D01*
X45071Y83810D01*
X45039Y83821D01*
X44995Y83832D01*
X44940Y83843D01*
X44875Y83854D01*
X44798Y83864D01*
X44673D01*
X44624Y83859D01*
X44558Y83848D01*
X44482Y83837D01*
X44394Y83815D01*
X44302Y83783D01*
X44203Y83744D01*
X44198D01*
X44192Y83739D01*
X44160Y83723D01*
X44111Y83695D01*
X44045Y83662D01*
X43963Y83613D01*
X43881Y83564D01*
X43794Y83504D01*
X43701Y83433D01*
Y80807D01*
X43106D01*
Y84334D01*
X43701D01*
Y83941D01*
X43706Y83946D01*
X43712Y83952D01*
X43728Y83963D01*
X43750Y83979D01*
X43805Y84023D01*
X43876Y84072D01*
X43958Y84132D01*
X44056Y84192D01*
X44160Y84247D01*
X44269Y84301D01*
X44274D01*
X44285Y84307D01*
X44296Y84312D01*
X44323Y84323D01*
X44378Y84345D01*
X44460Y84367D01*
X44553Y84389D01*
X44657Y84411D01*
X44771Y84427D01*
X44886Y84432D01*
X44940D01*
X44979Y84427D01*
D02*
G37*
G36*
X53414Y83275D02*
X49669D01*
Y83783D01*
X53414D01*
Y83275D01*
D02*
G37*
G36*
Y81948D02*
X49669D01*
Y82456D01*
X53414D01*
Y81948D01*
D02*
G37*
G36*
X67316Y80807D02*
X66480D01*
X64771Y85514D01*
X65437Y85514D01*
X66911Y81369D01*
X68386Y85514D01*
X69030D01*
X67316Y80807D01*
D02*
G37*
G36*
X38962Y80807D02*
X38126D01*
X36417Y85514D01*
X37083D01*
X38558Y81369D01*
X40032Y85514D01*
X40676D01*
X38962Y80807D01*
D02*
G37*
G36*
X64198Y84962D02*
X61976D01*
Y83706D01*
X61997D01*
X62025Y83712D01*
X62058D01*
X62101Y83717D01*
X62145D01*
X62249Y83723D01*
X62276D01*
X62303Y83728D01*
X62336D01*
X62418Y83733D01*
X62598D01*
X62636Y83728D01*
X62729D01*
X62833Y83717D01*
X62942Y83706D01*
X63057Y83690D01*
X63166Y83668D01*
X63171D01*
X63177Y83662D01*
X63193D01*
X63215Y83657D01*
X63270Y83641D01*
X63341Y83613D01*
X63423Y83586D01*
X63510Y83542D01*
X63603Y83493D01*
X63696Y83439D01*
X63701D01*
X63706Y83433D01*
X63739Y83406D01*
X63783Y83368D01*
X63843Y83319D01*
X63903Y83253D01*
X63968Y83177D01*
X64034Y83084D01*
X64089Y82986D01*
Y82980D01*
X64094Y82975D01*
X64100Y82958D01*
X64110Y82936D01*
X64121Y82909D01*
X64132Y82876D01*
X64160Y82800D01*
X64187Y82696D01*
X64209Y82581D01*
X64225Y82445D01*
X64231Y82297D01*
Y82292D01*
Y82281D01*
Y82265D01*
Y82243D01*
X64225Y82210D01*
Y82177D01*
X64214Y82095D01*
X64203Y82003D01*
X64181Y81893D01*
X64149Y81784D01*
X64110Y81670D01*
Y81664D01*
X64105Y81659D01*
X64100Y81642D01*
X64089Y81621D01*
X64061Y81566D01*
X64023Y81495D01*
X63974Y81413D01*
X63919Y81331D01*
X63854Y81244D01*
X63777Y81162D01*
X63766Y81151D01*
X63739Y81124D01*
X63690Y81085D01*
X63625Y81036D01*
X63548Y80982D01*
X63455Y80927D01*
X63352Y80872D01*
X63237Y80823D01*
X63231D01*
X63221Y80818D01*
X63204Y80812D01*
X63182Y80807D01*
X63149Y80796D01*
X63117Y80785D01*
X63073Y80774D01*
X63029Y80769D01*
X62926Y80747D01*
X62800Y80725D01*
X62664Y80714D01*
X62511Y80709D01*
X62412D01*
X62369Y80714D01*
X62270Y80720D01*
X62161Y80730D01*
X62036Y80741D01*
X61905Y80763D01*
X61768Y80791D01*
X61763D01*
X61752Y80796D01*
X61735D01*
X61708Y80807D01*
X61681Y80812D01*
X61642Y80823D01*
X61561Y80845D01*
X61468Y80872D01*
X61364Y80905D01*
X61266Y80938D01*
X61168Y80982D01*
Y81648D01*
X61217D01*
X61222Y81642D01*
X61238Y81631D01*
X61255Y81621D01*
X61309Y81588D01*
X61380Y81550D01*
X61473Y81506D01*
X61572Y81462D01*
X61686Y81413D01*
X61812Y81369D01*
X61817D01*
X61828Y81364D01*
X61844Y81358D01*
X61872Y81353D01*
X61905Y81342D01*
X61943Y81331D01*
X62030Y81315D01*
X62134Y81293D01*
X62249Y81271D01*
X62374Y81260D01*
X62500Y81255D01*
X62538D01*
X62582Y81260D01*
X62636D01*
X62702Y81271D01*
X62778Y81282D01*
X62855Y81293D01*
X62931Y81315D01*
X62942Y81320D01*
X62969Y81326D01*
X63007Y81342D01*
X63057Y81369D01*
X63117Y81397D01*
X63182Y81435D01*
X63242Y81484D01*
X63308Y81539D01*
X63313Y81544D01*
X63330Y81560D01*
X63357Y81593D01*
X63384Y81631D01*
X63417Y81675D01*
X63455Y81730D01*
X63488Y81795D01*
X63515Y81861D01*
X63521Y81872D01*
X63526Y81893D01*
X63537Y81937D01*
X63554Y81986D01*
X63570Y82052D01*
X63581Y82128D01*
X63586Y82210D01*
X63592Y82303D01*
Y82308D01*
Y82314D01*
Y82347D01*
X63586Y82390D01*
X63581Y82445D01*
X63570Y82511D01*
X63554Y82581D01*
X63532Y82647D01*
X63504Y82713D01*
X63499Y82718D01*
X63488Y82740D01*
X63472Y82772D01*
X63444Y82811D01*
X63412Y82854D01*
X63373Y82898D01*
X63330Y82942D01*
X63275Y82986D01*
X63270Y82991D01*
X63248Y83007D01*
X63209Y83024D01*
X63166Y83051D01*
X63106Y83078D01*
X63035Y83106D01*
X62958Y83133D01*
X62871Y83155D01*
X62860D01*
X62827Y83160D01*
X62784Y83171D01*
X62718Y83182D01*
X62642Y83188D01*
X62549Y83198D01*
X62451Y83204D01*
X62243D01*
X62178Y83198D01*
X62096Y83193D01*
X62003Y83188D01*
X61812Y83166D01*
X61801D01*
X61768Y83160D01*
X61719Y83149D01*
X61659Y83144D01*
X61593Y83133D01*
X61517Y83117D01*
X61440Y83106D01*
X61370Y83089D01*
Y85514D01*
X64198D01*
Y84962D01*
D02*
G37*
G36*
X58530Y85606D02*
X58590Y85601D01*
X58661Y85595D01*
X58738Y85584D01*
X58820Y85568D01*
X59005Y85524D01*
X59098Y85497D01*
X59191Y85464D01*
X59284Y85426D01*
X59377Y85377D01*
X59459Y85322D01*
X59540Y85262D01*
X59546Y85257D01*
X59557Y85246D01*
X59579Y85224D01*
X59606Y85197D01*
X59639Y85164D01*
X59671Y85120D01*
X59710Y85071D01*
X59748Y85011D01*
X59786Y84946D01*
X59824Y84875D01*
X59857Y84798D01*
X59890Y84716D01*
X59917Y84623D01*
X59939Y84525D01*
X59950Y84421D01*
X59955Y84312D01*
Y84307D01*
Y84301D01*
Y84269D01*
X59950Y84214D01*
X59944Y84149D01*
X59939Y84072D01*
X59928Y83990D01*
X59906Y83897D01*
X59884Y83810D01*
X59879Y83799D01*
X59873Y83772D01*
X59857Y83728D01*
X59835Y83668D01*
X59808Y83602D01*
X59770Y83531D01*
X59732Y83450D01*
X59682Y83373D01*
X59677Y83362D01*
X59661Y83340D01*
X59633Y83302D01*
X59601Y83253D01*
X59557Y83193D01*
X59508Y83127D01*
X59453Y83056D01*
X59393Y82986D01*
X59387Y82975D01*
X59366Y82953D01*
X59328Y82915D01*
X59284Y82865D01*
X59224Y82805D01*
X59158Y82734D01*
X59082Y82652D01*
X58994Y82570D01*
X58989Y82565D01*
X58978Y82554D01*
X58962Y82538D01*
X58934Y82516D01*
X58907Y82483D01*
X58869Y82450D01*
X58781Y82363D01*
X58678Y82265D01*
X58558Y82161D01*
X58427Y82041D01*
X58296Y81926D01*
X58290Y81921D01*
X58279Y81910D01*
X58263Y81893D01*
X58236Y81872D01*
X58203Y81844D01*
X58165Y81812D01*
X58077Y81741D01*
X57973Y81648D01*
X57859Y81555D01*
X57624Y81353D01*
X60152D01*
Y80807D01*
X56974D01*
Y81473D01*
X56980Y81479D01*
X56991Y81484D01*
X57007Y81500D01*
X57029Y81522D01*
X57062Y81550D01*
X57094Y81577D01*
X57182Y81653D01*
X57280Y81735D01*
X57389Y81833D01*
X57509Y81937D01*
X57635Y82041D01*
X57640Y82046D01*
X57651Y82052D01*
X57668Y82068D01*
X57689Y82090D01*
X57722Y82117D01*
X57755Y82145D01*
X57837Y82216D01*
X57935Y82303D01*
X58039Y82396D01*
X58148Y82499D01*
X58257Y82603D01*
X58263Y82609D01*
X58285Y82631D01*
X58317Y82658D01*
X58356Y82702D01*
X58405Y82751D01*
X58459Y82811D01*
X58525Y82871D01*
X58590Y82942D01*
X58727Y83089D01*
X58863Y83248D01*
X58929Y83324D01*
X58989Y83400D01*
X59044Y83471D01*
X59087Y83537D01*
X59093Y83542D01*
X59098Y83553D01*
X59109Y83570D01*
X59126Y83597D01*
X59142Y83630D01*
X59158Y83668D01*
X59180Y83712D01*
X59202Y83761D01*
X59246Y83870D01*
X59278Y83996D01*
X59306Y84137D01*
X59317Y84285D01*
Y84290D01*
Y84301D01*
Y84318D01*
X59311Y84345D01*
Y84378D01*
X59306Y84411D01*
X59284Y84492D01*
X59257Y84585D01*
X59213Y84684D01*
X59153Y84776D01*
X59114Y84820D01*
X59071Y84858D01*
X59060Y84869D01*
X59044Y84880D01*
X59027Y84891D01*
X58973Y84924D01*
X58896Y84962D01*
X58798Y85000D01*
X58683Y85033D01*
X58547Y85055D01*
X58394Y85066D01*
X58345D01*
X58285Y85060D01*
X58208Y85055D01*
X58115Y85038D01*
X58012Y85022D01*
X57897Y84995D01*
X57771Y84962D01*
X57766D01*
X57755Y84957D01*
X57739Y84951D01*
X57717Y84946D01*
X57684Y84935D01*
X57651Y84918D01*
X57564Y84886D01*
X57466Y84842D01*
X57356Y84793D01*
X57236Y84727D01*
X57116Y84656D01*
X57089D01*
Y85317D01*
X57100Y85322D01*
X57133Y85333D01*
X57182Y85355D01*
X57247Y85382D01*
X57335Y85415D01*
X57433Y85448D01*
X57553Y85486D01*
X57684Y85519D01*
X57689D01*
X57700Y85524D01*
X57722Y85530D01*
X57749Y85535D01*
X57782Y85541D01*
X57820Y85546D01*
X57919Y85568D01*
X58028Y85584D01*
X58148Y85595D01*
X58279Y85606D01*
X58410Y85612D01*
X58481D01*
X58530Y85606D01*
D02*
G37*
G36*
X41937Y80807D02*
X41342D01*
Y84334D01*
X41937D01*
Y80807D01*
D02*
G37*
G36*
X56079Y90165D02*
X52333D01*
Y90672D01*
X56079D01*
Y90165D01*
D02*
G37*
G36*
Y88838D02*
X52333D01*
Y89346D01*
X56079D01*
Y88838D01*
D02*
G37*
G36*
X46147Y87697D02*
X45552D01*
Y88084D01*
X45546D01*
X45541Y88073D01*
X45525Y88063D01*
X45503Y88046D01*
X45443Y88003D01*
X45366Y87953D01*
X45279Y87893D01*
X45181Y87833D01*
X45077Y87773D01*
X44973Y87724D01*
X44968D01*
X44962Y87719D01*
X44946Y87713D01*
X44924Y87702D01*
X44869Y87686D01*
X44793Y87664D01*
X44706Y87637D01*
X44602Y87620D01*
X44487Y87604D01*
X44367Y87598D01*
X44313D01*
X44274Y87604D01*
X44231Y87609D01*
X44176Y87615D01*
X44116Y87626D01*
X44050Y87642D01*
X43908Y87680D01*
X43837Y87708D01*
X43766Y87740D01*
X43696Y87779D01*
X43624Y87828D01*
X43559Y87877D01*
X43499Y87937D01*
X43494Y87942D01*
X43488Y87953D01*
X43472Y87975D01*
X43450Y88003D01*
X43428Y88035D01*
X43401Y88079D01*
X43373Y88128D01*
X43346Y88188D01*
X43319Y88254D01*
X43292Y88330D01*
X43264Y88412D01*
X43242Y88499D01*
X43220Y88598D01*
X43204Y88701D01*
X43199Y88811D01*
X43193Y88931D01*
Y91224D01*
X43788D01*
Y89215D01*
Y89209D01*
Y89204D01*
Y89171D01*
Y89122D01*
X43794Y89056D01*
Y88985D01*
X43799Y88909D01*
X43805Y88832D01*
X43810Y88756D01*
Y88745D01*
X43816Y88723D01*
X43821Y88690D01*
X43832Y88641D01*
X43848Y88592D01*
X43870Y88538D01*
X43919Y88428D01*
X43925Y88423D01*
X43936Y88406D01*
X43952Y88379D01*
X43979Y88352D01*
X44007Y88319D01*
X44045Y88286D01*
X44089Y88254D01*
X44138Y88226D01*
X44143D01*
X44165Y88215D01*
X44192Y88210D01*
X44241Y88199D01*
X44296Y88188D01*
X44362Y88177D01*
X44444Y88172D01*
X44536Y88166D01*
X44575D01*
X44624Y88172D01*
X44684Y88183D01*
X44760Y88194D01*
X44848Y88215D01*
X44940Y88243D01*
X45039Y88281D01*
X45044D01*
X45050Y88286D01*
X45066Y88292D01*
X45088Y88303D01*
X45137Y88330D01*
X45208Y88363D01*
X45284Y88412D01*
X45372Y88461D01*
X45459Y88527D01*
X45552Y88592D01*
Y91224D01*
X46147D01*
Y87697D01*
D02*
G37*
G36*
X62751Y91852D02*
X60529D01*
Y90596D01*
X60550D01*
X60578Y90601D01*
X60611D01*
X60654Y90607D01*
X60698D01*
X60802Y90612D01*
X60829D01*
X60856Y90618D01*
X60889D01*
X60971Y90623D01*
X61151D01*
X61189Y90618D01*
X61282D01*
X61386Y90607D01*
X61495Y90596D01*
X61610Y90580D01*
X61719Y90558D01*
X61724D01*
X61730Y90552D01*
X61746D01*
X61768Y90547D01*
X61823Y90530D01*
X61894Y90503D01*
X61976Y90476D01*
X62063Y90432D01*
X62156Y90383D01*
X62249Y90328D01*
X62254D01*
X62260Y90323D01*
X62292Y90296D01*
X62336Y90257D01*
X62396Y90208D01*
X62456Y90143D01*
X62522Y90066D01*
X62587Y89973D01*
X62642Y89875D01*
Y89870D01*
X62647Y89864D01*
X62653Y89848D01*
X62664Y89826D01*
X62674Y89799D01*
X62685Y89766D01*
X62713Y89690D01*
X62740Y89586D01*
X62762Y89471D01*
X62778Y89335D01*
X62784Y89187D01*
Y89182D01*
Y89171D01*
Y89154D01*
Y89133D01*
X62778Y89100D01*
Y89067D01*
X62767Y88985D01*
X62756Y88892D01*
X62735Y88783D01*
X62702Y88674D01*
X62664Y88559D01*
Y88554D01*
X62658Y88548D01*
X62653Y88532D01*
X62642Y88510D01*
X62614Y88456D01*
X62576Y88385D01*
X62527Y88303D01*
X62472Y88221D01*
X62407Y88134D01*
X62331Y88052D01*
X62320Y88041D01*
X62292Y88013D01*
X62243Y87975D01*
X62178Y87926D01*
X62101Y87871D01*
X62008Y87817D01*
X61905Y87762D01*
X61790Y87713D01*
X61784D01*
X61774Y87708D01*
X61757Y87702D01*
X61735Y87697D01*
X61703Y87686D01*
X61670Y87675D01*
X61626Y87664D01*
X61582Y87659D01*
X61479Y87637D01*
X61353Y87615D01*
X61217Y87604D01*
X61064Y87598D01*
X60966D01*
X60922Y87604D01*
X60824Y87609D01*
X60714Y87620D01*
X60589Y87631D01*
X60458Y87653D01*
X60321Y87680D01*
X60316D01*
X60305Y87686D01*
X60288D01*
X60261Y87697D01*
X60234Y87702D01*
X60196Y87713D01*
X60114Y87735D01*
X60021Y87762D01*
X59917Y87795D01*
X59819Y87828D01*
X59721Y87871D01*
Y88538D01*
X59770D01*
X59775Y88532D01*
X59792Y88521D01*
X59808Y88510D01*
X59863Y88477D01*
X59934Y88439D01*
X60026Y88396D01*
X60125Y88352D01*
X60239Y88303D01*
X60365Y88259D01*
X60370D01*
X60381Y88254D01*
X60398Y88248D01*
X60425Y88243D01*
X60458Y88232D01*
X60496Y88221D01*
X60583Y88204D01*
X60687Y88183D01*
X60802Y88161D01*
X60927Y88150D01*
X61053Y88144D01*
X61091D01*
X61135Y88150D01*
X61189D01*
X61255Y88161D01*
X61331Y88172D01*
X61408Y88183D01*
X61484Y88204D01*
X61495Y88210D01*
X61522Y88215D01*
X61561Y88232D01*
X61610Y88259D01*
X61670Y88286D01*
X61735Y88325D01*
X61795Y88374D01*
X61861Y88428D01*
X61866Y88434D01*
X61883Y88450D01*
X61910Y88483D01*
X61937Y88521D01*
X61970Y88565D01*
X62008Y88619D01*
X62041Y88685D01*
X62068Y88750D01*
X62074Y88761D01*
X62079Y88783D01*
X62090Y88827D01*
X62107Y88876D01*
X62123Y88942D01*
X62134Y89018D01*
X62139Y89100D01*
X62145Y89193D01*
Y89198D01*
Y89204D01*
Y89236D01*
X62139Y89280D01*
X62134Y89335D01*
X62123Y89400D01*
X62107Y89471D01*
X62085Y89537D01*
X62058Y89602D01*
X62052Y89608D01*
X62041Y89630D01*
X62025Y89662D01*
X61997Y89701D01*
X61965Y89744D01*
X61926Y89788D01*
X61883Y89832D01*
X61828Y89875D01*
X61823Y89881D01*
X61801Y89897D01*
X61763Y89913D01*
X61719Y89941D01*
X61659Y89968D01*
X61588Y89995D01*
X61511Y90023D01*
X61424Y90044D01*
X61413D01*
X61380Y90050D01*
X61337Y90061D01*
X61271Y90072D01*
X61195Y90077D01*
X61102Y90088D01*
X61004Y90094D01*
X60796D01*
X60731Y90088D01*
X60649Y90083D01*
X60556Y90077D01*
X60365Y90055D01*
X60354D01*
X60321Y90050D01*
X60272Y90039D01*
X60212Y90034D01*
X60146Y90023D01*
X60070Y90006D01*
X59994Y89995D01*
X59923Y89979D01*
Y92403D01*
X62751D01*
Y91852D01*
D02*
G37*
G36*
X67583Y87697D02*
X66911D01*
X66453Y89007D01*
X64416Y89007D01*
X63958Y87697D01*
X63324D01*
X65033Y92403D01*
X65869D01*
X67583Y87697D01*
D02*
G37*
G36*
X38279Y91923D02*
X37662D01*
Y88177D01*
X38279D01*
Y87697D01*
X36417D01*
Y88177D01*
X37034D01*
Y91923D01*
X36417D01*
Y92403D01*
X38279D01*
Y91923D01*
D02*
G37*
G36*
X47921Y91224D02*
X49150D01*
Y90727D01*
X47921D01*
Y89111D01*
Y89105D01*
Y89100D01*
Y89067D01*
Y89013D01*
Y88952D01*
X47927Y88881D01*
Y88811D01*
Y88740D01*
X47932Y88674D01*
Y88669D01*
X47938Y88647D01*
Y88619D01*
X47949Y88581D01*
X47960Y88538D01*
X47976Y88488D01*
X47993Y88434D01*
X48020Y88385D01*
X48025Y88379D01*
X48031Y88363D01*
X48047Y88341D01*
X48069Y88314D01*
X48096Y88286D01*
X48129Y88254D01*
X48167Y88226D01*
X48211Y88199D01*
X48216D01*
X48233Y88188D01*
X48260Y88183D01*
X48304Y88172D01*
X48353Y88161D01*
X48418Y88155D01*
X48495Y88144D01*
X48637D01*
X48675Y88150D01*
X48724Y88155D01*
X48773Y88161D01*
X48888Y88183D01*
X48893D01*
X48915Y88188D01*
X48943Y88199D01*
X48975Y88210D01*
X49052Y88232D01*
X49084Y88248D01*
X49117Y88259D01*
X49150D01*
Y87724D01*
X49145D01*
X49123Y87719D01*
X49084Y87713D01*
X49041Y87702D01*
X48986Y87691D01*
X48921Y87680D01*
X48855Y87669D01*
X48779Y87659D01*
X48768D01*
X48746Y87653D01*
X48708Y87648D01*
X48664Y87642D01*
X48610Y87637D01*
X48549Y87631D01*
X48429Y87626D01*
X48380D01*
X48342Y87631D01*
X48293Y87637D01*
X48244Y87642D01*
X48184Y87648D01*
X48124Y87664D01*
X47993Y87697D01*
X47856Y87746D01*
X47785Y87779D01*
X47719Y87822D01*
X47660Y87866D01*
X47605Y87915D01*
X47599Y87921D01*
X47594Y87932D01*
X47578Y87948D01*
X47561Y87970D01*
X47539Y88003D01*
X47517Y88041D01*
X47490Y88084D01*
X47468Y88139D01*
X47441Y88199D01*
X47414Y88270D01*
X47392Y88346D01*
X47370Y88434D01*
X47354Y88521D01*
X47337Y88625D01*
X47332Y88734D01*
X47326Y88849D01*
Y90727D01*
X46928D01*
Y91224D01*
X47326D01*
Y92239D01*
X47921D01*
Y91224D01*
D02*
G37*
G36*
X40742Y91317D02*
X40796D01*
X40856Y91306D01*
X40927Y91295D01*
X41009Y91278D01*
X41096Y91262D01*
X41189Y91235D01*
X41288Y91202D01*
X41386Y91158D01*
X41484Y91109D01*
X41583Y91055D01*
X41675Y90984D01*
X41768Y90907D01*
X41855Y90820D01*
X41861Y90814D01*
X41877Y90798D01*
X41899Y90765D01*
X41927Y90727D01*
X41959Y90678D01*
X41997Y90618D01*
X42036Y90541D01*
X42079Y90460D01*
X42123Y90367D01*
X42161Y90268D01*
X42200Y90154D01*
X42232Y90034D01*
X42259Y89903D01*
X42287Y89761D01*
X42298Y89613D01*
X42303Y89455D01*
Y89444D01*
Y89417D01*
X42298Y89373D01*
Y89313D01*
X42292Y89242D01*
X42281Y89154D01*
X42265Y89062D01*
X42249Y88963D01*
X42221Y88854D01*
X42194Y88745D01*
X42156Y88630D01*
X42112Y88516D01*
X42063Y88406D01*
X42003Y88297D01*
X41932Y88194D01*
X41855Y88095D01*
X41850Y88090D01*
X41834Y88073D01*
X41812Y88052D01*
X41774Y88019D01*
X41730Y87981D01*
X41675Y87937D01*
X41615Y87893D01*
X41544Y87850D01*
X41462Y87801D01*
X41370Y87757D01*
X41277Y87713D01*
X41168Y87675D01*
X41058Y87642D01*
X40933Y87620D01*
X40807Y87604D01*
X40671Y87598D01*
X40638D01*
X40600Y87604D01*
X40545D01*
X40485Y87615D01*
X40409Y87626D01*
X40332Y87642D01*
X40239Y87659D01*
X40146Y87686D01*
X40054Y87719D01*
X39950Y87762D01*
X39852Y87806D01*
X39753Y87866D01*
X39661Y87932D01*
X39568Y88008D01*
X39480Y88095D01*
X39475Y88101D01*
X39464Y88117D01*
X39442Y88144D01*
X39415Y88188D01*
X39377Y88237D01*
X39344Y88297D01*
X39300Y88368D01*
X39262Y88450D01*
X39224Y88543D01*
X39180Y88647D01*
X39147Y88756D01*
X39115Y88876D01*
X39082Y89007D01*
X39060Y89149D01*
X39049Y89297D01*
X39044Y89455D01*
Y89466D01*
Y89493D01*
X39049Y89537D01*
Y89597D01*
X39055Y89668D01*
X39065Y89755D01*
X39082Y89848D01*
X39098Y89952D01*
X39120Y90055D01*
X39153Y90170D01*
X39186Y90279D01*
X39229Y90394D01*
X39278Y90509D01*
X39338Y90618D01*
X39404Y90722D01*
X39480Y90820D01*
X39486Y90825D01*
X39502Y90842D01*
X39524Y90869D01*
X39562Y90896D01*
X39606Y90934D01*
X39661Y90978D01*
X39721Y91022D01*
X39797Y91071D01*
X39873Y91120D01*
X39966Y91164D01*
X40065Y91207D01*
X40168Y91246D01*
X40283Y91278D01*
X40403Y91300D01*
X40534Y91317D01*
X40671Y91322D01*
X40703D01*
X40742Y91317D01*
D02*
G37*
G36*
X58126Y97054D02*
X54381D01*
Y97562D01*
X58126D01*
Y97054D01*
D02*
G37*
G36*
Y95728D02*
X54381D01*
Y96235D01*
X58126D01*
Y95728D01*
D02*
G37*
G36*
X72027Y94586D02*
X71192D01*
X69483Y99293D01*
X70149D01*
X71623Y95149D01*
X73098Y99293D01*
X73742D01*
X72027Y94586D01*
D02*
G37*
G36*
X38962Y94586D02*
X38126D01*
X36417Y99293D01*
X37083D01*
X38558Y95149D01*
X40032Y99293D01*
X40676D01*
X38962Y94586D01*
D02*
G37*
G36*
X48195D02*
X47599D01*
Y94974D01*
X47594D01*
X47589Y94963D01*
X47572Y94952D01*
X47550Y94936D01*
X47490Y94892D01*
X47414Y94843D01*
X47326Y94783D01*
X47228Y94723D01*
X47124Y94663D01*
X47021Y94614D01*
X47015D01*
X47010Y94608D01*
X46993Y94603D01*
X46971Y94592D01*
X46917Y94576D01*
X46841Y94554D01*
X46753Y94526D01*
X46649Y94510D01*
X46535Y94494D01*
X46415Y94488D01*
X46360D01*
X46322Y94494D01*
X46278Y94499D01*
X46224Y94505D01*
X46163Y94516D01*
X46098Y94532D01*
X45956Y94570D01*
X45885Y94597D01*
X45814Y94630D01*
X45743Y94668D01*
X45672Y94718D01*
X45606Y94767D01*
X45546Y94827D01*
X45541Y94832D01*
X45535Y94843D01*
X45519Y94865D01*
X45497Y94892D01*
X45476Y94925D01*
X45448Y94969D01*
X45421Y95018D01*
X45394Y95078D01*
X45366Y95143D01*
X45339Y95220D01*
X45312Y95302D01*
X45290Y95389D01*
X45268Y95487D01*
X45252Y95591D01*
X45246Y95700D01*
X45241Y95820D01*
Y98114D01*
X45836D01*
Y96104D01*
Y96099D01*
Y96093D01*
Y96061D01*
Y96012D01*
X45841Y95946D01*
Y95875D01*
X45847Y95799D01*
X45852Y95722D01*
X45858Y95646D01*
Y95635D01*
X45863Y95613D01*
X45869Y95580D01*
X45880Y95531D01*
X45896Y95482D01*
X45918Y95427D01*
X45967Y95318D01*
X45972Y95313D01*
X45983Y95296D01*
X46000Y95269D01*
X46027Y95242D01*
X46054Y95209D01*
X46092Y95176D01*
X46136Y95143D01*
X46185Y95116D01*
X46191D01*
X46213Y95105D01*
X46240Y95100D01*
X46289Y95089D01*
X46344Y95078D01*
X46409Y95067D01*
X46491Y95061D01*
X46584Y95056D01*
X46622D01*
X46671Y95061D01*
X46731Y95072D01*
X46808Y95083D01*
X46895Y95105D01*
X46988Y95132D01*
X47086Y95171D01*
X47092D01*
X47097Y95176D01*
X47113Y95182D01*
X47135Y95192D01*
X47184Y95220D01*
X47255Y95253D01*
X47332Y95302D01*
X47419Y95351D01*
X47507Y95416D01*
X47599Y95482D01*
Y98114D01*
X48195D01*
Y94586D01*
D02*
G37*
G36*
X63242Y99386D02*
X63302Y99380D01*
X63373Y99375D01*
X63450Y99364D01*
X63532Y99348D01*
X63717Y99304D01*
X63810Y99277D01*
X63903Y99244D01*
X63996Y99206D01*
X64089Y99156D01*
X64170Y99102D01*
X64252Y99042D01*
X64258Y99036D01*
X64269Y99025D01*
X64291Y99004D01*
X64318Y98976D01*
X64351Y98944D01*
X64383Y98900D01*
X64422Y98851D01*
X64460Y98791D01*
X64498Y98725D01*
X64536Y98654D01*
X64569Y98578D01*
X64602Y98496D01*
X64629Y98403D01*
X64651Y98305D01*
X64662Y98201D01*
X64667Y98092D01*
Y98086D01*
Y98081D01*
Y98048D01*
X64662Y97993D01*
X64656Y97928D01*
X64651Y97852D01*
X64640Y97770D01*
X64618Y97677D01*
X64596Y97589D01*
X64591Y97579D01*
X64586Y97551D01*
X64569Y97508D01*
X64547Y97448D01*
X64520Y97382D01*
X64482Y97311D01*
X64443Y97229D01*
X64394Y97153D01*
X64389Y97142D01*
X64372Y97120D01*
X64345Y97082D01*
X64312Y97033D01*
X64269Y96973D01*
X64220Y96907D01*
X64165Y96836D01*
X64105Y96765D01*
X64100Y96754D01*
X64078Y96732D01*
X64039Y96694D01*
X63996Y96645D01*
X63936Y96585D01*
X63870Y96514D01*
X63794Y96432D01*
X63706Y96350D01*
X63701Y96345D01*
X63690Y96334D01*
X63674Y96317D01*
X63646Y96295D01*
X63619Y96263D01*
X63581Y96230D01*
X63494Y96143D01*
X63390Y96044D01*
X63270Y95941D01*
X63139Y95820D01*
X63007Y95706D01*
X63002Y95700D01*
X62991Y95689D01*
X62975Y95673D01*
X62947Y95651D01*
X62915Y95624D01*
X62876Y95591D01*
X62789Y95520D01*
X62685Y95427D01*
X62571Y95335D01*
X62336Y95132D01*
X64864D01*
Y94586D01*
X61686D01*
Y95253D01*
X61692Y95258D01*
X61703Y95263D01*
X61719Y95280D01*
X61741Y95302D01*
X61774Y95329D01*
X61806Y95356D01*
X61894Y95433D01*
X61992Y95515D01*
X62101Y95613D01*
X62221Y95717D01*
X62347Y95820D01*
X62352Y95826D01*
X62363Y95831D01*
X62380Y95848D01*
X62401Y95870D01*
X62434Y95897D01*
X62467Y95924D01*
X62549Y95995D01*
X62647Y96083D01*
X62751Y96175D01*
X62860Y96279D01*
X62969Y96383D01*
X62975Y96388D01*
X62997Y96410D01*
X63029Y96437D01*
X63068Y96481D01*
X63117Y96530D01*
X63171Y96590D01*
X63237Y96650D01*
X63302Y96721D01*
X63439Y96869D01*
X63575Y97027D01*
X63641Y97104D01*
X63701Y97180D01*
X63756Y97251D01*
X63799Y97316D01*
X63805Y97322D01*
X63810Y97333D01*
X63821Y97349D01*
X63837Y97377D01*
X63854Y97409D01*
X63870Y97448D01*
X63892Y97491D01*
X63914Y97540D01*
X63958Y97650D01*
X63990Y97775D01*
X64018Y97917D01*
X64029Y98065D01*
Y98070D01*
Y98081D01*
Y98097D01*
X64023Y98124D01*
Y98157D01*
X64018Y98190D01*
X63996Y98272D01*
X63968Y98365D01*
X63925Y98463D01*
X63865Y98556D01*
X63827Y98600D01*
X63783Y98638D01*
X63772Y98649D01*
X63756Y98660D01*
X63739Y98671D01*
X63685Y98703D01*
X63608Y98742D01*
X63510Y98780D01*
X63395Y98813D01*
X63259Y98834D01*
X63106Y98845D01*
X63057D01*
X62997Y98840D01*
X62920Y98834D01*
X62827Y98818D01*
X62724Y98802D01*
X62609Y98774D01*
X62483Y98742D01*
X62478D01*
X62467Y98736D01*
X62451Y98731D01*
X62429Y98725D01*
X62396Y98714D01*
X62363Y98698D01*
X62276Y98665D01*
X62178Y98621D01*
X62068Y98572D01*
X61948Y98507D01*
X61828Y98436D01*
X61801D01*
Y99096D01*
X61812Y99102D01*
X61844Y99113D01*
X61894Y99135D01*
X61959Y99162D01*
X62047Y99195D01*
X62145Y99227D01*
X62265Y99266D01*
X62396Y99299D01*
X62401D01*
X62412Y99304D01*
X62434Y99309D01*
X62462Y99315D01*
X62494Y99320D01*
X62533Y99326D01*
X62631Y99348D01*
X62740Y99364D01*
X62860Y99375D01*
X62991Y99386D01*
X63122Y99391D01*
X63193D01*
X63242Y99386D01*
D02*
G37*
G36*
X49969Y98114D02*
X51197D01*
Y97617D01*
X49969D01*
Y96001D01*
Y95995D01*
Y95990D01*
Y95957D01*
Y95902D01*
Y95842D01*
X49975Y95771D01*
Y95700D01*
Y95629D01*
X49980Y95564D01*
Y95558D01*
X49985Y95537D01*
Y95509D01*
X49996Y95471D01*
X50007Y95427D01*
X50024Y95378D01*
X50040Y95324D01*
X50067Y95274D01*
X50073Y95269D01*
X50078Y95253D01*
X50095Y95231D01*
X50116Y95203D01*
X50144Y95176D01*
X50177Y95143D01*
X50215Y95116D01*
X50258Y95089D01*
X50264D01*
X50280Y95078D01*
X50308Y95072D01*
X50351Y95061D01*
X50400Y95051D01*
X50466Y95045D01*
X50542Y95034D01*
X50684D01*
X50722Y95040D01*
X50772Y95045D01*
X50821Y95051D01*
X50936Y95072D01*
X50941D01*
X50963Y95078D01*
X50990Y95089D01*
X51023Y95100D01*
X51099Y95122D01*
X51132Y95138D01*
X51165Y95149D01*
X51197D01*
Y94614D01*
X51192D01*
X51170Y94608D01*
X51132Y94603D01*
X51088Y94592D01*
X51034Y94581D01*
X50968Y94570D01*
X50903Y94559D01*
X50826Y94548D01*
X50815D01*
X50793Y94543D01*
X50755Y94537D01*
X50712Y94532D01*
X50657Y94526D01*
X50597Y94521D01*
X50477Y94516D01*
X50428D01*
X50389Y94521D01*
X50340Y94526D01*
X50291Y94532D01*
X50231Y94537D01*
X50171Y94554D01*
X50040Y94586D01*
X49904Y94636D01*
X49832Y94668D01*
X49767Y94712D01*
X49707Y94756D01*
X49652Y94805D01*
X49647Y94810D01*
X49641Y94821D01*
X49625Y94838D01*
X49609Y94859D01*
X49587Y94892D01*
X49565Y94930D01*
X49538Y94974D01*
X49516Y95029D01*
X49489Y95089D01*
X49461Y95160D01*
X49439Y95236D01*
X49418Y95324D01*
X49401Y95411D01*
X49385Y95515D01*
X49379Y95624D01*
X49374Y95739D01*
Y97617D01*
X48975D01*
Y98114D01*
X49374D01*
Y99129D01*
X49969D01*
Y98114D01*
D02*
G37*
G36*
X67430Y99386D02*
X67485Y99380D01*
X67556Y99375D01*
X67638Y99358D01*
X67725Y99342D01*
X67818Y99315D01*
X67922Y99282D01*
X68020Y99244D01*
X68124Y99195D01*
X68227Y99135D01*
X68326Y99064D01*
X68418Y98982D01*
X68506Y98889D01*
X68582Y98780D01*
X68588Y98774D01*
X68599Y98752D01*
X68620Y98714D01*
X68642Y98665D01*
X68675Y98600D01*
X68708Y98523D01*
X68740Y98430D01*
X68779Y98321D01*
X68817Y98201D01*
X68850Y98065D01*
X68883Y97912D01*
X68915Y97748D01*
X68937Y97568D01*
X68959Y97371D01*
X68970Y97164D01*
X68975Y96940D01*
Y96934D01*
Y96923D01*
Y96907D01*
Y96885D01*
Y96852D01*
Y96820D01*
X68970Y96732D01*
X68964Y96628D01*
X68954Y96508D01*
X68942Y96377D01*
X68926Y96230D01*
X68904Y96083D01*
X68877Y95930D01*
X68844Y95771D01*
X68806Y95618D01*
X68762Y95471D01*
X68708Y95329D01*
X68648Y95198D01*
X68577Y95078D01*
X68571Y95072D01*
X68560Y95051D01*
X68533Y95023D01*
X68500Y94985D01*
X68457Y94941D01*
X68407Y94892D01*
X68347Y94838D01*
X68276Y94783D01*
X68195Y94728D01*
X68102Y94674D01*
X68003Y94625D01*
X67889Y94581D01*
X67769Y94543D01*
X67638Y94516D01*
X67501Y94494D01*
X67348Y94488D01*
X67310D01*
X67266Y94494D01*
X67212Y94499D01*
X67141Y94505D01*
X67059Y94521D01*
X66971Y94537D01*
X66873Y94565D01*
X66775Y94597D01*
X66671Y94636D01*
X66567Y94685D01*
X66464Y94739D01*
X66365Y94810D01*
X66273Y94892D01*
X66185Y94985D01*
X66109Y95089D01*
X66103Y95094D01*
X66092Y95116D01*
X66071Y95154D01*
X66049Y95204D01*
X66021Y95269D01*
X65989Y95345D01*
X65951Y95438D01*
X65918Y95547D01*
X65879Y95668D01*
X65841Y95804D01*
X65808Y95957D01*
X65781Y96121D01*
X65759Y96301D01*
X65737Y96497D01*
X65727Y96710D01*
X65721Y96934D01*
Y96940D01*
Y96951D01*
Y96967D01*
Y96989D01*
Y97022D01*
X65727Y97054D01*
Y97142D01*
X65732Y97246D01*
X65743Y97366D01*
X65754Y97497D01*
X65770Y97639D01*
X65792Y97786D01*
X65819Y97939D01*
X65847Y98092D01*
X65885Y98250D01*
X65934Y98398D01*
X65983Y98540D01*
X66043Y98671D01*
X66114Y98791D01*
X66120Y98796D01*
X66131Y98818D01*
X66158Y98845D01*
X66191Y98883D01*
X66229Y98933D01*
X66284Y98982D01*
X66344Y99036D01*
X66415Y99091D01*
X66496Y99146D01*
X66589Y99200D01*
X66688Y99255D01*
X66802Y99299D01*
X66922Y99337D01*
X67053Y99364D01*
X67195Y99386D01*
X67348Y99391D01*
X67386D01*
X67430Y99386D01*
D02*
G37*
G36*
X42789Y98206D02*
X42844D01*
X42904Y98195D01*
X42975Y98185D01*
X43057Y98168D01*
X43144Y98152D01*
X43237Y98124D01*
X43335Y98092D01*
X43433Y98048D01*
X43532Y97999D01*
X43630Y97944D01*
X43723Y97873D01*
X43816Y97797D01*
X43903Y97710D01*
X43908Y97704D01*
X43925Y97688D01*
X43947Y97655D01*
X43974Y97617D01*
X44007Y97568D01*
X44045Y97508D01*
X44083Y97431D01*
X44127Y97349D01*
X44170Y97256D01*
X44209Y97158D01*
X44247Y97044D01*
X44280Y96923D01*
X44307Y96792D01*
X44334Y96650D01*
X44345Y96503D01*
X44351Y96345D01*
Y96334D01*
Y96306D01*
X44345Y96263D01*
Y96203D01*
X44340Y96132D01*
X44329Y96044D01*
X44313Y95951D01*
X44296Y95853D01*
X44269Y95744D01*
X44241Y95635D01*
X44203Y95520D01*
X44160Y95406D01*
X44111Y95296D01*
X44050Y95187D01*
X43979Y95083D01*
X43903Y94985D01*
X43898Y94980D01*
X43881Y94963D01*
X43859Y94941D01*
X43821Y94909D01*
X43777Y94870D01*
X43723Y94827D01*
X43663Y94783D01*
X43592Y94739D01*
X43510Y94690D01*
X43417Y94647D01*
X43324Y94603D01*
X43215Y94565D01*
X43106Y94532D01*
X42980Y94510D01*
X42855Y94494D01*
X42718Y94488D01*
X42685D01*
X42647Y94494D01*
X42593D01*
X42533Y94505D01*
X42456Y94516D01*
X42380Y94532D01*
X42287Y94548D01*
X42194Y94576D01*
X42101Y94608D01*
X41997Y94652D01*
X41899Y94696D01*
X41801Y94756D01*
X41708Y94821D01*
X41615Y94898D01*
X41528Y94985D01*
X41522Y94990D01*
X41511Y95007D01*
X41490Y95034D01*
X41462Y95078D01*
X41424Y95127D01*
X41391Y95187D01*
X41348Y95258D01*
X41309Y95340D01*
X41271Y95433D01*
X41228Y95537D01*
X41195Y95646D01*
X41162Y95766D01*
X41129Y95897D01*
X41107Y96039D01*
X41096Y96186D01*
X41091Y96345D01*
Y96355D01*
Y96383D01*
X41096Y96426D01*
Y96487D01*
X41102Y96557D01*
X41113Y96645D01*
X41129Y96738D01*
X41146Y96841D01*
X41168Y96945D01*
X41200Y97060D01*
X41233Y97169D01*
X41277Y97284D01*
X41326Y97398D01*
X41386Y97508D01*
X41451Y97611D01*
X41528Y97710D01*
X41533Y97715D01*
X41550Y97731D01*
X41572Y97759D01*
X41610Y97786D01*
X41653Y97824D01*
X41708Y97868D01*
X41768Y97912D01*
X41845Y97961D01*
X41921Y98010D01*
X42014Y98054D01*
X42112Y98097D01*
X42216Y98136D01*
X42331Y98168D01*
X42451Y98190D01*
X42582Y98206D01*
X42718Y98212D01*
X42751D01*
X42789Y98206D01*
D02*
G37*
G36*
X41331Y106827D02*
X40660D01*
Y107444D01*
X41331D01*
Y106827D01*
D02*
G37*
G36*
X70985Y106330D02*
X71034Y106325D01*
X71088Y106319D01*
X71148Y106308D01*
X71214Y106292D01*
X71356Y106248D01*
X71427Y106221D01*
X71498Y106188D01*
X71569Y106144D01*
X71634Y106095D01*
X71694Y106041D01*
X71749Y105981D01*
X71754Y105975D01*
X71760Y105964D01*
X71776Y105942D01*
X71793Y105915D01*
X71815Y105883D01*
X71836Y105839D01*
X71864Y105784D01*
X71891Y105730D01*
X71913Y105659D01*
X71940Y105588D01*
X71962Y105506D01*
X71984Y105418D01*
X72000Y105325D01*
X72017Y105222D01*
X72022Y105113D01*
X72027Y104998D01*
Y102710D01*
X71432D01*
Y104714D01*
Y104725D01*
Y104752D01*
Y104796D01*
Y104856D01*
X71427Y104921D01*
X71421Y104998D01*
X71411Y105151D01*
Y105162D01*
X71405Y105184D01*
X71399Y105227D01*
X71394Y105271D01*
X71378Y105325D01*
X71367Y105386D01*
X71345Y105440D01*
X71323Y105489D01*
X71318Y105495D01*
X71312Y105511D01*
X71296Y105538D01*
X71268Y105566D01*
X71241Y105598D01*
X71208Y105637D01*
X71165Y105669D01*
X71116Y105697D01*
X71110Y105702D01*
X71088Y105708D01*
X71061Y105719D01*
X71017Y105735D01*
X70957Y105746D01*
X70892Y105757D01*
X70815Y105762D01*
X70723Y105768D01*
X70679D01*
X70630Y105762D01*
X70564Y105751D01*
X70488Y105735D01*
X70406Y105713D01*
X70313Y105686D01*
X70220Y105642D01*
X70209Y105637D01*
X70177Y105620D01*
X70127Y105593D01*
X70067Y105555D01*
X69991Y105511D01*
X69909Y105457D01*
X69816Y105396D01*
X69723Y105325D01*
Y105320D01*
Y105315D01*
X69729Y105298D01*
Y105276D01*
X69734Y105222D01*
X69740Y105151D01*
Y105145D01*
Y105134D01*
X69745Y105118D01*
Y105091D01*
X69751Y105036D01*
Y104965D01*
Y102710D01*
X69156D01*
Y104714D01*
Y104719D01*
Y104725D01*
Y104752D01*
Y104801D01*
Y104856D01*
X69150Y104927D01*
X69145Y104998D01*
X69134Y105156D01*
Y105167D01*
X69128Y105189D01*
X69123Y105233D01*
X69117Y105276D01*
X69101Y105331D01*
X69090Y105391D01*
X69068Y105446D01*
X69046Y105495D01*
X69041Y105500D01*
X69035Y105517D01*
X69019Y105544D01*
X68992Y105571D01*
X68964Y105604D01*
X68932Y105637D01*
X68888Y105669D01*
X68839Y105697D01*
X68833Y105702D01*
X68812Y105708D01*
X68784Y105719D01*
X68740Y105735D01*
X68681Y105746D01*
X68615Y105757D01*
X68538Y105762D01*
X68446Y105768D01*
X68402D01*
X68358Y105762D01*
X68293Y105751D01*
X68222Y105740D01*
X68140Y105719D01*
X68053Y105686D01*
X67960Y105648D01*
X67949Y105642D01*
X67916Y105626D01*
X67867Y105598D01*
X67807Y105566D01*
X67736Y105517D01*
X67654Y105467D01*
X67561Y105407D01*
X67474Y105336D01*
Y102710D01*
X66879D01*
Y106237D01*
X67474D01*
Y105844D01*
X67479Y105850D01*
X67485Y105855D01*
X67501Y105866D01*
X67523Y105883D01*
X67577Y105926D01*
X67643Y105975D01*
X67730Y106035D01*
X67823Y106095D01*
X67922Y106150D01*
X68025Y106205D01*
X68031D01*
X68036Y106210D01*
X68053Y106216D01*
X68074Y106226D01*
X68129Y106248D01*
X68205Y106270D01*
X68293Y106292D01*
X68391Y106314D01*
X68500Y106330D01*
X68615Y106336D01*
X68675D01*
X68708Y106330D01*
X68740D01*
X68828Y106319D01*
X68921Y106297D01*
X69024Y106270D01*
X69128Y106232D01*
X69226Y106183D01*
X69232D01*
X69237Y106177D01*
X69270Y106156D01*
X69314Y106123D01*
X69368Y106074D01*
X69428Y106014D01*
X69489Y105942D01*
X69549Y105855D01*
X69598Y105762D01*
X69603Y105768D01*
X69614Y105773D01*
X69630Y105790D01*
X69658Y105812D01*
X69691Y105839D01*
X69729Y105866D01*
X69816Y105932D01*
X69914Y106003D01*
X70029Y106074D01*
X70138Y106139D01*
X70253Y106199D01*
X70258D01*
X70269Y106205D01*
X70286Y106210D01*
X70307Y106221D01*
X70335Y106232D01*
X70368Y106243D01*
X70444Y106270D01*
X70542Y106292D01*
X70652Y106314D01*
X70766Y106330D01*
X70892Y106336D01*
X70946D01*
X70985Y106330D01*
D02*
G37*
G36*
X86125Y106314D02*
X86202Y106308D01*
X86289Y106297D01*
X86393Y106281D01*
X86496Y106259D01*
X86606Y106232D01*
X86611D01*
X86617Y106226D01*
X86633Y106221D01*
X86655Y106216D01*
X86709Y106199D01*
X86786Y106172D01*
X86868Y106144D01*
X86961Y106106D01*
X87146Y106024D01*
Y105364D01*
X87108D01*
X87103Y105375D01*
X87086Y105386D01*
X87064Y105396D01*
X87010Y105435D01*
X86939Y105484D01*
X86857Y105533D01*
X86759Y105588D01*
X86660Y105637D01*
X86551Y105686D01*
X86546D01*
X86540Y105691D01*
X86524Y105697D01*
X86502Y105702D01*
X86447Y105724D01*
X86371Y105746D01*
X86283Y105762D01*
X86191Y105784D01*
X86087Y105795D01*
X85983Y105801D01*
X85934D01*
X85901Y105795D01*
X85858Y105790D01*
X85808Y105784D01*
X85754Y105773D01*
X85694Y105757D01*
X85568Y105719D01*
X85503Y105691D01*
X85437Y105659D01*
X85372Y105620D01*
X85306Y105571D01*
X85246Y105522D01*
X85186Y105462D01*
X85181Y105457D01*
X85175Y105446D01*
X85159Y105429D01*
X85142Y105396D01*
X85120Y105364D01*
X85093Y105320D01*
X85066Y105271D01*
X85044Y105211D01*
X85017Y105145D01*
X84990Y105069D01*
X84962Y104987D01*
X84940Y104900D01*
X84924Y104801D01*
X84908Y104698D01*
X84902Y104588D01*
X84897Y104468D01*
Y104463D01*
Y104441D01*
Y104408D01*
X84902Y104365D01*
X84908Y104310D01*
X84913Y104250D01*
X84918Y104184D01*
X84935Y104108D01*
X84968Y103950D01*
X85017Y103791D01*
X85049Y103709D01*
X85088Y103633D01*
X85131Y103557D01*
X85181Y103491D01*
X85186Y103486D01*
X85192Y103475D01*
X85208Y103458D01*
X85235Y103436D01*
X85263Y103414D01*
X85295Y103382D01*
X85339Y103355D01*
X85388Y103322D01*
X85443Y103289D01*
X85503Y103262D01*
X85568Y103229D01*
X85639Y103207D01*
X85716Y103185D01*
X85798Y103169D01*
X85890Y103158D01*
X85983Y103153D01*
X86049D01*
X86098Y103158D01*
X86152Y103163D01*
X86212Y103169D01*
X86349Y103196D01*
X86360D01*
X86382Y103207D01*
X86420Y103218D01*
X86464Y103229D01*
X86518Y103251D01*
X86573Y103273D01*
X86687Y103322D01*
X86693Y103327D01*
X86709Y103333D01*
X86737Y103349D01*
X86769Y103365D01*
X86846Y103409D01*
X86933Y103458D01*
X86939Y103464D01*
X86955Y103469D01*
X86971Y103486D01*
X86999Y103502D01*
X87059Y103546D01*
X87113Y103589D01*
X87146D01*
Y102934D01*
X87141D01*
X87135Y102929D01*
X87119Y102918D01*
X87097Y102912D01*
X87037Y102885D01*
X86961Y102852D01*
X86873Y102814D01*
X86780Y102776D01*
X86682Y102743D01*
X86578Y102710D01*
X86573D01*
X86567Y102705D01*
X86551D01*
X86535Y102699D01*
X86480Y102688D01*
X86409Y102672D01*
X86322Y102656D01*
X86223Y102645D01*
X86120Y102639D01*
X86010Y102634D01*
X85945D01*
X85912Y102639D01*
X85874D01*
X85781Y102650D01*
X85672Y102661D01*
X85557Y102677D01*
X85432Y102705D01*
X85312Y102743D01*
X85306D01*
X85295Y102748D01*
X85279Y102754D01*
X85257Y102765D01*
X85197Y102792D01*
X85126Y102830D01*
X85039Y102874D01*
X84946Y102934D01*
X84853Y103005D01*
X84766Y103082D01*
X84755Y103092D01*
X84727Y103125D01*
X84689Y103174D01*
X84635Y103240D01*
X84580Y103322D01*
X84520Y103420D01*
X84460Y103529D01*
X84411Y103655D01*
Y103660D01*
X84405Y103671D01*
X84400Y103688D01*
X84389Y103715D01*
X84383Y103748D01*
X84373Y103791D01*
X84362Y103835D01*
X84351Y103890D01*
X84323Y104010D01*
X84307Y104146D01*
X84291Y104299D01*
X84285Y104468D01*
Y104479D01*
Y104507D01*
X84291Y104550D01*
Y104610D01*
X84302Y104681D01*
X84312Y104769D01*
X84323Y104861D01*
X84345Y104960D01*
X84373Y105069D01*
X84400Y105178D01*
X84438Y105293D01*
X84487Y105402D01*
X84542Y105517D01*
X84602Y105626D01*
X84678Y105724D01*
X84760Y105822D01*
X84766Y105828D01*
X84782Y105844D01*
X84809Y105866D01*
X84847Y105899D01*
X84897Y105937D01*
X84951Y105981D01*
X85017Y106024D01*
X85093Y106074D01*
X85181Y106117D01*
X85273Y106161D01*
X85377Y106205D01*
X85486Y106243D01*
X85606Y106276D01*
X85732Y106297D01*
X85869Y106314D01*
X86010Y106319D01*
X86065D01*
X86125Y106314D01*
D02*
G37*
G36*
X61173Y106314D02*
X61249Y106308D01*
X61337Y106297D01*
X61440Y106281D01*
X61544Y106259D01*
X61653Y106232D01*
X61659D01*
X61664Y106226D01*
X61681Y106221D01*
X61703Y106216D01*
X61757Y106199D01*
X61834Y106172D01*
X61915Y106144D01*
X62008Y106106D01*
X62194Y106024D01*
Y105364D01*
X62156D01*
X62150Y105375D01*
X62134Y105386D01*
X62112Y105396D01*
X62058Y105435D01*
X61987Y105484D01*
X61905Y105533D01*
X61806Y105588D01*
X61708Y105637D01*
X61599Y105686D01*
X61593D01*
X61588Y105691D01*
X61572Y105697D01*
X61550Y105702D01*
X61495Y105724D01*
X61419Y105746D01*
X61331Y105762D01*
X61238Y105784D01*
X61135Y105795D01*
X61031Y105800D01*
X60982D01*
X60949Y105795D01*
X60905Y105790D01*
X60856Y105784D01*
X60802Y105773D01*
X60742Y105757D01*
X60616Y105719D01*
X60550Y105691D01*
X60485Y105659D01*
X60419Y105620D01*
X60354Y105571D01*
X60294Y105522D01*
X60234Y105462D01*
X60228Y105457D01*
X60223Y105446D01*
X60207Y105429D01*
X60190Y105396D01*
X60168Y105364D01*
X60141Y105320D01*
X60114Y105271D01*
X60092Y105211D01*
X60065Y105145D01*
X60037Y105069D01*
X60010Y104987D01*
X59988Y104900D01*
X59972Y104801D01*
X59955Y104698D01*
X59950Y104588D01*
X59944Y104468D01*
Y104463D01*
Y104441D01*
Y104408D01*
X59950Y104365D01*
X59955Y104310D01*
X59961Y104250D01*
X59966Y104184D01*
X59983Y104108D01*
X60015Y103950D01*
X60065Y103791D01*
X60097Y103709D01*
X60136Y103633D01*
X60179Y103557D01*
X60228Y103491D01*
X60234Y103486D01*
X60239Y103475D01*
X60256Y103458D01*
X60283Y103436D01*
X60310Y103414D01*
X60343Y103382D01*
X60387Y103355D01*
X60436Y103322D01*
X60491Y103289D01*
X60550Y103262D01*
X60616Y103229D01*
X60687Y103207D01*
X60764Y103185D01*
X60845Y103169D01*
X60938Y103158D01*
X61031Y103152D01*
X61097D01*
X61146Y103158D01*
X61200Y103163D01*
X61260Y103169D01*
X61397Y103196D01*
X61408D01*
X61430Y103207D01*
X61468Y103218D01*
X61511Y103229D01*
X61566Y103251D01*
X61621Y103273D01*
X61735Y103322D01*
X61741Y103327D01*
X61757Y103333D01*
X61784Y103349D01*
X61817Y103365D01*
X61894Y103409D01*
X61981Y103458D01*
X61987Y103464D01*
X62003Y103469D01*
X62019Y103486D01*
X62047Y103502D01*
X62107Y103546D01*
X62161Y103589D01*
X62194D01*
Y102934D01*
X62189D01*
X62183Y102929D01*
X62167Y102918D01*
X62145Y102912D01*
X62085Y102885D01*
X62008Y102852D01*
X61921Y102814D01*
X61828Y102776D01*
X61730Y102743D01*
X61626Y102710D01*
X61621D01*
X61615Y102705D01*
X61599D01*
X61582Y102699D01*
X61528Y102688D01*
X61457Y102672D01*
X61370Y102656D01*
X61271Y102645D01*
X61168Y102639D01*
X61058Y102634D01*
X60993D01*
X60960Y102639D01*
X60922D01*
X60829Y102650D01*
X60720Y102661D01*
X60605Y102677D01*
X60479Y102705D01*
X60359Y102743D01*
X60354D01*
X60343Y102748D01*
X60327Y102754D01*
X60305Y102765D01*
X60245Y102792D01*
X60174Y102830D01*
X60086Y102874D01*
X59994Y102934D01*
X59901Y103005D01*
X59813Y103082D01*
X59803Y103092D01*
X59775Y103125D01*
X59737Y103174D01*
X59682Y103240D01*
X59628Y103322D01*
X59568Y103420D01*
X59508Y103529D01*
X59459Y103655D01*
Y103660D01*
X59453Y103671D01*
X59448Y103688D01*
X59437Y103715D01*
X59431Y103748D01*
X59420Y103791D01*
X59409Y103835D01*
X59399Y103890D01*
X59371Y104010D01*
X59355Y104146D01*
X59338Y104299D01*
X59333Y104468D01*
Y104479D01*
Y104507D01*
X59338Y104550D01*
Y104610D01*
X59349Y104681D01*
X59360Y104769D01*
X59371Y104861D01*
X59393Y104960D01*
X59420Y105069D01*
X59448Y105178D01*
X59486Y105293D01*
X59535Y105402D01*
X59590Y105517D01*
X59650Y105626D01*
X59726Y105724D01*
X59808Y105822D01*
X59813Y105828D01*
X59830Y105844D01*
X59857Y105866D01*
X59895Y105899D01*
X59944Y105937D01*
X59999Y105981D01*
X60065Y106024D01*
X60141Y106074D01*
X60228Y106117D01*
X60321Y106161D01*
X60425Y106205D01*
X60534Y106243D01*
X60654Y106276D01*
X60780Y106297D01*
X60916Y106314D01*
X61058Y106319D01*
X61113D01*
X61173Y106314D01*
D02*
G37*
G36*
X99830Y104496D02*
X101217Y102710D01*
X100463D01*
X99464Y104064D01*
X98459Y102710D01*
X97771D01*
X99142Y104468D01*
X97782Y106237D01*
X98530D01*
X99524Y104900D01*
X100523Y106237D01*
X101217D01*
X99830Y104496D01*
D02*
G37*
G36*
X52033Y102710D02*
X51438D01*
Y103098D01*
X51432D01*
X51427Y103087D01*
X51411Y103076D01*
X51389Y103060D01*
X51329Y103016D01*
X51252Y102967D01*
X51165Y102907D01*
X51066Y102847D01*
X50963Y102787D01*
X50859Y102737D01*
X50854D01*
X50848Y102732D01*
X50832Y102727D01*
X50810Y102716D01*
X50755Y102699D01*
X50679Y102677D01*
X50591Y102650D01*
X50488Y102634D01*
X50373Y102617D01*
X50253Y102612D01*
X50198D01*
X50160Y102617D01*
X50116Y102623D01*
X50062Y102628D01*
X50002Y102639D01*
X49936Y102656D01*
X49794Y102694D01*
X49723Y102721D01*
X49652Y102754D01*
X49581Y102792D01*
X49510Y102841D01*
X49445Y102890D01*
X49385Y102950D01*
X49379Y102956D01*
X49374Y102967D01*
X49358Y102989D01*
X49336Y103016D01*
X49314Y103049D01*
X49286Y103092D01*
X49259Y103141D01*
X49232Y103202D01*
X49205Y103267D01*
X49177Y103344D01*
X49150Y103426D01*
X49128Y103513D01*
X49106Y103611D01*
X49090Y103715D01*
X49084Y103824D01*
X49079Y103944D01*
Y106237D01*
X49674D01*
Y104228D01*
Y104223D01*
Y104217D01*
Y104184D01*
Y104135D01*
X49680Y104070D01*
Y103999D01*
X49685Y103922D01*
X49691Y103846D01*
X49696Y103769D01*
Y103759D01*
X49701Y103737D01*
X49707Y103704D01*
X49718Y103655D01*
X49734Y103606D01*
X49756Y103551D01*
X49805Y103442D01*
X49811Y103436D01*
X49822Y103420D01*
X49838Y103393D01*
X49865Y103365D01*
X49893Y103333D01*
X49931Y103300D01*
X49975Y103267D01*
X50024Y103240D01*
X50029D01*
X50051Y103229D01*
X50078Y103223D01*
X50127Y103212D01*
X50182Y103202D01*
X50248Y103191D01*
X50329Y103185D01*
X50422Y103180D01*
X50460D01*
X50510Y103185D01*
X50570Y103196D01*
X50646Y103207D01*
X50733Y103229D01*
X50826Y103256D01*
X50924Y103294D01*
X50930D01*
X50936Y103300D01*
X50952Y103305D01*
X50974Y103316D01*
X51023Y103344D01*
X51094Y103376D01*
X51170Y103426D01*
X51258Y103475D01*
X51345Y103540D01*
X51438Y103606D01*
Y106237D01*
X52033D01*
Y102710D01*
D02*
G37*
G36*
X77624Y107411D02*
X77728D01*
X77837Y107400D01*
X77957Y107389D01*
X78077Y107378D01*
X78186Y107357D01*
X78197D01*
X78214Y107351D01*
X78236Y107346D01*
X78290Y107329D01*
X78356Y107313D01*
X78438Y107286D01*
X78525Y107253D01*
X78612Y107209D01*
X78700Y107160D01*
X78705D01*
X78711Y107155D01*
X78743Y107133D01*
X78787Y107095D01*
X78847Y107051D01*
X78913Y106991D01*
X78978Y106925D01*
X79038Y106843D01*
X79098Y106756D01*
X79104Y106745D01*
X79120Y106712D01*
X79147Y106658D01*
X79175Y106587D01*
X79196Y106494D01*
X79224Y106390D01*
X79240Y106270D01*
X79246Y106134D01*
Y106128D01*
Y106112D01*
Y106085D01*
X79240Y106052D01*
Y106008D01*
X79235Y105953D01*
X79224Y105899D01*
X79213Y105839D01*
X79185Y105702D01*
X79136Y105560D01*
X79076Y105418D01*
X79033Y105347D01*
X78989Y105282D01*
X78983Y105276D01*
X78978Y105265D01*
X78962Y105249D01*
X78940Y105227D01*
X78918Y105194D01*
X78885Y105162D01*
X78803Y105091D01*
X78705Y105003D01*
X78585Y104921D01*
X78443Y104840D01*
X78285Y104769D01*
X80054Y102710D01*
X79240D01*
X77662Y104583D01*
X76789D01*
Y102710D01*
X76161D01*
Y107417D01*
X77586D01*
X77624Y107411D01*
D02*
G37*
G36*
X58197Y102710D02*
X57444D01*
Y103611D01*
X58197D01*
Y102710D01*
D02*
G37*
G36*
X45606Y105844D02*
X45612Y105850D01*
X45617Y105855D01*
X45634Y105866D01*
X45656Y105882D01*
X45710Y105926D01*
X45781Y105975D01*
X45863Y106035D01*
X45961Y106095D01*
X46065Y106150D01*
X46174Y106205D01*
X46180D01*
X46191Y106210D01*
X46202Y106216D01*
X46229Y106226D01*
X46284Y106248D01*
X46365Y106270D01*
X46458Y106292D01*
X46562Y106314D01*
X46677Y106330D01*
X46791Y106336D01*
X46846D01*
X46884Y106330D01*
X46933Y106325D01*
X46988Y106319D01*
X47048Y106308D01*
X47113Y106292D01*
X47255Y106248D01*
X47326Y106221D01*
X47397Y106188D01*
X47468Y106150D01*
X47534Y106101D01*
X47599Y106046D01*
X47660Y105986D01*
X47665Y105981D01*
X47670Y105970D01*
X47687Y105948D01*
X47709Y105921D01*
X47730Y105888D01*
X47758Y105844D01*
X47785Y105795D01*
X47812Y105735D01*
X47840Y105669D01*
X47867Y105593D01*
X47894Y105511D01*
X47916Y105424D01*
X47938Y105331D01*
X47954Y105227D01*
X47960Y105118D01*
X47965Y104998D01*
Y102710D01*
X47370D01*
Y104714D01*
Y104719D01*
Y104725D01*
Y104758D01*
Y104801D01*
X47365Y104861D01*
Y104932D01*
X47359Y105009D01*
X47337Y105173D01*
Y105184D01*
X47332Y105205D01*
X47326Y105249D01*
X47315Y105293D01*
X47299Y105347D01*
X47283Y105402D01*
X47261Y105457D01*
X47234Y105506D01*
X47228Y105511D01*
X47217Y105527D01*
X47201Y105549D01*
X47179Y105582D01*
X47146Y105609D01*
X47102Y105642D01*
X47059Y105675D01*
X47004Y105702D01*
X46999Y105708D01*
X46977Y105713D01*
X46944Y105724D01*
X46900Y105735D01*
X46846Y105746D01*
X46780Y105757D01*
X46704Y105768D01*
X46578D01*
X46529Y105762D01*
X46464Y105751D01*
X46387Y105740D01*
X46300Y105719D01*
X46207Y105686D01*
X46109Y105648D01*
X46103D01*
X46098Y105642D01*
X46065Y105626D01*
X46016Y105598D01*
X45950Y105566D01*
X45869Y105517D01*
X45787Y105467D01*
X45699Y105407D01*
X45606Y105336D01*
Y102710D01*
X45011D01*
Y107624D01*
X45606D01*
Y105844D01*
D02*
G37*
G36*
X41293Y102710D02*
X40698D01*
Y106237D01*
X41293D01*
Y102710D01*
D02*
G37*
G36*
X92366Y106237D02*
X93594D01*
Y105740D01*
X92366D01*
Y104124D01*
Y104119D01*
Y104113D01*
Y104081D01*
Y104026D01*
Y103966D01*
X92371Y103895D01*
Y103824D01*
Y103753D01*
X92377Y103688D01*
Y103682D01*
X92382Y103660D01*
Y103633D01*
X92393Y103595D01*
X92404Y103551D01*
X92421Y103502D01*
X92437Y103447D01*
X92464Y103398D01*
X92470Y103393D01*
X92475Y103376D01*
X92492Y103355D01*
X92513Y103327D01*
X92541Y103300D01*
X92573Y103267D01*
X92612Y103240D01*
X92655Y103212D01*
X92661D01*
X92677Y103202D01*
X92704Y103196D01*
X92748Y103185D01*
X92797Y103174D01*
X92863Y103169D01*
X92939Y103158D01*
X93081D01*
X93119Y103163D01*
X93169Y103169D01*
X93218Y103174D01*
X93332Y103196D01*
X93338D01*
X93360Y103202D01*
X93387Y103212D01*
X93420Y103223D01*
X93496Y103245D01*
X93529Y103262D01*
X93562Y103273D01*
X93594D01*
Y102737D01*
X93589D01*
X93567Y102732D01*
X93529Y102727D01*
X93485Y102716D01*
X93431Y102705D01*
X93365Y102694D01*
X93300Y102683D01*
X93223Y102672D01*
X93212D01*
X93190Y102666D01*
X93152Y102661D01*
X93108Y102656D01*
X93054Y102650D01*
X92994Y102645D01*
X92874Y102639D01*
X92825D01*
X92786Y102645D01*
X92737Y102650D01*
X92688Y102656D01*
X92628Y102661D01*
X92568Y102677D01*
X92437Y102710D01*
X92300Y102759D01*
X92229Y102792D01*
X92164Y102836D01*
X92104Y102880D01*
X92049Y102929D01*
X92044Y102934D01*
X92038Y102945D01*
X92022Y102961D01*
X92006Y102983D01*
X91984Y103016D01*
X91962Y103054D01*
X91935Y103098D01*
X91913Y103153D01*
X91886Y103212D01*
X91858Y103284D01*
X91836Y103360D01*
X91815Y103447D01*
X91798Y103535D01*
X91782Y103638D01*
X91776Y103748D01*
X91771Y103862D01*
Y105740D01*
X91372D01*
Y106237D01*
X91771D01*
Y107253D01*
X92366D01*
Y106237D01*
D02*
G37*
G36*
X43068Y106237D02*
X44296D01*
Y105740D01*
X43068D01*
Y104124D01*
Y104119D01*
Y104113D01*
Y104081D01*
Y104026D01*
Y103966D01*
X43073Y103895D01*
Y103824D01*
Y103753D01*
X43079Y103688D01*
Y103682D01*
X43084Y103660D01*
Y103633D01*
X43095Y103595D01*
X43106Y103551D01*
X43122Y103502D01*
X43139Y103447D01*
X43166Y103398D01*
X43171Y103393D01*
X43177Y103376D01*
X43193Y103355D01*
X43215Y103327D01*
X43242Y103300D01*
X43275Y103267D01*
X43313Y103240D01*
X43357Y103212D01*
X43362D01*
X43379Y103202D01*
X43406Y103196D01*
X43450Y103185D01*
X43499Y103174D01*
X43565Y103169D01*
X43641Y103158D01*
X43783D01*
X43821Y103163D01*
X43870Y103169D01*
X43919Y103174D01*
X44034Y103196D01*
X44039D01*
X44061Y103202D01*
X44089Y103212D01*
X44121Y103223D01*
X44198Y103245D01*
X44231Y103262D01*
X44263Y103273D01*
X44296D01*
Y102737D01*
X44291D01*
X44269Y102732D01*
X44231Y102727D01*
X44187Y102716D01*
X44132Y102705D01*
X44067Y102694D01*
X44001Y102683D01*
X43925Y102672D01*
X43914D01*
X43892Y102666D01*
X43854Y102661D01*
X43810Y102656D01*
X43756Y102650D01*
X43696Y102645D01*
X43575Y102639D01*
X43526D01*
X43488Y102645D01*
X43439Y102650D01*
X43390Y102656D01*
X43330Y102661D01*
X43270Y102677D01*
X43139Y102710D01*
X43002Y102759D01*
X42931Y102792D01*
X42866Y102836D01*
X42805Y102879D01*
X42751Y102929D01*
X42746Y102934D01*
X42740Y102945D01*
X42724Y102961D01*
X42707Y102983D01*
X42685Y103016D01*
X42664Y103054D01*
X42636Y103098D01*
X42614Y103152D01*
X42587Y103212D01*
X42560Y103284D01*
X42538Y103360D01*
X42516Y103447D01*
X42500Y103535D01*
X42483Y103638D01*
X42478Y103748D01*
X42472Y103862D01*
Y105740D01*
X42074D01*
Y106237D01*
X42472D01*
Y107253D01*
X43068D01*
Y106237D01*
D02*
G37*
G36*
X95893Y106330D02*
X95953Y106325D01*
X96019Y106314D01*
X96095Y106303D01*
X96177Y106281D01*
X96264Y106259D01*
X96357Y106232D01*
X96450Y106199D01*
X96543Y106161D01*
X96630Y106112D01*
X96718Y106052D01*
X96799Y105992D01*
X96876Y105915D01*
X96881Y105910D01*
X96892Y105893D01*
X96914Y105871D01*
X96936Y105839D01*
X96963Y105795D01*
X96996Y105746D01*
X97034Y105680D01*
X97072Y105610D01*
X97105Y105533D01*
X97143Y105446D01*
X97176Y105347D01*
X97203Y105238D01*
X97225Y105123D01*
X97247Y105003D01*
X97258Y104872D01*
X97264Y104730D01*
Y104414D01*
X94665D01*
Y104408D01*
Y104397D01*
Y104381D01*
Y104359D01*
X94670Y104299D01*
X94675Y104223D01*
X94686Y104130D01*
X94703Y104037D01*
X94725Y103939D01*
X94757Y103846D01*
X94763Y103835D01*
X94774Y103808D01*
X94796Y103764D01*
X94828Y103709D01*
X94867Y103644D01*
X94916Y103578D01*
X94970Y103513D01*
X95030Y103453D01*
X95036Y103447D01*
X95058Y103426D01*
X95096Y103398D01*
X95140Y103365D01*
X95200Y103327D01*
X95265Y103294D01*
X95336Y103256D01*
X95418Y103223D01*
X95429Y103218D01*
X95456Y103212D01*
X95505Y103202D01*
X95565Y103191D01*
X95636Y103174D01*
X95724Y103163D01*
X95817Y103158D01*
X95915Y103153D01*
X95975D01*
X96008Y103158D01*
X96046D01*
X96139Y103169D01*
X96248Y103185D01*
X96374Y103212D01*
X96499Y103245D01*
X96636Y103294D01*
X96641D01*
X96652Y103300D01*
X96668Y103311D01*
X96696Y103322D01*
X96761Y103349D01*
X96838Y103382D01*
X96925Y103426D01*
X97012Y103475D01*
X97094Y103524D01*
X97160Y103578D01*
X97193D01*
Y102929D01*
X97187D01*
X97182Y102923D01*
X97165Y102918D01*
X97143Y102907D01*
X97083Y102885D01*
X97001Y102858D01*
X96909Y102819D01*
X96805Y102787D01*
X96696Y102748D01*
X96576Y102716D01*
X96570D01*
X96559Y102710D01*
X96543D01*
X96521Y102705D01*
X96494Y102699D01*
X96461Y102688D01*
X96379Y102677D01*
X96281Y102661D01*
X96166Y102645D01*
X96046Y102639D01*
X95920Y102634D01*
X95882D01*
X95838Y102639D01*
X95773D01*
X95702Y102650D01*
X95615Y102661D01*
X95522Y102672D01*
X95418Y102694D01*
X95309Y102716D01*
X95200Y102748D01*
X95085Y102787D01*
X94970Y102830D01*
X94861Y102885D01*
X94752Y102950D01*
X94648Y103021D01*
X94550Y103103D01*
X94545Y103109D01*
X94528Y103125D01*
X94506Y103153D01*
X94473Y103191D01*
X94435Y103240D01*
X94397Y103300D01*
X94348Y103371D01*
X94304Y103453D01*
X94261Y103540D01*
X94217Y103644D01*
X94173Y103753D01*
X94135Y103873D01*
X94102Y104004D01*
X94080Y104141D01*
X94064Y104294D01*
X94059Y104452D01*
Y104463D01*
Y104490D01*
X94064Y104534D01*
Y104594D01*
X94075Y104670D01*
X94086Y104752D01*
X94097Y104845D01*
X94119Y104949D01*
X94140Y105058D01*
X94173Y105167D01*
X94211Y105282D01*
X94255Y105396D01*
X94310Y105511D01*
X94375Y105626D01*
X94446Y105730D01*
X94528Y105828D01*
X94534Y105833D01*
X94550Y105850D01*
X94577Y105877D01*
X94616Y105910D01*
X94665Y105948D01*
X94719Y105986D01*
X94785Y106035D01*
X94861Y106085D01*
X94949Y106128D01*
X95041Y106177D01*
X95145Y106216D01*
X95254Y106259D01*
X95374Y106287D01*
X95500Y106314D01*
X95631Y106330D01*
X95773Y106336D01*
X95844D01*
X95893Y106330D01*
D02*
G37*
G36*
X89489D02*
X89549Y106325D01*
X89614Y106314D01*
X89691Y106303D01*
X89772Y106281D01*
X89860Y106259D01*
X89953Y106232D01*
X90045Y106199D01*
X90138Y106161D01*
X90226Y106112D01*
X90313Y106052D01*
X90395Y105992D01*
X90471Y105915D01*
X90477Y105910D01*
X90488Y105893D01*
X90509Y105871D01*
X90531Y105839D01*
X90559Y105795D01*
X90591Y105746D01*
X90630Y105680D01*
X90668Y105610D01*
X90701Y105533D01*
X90739Y105446D01*
X90772Y105347D01*
X90799Y105238D01*
X90821Y105123D01*
X90843Y105003D01*
X90854Y104872D01*
X90859Y104730D01*
Y104414D01*
X88260D01*
Y104408D01*
Y104397D01*
Y104381D01*
Y104359D01*
X88266Y104299D01*
X88271Y104223D01*
X88282Y104130D01*
X88298Y104037D01*
X88320Y103939D01*
X88353Y103846D01*
X88358Y103835D01*
X88369Y103808D01*
X88391Y103764D01*
X88424Y103709D01*
X88462Y103644D01*
X88511Y103578D01*
X88566Y103513D01*
X88626Y103453D01*
X88631Y103447D01*
X88653Y103426D01*
X88691Y103398D01*
X88735Y103365D01*
X88795Y103327D01*
X88861Y103294D01*
X88932Y103256D01*
X89013Y103223D01*
X89024Y103218D01*
X89052Y103212D01*
X89101Y103202D01*
X89161Y103191D01*
X89232Y103174D01*
X89319Y103163D01*
X89412Y103158D01*
X89510Y103153D01*
X89570D01*
X89603Y103158D01*
X89641D01*
X89734Y103169D01*
X89843Y103185D01*
X89969Y103212D01*
X90095Y103245D01*
X90231Y103294D01*
X90237D01*
X90247Y103300D01*
X90264Y103311D01*
X90291Y103322D01*
X90357Y103349D01*
X90433Y103382D01*
X90521Y103426D01*
X90608Y103475D01*
X90690Y103524D01*
X90755Y103578D01*
X90788D01*
Y102929D01*
X90782D01*
X90777Y102923D01*
X90761Y102918D01*
X90739Y102907D01*
X90679Y102885D01*
X90597Y102858D01*
X90504Y102819D01*
X90400Y102787D01*
X90291Y102748D01*
X90171Y102716D01*
X90166D01*
X90155Y102710D01*
X90138D01*
X90116Y102705D01*
X90089Y102699D01*
X90056Y102688D01*
X89974Y102677D01*
X89876Y102661D01*
X89762Y102645D01*
X89641Y102639D01*
X89516Y102634D01*
X89478D01*
X89434Y102639D01*
X89368D01*
X89297Y102650D01*
X89210Y102661D01*
X89117Y102672D01*
X89013Y102694D01*
X88904Y102716D01*
X88795Y102748D01*
X88680Y102787D01*
X88566Y102830D01*
X88457Y102885D01*
X88347Y102950D01*
X88244Y103021D01*
X88145Y103103D01*
X88140Y103109D01*
X88124Y103125D01*
X88102Y103153D01*
X88069Y103191D01*
X88031Y103240D01*
X87993Y103300D01*
X87943Y103371D01*
X87900Y103453D01*
X87856Y103540D01*
X87812Y103644D01*
X87769Y103753D01*
X87730Y103873D01*
X87698Y104004D01*
X87676Y104141D01*
X87659Y104294D01*
X87654Y104452D01*
Y104463D01*
Y104490D01*
X87659Y104534D01*
Y104594D01*
X87670Y104670D01*
X87681Y104752D01*
X87692Y104845D01*
X87714Y104949D01*
X87736Y105058D01*
X87769Y105167D01*
X87807Y105282D01*
X87850Y105396D01*
X87905Y105511D01*
X87971Y105626D01*
X88042Y105730D01*
X88124Y105828D01*
X88129Y105833D01*
X88145Y105850D01*
X88173Y105877D01*
X88211Y105910D01*
X88260Y105948D01*
X88315Y105986D01*
X88380Y106035D01*
X88457Y106085D01*
X88544Y106128D01*
X88637Y106177D01*
X88740Y106216D01*
X88850Y106259D01*
X88970Y106287D01*
X89095Y106314D01*
X89226Y106330D01*
X89368Y106336D01*
X89439D01*
X89489Y106330D01*
D02*
G37*
G36*
X82057D02*
X82112D01*
X82172Y106319D01*
X82243Y106308D01*
X82325Y106292D01*
X82412Y106276D01*
X82505Y106248D01*
X82604Y106216D01*
X82702Y106172D01*
X82800Y106123D01*
X82898Y106068D01*
X82991Y105997D01*
X83084Y105921D01*
X83171Y105833D01*
X83177Y105828D01*
X83193Y105812D01*
X83215Y105779D01*
X83242Y105740D01*
X83275Y105691D01*
X83313Y105631D01*
X83351Y105555D01*
X83395Y105473D01*
X83439Y105380D01*
X83477Y105282D01*
X83515Y105167D01*
X83548Y105047D01*
X83575Y104916D01*
X83603Y104774D01*
X83614Y104627D01*
X83619Y104468D01*
Y104457D01*
Y104430D01*
X83614Y104386D01*
Y104326D01*
X83608Y104255D01*
X83597Y104168D01*
X83581Y104075D01*
X83564Y103977D01*
X83537Y103868D01*
X83510Y103759D01*
X83472Y103644D01*
X83428Y103529D01*
X83379Y103420D01*
X83319Y103311D01*
X83248Y103207D01*
X83171Y103109D01*
X83166Y103103D01*
X83149Y103087D01*
X83128Y103065D01*
X83089Y103032D01*
X83046Y102994D01*
X82991Y102950D01*
X82931Y102907D01*
X82860Y102863D01*
X82778Y102814D01*
X82685Y102770D01*
X82592Y102727D01*
X82483Y102688D01*
X82374Y102656D01*
X82249Y102634D01*
X82123Y102617D01*
X81986Y102612D01*
X81954D01*
X81915Y102617D01*
X81861D01*
X81801Y102628D01*
X81724Y102639D01*
X81648Y102656D01*
X81555Y102672D01*
X81462Y102699D01*
X81370Y102732D01*
X81266Y102776D01*
X81168Y102819D01*
X81069Y102880D01*
X80976Y102945D01*
X80884Y103021D01*
X80796Y103109D01*
X80791Y103114D01*
X80780Y103131D01*
X80758Y103158D01*
X80731Y103202D01*
X80692Y103251D01*
X80660Y103311D01*
X80616Y103382D01*
X80578Y103464D01*
X80540Y103557D01*
X80496Y103660D01*
X80463Y103769D01*
X80430Y103890D01*
X80398Y104021D01*
X80376Y104163D01*
X80365Y104310D01*
X80359Y104468D01*
Y104479D01*
Y104507D01*
X80365Y104550D01*
Y104610D01*
X80370Y104681D01*
X80381Y104769D01*
X80398Y104861D01*
X80414Y104965D01*
X80436Y105069D01*
X80469Y105184D01*
X80501Y105293D01*
X80545Y105407D01*
X80594Y105522D01*
X80654Y105631D01*
X80720Y105735D01*
X80796Y105833D01*
X80802Y105839D01*
X80818Y105855D01*
X80840Y105883D01*
X80878Y105910D01*
X80922Y105948D01*
X80976Y105992D01*
X81036Y106035D01*
X81113Y106085D01*
X81189Y106134D01*
X81282Y106177D01*
X81380Y106221D01*
X81484Y106259D01*
X81599Y106292D01*
X81719Y106314D01*
X81850Y106330D01*
X81986Y106336D01*
X82019D01*
X82057Y106330D01*
D02*
G37*
G36*
X64400Y106330D02*
X64454D01*
X64514Y106319D01*
X64586Y106308D01*
X64667Y106292D01*
X64755Y106276D01*
X64847Y106248D01*
X64946Y106216D01*
X65044Y106172D01*
X65142Y106123D01*
X65241Y106068D01*
X65333Y105997D01*
X65426Y105921D01*
X65514Y105833D01*
X65519Y105828D01*
X65535Y105812D01*
X65557Y105779D01*
X65585Y105740D01*
X65617Y105691D01*
X65656Y105631D01*
X65694Y105555D01*
X65737Y105473D01*
X65781Y105380D01*
X65819Y105282D01*
X65858Y105167D01*
X65890Y105047D01*
X65918Y104916D01*
X65945Y104774D01*
X65956Y104627D01*
X65961Y104468D01*
Y104457D01*
Y104430D01*
X65956Y104386D01*
Y104326D01*
X65951Y104255D01*
X65939Y104168D01*
X65923Y104075D01*
X65907Y103977D01*
X65879Y103868D01*
X65852Y103759D01*
X65814Y103644D01*
X65770Y103529D01*
X65721Y103420D01*
X65661Y103311D01*
X65590Y103207D01*
X65514Y103109D01*
X65508Y103103D01*
X65492Y103087D01*
X65470Y103065D01*
X65432Y103032D01*
X65388Y102994D01*
X65333Y102950D01*
X65273Y102907D01*
X65202Y102863D01*
X65121Y102814D01*
X65028Y102770D01*
X64935Y102727D01*
X64826Y102688D01*
X64717Y102656D01*
X64591Y102634D01*
X64465Y102617D01*
X64329Y102612D01*
X64296D01*
X64258Y102617D01*
X64203D01*
X64143Y102628D01*
X64067Y102639D01*
X63990Y102656D01*
X63898Y102672D01*
X63805Y102699D01*
X63712Y102732D01*
X63608Y102776D01*
X63510Y102819D01*
X63412Y102879D01*
X63319Y102945D01*
X63226Y103021D01*
X63139Y103109D01*
X63133Y103114D01*
X63122Y103131D01*
X63100Y103158D01*
X63073Y103202D01*
X63035Y103251D01*
X63002Y103311D01*
X62958Y103382D01*
X62920Y103464D01*
X62882Y103557D01*
X62838Y103660D01*
X62805Y103769D01*
X62773Y103890D01*
X62740Y104021D01*
X62718Y104163D01*
X62707Y104310D01*
X62702Y104468D01*
Y104479D01*
Y104507D01*
X62707Y104550D01*
Y104610D01*
X62713Y104681D01*
X62724Y104769D01*
X62740Y104861D01*
X62756Y104965D01*
X62778Y105069D01*
X62811Y105184D01*
X62844Y105293D01*
X62887Y105407D01*
X62937Y105522D01*
X62997Y105631D01*
X63062Y105735D01*
X63139Y105833D01*
X63144Y105839D01*
X63160Y105855D01*
X63182Y105882D01*
X63221Y105910D01*
X63264Y105948D01*
X63319Y105992D01*
X63379Y106035D01*
X63455Y106085D01*
X63532Y106134D01*
X63625Y106177D01*
X63723Y106221D01*
X63827Y106259D01*
X63941Y106292D01*
X64061Y106314D01*
X64192Y106330D01*
X64329Y106336D01*
X64362D01*
X64400Y106330D01*
D02*
G37*
G36*
X53796Y105866D02*
X53802D01*
X53807Y105877D01*
X53840Y105899D01*
X53889Y105937D01*
X53955Y105986D01*
X54031Y106035D01*
X54124Y106090D01*
X54222Y106150D01*
X54326Y106199D01*
X54332D01*
X54337Y106205D01*
X54353Y106210D01*
X54375Y106221D01*
X54435Y106243D01*
X54512Y106270D01*
X54605Y106292D01*
X54714Y106314D01*
X54834Y106330D01*
X54959Y106336D01*
X54987D01*
X55019Y106330D01*
X55063D01*
X55118Y106319D01*
X55178Y106308D01*
X55243Y106297D01*
X55320Y106276D01*
X55396Y106248D01*
X55478Y106221D01*
X55560Y106177D01*
X55642Y106134D01*
X55724Y106079D01*
X55800Y106014D01*
X55877Y105942D01*
X55948Y105855D01*
X55953Y105850D01*
X55964Y105833D01*
X55980Y105806D01*
X56008Y105768D01*
X56035Y105719D01*
X56062Y105659D01*
X56095Y105588D01*
X56133Y105506D01*
X56166Y105413D01*
X56199Y105315D01*
X56226Y105200D01*
X56259Y105080D01*
X56281Y104949D01*
X56297Y104807D01*
X56308Y104654D01*
X56314Y104496D01*
Y104490D01*
Y104474D01*
Y104452D01*
Y104419D01*
X56308Y104381D01*
Y104337D01*
X56303Y104288D01*
X56297Y104228D01*
X56281Y104108D01*
X56259Y103972D01*
X56232Y103835D01*
X56188Y103699D01*
Y103693D01*
X56182Y103682D01*
X56177Y103666D01*
X56166Y103638D01*
X56155Y103611D01*
X56139Y103573D01*
X56101Y103496D01*
X56051Y103404D01*
X55991Y103300D01*
X55926Y103202D01*
X55849Y103109D01*
X55839Y103098D01*
X55811Y103065D01*
X55762Y103021D01*
X55702Y102967D01*
X55631Y102907D01*
X55544Y102847D01*
X55451Y102787D01*
X55353Y102732D01*
X55347D01*
X55342Y102727D01*
X55325Y102721D01*
X55304Y102716D01*
X55249Y102694D01*
X55178Y102672D01*
X55090Y102650D01*
X54992Y102628D01*
X54883Y102617D01*
X54763Y102612D01*
X54714D01*
X54654Y102617D01*
X54583Y102623D01*
X54501Y102628D01*
X54413Y102645D01*
X54326Y102661D01*
X54239Y102683D01*
X54228Y102688D01*
X54201Y102694D01*
X54157Y102710D01*
X54102Y102732D01*
X54031Y102759D01*
X53960Y102792D01*
X53796Y102874D01*
X53758Y102710D01*
X53201D01*
Y107624D01*
X53796D01*
Y105866D01*
D02*
G37*
G36*
X38088Y106330D02*
X38159D01*
X38241Y106319D01*
X38323Y106308D01*
X38410Y106292D01*
X38492Y106270D01*
X38503D01*
X38530Y106259D01*
X38569Y106243D01*
X38623Y106226D01*
X38694Y106199D01*
X38765Y106166D01*
X38847Y106128D01*
X38934Y106085D01*
X38967Y106237D01*
X39529D01*
Y103109D01*
Y103098D01*
Y103071D01*
Y103021D01*
X39524Y102961D01*
X39519Y102890D01*
X39508Y102803D01*
X39497Y102710D01*
X39480Y102612D01*
X39459Y102508D01*
X39431Y102399D01*
X39399Y102290D01*
X39355Y102181D01*
X39311Y102077D01*
X39257Y101973D01*
X39191Y101880D01*
X39120Y101798D01*
X39115Y101793D01*
X39104Y101782D01*
X39076Y101760D01*
X39044Y101733D01*
X39000Y101700D01*
X38945Y101667D01*
X38885Y101629D01*
X38809Y101591D01*
X38727Y101547D01*
X38634Y101509D01*
X38530Y101476D01*
X38416Y101444D01*
X38296Y101416D01*
X38159Y101394D01*
X38017Y101383D01*
X37864Y101378D01*
X37760D01*
X37690Y101383D01*
X37608Y101389D01*
X37509Y101394D01*
X37411Y101405D01*
X37313Y101422D01*
X37302D01*
X37269Y101427D01*
X37214Y101438D01*
X37149Y101449D01*
X37067Y101465D01*
X36980Y101482D01*
X36887Y101504D01*
X36789Y101531D01*
Y102137D01*
X36821D01*
X36843Y102126D01*
X36881Y102115D01*
X36931Y102099D01*
X36996Y102082D01*
X37073Y102055D01*
X37171Y102028D01*
X37280Y102000D01*
X37286D01*
X37296Y101995D01*
X37313D01*
X37335Y101989D01*
X37362Y101979D01*
X37395Y101973D01*
X37477Y101957D01*
X37575Y101940D01*
X37679Y101929D01*
X37793Y101918D01*
X37913Y101913D01*
X37962D01*
X38023Y101918D01*
X38094Y101924D01*
X38170Y101929D01*
X38252Y101946D01*
X38339Y101962D01*
X38416Y101989D01*
X38427Y101995D01*
X38448Y102000D01*
X38487Y102017D01*
X38530Y102039D01*
X38579Y102071D01*
X38634Y102104D01*
X38683Y102142D01*
X38727Y102186D01*
X38732Y102191D01*
X38743Y102208D01*
X38765Y102235D01*
X38787Y102273D01*
X38814Y102317D01*
X38842Y102366D01*
X38863Y102421D01*
X38885Y102486D01*
Y102492D01*
X38891Y102514D01*
X38902Y102552D01*
X38912Y102595D01*
X38918Y102656D01*
X38929Y102716D01*
X38934Y102787D01*
Y102863D01*
Y103185D01*
X38929D01*
X38923Y103174D01*
X38907Y103163D01*
X38891Y103147D01*
X38836Y103109D01*
X38765Y103065D01*
X38689Y103010D01*
X38601Y102956D01*
X38508Y102907D01*
X38416Y102863D01*
X38405Y102858D01*
X38372Y102847D01*
X38317Y102830D01*
X38246Y102814D01*
X38154Y102792D01*
X38050Y102776D01*
X37930Y102765D01*
X37793Y102759D01*
X37766D01*
X37733Y102765D01*
X37690D01*
X37635Y102776D01*
X37575Y102781D01*
X37504Y102798D01*
X37433Y102814D01*
X37351Y102841D01*
X37269Y102868D01*
X37187Y102907D01*
X37100Y102950D01*
X37018Y103005D01*
X36936Y103065D01*
X36860Y103131D01*
X36789Y103212D01*
X36783Y103218D01*
X36772Y103234D01*
X36756Y103262D01*
X36729Y103300D01*
X36701Y103344D01*
X36674Y103404D01*
X36636Y103469D01*
X36603Y103546D01*
X36570Y103633D01*
X36537Y103731D01*
X36505Y103835D01*
X36477Y103950D01*
X36450Y104075D01*
X36434Y104206D01*
X36423Y104348D01*
X36417Y104501D01*
Y104507D01*
Y104523D01*
Y104545D01*
Y104578D01*
X36423Y104616D01*
Y104665D01*
X36428Y104714D01*
X36434Y104774D01*
X36450Y104894D01*
X36472Y105025D01*
X36499Y105162D01*
X36543Y105287D01*
Y105293D01*
X36548Y105304D01*
X36554Y105320D01*
X36565Y105342D01*
X36592Y105407D01*
X36636Y105484D01*
X36685Y105571D01*
X36745Y105669D01*
X36816Y105768D01*
X36892Y105861D01*
X36903Y105871D01*
X36931Y105899D01*
X36974Y105937D01*
X37034Y105986D01*
X37105Y106046D01*
X37193Y106101D01*
X37291Y106161D01*
X37395Y106210D01*
X37400D01*
X37406Y106216D01*
X37422Y106221D01*
X37444Y106232D01*
X37504Y106248D01*
X37580Y106276D01*
X37668Y106297D01*
X37766Y106314D01*
X37870Y106330D01*
X37979Y106336D01*
X38028D01*
X38088Y106330D01*
D02*
G37*
G36*
X73037Y101749D02*
X72497D01*
X74752Y107624D01*
X75309D01*
X73037Y101749D01*
D02*
G37*
G36*
X223891Y203320D02*
X223907Y203315D01*
X223929Y203304D01*
X223995Y203276D01*
X224066Y203233D01*
X224153Y203184D01*
X224235Y203123D01*
X224317Y203058D01*
X224388Y202976D01*
X224394Y202965D01*
X224415Y202938D01*
X224443Y202894D01*
X224470Y202840D01*
X224503Y202769D01*
X224530Y202692D01*
X224552Y202610D01*
X224557Y202523D01*
Y202496D01*
X224552Y202463D01*
X224546Y202425D01*
X224535Y202376D01*
X224519Y202321D01*
X224497Y202266D01*
X224470Y202206D01*
X224465Y202201D01*
X224453Y202179D01*
X224432Y202152D01*
X224404Y202119D01*
X224372Y202086D01*
X224328Y202048D01*
X224279Y202015D01*
X224219Y201982D01*
X224213Y201977D01*
X224186Y201972D01*
X224148Y201961D01*
X224093Y201950D01*
X224017Y201933D01*
X223929Y201922D01*
X223826Y201917D01*
X223706Y201911D01*
X221560D01*
Y201409D01*
X221450D01*
X221445Y201420D01*
X221434Y201442D01*
X221418Y201480D01*
X221391Y201529D01*
X221352Y201584D01*
X221309Y201649D01*
X221254Y201720D01*
X221194Y201791D01*
X221183Y201802D01*
X221161Y201824D01*
X221123Y201862D01*
X221074Y201911D01*
X221008Y201966D01*
X220937Y202026D01*
X220855Y202092D01*
X220768Y202152D01*
X220763Y202157D01*
X220741Y202168D01*
X220708Y202184D01*
X220659Y202212D01*
X220593Y202244D01*
X220506Y202283D01*
X220402Y202326D01*
X220282Y202376D01*
Y202485D01*
X221325D01*
Y203222D01*
X221560D01*
X221565Y202485D01*
X223629D01*
X223635D01*
X223640D01*
X223656D01*
X223678D01*
X223733Y202490D01*
X223798Y202496D01*
X223869Y202507D01*
X223935Y202523D01*
X224000Y202545D01*
X224049Y202572D01*
X224055Y202577D01*
X224066Y202589D01*
X224082Y202605D01*
X224099Y202632D01*
X224120Y202665D01*
X224137Y202703D01*
X224148Y202747D01*
X224153Y202796D01*
Y202818D01*
X224148Y202840D01*
X224142Y202867D01*
X224126Y202938D01*
X224110Y202982D01*
X224088Y203020D01*
X224082Y203025D01*
X224077Y203036D01*
X224055Y203058D01*
X224033Y203080D01*
X224006Y203107D01*
X223968Y203140D01*
X223924Y203167D01*
X223875Y203189D01*
Y203326D01*
X223880D01*
X223891Y203320D01*
D02*
G37*
G36*
X224601Y200377D02*
Y200224D01*
X223935D01*
X223940Y200219D01*
X223951Y200208D01*
X223978Y200186D01*
X224006Y200159D01*
X224039Y200120D01*
X224082Y200082D01*
X224170Y199995D01*
X224262Y199891D01*
X224355Y199787D01*
X224437Y199684D01*
X224465Y199640D01*
X224492Y199596D01*
X224497Y199585D01*
X224508Y199558D01*
X224524Y199514D01*
X224546Y199460D01*
X224568Y199394D01*
X224585Y199318D01*
X224595Y199231D01*
X224601Y199143D01*
Y199100D01*
X224590Y199050D01*
X224579Y198985D01*
X224563Y198914D01*
X224535Y198837D01*
X224497Y198756D01*
X224448Y198679D01*
X224443Y198668D01*
X224421Y198646D01*
X224388Y198614D01*
X224339Y198570D01*
X224284Y198526D01*
X224219Y198483D01*
X224142Y198439D01*
X224055Y198406D01*
X224049D01*
X224044Y198401D01*
X224028D01*
X224011Y198395D01*
X223984Y198390D01*
X223951Y198384D01*
X223875Y198373D01*
X223777Y198357D01*
X223662Y198346D01*
X223525Y198341D01*
X223367Y198335D01*
X221942D01*
X221931D01*
X221904D01*
X221866D01*
X221816Y198330D01*
X221718Y198313D01*
X221669Y198302D01*
X221631Y198286D01*
X221625D01*
X221614Y198275D01*
X221582Y198248D01*
X221538Y198204D01*
X221500Y198139D01*
Y198133D01*
X221494Y198122D01*
X221483Y198095D01*
X221472Y198062D01*
X221467Y198013D01*
X221456Y197958D01*
X221450Y197887D01*
Y197800D01*
X221325D01*
Y198908D01*
X223460D01*
X223465D01*
X223482D01*
X223503D01*
X223531D01*
X223569Y198914D01*
X223607Y198919D01*
X223700Y198930D01*
X223798Y198947D01*
X223897Y198974D01*
X223978Y199012D01*
X224017Y199034D01*
X224044Y199061D01*
X224049Y199067D01*
X224066Y199089D01*
X224088Y199121D01*
X224110Y199165D01*
X224137Y199220D01*
X224159Y199285D01*
X224175Y199356D01*
X224181Y199433D01*
Y199460D01*
X224175Y199493D01*
X224170Y199531D01*
X224159Y199580D01*
X224142Y199640D01*
X224120Y199706D01*
X224088Y199771D01*
X224082Y199782D01*
X224071Y199804D01*
X224044Y199847D01*
X224006Y199902D01*
X223962Y199968D01*
X223897Y200044D01*
X223826Y200132D01*
X223733Y200224D01*
X221926D01*
X221920D01*
X221915D01*
X221882D01*
X221833Y200219D01*
X221778Y200213D01*
X221718Y200197D01*
X221658Y200181D01*
X221603Y200153D01*
X221560Y200120D01*
X221554Y200115D01*
X221543Y200099D01*
X221527Y200071D01*
X221511Y200033D01*
X221489Y199979D01*
X221472Y199908D01*
X221456Y199820D01*
X221450Y199711D01*
X221325D01*
Y200798D01*
X223263D01*
X223269D01*
X223285D01*
X223312D01*
X223351D01*
X223394D01*
X223443D01*
X223553Y200803D01*
X223667D01*
X223777Y200809D01*
X223826D01*
X223869Y200814D01*
X223907D01*
X223935Y200819D01*
X223940D01*
X223957Y200825D01*
X223973Y200830D01*
X224000Y200841D01*
X224055Y200863D01*
X224082Y200885D01*
X224104Y200901D01*
Y200907D01*
X224110Y200912D01*
X224126Y200939D01*
X224142Y200983D01*
X224148Y201038D01*
Y201060D01*
X224142Y201081D01*
Y201109D01*
X224131Y201147D01*
X224120Y201185D01*
X224110Y201234D01*
X224088Y201284D01*
X224213Y201333D01*
X224601Y200377D01*
D02*
G37*
G36*
X222930Y197543D02*
X222974D01*
X223018Y197538D01*
X223067Y197532D01*
X223127Y197522D01*
X223258Y197500D01*
X223405Y197461D01*
X223558Y197412D01*
X223722Y197341D01*
X223727D01*
X223738Y197330D01*
X223766Y197320D01*
X223793Y197303D01*
X223831Y197281D01*
X223869Y197259D01*
X223968Y197194D01*
X224077Y197117D01*
X224186Y197019D01*
X224290Y196905D01*
X224383Y196779D01*
Y196774D01*
X224394Y196763D01*
X224404Y196741D01*
X224415Y196713D01*
X224432Y196681D01*
X224453Y196642D01*
X224470Y196593D01*
X224492Y196544D01*
X224530Y196424D01*
X224568Y196293D01*
X224590Y196140D01*
X224601Y195982D01*
Y195949D01*
X224595Y195911D01*
X224590Y195862D01*
X224585Y195802D01*
X224568Y195731D01*
X224552Y195654D01*
X224530Y195567D01*
X224497Y195480D01*
X224465Y195387D01*
X224415Y195294D01*
X224361Y195196D01*
X224295Y195103D01*
X224219Y195010D01*
X224131Y194923D01*
X224033Y194841D01*
X224028Y194835D01*
X224011Y194824D01*
X223984Y194808D01*
X223946Y194786D01*
X223902Y194759D01*
X223848Y194726D01*
X223787Y194699D01*
X223716Y194666D01*
X223640Y194628D01*
X223553Y194600D01*
X223465Y194568D01*
X223367Y194540D01*
X223269Y194519D01*
X223165Y194502D01*
X223056Y194491D01*
X222947Y194486D01*
X222941D01*
X222925D01*
X222903D01*
X222870Y194491D01*
X222832D01*
X222783Y194497D01*
X222734Y194502D01*
X222674Y194513D01*
X222543Y194540D01*
X222395Y194573D01*
X222237Y194628D01*
X222078Y194699D01*
X222073D01*
X222057Y194710D01*
X222035Y194721D01*
X222007Y194737D01*
X221969Y194759D01*
X221931Y194786D01*
X221838Y194852D01*
X221734Y194933D01*
X221625Y195032D01*
X221527Y195141D01*
X221440Y195267D01*
Y195272D01*
X221429Y195283D01*
X221418Y195305D01*
X221407Y195327D01*
X221391Y195359D01*
X221374Y195398D01*
X221358Y195447D01*
X221336Y195496D01*
X221298Y195605D01*
X221265Y195736D01*
X221243Y195873D01*
X221232Y196020D01*
Y196053D01*
X221238Y196091D01*
X221243Y196140D01*
X221249Y196200D01*
X221259Y196271D01*
X221276Y196348D01*
X221303Y196435D01*
X221330Y196528D01*
X221369Y196621D01*
X221412Y196713D01*
X221467Y196812D01*
X221527Y196910D01*
X221603Y197003D01*
X221685Y197090D01*
X221784Y197178D01*
X221789Y197183D01*
X221805Y197194D01*
X221833Y197210D01*
X221866Y197238D01*
X221909Y197265D01*
X221964Y197298D01*
X222024Y197330D01*
X222095Y197363D01*
X222171Y197396D01*
X222253Y197434D01*
X222340Y197461D01*
X222433Y197489D01*
X222537Y197516D01*
X222641Y197532D01*
X222745Y197543D01*
X222859Y197549D01*
X222865D01*
X222876D01*
X222903D01*
X222930Y197543D01*
D02*
G37*
G36*
X219927Y194142D02*
X219938Y194109D01*
X219949Y194065D01*
X219965Y194011D01*
X219987Y193951D01*
X220015Y193885D01*
X220053Y193825D01*
X220091Y193771D01*
X220096Y193765D01*
X220124Y193738D01*
X220162Y193705D01*
X220222Y193661D01*
X220293Y193612D01*
X220386Y193558D01*
X220490Y193503D01*
X220615Y193448D01*
X224606Y191810D01*
Y191679D01*
X220561Y189921D01*
X220555D01*
X220544Y189916D01*
X220533Y189910D01*
X220511Y189899D01*
X220457Y189878D01*
X220397Y189845D01*
X220331Y189818D01*
X220266Y189785D01*
X220217Y189752D01*
X220195Y189741D01*
X220178Y189730D01*
X220173Y189725D01*
X220162Y189714D01*
X220140Y189697D01*
X220118Y189670D01*
X220091Y189637D01*
X220058Y189605D01*
X220009Y189517D01*
X220004Y189512D01*
X219998Y189495D01*
X219987Y189468D01*
X219976Y189430D01*
X219960Y189381D01*
X219949Y189321D01*
X219938Y189250D01*
X219927Y189173D01*
X219802D01*
Y191095D01*
X219927D01*
Y191079D01*
X219933Y191062D01*
Y191041D01*
X219944Y190986D01*
X219954Y190920D01*
X219971Y190849D01*
X219987Y190779D01*
X220015Y190718D01*
X220042Y190669D01*
X220047Y190664D01*
X220058Y190653D01*
X220075Y190637D01*
X220096Y190620D01*
X220124Y190604D01*
X220157Y190587D01*
X220200Y190577D01*
X220244Y190571D01*
X220249D01*
X220277Y190577D01*
X220320Y190582D01*
X220375Y190593D01*
X220451Y190609D01*
X220544Y190642D01*
X220653Y190680D01*
X220784Y190735D01*
X223542Y191930D01*
X220823Y193044D01*
X220817D01*
X220806Y193050D01*
X220784Y193061D01*
X220757Y193072D01*
X220724Y193083D01*
X220686Y193094D01*
X220599Y193126D01*
X220506Y193154D01*
X220413Y193181D01*
X220331Y193197D01*
X220293Y193203D01*
X220260D01*
X220255D01*
X220244D01*
X220222Y193197D01*
X220200Y193192D01*
X220173Y193181D01*
X220140Y193159D01*
X220102Y193137D01*
X220069Y193104D01*
X220064Y193099D01*
X220053Y193088D01*
X220036Y193061D01*
X220020Y193028D01*
X219998Y192979D01*
X219976Y192919D01*
X219954Y192848D01*
X219938Y192766D01*
Y192755D01*
X219933Y192733D01*
X219927Y192706D01*
X219802D01*
Y194153D01*
X219927D01*
Y194142D01*
D02*
G37*
G36*
X220257Y47528D02*
X220328Y47523D01*
X220410Y47517D01*
X220508Y47501D01*
X220618Y47485D01*
X220738Y47457D01*
X220863Y47425D01*
X220994Y47386D01*
X221131Y47337D01*
X221267Y47283D01*
X221404Y47212D01*
X221540Y47130D01*
X221677Y47037D01*
X221802Y46933D01*
X221808Y46928D01*
X221835Y46900D01*
X221868Y46862D01*
X221917Y46808D01*
X221972Y46737D01*
X222032Y46649D01*
X222097Y46546D01*
X222168Y46431D01*
X222234Y46294D01*
X222305Y46147D01*
X222365Y45978D01*
X222419Y45798D01*
X222468Y45595D01*
X222501Y45383D01*
X222523Y45148D01*
X222534Y44902D01*
Y42805D01*
X222409D01*
Y43007D01*
X222403Y43029D01*
X222397Y43079D01*
X222387Y43144D01*
X222365Y43215D01*
X222332Y43281D01*
X222283Y43346D01*
X222223Y43401D01*
X222217Y43406D01*
X222201Y43411D01*
X222163Y43422D01*
X222114Y43439D01*
X222048Y43455D01*
X222004Y43461D01*
X221955Y43466D01*
X221901Y43472D01*
X221841D01*
X221775Y43477D01*
X221704D01*
X218663D01*
X218657D01*
X218641D01*
X218619D01*
X218592D01*
X218559Y43472D01*
X218521D01*
X218428Y43466D01*
X218335Y43455D01*
X218248Y43433D01*
X218166Y43411D01*
X218139Y43395D01*
X218111Y43379D01*
X218106Y43373D01*
X218090Y43352D01*
X218062Y43324D01*
X218035Y43281D01*
X218008Y43220D01*
X217980Y43155D01*
X217964Y43073D01*
X217959Y42980D01*
Y42805D01*
X217833D01*
Y44815D01*
X217838Y44886D01*
Y44973D01*
X217844Y45071D01*
X217855Y45186D01*
X217860Y45306D01*
X217877Y45432D01*
X217893Y45563D01*
X217937Y45830D01*
X217964Y45961D01*
X217991Y46087D01*
X218029Y46202D01*
X218073Y46311D01*
Y46316D01*
X218084Y46333D01*
X218101Y46365D01*
X218117Y46404D01*
X218144Y46447D01*
X218177Y46502D01*
X218215Y46562D01*
X218264Y46628D01*
X218314Y46698D01*
X218373Y46769D01*
X218439Y46840D01*
X218515Y46917D01*
X218592Y46988D01*
X218679Y47064D01*
X218772Y47130D01*
X218876Y47195D01*
X218881Y47201D01*
X218903Y47212D01*
X218930Y47228D01*
X218974Y47250D01*
X219029Y47272D01*
X219089Y47304D01*
X219165Y47332D01*
X219247Y47365D01*
X219335Y47397D01*
X219433Y47425D01*
X219542Y47457D01*
X219657Y47479D01*
X219771Y47501D01*
X219897Y47517D01*
X220028Y47528D01*
X220164Y47534D01*
X220175D01*
X220208D01*
X220257Y47528D01*
D02*
G37*
G36*
X217959Y42369D02*
X217969Y42314D01*
X217980Y42254D01*
X218002Y42183D01*
X218035Y42112D01*
X218084Y42046D01*
X218144Y41992D01*
X218150Y41987D01*
X218166Y41981D01*
X218199Y41970D01*
X218248Y41954D01*
X218314Y41937D01*
X218357Y41932D01*
X218401Y41926D01*
X218455Y41921D01*
X218510D01*
X218576Y41916D01*
X218647D01*
X222605D01*
Y41790D01*
X218827Y38689D01*
X221721D01*
X221726D01*
X221737D01*
X221759D01*
X221792D01*
X221824Y38694D01*
X221863D01*
X221950Y38699D01*
X222048Y38710D01*
X222135Y38727D01*
X222212Y38749D01*
X222245Y38765D01*
X222267Y38781D01*
X222272Y38787D01*
X222288Y38809D01*
X222310Y38836D01*
X222338Y38880D01*
X222365Y38940D01*
X222387Y39011D01*
X222403Y39093D01*
X222409Y39191D01*
Y39360D01*
X222534D01*
Y37711D01*
X222409D01*
Y37902D01*
X222403Y37924D01*
X222397Y37979D01*
X222387Y38039D01*
X222365Y38110D01*
X222332Y38181D01*
X222288Y38246D01*
X222228Y38301D01*
X222223Y38306D01*
X222206Y38312D01*
X222174Y38328D01*
X222125Y38345D01*
X222054Y38356D01*
X222015Y38366D01*
X221966Y38372D01*
X221917Y38377D01*
X221857D01*
X221792Y38383D01*
X221721D01*
X218450D01*
X218444D01*
X218439Y38372D01*
X218412Y38350D01*
X218373Y38312D01*
X218324Y38268D01*
X218270Y38214D01*
X218221Y38164D01*
X218172Y38110D01*
X218139Y38066D01*
X218133Y38061D01*
X218128Y38044D01*
X218111Y38023D01*
X218090Y37990D01*
X218068Y37946D01*
X218046Y37892D01*
X218024Y37831D01*
X217997Y37760D01*
Y37755D01*
X217991Y37744D01*
X217986Y37717D01*
X217980Y37684D01*
X217975Y37640D01*
X217969Y37591D01*
X217964Y37531D01*
Y37460D01*
X217833D01*
Y38727D01*
X221360Y41610D01*
X218647D01*
X218641D01*
X218630D01*
X218608D01*
X218576D01*
X218543Y41604D01*
X218505D01*
X218417Y41599D01*
X218324Y41588D01*
X218237Y41566D01*
X218161Y41544D01*
X218128Y41528D01*
X218106Y41511D01*
X218101Y41506D01*
X218084Y41484D01*
X218057Y41457D01*
X218029Y41413D01*
X218008Y41353D01*
X217980Y41282D01*
X217964Y41200D01*
X217959Y41102D01*
Y40938D01*
X217833D01*
Y42587D01*
X217959D01*
Y42369D01*
D02*
G37*
G36*
X220093Y37313D02*
X220104Y37264D01*
X220115Y37209D01*
X220137Y37143D01*
X220170Y37083D01*
X220219Y37029D01*
X220279Y36985D01*
X220285D01*
X220306Y36974D01*
X220339Y36963D01*
X220394Y36952D01*
X220459Y36941D01*
X220547Y36931D01*
X220656Y36925D01*
X220721Y36920D01*
X220787D01*
X222223D01*
Y36914D01*
X222234Y36903D01*
X222245Y36881D01*
X222256Y36854D01*
X222277Y36816D01*
X222299Y36772D01*
X222321Y36723D01*
X222343Y36674D01*
X222397Y36554D01*
X222447Y36417D01*
X222496Y36281D01*
X222539Y36133D01*
Y36128D01*
X222545Y36117D01*
X222550Y36095D01*
X222556Y36068D01*
X222561Y36030D01*
X222572Y35986D01*
X222578Y35937D01*
X222589Y35882D01*
X222600Y35817D01*
X222605Y35751D01*
X222621Y35604D01*
X222632Y35445D01*
X222638Y35271D01*
Y35211D01*
X222632Y35178D01*
Y35140D01*
X222627Y35096D01*
X222621Y35047D01*
X222610Y34932D01*
X222594Y34801D01*
X222567Y34659D01*
X222529Y34501D01*
X222485Y34337D01*
X222425Y34168D01*
X222354Y33999D01*
X222272Y33824D01*
X222174Y33654D01*
X222054Y33496D01*
X221922Y33343D01*
X221770Y33201D01*
X221764Y33196D01*
X221742Y33180D01*
X221704Y33152D01*
X221655Y33119D01*
X221589Y33081D01*
X221518Y33037D01*
X221431Y32988D01*
X221333Y32939D01*
X221229Y32890D01*
X221114Y32841D01*
X220989Y32797D01*
X220852Y32759D01*
X220716Y32726D01*
X220568Y32699D01*
X220416Y32683D01*
X220257Y32677D01*
X220252D01*
X220230D01*
X220197D01*
X220153Y32683D01*
X220099Y32688D01*
X220033Y32693D01*
X219957Y32704D01*
X219875Y32715D01*
X219788Y32732D01*
X219695Y32748D01*
X219498Y32803D01*
X219394Y32836D01*
X219285Y32874D01*
X219182Y32923D01*
X219072Y32972D01*
X219067Y32978D01*
X219045Y32988D01*
X219007Y33010D01*
X218963Y33037D01*
X218903Y33076D01*
X218838Y33119D01*
X218767Y33169D01*
X218690Y33229D01*
X218608Y33294D01*
X218521Y33365D01*
X218434Y33447D01*
X218346Y33534D01*
X218264Y33627D01*
X218182Y33726D01*
X218106Y33829D01*
X218035Y33944D01*
X218029Y33949D01*
X218024Y33966D01*
X218008Y33999D01*
X217986Y34037D01*
X217964Y34086D01*
X217937Y34146D01*
X217909Y34211D01*
X217882Y34288D01*
X217855Y34375D01*
X217828Y34468D01*
X217800Y34566D01*
X217778Y34675D01*
X217757Y34790D01*
X217740Y34905D01*
X217735Y35030D01*
X217729Y35162D01*
Y35254D01*
X217735Y35314D01*
X217740Y35385D01*
X217746Y35467D01*
X217773Y35626D01*
Y35636D01*
X217784Y35664D01*
X217795Y35713D01*
X217811Y35778D01*
X217838Y35860D01*
X217871Y35964D01*
X217909Y36084D01*
X217959Y36221D01*
X217964Y36232D01*
X217969Y36253D01*
X217980Y36286D01*
X217991Y36325D01*
X218019Y36412D01*
X218024Y36450D01*
X218029Y36477D01*
Y36488D01*
X218024Y36516D01*
X218002Y36554D01*
X217991Y36576D01*
X217969Y36592D01*
X217964D01*
X217959Y36597D01*
X217942Y36608D01*
X217915Y36619D01*
X217882Y36630D01*
X217844Y36636D01*
X217789Y36647D01*
X217729Y36652D01*
Y36778D01*
X219214Y36898D01*
Y36772D01*
X219209D01*
X219193Y36761D01*
X219160Y36756D01*
X219122Y36739D01*
X219078Y36723D01*
X219023Y36696D01*
X218969Y36674D01*
X218903Y36641D01*
X218767Y36576D01*
X218630Y36494D01*
X218499Y36401D01*
X218439Y36352D01*
X218384Y36297D01*
X218379Y36292D01*
X218368Y36275D01*
X218346Y36253D01*
X218319Y36221D01*
X218292Y36182D01*
X218253Y36128D01*
X218215Y36073D01*
X218177Y36008D01*
X218139Y35931D01*
X218106Y35849D01*
X218068Y35762D01*
X218040Y35664D01*
X218013Y35566D01*
X217991Y35456D01*
X217980Y35342D01*
X217975Y35221D01*
Y35183D01*
X217980Y35134D01*
X217986Y35074D01*
X217997Y34998D01*
X218013Y34916D01*
X218035Y34817D01*
X218062Y34714D01*
X218101Y34605D01*
X218150Y34495D01*
X218204Y34381D01*
X218275Y34266D01*
X218357Y34157D01*
X218450Y34048D01*
X218559Y33949D01*
X218685Y33856D01*
X218690Y33851D01*
X218712Y33840D01*
X218745Y33818D01*
X218794Y33797D01*
X218848Y33769D01*
X218919Y33736D01*
X218996Y33698D01*
X219089Y33665D01*
X219187Y33627D01*
X219296Y33589D01*
X219416Y33556D01*
X219536Y33529D01*
X219673Y33507D01*
X219810Y33485D01*
X219957Y33474D01*
X220110Y33469D01*
X220115D01*
X220137D01*
X220175D01*
X220224Y33474D01*
X220285D01*
X220350Y33485D01*
X220432Y33491D01*
X220514Y33502D01*
X220607Y33512D01*
X220705Y33534D01*
X220912Y33578D01*
X221125Y33644D01*
X221235Y33682D01*
X221338Y33726D01*
X221344Y33731D01*
X221360Y33736D01*
X221393Y33753D01*
X221426Y33775D01*
X221475Y33802D01*
X221524Y33829D01*
X221584Y33867D01*
X221644Y33911D01*
X221775Y34009D01*
X221912Y34124D01*
X222037Y34261D01*
X222097Y34332D01*
X222146Y34408D01*
Y34413D01*
X222157Y34424D01*
X222168Y34452D01*
X222185Y34479D01*
X222206Y34517D01*
X222228Y34566D01*
X222250Y34615D01*
X222272Y34675D01*
X222321Y34801D01*
X222365Y34949D01*
X222392Y35107D01*
X222397Y35189D01*
X222403Y35271D01*
Y35314D01*
X222397Y35364D01*
X222392Y35429D01*
X222387Y35506D01*
X222376Y35587D01*
X222359Y35675D01*
X222338Y35767D01*
Y35773D01*
X222332Y35778D01*
X222327Y35811D01*
X222310Y35855D01*
X222288Y35920D01*
X222261Y35991D01*
X222228Y36073D01*
X222190Y36155D01*
X222146Y36242D01*
X220787D01*
X220781D01*
X220771D01*
X220754D01*
X220727D01*
X220667D01*
X220596Y36237D01*
X220519Y36232D01*
X220443Y36221D01*
X220372Y36204D01*
X220345Y36199D01*
X220323Y36188D01*
X220317D01*
X220306Y36177D01*
X220285Y36166D01*
X220263Y36144D01*
X220235Y36122D01*
X220203Y36095D01*
X220175Y36057D01*
X220153Y36019D01*
X220148Y36013D01*
X220143Y35997D01*
X220132Y35969D01*
X220121Y35931D01*
X220110Y35877D01*
X220104Y35806D01*
X220093Y35724D01*
Y35626D01*
X219968D01*
Y37444D01*
X220093D01*
Y37313D01*
D02*
G37*
G36*
X224503Y87033D02*
X224377D01*
Y87137D01*
X224372Y87175D01*
X224366Y87219D01*
X224350Y87322D01*
X224333Y87366D01*
X224312Y87404D01*
X224306Y87410D01*
X224301Y87421D01*
X224284Y87437D01*
X224262Y87454D01*
X224235Y87475D01*
X224202Y87497D01*
X224159Y87514D01*
X224115Y87530D01*
X224110D01*
X224104Y87535D01*
X224082D01*
X224055Y87541D01*
X224011D01*
X223951Y87546D01*
X223880D01*
X223787D01*
X222482D01*
X222477D01*
X222466D01*
X222439D01*
X222411D01*
X222379Y87541D01*
X222335D01*
X222242Y87530D01*
X222139Y87519D01*
X222035Y87497D01*
X221936Y87470D01*
X221893Y87454D01*
X221855Y87432D01*
X221844Y87426D01*
X221822Y87410D01*
X221789Y87383D01*
X221751Y87344D01*
X221718Y87290D01*
X221685Y87224D01*
X221663Y87148D01*
X221653Y87055D01*
Y87038D01*
X221658Y87017D01*
Y86984D01*
X221669Y86946D01*
X221674Y86902D01*
X221691Y86853D01*
X221707Y86798D01*
X221734Y86738D01*
X221762Y86673D01*
X221800Y86607D01*
X221844Y86536D01*
X221893Y86460D01*
X221958Y86389D01*
X222024Y86312D01*
X222106Y86236D01*
X223787D01*
X223793D01*
X223804D01*
X223820D01*
X223837D01*
X223891D01*
X223957Y86241D01*
X224028Y86247D01*
X224093Y86252D01*
X224148Y86263D01*
X224170Y86269D01*
X224186Y86274D01*
X224191D01*
X224202Y86285D01*
X224219Y86291D01*
X224241Y86307D01*
X224290Y86351D01*
X224333Y86405D01*
Y86411D01*
X224339Y86422D01*
X224344Y86449D01*
X224355Y86482D01*
X224361Y86531D01*
X224372Y86591D01*
X224377Y86667D01*
Y86755D01*
X224503D01*
Y85182D01*
X224377D01*
Y85286D01*
X224372Y85330D01*
X224361Y85379D01*
X224350Y85433D01*
X224328Y85488D01*
X224295Y85537D01*
X224257Y85575D01*
X224252Y85581D01*
X224235Y85592D01*
X224202Y85602D01*
X224153Y85619D01*
X224088Y85635D01*
X224006Y85652D01*
X223907Y85657D01*
X223787Y85663D01*
X222603D01*
X222597D01*
X222575D01*
X222548D01*
X222510D01*
X222466D01*
X222417D01*
X222302Y85657D01*
X222182D01*
X222073Y85652D01*
X222018Y85646D01*
X221975D01*
X221936Y85641D01*
X221909Y85635D01*
X221904D01*
X221887Y85630D01*
X221866Y85624D01*
X221838Y85613D01*
X221784Y85592D01*
X221762Y85575D01*
X221740Y85553D01*
X221734Y85543D01*
X221718Y85515D01*
X221702Y85471D01*
X221696Y85411D01*
Y85373D01*
X221702Y85346D01*
X221707Y85313D01*
X221718Y85269D01*
X221745Y85177D01*
X221620Y85128D01*
X221232Y86083D01*
Y86236D01*
X221904D01*
X221898Y86241D01*
X221876Y86263D01*
X221844Y86291D01*
X221800Y86329D01*
X221745Y86378D01*
X221691Y86438D01*
X221631Y86503D01*
X221565Y86580D01*
X221505Y86656D01*
X221445Y86738D01*
X221385Y86826D01*
X221336Y86918D01*
X221292Y87011D01*
X221259Y87104D01*
X221238Y87202D01*
X221232Y87295D01*
Y87339D01*
X221238Y87388D01*
X221249Y87448D01*
X221265Y87519D01*
X221287Y87595D01*
X221320Y87672D01*
X221363Y87743D01*
X221369Y87754D01*
X221391Y87776D01*
X221418Y87808D01*
X221467Y87852D01*
X221527Y87896D01*
X221598Y87950D01*
X221691Y87999D01*
X221795Y88043D01*
X221806Y88049D01*
X221833Y88054D01*
X221882Y88065D01*
X221953Y88081D01*
X222040Y88098D01*
X222149Y88109D01*
X222281Y88114D01*
X222433Y88120D01*
X223787D01*
X223793D01*
X223798D01*
X223815D01*
X223837D01*
X223886D01*
X223951Y88125D01*
X224017Y88130D01*
X224088Y88136D01*
X224148Y88147D01*
X224197Y88163D01*
X224202D01*
X224213Y88169D01*
X224246Y88196D01*
X224290Y88234D01*
X224333Y88289D01*
Y88294D01*
X224339Y88305D01*
X224344Y88327D01*
X224355Y88360D01*
X224361Y88403D01*
X224372Y88458D01*
X224377Y88524D01*
Y88605D01*
X224503D01*
Y87033D01*
D02*
G37*
G36*
X219976Y84489D02*
X220009Y84483D01*
X220047Y84467D01*
X220091Y84451D01*
X220135Y84423D01*
X220173Y84390D01*
X220178Y84385D01*
X220189Y84374D01*
X220206Y84352D01*
X220222Y84319D01*
X220244Y84281D01*
X220260Y84243D01*
X220271Y84194D01*
X220277Y84139D01*
Y84117D01*
X220271Y84090D01*
X220266Y84057D01*
X220249Y84019D01*
X220233Y83975D01*
X220206Y83932D01*
X220173Y83894D01*
X220167Y83888D01*
X220157Y83877D01*
X220135Y83861D01*
X220102Y83844D01*
X220069Y83823D01*
X220025Y83806D01*
X219976Y83795D01*
X219927Y83790D01*
X219922D01*
X219900D01*
X219873Y83795D01*
X219840Y83801D01*
X219802Y83812D01*
X219758Y83833D01*
X219714Y83855D01*
X219676Y83888D01*
X219671Y83894D01*
X219660Y83904D01*
X219643Y83926D01*
X219621Y83959D01*
X219605Y83997D01*
X219589Y84035D01*
X219578Y84085D01*
X219572Y84139D01*
Y84167D01*
X219578Y84194D01*
X219583Y84227D01*
X219600Y84265D01*
X219616Y84308D01*
X219643Y84352D01*
X219676Y84390D01*
X219682Y84396D01*
X219692Y84407D01*
X219714Y84423D01*
X219747Y84445D01*
X219785Y84461D01*
X219824Y84478D01*
X219873Y84489D01*
X219927Y84494D01*
X219933D01*
X219949D01*
X219976Y84489D01*
D02*
G37*
G36*
X224503Y83375D02*
X224377D01*
Y83451D01*
X224372Y83500D01*
X224361Y83599D01*
X224350Y83648D01*
X224333Y83681D01*
Y83686D01*
X224323Y83697D01*
X224301Y83730D01*
X224252Y83768D01*
X224224Y83790D01*
X224186Y83812D01*
X224181D01*
X224164Y83817D01*
X224137Y83828D01*
X224099Y83839D01*
X224044Y83844D01*
X223973Y83855D01*
X223891Y83861D01*
X223787D01*
X222559D01*
X222553D01*
X222537D01*
X222510D01*
X222477D01*
X222433D01*
X222390D01*
X222281Y83855D01*
X222171D01*
X222062Y83850D01*
X222013Y83844D01*
X221964Y83839D01*
X221926Y83833D01*
X221893Y83828D01*
X221887D01*
X221876Y83823D01*
X221855Y83817D01*
X221833Y83806D01*
X221784Y83784D01*
X221756Y83768D01*
X221740Y83746D01*
X221734Y83735D01*
X221718Y83713D01*
X221702Y83670D01*
X221696Y83610D01*
Y83571D01*
X221702Y83544D01*
X221707Y83506D01*
X221718Y83468D01*
X221745Y83369D01*
X221620Y83326D01*
X221232Y84281D01*
Y84434D01*
X223787D01*
X223793D01*
X223798D01*
X223815D01*
X223837D01*
X223886D01*
X223951Y84439D01*
X224017Y84445D01*
X224082Y84451D01*
X224142Y84461D01*
X224186Y84472D01*
X224191D01*
X224202Y84483D01*
X224219Y84489D01*
X224241Y84505D01*
X224290Y84543D01*
X224333Y84598D01*
Y84603D01*
X224339Y84614D01*
X224344Y84636D01*
X224355Y84669D01*
X224361Y84712D01*
X224372Y84767D01*
X224377Y84833D01*
Y84915D01*
X224503D01*
Y83375D01*
D02*
G37*
G36*
X219927Y83020D02*
X219938Y82987D01*
X219949Y82943D01*
X219965Y82889D01*
X219987Y82829D01*
X220015Y82763D01*
X220053Y82703D01*
X220091Y82649D01*
X220096Y82643D01*
X220124Y82616D01*
X220162Y82583D01*
X220222Y82539D01*
X220293Y82490D01*
X220386Y82436D01*
X220490Y82381D01*
X220615Y82327D01*
X224606Y80689D01*
Y80558D01*
X220561Y78799D01*
X220555D01*
X220544Y78794D01*
X220533Y78788D01*
X220511Y78777D01*
X220457Y78756D01*
X220397Y78723D01*
X220331Y78696D01*
X220266Y78663D01*
X220217Y78630D01*
X220195Y78619D01*
X220178Y78608D01*
X220173Y78603D01*
X220162Y78592D01*
X220140Y78575D01*
X220118Y78548D01*
X220091Y78515D01*
X220058Y78483D01*
X220009Y78395D01*
X220004Y78390D01*
X219998Y78373D01*
X219987Y78346D01*
X219976Y78308D01*
X219960Y78259D01*
X219949Y78199D01*
X219938Y78128D01*
X219927Y78051D01*
X219802D01*
Y79973D01*
X219927D01*
Y79957D01*
X219933Y79940D01*
Y79919D01*
X219944Y79864D01*
X219954Y79799D01*
X219971Y79728D01*
X219987Y79657D01*
X220015Y79597D01*
X220042Y79547D01*
X220047Y79542D01*
X220058Y79531D01*
X220075Y79515D01*
X220096Y79498D01*
X220124Y79482D01*
X220157Y79466D01*
X220200Y79455D01*
X220244Y79449D01*
X220249D01*
X220277Y79455D01*
X220320Y79460D01*
X220375Y79471D01*
X220451Y79487D01*
X220544Y79520D01*
X220653Y79558D01*
X220784Y79613D01*
X223542Y80809D01*
X220823Y81923D01*
X220817D01*
X220806Y81928D01*
X220784Y81939D01*
X220757Y81950D01*
X220724Y81961D01*
X220686Y81972D01*
X220599Y82004D01*
X220506Y82032D01*
X220413Y82059D01*
X220331Y82075D01*
X220293Y82081D01*
X220260D01*
X220255D01*
X220244D01*
X220222Y82075D01*
X220200Y82070D01*
X220173Y82059D01*
X220140Y82037D01*
X220102Y82015D01*
X220069Y81982D01*
X220064Y81977D01*
X220053Y81966D01*
X220036Y81939D01*
X220020Y81906D01*
X219998Y81857D01*
X219976Y81797D01*
X219954Y81726D01*
X219938Y81644D01*
Y81633D01*
X219933Y81611D01*
X219927Y81584D01*
X219802D01*
Y83031D01*
X219927D01*
Y83020D01*
D02*
G37*
G36*
X220060Y147922D02*
X220131Y147917D01*
X220213Y147911D01*
X220311Y147895D01*
X220421Y147878D01*
X220541Y147851D01*
X220666Y147818D01*
X220797Y147780D01*
X220934Y147731D01*
X221071Y147676D01*
X221207Y147605D01*
X221343Y147523D01*
X221480Y147431D01*
X221605Y147327D01*
X221611Y147321D01*
X221638Y147294D01*
X221671Y147256D01*
X221720Y147201D01*
X221775Y147130D01*
X221835Y147043D01*
X221900Y146939D01*
X221971Y146825D01*
X222037Y146688D01*
X222108Y146541D01*
X222168Y146371D01*
X222222Y146191D01*
X222272Y145989D01*
X222304Y145776D01*
X222326Y145542D01*
X222337Y145296D01*
Y143199D01*
X222212D01*
Y143401D01*
X222206Y143423D01*
X222201Y143472D01*
X222190Y143538D01*
X222168Y143609D01*
X222135Y143674D01*
X222086Y143740D01*
X222026Y143794D01*
X222021Y143800D01*
X222004Y143805D01*
X221966Y143816D01*
X221917Y143833D01*
X221851Y143849D01*
X221808Y143854D01*
X221758Y143860D01*
X221704Y143865D01*
X221644D01*
X221578Y143871D01*
X221507D01*
X218466D01*
X218461D01*
X218444D01*
X218422D01*
X218395D01*
X218362Y143865D01*
X218324D01*
X218231Y143860D01*
X218139Y143849D01*
X218051Y143827D01*
X217969Y143805D01*
X217942Y143789D01*
X217915Y143772D01*
X217909Y143767D01*
X217893Y143745D01*
X217865Y143718D01*
X217838Y143674D01*
X217811Y143614D01*
X217784Y143549D01*
X217767Y143467D01*
X217762Y143374D01*
Y143199D01*
X217636D01*
Y145209D01*
X217642Y145279D01*
Y145367D01*
X217647Y145465D01*
X217658Y145580D01*
X217663Y145700D01*
X217680Y145826D01*
X217696Y145957D01*
X217740Y146224D01*
X217767Y146355D01*
X217794Y146481D01*
X217833Y146595D01*
X217876Y146704D01*
Y146710D01*
X217887Y146726D01*
X217904Y146759D01*
X217920Y146797D01*
X217947Y146841D01*
X217980Y146896D01*
X218018Y146956D01*
X218068Y147021D01*
X218117Y147092D01*
X218177Y147163D01*
X218242Y147234D01*
X218319Y147311D01*
X218395Y147381D01*
X218482Y147458D01*
X218575Y147523D01*
X218679Y147589D01*
X218685Y147594D01*
X218706Y147605D01*
X218734Y147622D01*
X218777Y147644D01*
X218832Y147666D01*
X218892Y147698D01*
X218968Y147725D01*
X219050Y147758D01*
X219138Y147791D01*
X219236Y147818D01*
X219345Y147851D01*
X219460Y147873D01*
X219574Y147895D01*
X219700Y147911D01*
X219831Y147922D01*
X219968Y147927D01*
X219978D01*
X220011D01*
X220060Y147922D01*
D02*
G37*
G36*
X217762Y142762D02*
X217773Y142708D01*
X217784Y142648D01*
X217805Y142577D01*
X217838Y142506D01*
X217887Y142440D01*
X217947Y142386D01*
X217953Y142380D01*
X217969Y142375D01*
X218002Y142364D01*
X218051Y142347D01*
X218117Y142331D01*
X218160Y142326D01*
X218204Y142320D01*
X218259Y142315D01*
X218313D01*
X218379Y142309D01*
X218450D01*
X222408D01*
Y142184D01*
X218630Y139082D01*
X221524D01*
X221529D01*
X221540D01*
X221562D01*
X221595D01*
X221627Y139088D01*
X221666D01*
X221753Y139093D01*
X221851Y139104D01*
X221939Y139121D01*
X222015Y139142D01*
X222048Y139159D01*
X222070Y139175D01*
X222075Y139181D01*
X222092Y139202D01*
X222113Y139230D01*
X222141Y139274D01*
X222168Y139333D01*
X222190Y139404D01*
X222206Y139486D01*
X222212Y139585D01*
Y139754D01*
X222337D01*
Y138105D01*
X222212D01*
Y138296D01*
X222206Y138318D01*
X222201Y138373D01*
X222190Y138433D01*
X222168Y138504D01*
X222135Y138575D01*
X222092Y138640D01*
X222031Y138695D01*
X222026Y138700D01*
X222010Y138706D01*
X221977Y138722D01*
X221928Y138738D01*
X221857Y138749D01*
X221818Y138760D01*
X221769Y138766D01*
X221720Y138771D01*
X221660D01*
X221595Y138777D01*
X221524D01*
X218253D01*
X218248D01*
X218242Y138766D01*
X218215Y138744D01*
X218177Y138706D01*
X218127Y138662D01*
X218073Y138607D01*
X218024Y138558D01*
X217975Y138504D01*
X217942Y138460D01*
X217936Y138454D01*
X217931Y138438D01*
X217915Y138416D01*
X217893Y138383D01*
X217871Y138340D01*
X217849Y138285D01*
X217827Y138225D01*
X217800Y138154D01*
Y138149D01*
X217794Y138138D01*
X217789Y138110D01*
X217784Y138078D01*
X217778Y138034D01*
X217773Y137985D01*
X217767Y137925D01*
Y137854D01*
X217636D01*
Y139121D01*
X221163Y142003D01*
X218450D01*
X218444D01*
X218433D01*
X218411D01*
X218379D01*
X218346Y141998D01*
X218308D01*
X218220Y141992D01*
X218127Y141982D01*
X218040Y141960D01*
X217964Y141938D01*
X217931Y141922D01*
X217909Y141905D01*
X217904Y141900D01*
X217887Y141878D01*
X217860Y141851D01*
X217833Y141807D01*
X217811Y141747D01*
X217784Y141676D01*
X217767Y141594D01*
X217762Y141496D01*
Y141332D01*
X217636D01*
Y142981D01*
X217762D01*
Y142762D01*
D02*
G37*
G36*
X219897Y137706D02*
X219907Y137657D01*
X219918Y137603D01*
X219940Y137537D01*
X219973Y137477D01*
X220022Y137423D01*
X220082Y137379D01*
X220088D01*
X220110Y137368D01*
X220142Y137357D01*
X220197Y137346D01*
X220262Y137335D01*
X220350Y137324D01*
X220459Y137319D01*
X220525Y137313D01*
X220590D01*
X222026D01*
Y137308D01*
X222037Y137297D01*
X222048Y137275D01*
X222059Y137248D01*
X222081Y137210D01*
X222102Y137166D01*
X222124Y137117D01*
X222146Y137068D01*
X222201Y136948D01*
X222250Y136811D01*
X222299Y136674D01*
X222343Y136527D01*
Y136522D01*
X222348Y136511D01*
X222354Y136489D01*
X222359Y136462D01*
X222364Y136423D01*
X222375Y136380D01*
X222381Y136330D01*
X222392Y136276D01*
X222403Y136210D01*
X222408Y136145D01*
X222425Y135997D01*
X222435Y135839D01*
X222441Y135664D01*
Y135604D01*
X222435Y135572D01*
Y135533D01*
X222430Y135490D01*
X222425Y135441D01*
X222414Y135326D01*
X222397Y135195D01*
X222370Y135053D01*
X222332Y134895D01*
X222288Y134731D01*
X222228Y134562D01*
X222157Y134392D01*
X222075Y134218D01*
X221977Y134048D01*
X221857Y133890D01*
X221726Y133737D01*
X221573Y133595D01*
X221567Y133590D01*
X221546Y133573D01*
X221507Y133546D01*
X221458Y133513D01*
X221393Y133475D01*
X221322Y133431D01*
X221234Y133382D01*
X221136Y133333D01*
X221032Y133284D01*
X220918Y133235D01*
X220792Y133191D01*
X220655Y133153D01*
X220519Y133120D01*
X220372Y133093D01*
X220219Y133076D01*
X220060Y133071D01*
X220055D01*
X220033D01*
X220000D01*
X219957Y133076D01*
X219902Y133082D01*
X219836Y133087D01*
X219760Y133098D01*
X219678Y133109D01*
X219591Y133125D01*
X219498Y133142D01*
X219301Y133196D01*
X219198Y133229D01*
X219089Y133267D01*
X218985Y133317D01*
X218876Y133366D01*
X218870Y133371D01*
X218848Y133382D01*
X218810Y133404D01*
X218766Y133431D01*
X218706Y133469D01*
X218641Y133513D01*
X218570Y133562D01*
X218493Y133622D01*
X218411Y133688D01*
X218324Y133759D01*
X218237Y133841D01*
X218149Y133928D01*
X218068Y134021D01*
X217986Y134119D01*
X217909Y134223D01*
X217838Y134338D01*
X217833Y134343D01*
X217827Y134359D01*
X217811Y134392D01*
X217789Y134430D01*
X217767Y134480D01*
X217740Y134540D01*
X217713Y134605D01*
X217685Y134682D01*
X217658Y134769D01*
X217631Y134862D01*
X217603Y134960D01*
X217582Y135069D01*
X217560Y135184D01*
X217543Y135299D01*
X217538Y135424D01*
X217532Y135555D01*
Y135648D01*
X217538Y135708D01*
X217543Y135779D01*
X217549Y135861D01*
X217576Y136019D01*
Y136030D01*
X217587Y136057D01*
X217598Y136107D01*
X217614Y136172D01*
X217642Y136254D01*
X217674Y136358D01*
X217713Y136478D01*
X217762Y136614D01*
X217767Y136625D01*
X217773Y136647D01*
X217784Y136680D01*
X217794Y136718D01*
X217822Y136805D01*
X217827Y136844D01*
X217833Y136871D01*
Y136882D01*
X217827Y136909D01*
X217805Y136948D01*
X217794Y136969D01*
X217773Y136986D01*
X217767D01*
X217762Y136991D01*
X217745Y137002D01*
X217718Y137013D01*
X217685Y137024D01*
X217647Y137029D01*
X217593Y137040D01*
X217532Y137046D01*
Y137171D01*
X219018Y137292D01*
Y137166D01*
X219012D01*
X218996Y137155D01*
X218963Y137150D01*
X218925Y137133D01*
X218881Y137117D01*
X218826Y137090D01*
X218772Y137068D01*
X218706Y137035D01*
X218570Y136969D01*
X218433Y136887D01*
X218302Y136795D01*
X218242Y136746D01*
X218188Y136691D01*
X218182Y136685D01*
X218171Y136669D01*
X218149Y136647D01*
X218122Y136614D01*
X218095Y136576D01*
X218057Y136522D01*
X218018Y136467D01*
X217980Y136401D01*
X217942Y136325D01*
X217909Y136243D01*
X217871Y136156D01*
X217844Y136057D01*
X217816Y135959D01*
X217794Y135850D01*
X217784Y135735D01*
X217778Y135615D01*
Y135577D01*
X217784Y135528D01*
X217789Y135468D01*
X217800Y135391D01*
X217816Y135310D01*
X217838Y135211D01*
X217865Y135108D01*
X217904Y134998D01*
X217953Y134889D01*
X218007Y134774D01*
X218078Y134660D01*
X218160Y134550D01*
X218253Y134441D01*
X218362Y134343D01*
X218488Y134250D01*
X218493Y134245D01*
X218515Y134234D01*
X218548Y134212D01*
X218597Y134190D01*
X218652Y134163D01*
X218723Y134130D01*
X218799Y134092D01*
X218892Y134059D01*
X218990Y134021D01*
X219099Y133983D01*
X219219Y133950D01*
X219340Y133923D01*
X219476Y133901D01*
X219613Y133879D01*
X219760Y133868D01*
X219913Y133863D01*
X219918D01*
X219940D01*
X219978D01*
X220028Y133868D01*
X220088D01*
X220153Y133879D01*
X220235Y133884D01*
X220317Y133895D01*
X220410Y133906D01*
X220508Y133928D01*
X220716Y133972D01*
X220929Y134037D01*
X221038Y134075D01*
X221141Y134119D01*
X221147Y134125D01*
X221163Y134130D01*
X221196Y134146D01*
X221229Y134168D01*
X221278Y134196D01*
X221327Y134223D01*
X221387Y134261D01*
X221447Y134305D01*
X221578Y134403D01*
X221715Y134518D01*
X221840Y134654D01*
X221900Y134725D01*
X221950Y134802D01*
Y134807D01*
X221960Y134818D01*
X221971Y134845D01*
X221988Y134873D01*
X222010Y134911D01*
X222031Y134960D01*
X222053Y135009D01*
X222075Y135069D01*
X222124Y135195D01*
X222168Y135342D01*
X222195Y135501D01*
X222201Y135582D01*
X222206Y135664D01*
Y135708D01*
X222201Y135757D01*
X222195Y135823D01*
X222190Y135899D01*
X222179Y135981D01*
X222163Y136068D01*
X222141Y136161D01*
Y136167D01*
X222135Y136172D01*
X222130Y136205D01*
X222113Y136249D01*
X222092Y136314D01*
X222064Y136385D01*
X222031Y136467D01*
X221993Y136549D01*
X221950Y136636D01*
X220590D01*
X220585D01*
X220574D01*
X220557D01*
X220530D01*
X220470D01*
X220399Y136631D01*
X220322Y136625D01*
X220246Y136614D01*
X220175Y136598D01*
X220148Y136593D01*
X220126Y136582D01*
X220120D01*
X220110Y136571D01*
X220088Y136560D01*
X220066Y136538D01*
X220039Y136516D01*
X220006Y136489D01*
X219978Y136451D01*
X219957Y136412D01*
X219951Y136407D01*
X219946Y136391D01*
X219935Y136363D01*
X219924Y136325D01*
X219913Y136270D01*
X219907Y136199D01*
X219897Y136118D01*
Y136019D01*
X219771D01*
Y137838D01*
X219897D01*
Y137706D01*
D02*
G37*
%LPC*%
G36*
X68298Y78203D02*
X68249D01*
X68195Y78198D01*
X68124Y78187D01*
X68047Y78171D01*
X67960Y78149D01*
X67878Y78121D01*
X67801Y78078D01*
X67791Y78072D01*
X67769Y78056D01*
X67736Y78023D01*
X67692Y77985D01*
X67643Y77930D01*
X67594Y77865D01*
X67539Y77788D01*
X67496Y77701D01*
X67490Y77690D01*
X67479Y77657D01*
X67457Y77608D01*
X67436Y77537D01*
X67414Y77450D01*
X67386Y77346D01*
X67365Y77226D01*
X67348Y77089D01*
Y77084D01*
Y77073D01*
X67343Y77051D01*
Y77024D01*
X67337Y76991D01*
Y76947D01*
X67332Y76898D01*
Y76844D01*
X67321Y76724D01*
X67316Y76582D01*
X67310Y76429D01*
Y76265D01*
Y76259D01*
Y76243D01*
Y76216D01*
Y76183D01*
Y76139D01*
Y76090D01*
X67316Y76036D01*
Y75976D01*
Y75845D01*
X67326Y75708D01*
X67332Y75566D01*
X67343Y75435D01*
Y75430D01*
Y75419D01*
X67348Y75402D01*
Y75380D01*
X67359Y75315D01*
X67375Y75239D01*
X67392Y75146D01*
X67419Y75047D01*
X67452Y74944D01*
X67490Y74840D01*
X67496Y74829D01*
X67512Y74802D01*
X67534Y74758D01*
X67567Y74703D01*
X67610Y74638D01*
X67659Y74578D01*
X67720Y74518D01*
X67785Y74463D01*
X67796Y74458D01*
X67818Y74441D01*
X67861Y74425D01*
X67922Y74403D01*
X67993Y74376D01*
X68080Y74360D01*
X68184Y74343D01*
X68298Y74338D01*
X68347D01*
X68402Y74343D01*
X68473Y74354D01*
X68549Y74365D01*
X68631Y74387D01*
X68713Y74419D01*
X68790Y74458D01*
X68801Y74463D01*
X68822Y74480D01*
X68855Y74512D01*
X68904Y74550D01*
X68954Y74605D01*
X69003Y74671D01*
X69052Y74747D01*
X69095Y74835D01*
Y74840D01*
X69101Y74845D01*
X69106Y74862D01*
X69112Y74878D01*
X69134Y74933D01*
X69156Y75004D01*
X69177Y75097D01*
X69205Y75195D01*
X69226Y75309D01*
X69243Y75435D01*
Y75441D01*
Y75451D01*
X69248Y75473D01*
Y75495D01*
X69254Y75533D01*
X69259Y75572D01*
Y75621D01*
X69265Y75670D01*
X69270Y75730D01*
X69276Y75795D01*
X69281Y75937D01*
X69287Y76096D01*
Y76271D01*
Y76276D01*
Y76292D01*
Y76320D01*
Y76352D01*
Y76391D01*
Y76440D01*
X69281Y76494D01*
Y76554D01*
X69276Y76685D01*
X69270Y76827D01*
X69259Y76969D01*
X69243Y77106D01*
Y77111D01*
Y77122D01*
X69237Y77139D01*
Y77166D01*
X69232Y77199D01*
X69226Y77231D01*
X69210Y77313D01*
X69188Y77412D01*
X69161Y77510D01*
X69128Y77614D01*
X69090Y77712D01*
Y77717D01*
X69085Y77723D01*
X69068Y77750D01*
X69046Y77794D01*
X69014Y77848D01*
X68970Y77908D01*
X68915Y77969D01*
X68855Y78029D01*
X68790Y78078D01*
X68779Y78083D01*
X68757Y78100D01*
X68713Y78116D01*
X68659Y78143D01*
X68588Y78165D01*
X68500Y78181D01*
X68407Y78198D01*
X68298Y78203D01*
D02*
G37*
G36*
X64187Y78203D02*
X64138D01*
X64083Y78198D01*
X64012Y78187D01*
X63936Y78171D01*
X63848Y78149D01*
X63766Y78121D01*
X63690Y78078D01*
X63679Y78072D01*
X63657Y78056D01*
X63625Y78023D01*
X63581Y77985D01*
X63532Y77930D01*
X63482Y77865D01*
X63428Y77788D01*
X63384Y77701D01*
X63379Y77690D01*
X63368Y77657D01*
X63346Y77608D01*
X63324Y77537D01*
X63302Y77450D01*
X63275Y77346D01*
X63253Y77226D01*
X63237Y77089D01*
Y77084D01*
Y77073D01*
X63231Y77051D01*
Y77024D01*
X63226Y76991D01*
Y76947D01*
X63221Y76898D01*
Y76844D01*
X63209Y76724D01*
X63204Y76582D01*
X63199Y76429D01*
Y76265D01*
Y76259D01*
Y76243D01*
Y76216D01*
Y76183D01*
Y76139D01*
Y76090D01*
X63204Y76036D01*
Y75976D01*
Y75845D01*
X63215Y75708D01*
X63221Y75566D01*
X63231Y75435D01*
Y75430D01*
Y75419D01*
X63237Y75402D01*
Y75380D01*
X63248Y75315D01*
X63264Y75239D01*
X63280Y75146D01*
X63308Y75047D01*
X63341Y74944D01*
X63379Y74840D01*
X63384Y74829D01*
X63401Y74802D01*
X63423Y74758D01*
X63455Y74703D01*
X63499Y74638D01*
X63548Y74578D01*
X63608Y74518D01*
X63674Y74463D01*
X63685Y74458D01*
X63706Y74441D01*
X63750Y74425D01*
X63810Y74403D01*
X63881Y74376D01*
X63968Y74359D01*
X64072Y74343D01*
X64187Y74338D01*
X64236D01*
X64291Y74343D01*
X64362Y74354D01*
X64438Y74365D01*
X64520Y74387D01*
X64602Y74419D01*
X64678Y74458D01*
X64689Y74463D01*
X64711Y74480D01*
X64744Y74512D01*
X64793Y74550D01*
X64842Y74605D01*
X64891Y74671D01*
X64940Y74747D01*
X64984Y74835D01*
Y74840D01*
X64990Y74845D01*
X64995Y74862D01*
X65000Y74878D01*
X65022Y74933D01*
X65044Y75004D01*
X65066Y75097D01*
X65093Y75195D01*
X65115Y75309D01*
X65131Y75435D01*
Y75441D01*
Y75451D01*
X65137Y75473D01*
Y75495D01*
X65142Y75533D01*
X65148Y75572D01*
Y75621D01*
X65153Y75670D01*
X65159Y75730D01*
X65164Y75795D01*
X65170Y75937D01*
X65175Y76096D01*
Y76271D01*
Y76276D01*
Y76292D01*
Y76320D01*
Y76352D01*
Y76391D01*
Y76440D01*
X65170Y76494D01*
Y76554D01*
X65164Y76685D01*
X65159Y76827D01*
X65148Y76969D01*
X65131Y77106D01*
Y77111D01*
Y77122D01*
X65126Y77139D01*
Y77166D01*
X65121Y77199D01*
X65115Y77231D01*
X65099Y77313D01*
X65077Y77412D01*
X65050Y77510D01*
X65017Y77614D01*
X64979Y77712D01*
Y77717D01*
X64973Y77723D01*
X64957Y77750D01*
X64935Y77794D01*
X64902Y77848D01*
X64859Y77908D01*
X64804Y77969D01*
X64744Y78029D01*
X64678Y78078D01*
X64667Y78083D01*
X64645Y78100D01*
X64602Y78116D01*
X64547Y78143D01*
X64476Y78165D01*
X64389Y78181D01*
X64296Y78198D01*
X64187Y78203D01*
D02*
G37*
G36*
X65432Y91852D02*
X64607Y89548D01*
X66256Y89548D01*
X65432Y91852D01*
D02*
G37*
G36*
X40671Y90803D02*
X40627D01*
X40594Y90798D01*
X40551Y90793D01*
X40507Y90787D01*
X40398Y90760D01*
X40277Y90722D01*
X40218Y90694D01*
X40152Y90662D01*
X40092Y90623D01*
X40032Y90580D01*
X39977Y90530D01*
X39923Y90470D01*
X39917Y90465D01*
X39912Y90454D01*
X39901Y90438D01*
X39879Y90410D01*
X39863Y90372D01*
X39841Y90328D01*
X39813Y90279D01*
X39792Y90219D01*
X39764Y90154D01*
X39742Y90077D01*
X39715Y89995D01*
X39699Y89903D01*
X39682Y89804D01*
X39666Y89695D01*
X39661Y89580D01*
X39655Y89455D01*
Y89449D01*
Y89428D01*
Y89389D01*
X39661Y89346D01*
X39666Y89291D01*
X39671Y89226D01*
X39677Y89160D01*
X39688Y89084D01*
X39721Y88920D01*
X39770Y88756D01*
X39797Y88674D01*
X39835Y88598D01*
X39873Y88521D01*
X39923Y88456D01*
X39928Y88450D01*
X39934Y88439D01*
X39950Y88423D01*
X39972Y88401D01*
X39999Y88379D01*
X40032Y88346D01*
X40070Y88319D01*
X40119Y88286D01*
X40168Y88254D01*
X40223Y88226D01*
X40283Y88194D01*
X40354Y88172D01*
X40425Y88150D01*
X40501Y88134D01*
X40583Y88123D01*
X40671Y88117D01*
X40714D01*
X40747Y88123D01*
X40791Y88128D01*
X40835Y88134D01*
X40944Y88161D01*
X41064Y88199D01*
X41124Y88226D01*
X41189Y88259D01*
X41249Y88297D01*
X41309Y88341D01*
X41364Y88390D01*
X41419Y88450D01*
X41424Y88456D01*
X41430Y88467D01*
X41446Y88488D01*
X41462Y88516D01*
X41484Y88548D01*
X41506Y88592D01*
X41528Y88641D01*
X41555Y88701D01*
X41583Y88772D01*
X41604Y88843D01*
X41626Y88925D01*
X41648Y89018D01*
X41664Y89116D01*
X41681Y89220D01*
X41686Y89335D01*
X41692Y89455D01*
Y89460D01*
Y89488D01*
Y89520D01*
X41686Y89569D01*
Y89624D01*
X41675Y89690D01*
X41670Y89761D01*
X41659Y89837D01*
X41626Y90001D01*
X41577Y90170D01*
X41544Y90252D01*
X41511Y90334D01*
X41468Y90405D01*
X41419Y90470D01*
X41413Y90476D01*
X41408Y90487D01*
X41391Y90503D01*
X41370Y90525D01*
X41342Y90547D01*
X41309Y90574D01*
X41271Y90607D01*
X41228Y90640D01*
X41173Y90667D01*
X41118Y90700D01*
X41058Y90727D01*
X40993Y90754D01*
X40916Y90771D01*
X40840Y90787D01*
X40758Y90798D01*
X40671Y90803D01*
D02*
G37*
G36*
X67348Y98873D02*
X67299D01*
X67244Y98867D01*
X67173Y98856D01*
X67097Y98840D01*
X67010Y98818D01*
X66928Y98791D01*
X66851Y98747D01*
X66840Y98742D01*
X66819Y98725D01*
X66786Y98692D01*
X66742Y98654D01*
X66693Y98600D01*
X66644Y98534D01*
X66589Y98458D01*
X66546Y98370D01*
X66540Y98359D01*
X66529Y98327D01*
X66507Y98277D01*
X66486Y98207D01*
X66464Y98119D01*
X66436Y98015D01*
X66415Y97895D01*
X66398Y97759D01*
Y97753D01*
Y97742D01*
X66393Y97720D01*
Y97693D01*
X66387Y97660D01*
Y97617D01*
X66382Y97568D01*
Y97513D01*
X66371Y97393D01*
X66365Y97251D01*
X66360Y97098D01*
Y96934D01*
Y96929D01*
Y96912D01*
Y96885D01*
Y96852D01*
Y96809D01*
Y96760D01*
X66365Y96705D01*
Y96645D01*
Y96514D01*
X66376Y96377D01*
X66382Y96235D01*
X66393Y96104D01*
Y96099D01*
Y96088D01*
X66398Y96072D01*
Y96050D01*
X66409Y95984D01*
X66426Y95908D01*
X66442Y95815D01*
X66469Y95717D01*
X66502Y95613D01*
X66540Y95509D01*
X66546Y95498D01*
X66562Y95471D01*
X66584Y95427D01*
X66617Y95373D01*
X66660Y95307D01*
X66709Y95247D01*
X66769Y95187D01*
X66835Y95132D01*
X66846Y95127D01*
X66868Y95111D01*
X66911Y95094D01*
X66971Y95072D01*
X67042Y95045D01*
X67130Y95029D01*
X67234Y95012D01*
X67348Y95007D01*
X67397D01*
X67452Y95012D01*
X67523Y95023D01*
X67599Y95034D01*
X67681Y95056D01*
X67763Y95089D01*
X67840Y95127D01*
X67851Y95132D01*
X67872Y95149D01*
X67905Y95182D01*
X67954Y95220D01*
X68003Y95274D01*
X68053Y95340D01*
X68102Y95416D01*
X68145Y95504D01*
Y95509D01*
X68151Y95515D01*
X68156Y95531D01*
X68162Y95547D01*
X68184Y95602D01*
X68205Y95673D01*
X68227Y95766D01*
X68255Y95864D01*
X68276Y95979D01*
X68293Y96104D01*
Y96110D01*
Y96121D01*
X68298Y96143D01*
Y96164D01*
X68304Y96203D01*
X68309Y96241D01*
Y96290D01*
X68315Y96339D01*
X68320Y96399D01*
X68326Y96465D01*
X68331Y96607D01*
X68336Y96765D01*
Y96940D01*
Y96945D01*
Y96962D01*
Y96989D01*
Y97022D01*
Y97060D01*
Y97109D01*
X68331Y97164D01*
Y97224D01*
X68326Y97355D01*
X68320Y97497D01*
X68309Y97639D01*
X68293Y97775D01*
Y97781D01*
Y97791D01*
X68287Y97808D01*
Y97835D01*
X68282Y97868D01*
X68276Y97901D01*
X68260Y97983D01*
X68238Y98081D01*
X68211Y98179D01*
X68178Y98283D01*
X68140Y98381D01*
Y98387D01*
X68134Y98392D01*
X68118Y98419D01*
X68096Y98463D01*
X68063Y98518D01*
X68020Y98578D01*
X67965Y98638D01*
X67905Y98698D01*
X67840Y98747D01*
X67829Y98752D01*
X67807Y98769D01*
X67763Y98785D01*
X67709Y98813D01*
X67638Y98834D01*
X67550Y98851D01*
X67457Y98867D01*
X67348Y98873D01*
D02*
G37*
G36*
X42718Y97693D02*
X42674D01*
X42642Y97688D01*
X42598Y97682D01*
X42554Y97677D01*
X42445Y97650D01*
X42325Y97611D01*
X42265Y97584D01*
X42200Y97551D01*
X42139Y97513D01*
X42079Y97469D01*
X42025Y97420D01*
X41970Y97360D01*
X41965Y97355D01*
X41959Y97344D01*
X41948Y97327D01*
X41927Y97300D01*
X41910Y97262D01*
X41888Y97218D01*
X41861Y97169D01*
X41839Y97109D01*
X41812Y97044D01*
X41790Y96967D01*
X41763Y96885D01*
X41746Y96792D01*
X41730Y96694D01*
X41714Y96585D01*
X41708Y96470D01*
X41703Y96345D01*
Y96339D01*
Y96317D01*
Y96279D01*
X41708Y96235D01*
X41714Y96181D01*
X41719Y96115D01*
X41724Y96050D01*
X41735Y95973D01*
X41768Y95810D01*
X41817Y95646D01*
X41845Y95564D01*
X41883Y95487D01*
X41921Y95411D01*
X41970Y95345D01*
X41976Y95340D01*
X41981Y95329D01*
X41997Y95313D01*
X42019Y95291D01*
X42047Y95269D01*
X42079Y95236D01*
X42118Y95209D01*
X42167Y95176D01*
X42216Y95143D01*
X42270Y95116D01*
X42331Y95083D01*
X42401Y95061D01*
X42472Y95040D01*
X42549Y95023D01*
X42631Y95012D01*
X42718Y95007D01*
X42762D01*
X42795Y95012D01*
X42838Y95018D01*
X42882Y95023D01*
X42991Y95051D01*
X43111Y95089D01*
X43171Y95116D01*
X43237Y95149D01*
X43297Y95187D01*
X43357Y95231D01*
X43412Y95280D01*
X43466Y95340D01*
X43472Y95345D01*
X43477Y95356D01*
X43494Y95378D01*
X43510Y95406D01*
X43532Y95438D01*
X43554Y95482D01*
X43575Y95531D01*
X43603Y95591D01*
X43630Y95662D01*
X43652Y95733D01*
X43674Y95815D01*
X43696Y95908D01*
X43712Y96006D01*
X43728Y96110D01*
X43734Y96224D01*
X43739Y96345D01*
Y96350D01*
Y96377D01*
Y96410D01*
X43734Y96459D01*
Y96514D01*
X43723Y96579D01*
X43717Y96650D01*
X43706Y96727D01*
X43674Y96891D01*
X43624Y97060D01*
X43592Y97142D01*
X43559Y97224D01*
X43515Y97295D01*
X43466Y97360D01*
X43461Y97366D01*
X43455Y97377D01*
X43439Y97393D01*
X43417Y97415D01*
X43390Y97437D01*
X43357Y97464D01*
X43319Y97497D01*
X43275Y97529D01*
X43220Y97557D01*
X43166Y97589D01*
X43106Y97617D01*
X43040Y97644D01*
X42964Y97660D01*
X42887Y97677D01*
X42805Y97688D01*
X42718Y97693D01*
D02*
G37*
G36*
X77618Y106876D02*
X76789D01*
Y105102D01*
X77466D01*
X77526Y105107D01*
X77597D01*
X77673Y105113D01*
X77760Y105123D01*
X77848Y105134D01*
X77935Y105151D01*
X77946Y105156D01*
X77973Y105162D01*
X78012Y105178D01*
X78066Y105194D01*
X78126Y105222D01*
X78186Y105255D01*
X78252Y105298D01*
X78312Y105347D01*
X78317Y105353D01*
X78334Y105369D01*
X78361Y105396D01*
X78394Y105435D01*
X78427Y105478D01*
X78465Y105528D01*
X78497Y105588D01*
X78525Y105648D01*
X78530Y105659D01*
X78536Y105680D01*
X78547Y105719D01*
X78563Y105768D01*
X78574Y105833D01*
X78585Y105910D01*
X78590Y105992D01*
X78596Y106090D01*
Y106101D01*
Y106123D01*
X78590Y106161D01*
X78585Y106210D01*
X78579Y106265D01*
X78563Y106325D01*
X78547Y106385D01*
X78519Y106445D01*
X78514Y106450D01*
X78509Y106472D01*
X78487Y106499D01*
X78465Y106538D01*
X78432Y106576D01*
X78388Y106625D01*
X78339Y106669D01*
X78285Y106707D01*
X78279Y106712D01*
X78263Y106723D01*
X78230Y106740D01*
X78192Y106756D01*
X78148Y106778D01*
X78093Y106800D01*
X78028Y106822D01*
X77962Y106838D01*
X77952D01*
X77930Y106843D01*
X77891Y106849D01*
X77837Y106860D01*
X77777Y106865D01*
X77700Y106871D01*
X77618Y106876D01*
D02*
G37*
G36*
X95828Y105844D02*
X95697D01*
X95664Y105839D01*
X95620Y105833D01*
X95576Y105828D01*
X95467Y105812D01*
X95347Y105773D01*
X95222Y105724D01*
X95156Y105691D01*
X95096Y105653D01*
X95036Y105610D01*
X94981Y105560D01*
X94976Y105555D01*
X94970Y105549D01*
X94954Y105533D01*
X94938Y105511D01*
X94916Y105484D01*
X94889Y105451D01*
X94834Y105369D01*
X94779Y105271D01*
X94730Y105151D01*
X94686Y105014D01*
X94675Y104943D01*
X94665Y104867D01*
X96685D01*
Y104872D01*
Y104889D01*
Y104911D01*
X96679Y104943D01*
X96674Y104982D01*
X96668Y105025D01*
X96652Y105129D01*
X96625Y105249D01*
X96581Y105369D01*
X96521Y105484D01*
X96445Y105588D01*
Y105593D01*
X96434Y105598D01*
X96423Y105610D01*
X96401Y105626D01*
X96379Y105648D01*
X96346Y105669D01*
X96314Y105691D01*
X96270Y105719D01*
X96226Y105740D01*
X96172Y105762D01*
X96117Y105784D01*
X96051Y105806D01*
X95981Y105822D01*
X95910Y105833D01*
X95828Y105844D01*
D02*
G37*
G36*
X89423D02*
X89292D01*
X89259Y105839D01*
X89215Y105833D01*
X89172Y105828D01*
X89063Y105812D01*
X88942Y105773D01*
X88817Y105724D01*
X88751Y105691D01*
X88691Y105653D01*
X88631Y105610D01*
X88577Y105560D01*
X88571Y105555D01*
X88566Y105549D01*
X88549Y105533D01*
X88533Y105511D01*
X88511Y105484D01*
X88484Y105451D01*
X88429Y105369D01*
X88375Y105271D01*
X88326Y105151D01*
X88282Y105014D01*
X88271Y104943D01*
X88260Y104867D01*
X90280D01*
Y104872D01*
Y104889D01*
Y104911D01*
X90275Y104943D01*
X90269Y104982D01*
X90264Y105025D01*
X90247Y105129D01*
X90220Y105249D01*
X90176Y105369D01*
X90116Y105484D01*
X90040Y105588D01*
Y105593D01*
X90029Y105598D01*
X90018Y105610D01*
X89996Y105626D01*
X89974Y105648D01*
X89942Y105669D01*
X89909Y105691D01*
X89865Y105719D01*
X89822Y105740D01*
X89767Y105762D01*
X89712Y105784D01*
X89647Y105806D01*
X89576Y105822D01*
X89505Y105833D01*
X89423Y105844D01*
D02*
G37*
G36*
X81986Y105817D02*
X81943D01*
X81910Y105812D01*
X81866Y105806D01*
X81823Y105801D01*
X81713Y105773D01*
X81593Y105735D01*
X81533Y105708D01*
X81468Y105675D01*
X81408Y105637D01*
X81348Y105593D01*
X81293Y105544D01*
X81239Y105484D01*
X81233Y105478D01*
X81227Y105467D01*
X81217Y105451D01*
X81195Y105424D01*
X81178Y105386D01*
X81157Y105342D01*
X81129Y105293D01*
X81107Y105233D01*
X81080Y105167D01*
X81058Y105091D01*
X81031Y105009D01*
X81015Y104916D01*
X80998Y104818D01*
X80982Y104709D01*
X80976Y104594D01*
X80971Y104468D01*
Y104463D01*
Y104441D01*
Y104403D01*
X80976Y104359D01*
X80982Y104305D01*
X80987Y104239D01*
X80993Y104174D01*
X81004Y104097D01*
X81036Y103933D01*
X81086Y103769D01*
X81113Y103688D01*
X81151Y103611D01*
X81189Y103535D01*
X81239Y103469D01*
X81244Y103464D01*
X81249Y103453D01*
X81266Y103436D01*
X81288Y103414D01*
X81315Y103393D01*
X81348Y103360D01*
X81386Y103333D01*
X81435Y103300D01*
X81484Y103267D01*
X81539Y103240D01*
X81599Y103207D01*
X81670Y103185D01*
X81741Y103163D01*
X81817Y103147D01*
X81899Y103136D01*
X81986Y103131D01*
X82030D01*
X82063Y103136D01*
X82107Y103141D01*
X82150Y103147D01*
X82260Y103174D01*
X82380Y103212D01*
X82440Y103240D01*
X82505Y103273D01*
X82565Y103311D01*
X82625Y103355D01*
X82680Y103404D01*
X82735Y103464D01*
X82740Y103469D01*
X82745Y103480D01*
X82762Y103502D01*
X82778Y103529D01*
X82800Y103562D01*
X82822Y103606D01*
X82844Y103655D01*
X82871Y103715D01*
X82898Y103786D01*
X82920Y103857D01*
X82942Y103939D01*
X82964Y104032D01*
X82980Y104130D01*
X82997Y104234D01*
X83002Y104348D01*
X83008Y104468D01*
Y104474D01*
Y104501D01*
Y104534D01*
X83002Y104583D01*
Y104638D01*
X82991Y104703D01*
X82986Y104774D01*
X82975Y104850D01*
X82942Y105014D01*
X82893Y105184D01*
X82860Y105265D01*
X82827Y105347D01*
X82784Y105418D01*
X82735Y105484D01*
X82729Y105489D01*
X82724Y105500D01*
X82707Y105517D01*
X82685Y105538D01*
X82658Y105560D01*
X82625Y105588D01*
X82587Y105620D01*
X82543Y105653D01*
X82489Y105680D01*
X82434Y105713D01*
X82374Y105740D01*
X82309Y105768D01*
X82232Y105784D01*
X82156Y105801D01*
X82074Y105812D01*
X81986Y105817D01*
D02*
G37*
G36*
X64329Y105817D02*
X64285D01*
X64252Y105812D01*
X64209Y105806D01*
X64165Y105800D01*
X64056Y105773D01*
X63936Y105735D01*
X63876Y105708D01*
X63810Y105675D01*
X63750Y105637D01*
X63690Y105593D01*
X63635Y105544D01*
X63581Y105484D01*
X63575Y105478D01*
X63570Y105467D01*
X63559Y105451D01*
X63537Y105424D01*
X63521Y105386D01*
X63499Y105342D01*
X63472Y105293D01*
X63450Y105233D01*
X63423Y105167D01*
X63401Y105091D01*
X63373Y105009D01*
X63357Y104916D01*
X63341Y104818D01*
X63324Y104709D01*
X63319Y104594D01*
X63313Y104468D01*
Y104463D01*
Y104441D01*
Y104403D01*
X63319Y104359D01*
X63324Y104305D01*
X63330Y104239D01*
X63335Y104174D01*
X63346Y104097D01*
X63379Y103933D01*
X63428Y103769D01*
X63455Y103688D01*
X63494Y103611D01*
X63532Y103535D01*
X63581Y103469D01*
X63586Y103464D01*
X63592Y103453D01*
X63608Y103436D01*
X63630Y103414D01*
X63657Y103393D01*
X63690Y103360D01*
X63728Y103333D01*
X63777Y103300D01*
X63827Y103267D01*
X63881Y103240D01*
X63941Y103207D01*
X64012Y103185D01*
X64083Y103163D01*
X64160Y103147D01*
X64241Y103136D01*
X64329Y103131D01*
X64372D01*
X64405Y103136D01*
X64449Y103141D01*
X64493Y103147D01*
X64602Y103174D01*
X64722Y103212D01*
X64782Y103240D01*
X64847Y103273D01*
X64908Y103311D01*
X64968Y103355D01*
X65022Y103404D01*
X65077Y103464D01*
X65082Y103469D01*
X65088Y103480D01*
X65104Y103502D01*
X65121Y103529D01*
X65142Y103562D01*
X65164Y103606D01*
X65186Y103655D01*
X65213Y103715D01*
X65241Y103786D01*
X65263Y103857D01*
X65284Y103939D01*
X65306Y104032D01*
X65323Y104130D01*
X65339Y104234D01*
X65344Y104348D01*
X65350Y104468D01*
Y104474D01*
Y104501D01*
Y104534D01*
X65344Y104583D01*
Y104638D01*
X65333Y104703D01*
X65328Y104774D01*
X65317Y104850D01*
X65284Y105014D01*
X65235Y105184D01*
X65202Y105265D01*
X65170Y105347D01*
X65126Y105418D01*
X65077Y105484D01*
X65071Y105489D01*
X65066Y105500D01*
X65050Y105517D01*
X65028Y105538D01*
X65000Y105560D01*
X64968Y105588D01*
X64929Y105620D01*
X64886Y105653D01*
X64831Y105680D01*
X64777Y105713D01*
X64717Y105740D01*
X64651Y105768D01*
X64574Y105784D01*
X64498Y105800D01*
X64416Y105812D01*
X64329Y105817D01*
D02*
G37*
G36*
X54812Y105768D02*
X54768D01*
X54719Y105762D01*
X54648Y105751D01*
X54572Y105740D01*
X54484Y105719D01*
X54386Y105691D01*
X54288Y105653D01*
X54282D01*
X54277Y105648D01*
X54244Y105631D01*
X54190Y105609D01*
X54124Y105577D01*
X54053Y105533D01*
X53966Y105484D01*
X53884Y105424D01*
X53796Y105364D01*
Y103344D01*
X53802D01*
X53807Y103338D01*
X53840Y103327D01*
X53884Y103305D01*
X53944Y103284D01*
X54015Y103256D01*
X54086Y103234D01*
X54157Y103212D01*
X54228Y103191D01*
X54239D01*
X54261Y103185D01*
X54299Y103180D01*
X54348Y103169D01*
X54413Y103163D01*
X54479Y103152D01*
X54561Y103147D01*
X54692D01*
X54725Y103152D01*
X54768Y103158D01*
X54817Y103163D01*
X54927Y103185D01*
X55052Y103223D01*
X55112Y103251D01*
X55178Y103284D01*
X55243Y103322D01*
X55304Y103365D01*
X55364Y103414D01*
X55418Y103469D01*
X55424Y103475D01*
X55429Y103486D01*
X55445Y103502D01*
X55462Y103529D01*
X55484Y103567D01*
X55506Y103606D01*
X55533Y103660D01*
X55560Y103715D01*
X55587Y103780D01*
X55615Y103857D01*
X55637Y103939D01*
X55658Y104032D01*
X55675Y104130D01*
X55691Y104239D01*
X55697Y104354D01*
X55702Y104479D01*
Y104485D01*
Y104507D01*
Y104539D01*
X55697Y104583D01*
Y104638D01*
X55691Y104698D01*
X55686Y104763D01*
X55675Y104840D01*
X55653Y104992D01*
X55615Y105151D01*
X55560Y105304D01*
X55527Y105375D01*
X55489Y105440D01*
Y105446D01*
X55478Y105457D01*
X55467Y105473D01*
X55451Y105489D01*
X55396Y105544D01*
X55364Y105571D01*
X55325Y105604D01*
X55282Y105637D01*
X55233Y105664D01*
X55178Y105691D01*
X55118Y105719D01*
X55047Y105735D01*
X54976Y105751D01*
X54899Y105762D01*
X54812Y105768D01*
D02*
G37*
G36*
X38083Y105800D02*
X38034D01*
X38001Y105795D01*
X37962Y105790D01*
X37913Y105784D01*
X37804Y105757D01*
X37679Y105719D01*
X37613Y105691D01*
X37547Y105659D01*
X37482Y105620D01*
X37422Y105577D01*
X37362Y105527D01*
X37307Y105467D01*
X37302Y105462D01*
X37296Y105451D01*
X37280Y105435D01*
X37264Y105407D01*
X37242Y105375D01*
X37220Y105331D01*
X37193Y105282D01*
X37171Y105227D01*
X37143Y105162D01*
X37116Y105091D01*
X37094Y105014D01*
X37073Y104927D01*
X37056Y104834D01*
X37040Y104736D01*
X37034Y104632D01*
X37029Y104517D01*
Y104512D01*
Y104490D01*
Y104463D01*
X37034Y104419D01*
Y104370D01*
X37040Y104315D01*
X37045Y104250D01*
X37056Y104184D01*
X37078Y104037D01*
X37116Y103884D01*
X37165Y103742D01*
X37198Y103677D01*
X37236Y103617D01*
Y103611D01*
X37247Y103606D01*
X37275Y103567D01*
X37302Y103546D01*
X37329Y103518D01*
X37362Y103491D01*
X37400Y103464D01*
X37444Y103436D01*
X37498Y103409D01*
X37553Y103382D01*
X37618Y103360D01*
X37684Y103338D01*
X37760Y103322D01*
X37842Y103316D01*
X37930Y103311D01*
X37973D01*
X38028Y103316D01*
X38094Y103322D01*
X38170Y103333D01*
X38257Y103355D01*
X38350Y103376D01*
X38448Y103409D01*
X38454D01*
X38459Y103414D01*
X38492Y103426D01*
X38541Y103447D01*
X38607Y103480D01*
X38683Y103518D01*
X38765Y103562D01*
X38847Y103617D01*
X38934Y103677D01*
Y105598D01*
X38923Y105604D01*
X38896Y105615D01*
X38847Y105637D01*
X38787Y105659D01*
X38721Y105686D01*
X38645Y105708D01*
X38563Y105735D01*
X38487Y105751D01*
X38476D01*
X38454Y105757D01*
X38410Y105768D01*
X38361Y105779D01*
X38301Y105784D01*
X38230Y105795D01*
X38083Y105800D01*
D02*
G37*
G36*
X223247Y196905D02*
X223127D01*
X223116D01*
X223089D01*
X223045D01*
X222985Y196899D01*
X222914Y196894D01*
X222832Y196883D01*
X222739Y196872D01*
X222641Y196861D01*
X222537Y196839D01*
X222428Y196817D01*
X222319Y196784D01*
X222210Y196752D01*
X222100Y196708D01*
X221991Y196659D01*
X221887Y196604D01*
X221795Y196539D01*
X221789D01*
X221778Y196528D01*
X221762Y196511D01*
X221740Y196495D01*
X221685Y196440D01*
X221625Y196370D01*
X221565Y196277D01*
X221511Y196173D01*
X221489Y196113D01*
X221472Y196047D01*
X221462Y195982D01*
X221456Y195911D01*
Y195878D01*
X221462Y195840D01*
X221472Y195796D01*
X221483Y195736D01*
X221505Y195676D01*
X221532Y195611D01*
X221571Y195540D01*
X221576Y195534D01*
X221592Y195507D01*
X221620Y195474D01*
X221658Y195430D01*
X221713Y195387D01*
X221778Y195332D01*
X221860Y195283D01*
X221953Y195239D01*
X221958D01*
X221964Y195234D01*
X221980Y195228D01*
X222002Y195223D01*
X222029Y195212D01*
X222062Y195206D01*
X222144Y195185D01*
X222242Y195163D01*
X222362Y195147D01*
X222504Y195136D01*
X222657Y195130D01*
X222663D01*
X222690D01*
X222723D01*
X222772Y195136D01*
X222832Y195141D01*
X222903Y195147D01*
X222979Y195152D01*
X223067Y195163D01*
X223160Y195179D01*
X223252Y195196D01*
X223454Y195245D01*
X223558Y195278D01*
X223656Y195316D01*
X223755Y195354D01*
X223853Y195403D01*
X223858Y195409D01*
X223875Y195414D01*
X223897Y195430D01*
X223929Y195452D01*
X223968Y195480D01*
X224011Y195512D01*
X224055Y195551D01*
X224104Y195594D01*
X224197Y195698D01*
X224241Y195758D01*
X224279Y195824D01*
X224306Y195895D01*
X224333Y195966D01*
X224350Y196047D01*
X224355Y196129D01*
Y196162D01*
X224350Y196184D01*
X224339Y196249D01*
X224323Y196326D01*
X224290Y196413D01*
X224241Y196506D01*
X224208Y196555D01*
X224170Y196599D01*
X224131Y196642D01*
X224082Y196686D01*
X224077D01*
X224071Y196697D01*
X224049Y196708D01*
X224028Y196719D01*
X223995Y196735D01*
X223957Y196757D01*
X223913Y196774D01*
X223858Y196795D01*
X223798Y196817D01*
X223727Y196834D01*
X223651Y196855D01*
X223564Y196872D01*
X223465Y196883D01*
X223361Y196894D01*
X223247Y196905D01*
D02*
G37*
G36*
X220192Y46742D02*
X220186D01*
X220181D01*
X220148D01*
X220099Y46737D01*
X220033D01*
X219952Y46726D01*
X219853Y46715D01*
X219749Y46698D01*
X219635Y46677D01*
X219515Y46649D01*
X219389Y46611D01*
X219264Y46573D01*
X219132Y46518D01*
X219007Y46458D01*
X218887Y46387D01*
X218767Y46305D01*
X218657Y46213D01*
X218652Y46207D01*
X218636Y46191D01*
X218603Y46158D01*
X218570Y46114D01*
X218526Y46065D01*
X218477Y46000D01*
X218428Y45929D01*
X218373Y45841D01*
X218324Y45748D01*
X218275Y45645D01*
X218226Y45535D01*
X218182Y45415D01*
X218144Y45284D01*
X218117Y45148D01*
X218101Y45000D01*
X218095Y44848D01*
Y44793D01*
X218101Y44766D01*
Y44727D01*
X218106Y44646D01*
X218122Y44536D01*
X218139Y44422D01*
X218166Y44285D01*
X218199Y44143D01*
X222196D01*
Y44149D01*
X222201Y44165D01*
X222206Y44187D01*
X222212Y44214D01*
X222217Y44252D01*
X222223Y44296D01*
X222239Y44400D01*
X222261Y44514D01*
X222272Y44640D01*
X222283Y44760D01*
X222288Y44880D01*
Y44919D01*
X222283Y44957D01*
X222277Y45017D01*
X222272Y45082D01*
X222261Y45164D01*
X222239Y45252D01*
X222217Y45350D01*
X222190Y45454D01*
X222152Y45557D01*
X222103Y45667D01*
X222054Y45781D01*
X221988Y45890D01*
X221912Y46005D01*
X221824Y46109D01*
X221726Y46213D01*
X221721Y46218D01*
X221699Y46234D01*
X221666Y46262D01*
X221622Y46294D01*
X221568Y46338D01*
X221497Y46382D01*
X221415Y46426D01*
X221322Y46480D01*
X221218Y46529D01*
X221104Y46573D01*
X220978Y46622D01*
X220841Y46660D01*
X220694Y46693D01*
X220536Y46720D01*
X220366Y46737D01*
X220192Y46742D01*
D02*
G37*
G36*
X219995Y147136D02*
X219989D01*
X219984D01*
X219951D01*
X219902Y147130D01*
X219836D01*
X219755Y147119D01*
X219656Y147108D01*
X219553Y147092D01*
X219438Y147070D01*
X219318Y147043D01*
X219192Y147005D01*
X219067Y146967D01*
X218936Y146912D01*
X218810Y146852D01*
X218690Y146781D01*
X218570Y146699D01*
X218461Y146606D01*
X218455Y146601D01*
X218439Y146584D01*
X218406Y146552D01*
X218373Y146508D01*
X218330Y146459D01*
X218280Y146393D01*
X218231Y146322D01*
X218177Y146235D01*
X218127Y146142D01*
X218078Y146038D01*
X218029Y145929D01*
X217986Y145809D01*
X217947Y145678D01*
X217920Y145542D01*
X217904Y145394D01*
X217898Y145241D01*
Y145187D01*
X217904Y145159D01*
Y145121D01*
X217909Y145039D01*
X217926Y144930D01*
X217942Y144815D01*
X217969Y144679D01*
X218002Y144537D01*
X221999D01*
Y144542D01*
X222004Y144559D01*
X222010Y144581D01*
X222015Y144608D01*
X222021Y144646D01*
X222026Y144690D01*
X222042Y144793D01*
X222064Y144908D01*
X222075Y145034D01*
X222086Y145154D01*
X222092Y145274D01*
Y145312D01*
X222086Y145350D01*
X222081Y145411D01*
X222075Y145476D01*
X222064Y145558D01*
X222042Y145645D01*
X222021Y145744D01*
X221993Y145847D01*
X221955Y145951D01*
X221906Y146060D01*
X221857Y146175D01*
X221791Y146284D01*
X221715Y146399D01*
X221627Y146502D01*
X221529Y146606D01*
X221524Y146612D01*
X221502Y146628D01*
X221469Y146655D01*
X221425Y146688D01*
X221371Y146732D01*
X221300Y146775D01*
X221218Y146819D01*
X221125Y146874D01*
X221021Y146923D01*
X220907Y146967D01*
X220781Y147016D01*
X220645Y147054D01*
X220497Y147087D01*
X220339Y147114D01*
X220170Y147130D01*
X219995Y147136D01*
D02*
G37*
%LPD*%
D10*
X68012Y112244D02*
G03*
X68012Y112244I-492J0D01*
G01*
D11*
X164764Y200098D02*
G03*
X164764Y200492I0J197D01*
G01*
D02*
G03*
X164764Y200098I0J-197D01*
G01*
X126870Y87539D02*
Y109390D01*
X106398Y87539D02*
Y109311D01*
X107520Y119882D02*
X129370D01*
X107520Y140354D02*
X129291D01*
D12*
X92913Y119331D02*
Y170118D01*
X80709Y119331D02*
X92913D01*
X80709Y170118D02*
X92913D01*
X42126Y119331D02*
Y170118D01*
Y119331D02*
X54331D01*
X42126Y170118D02*
X54331D01*
X137894Y107382D02*
X157973D01*
X108563Y218602D02*
X128642D01*
X84941D02*
X105020D01*
X108071Y173457D02*
X128150D01*
X185138Y59350D02*
X205217D01*
X154823Y173457D02*
X174902D01*
X131201Y173457D02*
X151279D01*
X161516Y107382D02*
X181595D01*
X132185Y218602D02*
X152264D01*
X173228Y204232D02*
Y232972D01*
X156299Y204232D02*
Y232972D01*
X61358Y218602D02*
X81437D01*
X185138Y107382D02*
X205217D01*
X161516Y59350D02*
X181595D01*
X137894D02*
X157973D01*
X109449Y143504D02*
X126181D01*
X106398Y153740D02*
X126181D01*
D13*
X134358Y97168D02*
X135013Y97824D01*
Y99136D01*
X134358Y99792D01*
X131734D01*
X131078Y99136D01*
Y97824D01*
X131734Y97168D01*
X130422Y95856D02*
Y93232D01*
X135013Y91920D02*
Y90608D01*
Y91264D01*
X131078D01*
Y91920D01*
Y90608D01*
Y88640D02*
X135013D01*
X131078Y86016D01*
X135013D01*
X134358Y84705D02*
X135013Y84048D01*
Y82737D01*
X134358Y82081D01*
X133702D01*
X133046Y82737D01*
X132390Y82081D01*
X131734D01*
X131078Y82737D01*
Y84048D01*
X131734Y84705D01*
X132390D01*
X133046Y84048D01*
X133702Y84705D01*
X134358D01*
X133046Y84048D02*
Y82737D01*
X132219Y151082D02*
Y147146D01*
X134187D01*
X134843Y147802D01*
Y150426D01*
X134187Y151082D01*
X132219D01*
X136154Y147146D02*
X137466D01*
X136810D01*
Y151082D01*
X136154Y150426D01*
X138911Y140912D02*
Y143536D01*
X138255Y144192D01*
X136943D01*
X136287Y143536D01*
Y140912D01*
X136943Y140257D01*
X138255D01*
X137599Y141569D02*
X138911Y140257D01*
X138255D02*
X138911Y140912D01*
X142847Y140257D02*
X140223D01*
X142847Y142880D01*
Y143536D01*
X142191Y144192D01*
X140879D01*
X140223Y143536D01*
X124508Y78019D02*
Y80643D01*
X123852Y81299D01*
X122540D01*
X121884Y80643D01*
Y78019D01*
X122540Y77363D01*
X123852D01*
X123196Y78675D02*
X124508Y77363D01*
X123852D02*
X124508Y78019D01*
X125820Y77363D02*
X127132D01*
X126476D01*
Y81299D01*
X125820Y80643D01*
X45540Y185760D02*
Y181825D01*
X48164D01*
X49475Y181169D02*
X52099D01*
X56035Y185760D02*
X53411D01*
Y183793D01*
X54723D01*
X53411D01*
Y181825D01*
X64838Y239146D02*
X64182Y239802D01*
X62870D01*
X62214Y239146D01*
Y236522D01*
X62870Y235866D01*
X64182D01*
X64838Y236522D01*
X68118Y239802D02*
X66806D01*
X66150Y239146D01*
Y236522D01*
X66806Y235866D01*
X68118D01*
X68774Y236522D01*
Y239146D01*
X68118Y239802D01*
X70086D02*
Y236522D01*
X70742Y235866D01*
X72054D01*
X72710Y236522D01*
Y239802D01*
X74022D02*
X76645D01*
X75333D01*
Y235866D01*
X77957Y239802D02*
X80581D01*
Y239146D01*
X77957Y236522D01*
Y235866D01*
X88421Y239146D02*
X87765Y239802D01*
X86453D01*
X85797Y239146D01*
Y236522D01*
X86453Y235866D01*
X87765D01*
X88421Y236522D01*
X91701Y239802D02*
X90389D01*
X89733Y239146D01*
Y236522D01*
X90389Y235866D01*
X91701D01*
X92357Y236522D01*
Y239146D01*
X91701Y239802D01*
X93669D02*
Y236522D01*
X94324Y235866D01*
X95636D01*
X96292Y236522D01*
Y239802D01*
X97604D02*
X100228D01*
X98916D01*
Y235866D01*
X104164Y239802D02*
X102852Y239146D01*
X101540Y237834D01*
Y236522D01*
X102196Y235866D01*
X103508D01*
X104164Y236522D01*
Y237178D01*
X103508Y237834D01*
X101540D01*
X112043Y239146D02*
X111387Y239802D01*
X110075D01*
X109419Y239146D01*
Y236522D01*
X110075Y235866D01*
X111387D01*
X112043Y236522D01*
X115323Y239802D02*
X114011D01*
X113355Y239146D01*
Y236522D01*
X114011Y235866D01*
X115323D01*
X115979Y236522D01*
Y239146D01*
X115323Y239802D01*
X117291D02*
Y236522D01*
X117947Y235866D01*
X119258D01*
X119914Y236522D01*
Y239802D01*
X121226D02*
X123850D01*
X122538D01*
Y235866D01*
X127786Y239802D02*
X125162D01*
Y237834D01*
X126474Y238490D01*
X127130D01*
X127786Y237834D01*
Y236522D01*
X127130Y235866D01*
X125818D01*
X125162Y236522D01*
X135665Y239146D02*
X135009Y239802D01*
X133697D01*
X133041Y239146D01*
Y236522D01*
X133697Y235866D01*
X135009D01*
X135665Y236522D01*
X138945Y239802D02*
X137633D01*
X136977Y239146D01*
Y236522D01*
X137633Y235866D01*
X138945D01*
X139601Y236522D01*
Y239146D01*
X138945Y239802D01*
X140913D02*
Y236522D01*
X141569Y235866D01*
X142880D01*
X143536Y236522D01*
Y239802D01*
X144848D02*
X147472D01*
X146160D01*
Y235866D01*
X150752D02*
Y239802D01*
X148784Y237834D01*
X151408D01*
X158303Y193580D02*
X157647Y194236D01*
X156335D01*
X155679Y193580D01*
Y190956D01*
X156335Y190300D01*
X157647D01*
X158303Y190956D01*
X161582Y194236D02*
X160271D01*
X159615Y193580D01*
Y190956D01*
X160271Y190300D01*
X161582D01*
X162238Y190956D01*
Y193580D01*
X161582Y194236D01*
X163550D02*
Y190956D01*
X164206Y190300D01*
X165518D01*
X166174Y190956D01*
Y194236D01*
X167486D02*
X170110D01*
X168798D01*
Y190300D01*
X171422Y193580D02*
X172078Y194236D01*
X173390D01*
X174046Y193580D01*
Y192924D01*
X173390Y192268D01*
X172734D01*
X173390D01*
X174046Y191612D01*
Y190956D01*
X173390Y190300D01*
X172078D01*
X171422Y190956D01*
X134681Y193580D02*
X134025Y194236D01*
X132713D01*
X132057Y193580D01*
Y190956D01*
X132713Y190300D01*
X134025D01*
X134681Y190956D01*
X137960Y194236D02*
X136648D01*
X135993Y193580D01*
Y190956D01*
X136648Y190300D01*
X137960D01*
X138616Y190956D01*
Y193580D01*
X137960Y194236D01*
X139928D02*
Y190956D01*
X140584Y190300D01*
X141896D01*
X142552Y190956D01*
Y194236D01*
X143864D02*
X146488D01*
X145176D01*
Y190300D01*
X150424D02*
X147800D01*
X150424Y192924D01*
Y193580D01*
X149768Y194236D01*
X148456D01*
X147800Y193580D01*
X112207D02*
X111551Y194236D01*
X110239D01*
X109583Y193580D01*
Y190956D01*
X110239Y190300D01*
X111551D01*
X112207Y190956D01*
X115486Y194236D02*
X114174D01*
X113519Y193580D01*
Y190956D01*
X114174Y190300D01*
X115486D01*
X116142Y190956D01*
Y193580D01*
X115486Y194236D01*
X117454D02*
Y190956D01*
X118110Y190300D01*
X119422D01*
X120078Y190956D01*
Y194236D01*
X121390D02*
X124014D01*
X122702D01*
Y190300D01*
X125326D02*
X126638D01*
X125982D01*
Y194236D01*
X125326Y193580D01*
X156236Y245734D02*
X155580Y246390D01*
X154268D01*
X153612Y245734D01*
Y243111D01*
X154268Y242455D01*
X155580D01*
X156236Y243111D01*
X157548Y241799D02*
X160172D01*
X163452Y246390D02*
X162140D01*
X161484Y245734D01*
Y243111D01*
X162140Y242455D01*
X163452D01*
X164108Y243111D01*
Y245734D01*
X163452Y246390D01*
X165420D02*
Y243111D01*
X166076Y242455D01*
X167387D01*
X168043Y243111D01*
Y246390D01*
X169355D02*
X171979D01*
X170667D01*
Y242455D01*
X173291Y246390D02*
Y242455D01*
Y244423D01*
X175915D01*
Y246390D01*
Y242455D01*
X141701Y80675D02*
X141046Y81331D01*
X139734D01*
X139078Y80675D01*
Y78052D01*
X139734Y77395D01*
X141046D01*
X141701Y78052D01*
X143013Y76740D02*
X145637D01*
X146949Y81331D02*
X148261D01*
X147605D01*
Y77395D01*
X146949D01*
X148261D01*
X150229D02*
Y81331D01*
X152853Y77395D01*
Y81331D01*
X156789D02*
X155477Y80675D01*
X154165Y79363D01*
Y78052D01*
X154821Y77395D01*
X156133D01*
X156789Y78052D01*
Y78707D01*
X156133Y79363D01*
X154165D01*
X165324Y80675D02*
X164668Y81331D01*
X163356D01*
X162700Y80675D01*
Y78052D01*
X163356Y77395D01*
X164668D01*
X165324Y78052D01*
X166636Y76740D02*
X169259D01*
X170571Y81331D02*
X171883D01*
X171227D01*
Y77395D01*
X170571D01*
X171883D01*
X173851D02*
Y81331D01*
X176475Y77395D01*
Y81331D01*
X180411D02*
X177787D01*
Y79363D01*
X179099Y80019D01*
X179755D01*
X180411Y79363D01*
Y78052D01*
X179755Y77395D01*
X178443D01*
X177787Y78052D01*
X188946Y80675D02*
X188290Y81331D01*
X186978D01*
X186322Y80675D01*
Y78052D01*
X186978Y77395D01*
X188290D01*
X188946Y78052D01*
X190258Y76740D02*
X192881D01*
X194193Y81331D02*
X195505D01*
X194849D01*
Y77395D01*
X194193D01*
X195505D01*
X197473D02*
Y81331D01*
X200097Y77395D01*
Y81331D01*
X203377Y77395D02*
Y81331D01*
X201409Y79363D01*
X204033D01*
X188946Y128609D02*
X188290Y129265D01*
X186978D01*
X186322Y128609D01*
Y125985D01*
X186978Y125329D01*
X188290D01*
X188946Y125985D01*
X190258Y124673D02*
X192881D01*
X194193Y129265D02*
X195505D01*
X194849D01*
Y125329D01*
X194193D01*
X195505D01*
X197473D02*
Y129265D01*
X200097Y125329D01*
Y129265D01*
X201409Y128609D02*
X202065Y129265D01*
X203377D01*
X204033Y128609D01*
Y127953D01*
X203377Y127297D01*
X202721D01*
X203377D01*
X204033Y126641D01*
Y125985D01*
X203377Y125329D01*
X202065D01*
X201409Y125985D01*
X165324Y128609D02*
X164668Y129265D01*
X163356D01*
X162700Y128609D01*
Y125985D01*
X163356Y125329D01*
X164668D01*
X165324Y125985D01*
X166636Y124673D02*
X169259D01*
X170571Y129265D02*
X171883D01*
X171227D01*
Y125329D01*
X170571D01*
X171883D01*
X173851D02*
Y129265D01*
X176475Y125329D01*
Y129265D01*
X180411Y125329D02*
X177787D01*
X180411Y127953D01*
Y128609D01*
X179755Y129265D01*
X178443D01*
X177787Y128609D01*
X142358D02*
X141701Y129265D01*
X140390D01*
X139734Y128609D01*
Y125985D01*
X140390Y125329D01*
X141701D01*
X142358Y125985D01*
X143669Y124673D02*
X146293D01*
X147605Y129265D02*
X148917D01*
X148261D01*
Y125329D01*
X147605D01*
X148917D01*
X150885D02*
Y129265D01*
X153509Y125329D01*
Y129265D01*
X154821Y125329D02*
X156133D01*
X155477D01*
Y129265D01*
X154821Y128609D01*
M02*
